<?xml version="1.0" encoding="us-ascii" standalone="no"?><svg xmlns="http://www.w3.org/2000/svg" xmlns:xlink="http://www.w3.org/1999/xlink" contentStyleType="text/css" height="248px" preserveAspectRatio="none" style="width:290px;height:248px;background:#FFFFFF;" version="1.1" viewBox="0 0 290 248" width="290px" zoomAndPan="magnify"><defs/><g><text fill="#000000" font-family="sans-serif" font-size="14" font-weight="bold" lengthAdjust="spacing" textLength="257" x="15" y="29.5332">4-Connect - Spielansicht (Wireframe)</text><rect fill="#EEEEEE" height="19.0938" rx="5" ry="5" style="stroke:#000000;stroke-width:2.5;" width="60" x="33" y="64.2031"/><text fill="#000000" font-family="sans-serif" font-size="12" lengthAdjust="spacing" textLength="25" x="50.5" y="78.6602">Hilfe</text><rect fill="#EEEEEE" height="19.0938" rx="5" ry="5" style="stroke:#000000;stroke-width:2.5;" width="76" x="100" y="64.2031"/><text fill="#000000" font-family="sans-serif" font-size="12" lengthAdjust="spacing" textLength="46" x="115" y="78.6602">Sprache</text><line style="stroke:#000000;stroke-width:1.0;" x1="29.5" x2="96.5" y1="53.1563" y2="53.1563"/><line style="stroke:#000000;stroke-width:1.0;" x1="96.5" x2="179.5" y1="86.7969" y2="86.7969"/><line style="stroke:#000000;stroke-width:1.0;" x1="96.5" x2="179.5" y1="53.1563" y2="53.1563"/><line style="stroke:#000000;stroke-width:1.0;" x1="29.5" x2="96.5" y1="86.7969" y2="86.7969"/><line style="stroke:#000000;stroke-width:1.0;" x1="29.5" x2="29.5" y1="53.1563" y2="86.7969"/><line style="stroke:#000000;stroke-width:1.0;" x1="179.5" x2="179.5" y1="53.1563" y2="86.7969"/><rect fill="#FFFFFF" height="15.0938" style="stroke:#FFFFFF;stroke-width:1.0;" width="58" x="35.5" y="45.6094"/><text fill="#000000" font-family="sans-serif" font-size="12" font-weight="bold" lengthAdjust="spacing" textLength="58" x="35.5" y="58.0664">4-Connect</text><text fill="#000000" font-family="sans-serif" font-size="12" font-weight="bold" lengthAdjust="spacing" textLength="41" x="30.5" y="117.3477">Modus:</text><text fill="#000000" font-family="sans-serif" font-size="12" lengthAdjust="spacing" textLength="131" x="74.5" y="117.3477">&lt; "Zwei Spieler" / "Bot" &gt;</text><text fill="#000000" font-family="sans-serif" font-size="12" font-weight="bold" lengthAdjust="spacing" textLength="46" x="30.5" y="136.4414">Am Zug:</text><text fill="#000000" font-family="sans-serif" font-size="12" lengthAdjust="spacing" textLength="178" x="79.5" y="136.4414">&lt; "Spieler 1" / "Spieler 2" / "Bot" &gt;</text><text fill="#000000" font-family="sans-serif" font-size="12" font-weight="bold" lengthAdjust="spacing" textLength="75" x="30.5" y="172.6289">Spielfeld (2D)</text><text fill="#000000" font-family="sans-serif" font-size="12" lengthAdjust="spacing" textLength="174" x="30.5" y="191.7227">Spaltenauswahl durch Antippen</text><rect fill="#EEEEEE" height="19.0938" rx="5" ry="5" style="stroke:#000000;stroke-width:2.5;" width="100" x="33" y="217.9531"/><text fill="#000000" font-family="sans-serif" font-size="12" lengthAdjust="spacing" textLength="70" x="48" y="232.4102">Neue Runde</text><rect fill="#EEEEEE" height="19.0938" rx="5" ry="5" style="stroke:#000000;stroke-width:2.5;" width="76" x="140" y="217.9531"/><text fill="#000000" font-family="sans-serif" font-size="12" lengthAdjust="spacing" textLength="50" x="153" y="232.4102">Beenden</text><line style="stroke:#000000;stroke-width:1.0;" x1="28.5" x2="259.5" y1="44.6094" y2="44.6094"/><line style="stroke:#000000;stroke-width:1.0;" x1="28.5" x2="259.5" y1="241.5469" y2="241.5469"/><line style="stroke:#000000;stroke-width:1.0;" x1="28.5" x2="28.5" y1="44.6094" y2="102.8906"/><line style="stroke:#000000;stroke-width:1.0;" x1="259.5" x2="259.5" y1="44.6094" y2="102.8906"/><line style="stroke:#000000;stroke-width:1.0;" x1="28.5" x2="28.5" y1="213.4531" y2="241.5469"/><line style="stroke:#000000;stroke-width:1.0;" x1="259.5" x2="259.5" y1="213.4531" y2="241.5469"/><line style="stroke:#000000;stroke-width:1.0;" x1="28.5" x2="28.5" y1="177.2656" y2="196.3594"/><line style="stroke:#000000;stroke-width:1.0;" x1="259.5" x2="259.5" y1="177.2656" y2="196.3594"/><line style="stroke:#000000;stroke-width:1.0;" x1="28.5" x2="28.5" y1="141.0781" y2="158.1719"/><line style="stroke:#000000;stroke-width:1.0;" x1="259.5" x2="259.5" y1="141.0781" y2="158.1719"/><line style="stroke:#000000;stroke-width:1.0;" x1="28.5" x2="28.5" y1="102.8906" y2="121.9844"/><line style="stroke:#000000;stroke-width:1.0;" x1="259.5" x2="259.5" y1="102.8906" y2="121.9844"/><line style="stroke:#000000;stroke-width:1.0;" x1="28.5" x2="28.5" y1="196.3594" y2="213.4531"/><line style="stroke:#000000;stroke-width:1.0;" x1="259.5" x2="259.5" y1="196.3594" y2="213.4531"/><line style="stroke:#000000;stroke-width:1.0;" x1="28.5" x2="28.5" y1="158.1719" y2="177.2656"/><line style="stroke:#000000;stroke-width:1.0;" x1="259.5" x2="259.5" y1="158.1719" y2="177.2656"/><line style="stroke:#000000;stroke-width:1.0;" x1="28.5" x2="28.5" y1="121.9844" y2="141.0781"/><line style="stroke:#000000;stroke-width:1.0;" x1="259.5" x2="259.5" y1="121.9844" y2="141.0781"/><!--SRC=[POyz2y8m54Nt_efB9wrKKPn413y65nti82WAeNsrWPY6DC51-zzDOok8oqikdFCUrt0Z2DDuNKf9gK6CH74IJ5OyBGnwHwufr-nE_Q1YmWJF07WEt73F5L7qDQC8BvonvI8dNFm_KPgbHPDgBtmi9-tAp5OpPymHdXx4FpT9XnWXN9KcnA9L6dfvnydUMhmbCVPiboR_vl3hUoWdaQ4tsVJTccvrebmZainM3rO8P5Qd1PRISAL8_gxn4wxJdYpXO6NMbLmHkI1nyKWZrK7z1W00]--></g></svg>