<?xml version="1.0" encoding="us-ascii" standalone="no"?><svg xmlns="http://www.w3.org/2000/svg" xmlns:xlink="http://www.w3.org/1999/xlink" contentStyleType="text/css" height="171px" preserveAspectRatio="none" style="width:353px;height:171px;background:#FFFFFF;" version="1.1" viewBox="0 0 353 171" width="353px" zoomAndPan="magnify"><defs/><g><text fill="#000000" font-family="monospace" font-size="14" font-weight="bold" lengthAdjust="spacing" textLength="256" x="47.5" y="29.0752">4-Connect&#160;-&#160;Ergebnis&#160;(Wireframe)</text><text fill="#000000" font-family="sans-serif" font-size="12" font-weight="bold" lengthAdjust="spacing" textLength="50" x="8" y="59.7363">Ergebnis</text><text fill="#000000" font-family="sans-serif" font-size="12" font-weight="bold" lengthAdjust="spacing" textLength="59" x="8" y="95.9238">Spielende:</text><text fill="#000000" font-family="sans-serif" font-size="12" lengthAdjust="spacing" textLength="336" x="8" y="115.0176">&lt; "Spieler 1 gewinnt" / "Spieler 2 gewinnt" / "Unentschieden" &gt;</text><rect fill="#EEEEEE" height="19.0938" rx="5" ry="5" style="stroke:#000000;stroke-width:2.5;" width="100" x="10.5" y="141.248"/><text fill="#000000" font-family="sans-serif" font-size="12" lengthAdjust="spacing" textLength="70" x="25.5" y="155.7051">Neue Runde</text><rect fill="#EEEEEE" height="19.0938" rx="5" ry="5" style="stroke:#000000;stroke-width:2.5;" width="180" x="117.5" y="141.248"/><text fill="#000000" font-family="sans-serif" font-size="12" lengthAdjust="spacing" textLength="131" x="142" y="155.7051">Zur&#252;ck zum Hauptmen&#252;</text><line style="stroke:#000000;stroke-width:1.0;" x1="6" x2="346" y1="45.2793" y2="45.2793"/><line style="stroke:#000000;stroke-width:1.0;" x1="6" x2="346" y1="164.8418" y2="164.8418"/><line style="stroke:#000000;stroke-width:1.0;" x1="6" x2="6" y1="45.2793" y2="64.373"/><line style="stroke:#000000;stroke-width:1.0;" x1="346" x2="346" y1="64.373" y2="81.4668"/><line style="stroke:#000000;stroke-width:1.0;" x1="346" x2="346" y1="45.2793" y2="64.373"/><line style="stroke:#000000;stroke-width:1.0;" x1="6" x2="6" y1="136.748" y2="164.8418"/><line style="stroke:#000000;stroke-width:1.0;" x1="6" x2="6" y1="119.6543" y2="136.748"/><line style="stroke:#000000;stroke-width:1.0;" x1="346" x2="346" y1="136.748" y2="164.8418"/><line style="stroke:#000000;stroke-width:1.0;" x1="6" x2="6" y1="100.5605" y2="119.6543"/><line style="stroke:#000000;stroke-width:1.0;" x1="346" x2="346" y1="119.6543" y2="136.748"/><line style="stroke:#000000;stroke-width:1.0;" x1="6" x2="6" y1="81.4668" y2="100.5605"/><line style="stroke:#000000;stroke-width:1.0;" x1="346" x2="346" y1="100.5605" y2="119.6543"/><line style="stroke:#000000;stroke-width:1.0;" x1="6" x2="6" y1="64.373" y2="81.4668"/><line style="stroke:#000000;stroke-width:1.0;" x1="346" x2="346" y1="81.4668" y2="100.5605"/><!--SRC=[LOt1Qi9048Rl-nG_ERKfMYmzbT9BgVHI3qeHAXxMvDSk9fEmcQLWp9jvyyLSAofUPfZlcvbVdHR4S- -z4c6cwE73hxWGr-1kwZoNtfQyDwPPEwbj791pQKEXmqfq51s-AgcQscRCuvOjrBG6Q1zYYGrfUlwNfkZ-OV-Y9hLZGSdvSf4jNf6SkCS0A_uv4KtmUALFD_HRADfaluuv9S7RRSWC8mPY7688vjXYXf_WzxjiZKqeyMb3hILblyFyUDUPxW00]--></g></svg>