<?xml version="1.0" encoding="us-ascii" standalone="no"?><svg xmlns="http://www.w3.org/2000/svg" xmlns:xlink="http://www.w3.org/1999/xlink" contentStyleType="text/css" height="1408px" preserveAspectRatio="none" style="width:1210px;height:1408px;background:#FFFFFF;" version="1.1" viewBox="0 0 1210 1408" width="1210px" zoomAndPan="magnify"><defs/><g><text fill="#000000" font-family="monospace" font-size="14" font-weight="bold" lengthAdjust="spacing" textLength="328" x="439.75" y="39.0752">4-Connect&#160;-&#160;Aktivit&#228;tsdiagramm&#160;Spielrunde</text><ellipse cx="503" cy="69.2793" fill="#222222" rx="10" ry="10" style="stroke:#222222;stroke-width:1.0;"/><rect fill="#F1F1F1" height="45.668" rx="12.5" ry="12.5" style="stroke:#181818;stroke-width:0.5;" width="282" x="362" y="99.2793"/><text fill="#000000" font-family="monospace" font-size="12" lengthAdjust="spacing" textLength="252" x="377" y="126.3438">Spiel&#160;im&#160;Hauptmen&#252;&#160;ausw&#228;hlen&#160;(AF-01)</text><rect fill="#F1F1F1" height="45.668" rx="12.5" ry="12.5" style="stroke:#181818;stroke-width:0.5;" width="205" x="400.5" y="164.9473"/><text fill="#000000" font-family="monospace" font-size="12" lengthAdjust="spacing" textLength="175" x="415.5" y="192.0117">Spielmodus&#160;w&#228;hlen&#160;(AF-02)</text><rect fill="#F1F1F1" height="45.668" rx="12.5" ry="12.5" style="stroke:#181818;stroke-width:0.5;" width="177" x="414.5" y="230.6152"/><text fill="#000000" font-family="monospace" font-size="12" lengthAdjust="spacing" textLength="147" x="429.5" y="257.6797">Spielansicht&#160;anzeigen</text><rect fill="#F1F1F1" height="45.668" rx="12.5" ry="12.5" style="stroke:#181818;stroke-width:0.5;" width="184" x="411" y="412.748"/><text fill="#000000" font-family="monospace" font-size="12" lengthAdjust="spacing" textLength="154" x="426" y="439.8125">Hilfe&#160;anzeigen&#160;(AF-05)</text><rect fill="#F1F1F1" height="45.668" rx="12.5" ry="12.5" style="stroke:#181818;stroke-width:0.5;" width="191" x="407.5" y="491.0066"/><text fill="#000000" font-family="monospace" font-size="12" lengthAdjust="spacing" textLength="161" x="422.5" y="518.071">Zur&#252;ck&#160;zur&#160;Spielansicht</text><polygon fill="#F1F1F1" points="428,358.2046,578,358.2046,590,370.3857,578,382.5669,428,382.5669,416,370.3857,428,358.2046" style="stroke:#181818;stroke-width:0.5;"/><text fill="#000000" font-family="monospace" font-size="11" lengthAdjust="spacing" textLength="14" x="512" y="398.626">ja</text><text fill="#000000" font-family="monospace" font-size="11" lengthAdjust="spacing" textLength="140" x="433" y="374.2637">Hilfe-Icon&#160;gedr&#252;ckt?</text><text fill="#000000" font-family="monospace" font-size="11" lengthAdjust="spacing" textLength="28" x="595" y="362.0825">nein</text><polygon fill="#F1F1F1" points="503,556.6746,515,568.6746,503,580.6746,491,568.6746,503,556.6746" style="stroke:#181818;stroke-width:0.5;"/><rect fill="#F1F1F1" height="45.668" rx="12.5" ry="12.5" style="stroke:#181818;stroke-width:0.5;" width="149" x="428.5" y="655.218"/><text fill="#000000" font-family="monospace" font-size="12" lengthAdjust="spacing" textLength="119" x="443.5" y="682.2825">Sprache&#160;ausw&#228;hlen</text><rect fill="#F1F1F1" height="45.668" rx="12.5" ry="12.5" style="stroke:#181818;stroke-width:0.5;" width="191" x="407.5" y="733.4766"/><text fill="#000000" font-family="monospace" font-size="12" lengthAdjust="spacing" textLength="161" x="422.5" y="760.541">Zur&#252;ck&#160;zur&#160;Spielansicht</text><polygon fill="#F1F1F1" points="424.5,600.6746,581.5,600.6746,593.5,612.8557,581.5,625.0369,424.5,625.0369,412.5,612.8557,424.5,600.6746" style="stroke:#181818;stroke-width:0.5;"/><text fill="#000000" font-family="monospace" font-size="11" lengthAdjust="spacing" textLength="14" x="512" y="641.0959">ja</text><text fill="#000000" font-family="monospace" font-size="11" lengthAdjust="spacing" textLength="147" x="429.5" y="616.7336">Sprach-Icon&#160;gedr&#252;ckt?</text><text fill="#000000" font-family="monospace" font-size="11" lengthAdjust="spacing" textLength="28" x="598.5" y="604.5525">nein</text><polygon fill="#F1F1F1" points="503,799.1445,515,811.1445,503,823.1445,491,811.1445,503,799.1445" style="stroke:#181818;stroke-width:0.5;"/><polygon fill="#F1F1F1" points="428,843.1445,578,843.1445,590,855.3257,578,867.5068,428,867.5068,416,855.3257,428,843.1445" style="stroke:#181818;stroke-width:0.5;"/><text fill="#000000" font-family="monospace" font-size="11" lengthAdjust="spacing" textLength="140" x="433" y="859.2036">Neue&#160;Runde&#160;gedr&#252;ckt?</text><text fill="#000000" font-family="monospace" font-size="11" lengthAdjust="spacing" textLength="14" x="397" y="847.0225">ja</text><text fill="#000000" font-family="monospace" font-size="11" lengthAdjust="spacing" textLength="28" x="595" y="847.0225">nein</text><rect fill="#F1F1F1" height="45.668" rx="12.5" ry="12.5" style="stroke:#181818;stroke-width:0.5;" width="261" x="44" y="877.5068"/><text fill="#000000" font-family="monospace" font-size="12" lengthAdjust="spacing" textLength="231" x="59" y="904.5713">Spielzustand&#160;zur&#252;cksetzen&#160;(AF-04)</text><rect fill="#F1F1F1" height="45.668" rx="12.5" ry="12.5" style="stroke:#181818;stroke-width:0.5;" width="177" x="86" y="943.1748"/><text fill="#000000" font-family="monospace" font-size="12" lengthAdjust="spacing" textLength="147" x="101" y="970.2393">Spielansicht&#160;anzeigen</text><rect fill="#F1F1F1" height="45.668" rx="12.5" ry="12.5" style="stroke:#181818;stroke-width:0.5;" width="212" x="725.5" y="877.5068"/><text fill="#000000" font-family="monospace" font-size="12" lengthAdjust="spacing" textLength="182" x="740.5" y="904.5713">Spielzug&#160;ausf&#252;hren&#160;(AF-03)</text><polygon fill="#F1F1F1" points="774,943.1748,889,943.1748,901,955.356,889,967.5371,774,967.5371,762,955.356,774,943.1748" style="stroke:#181818;stroke-width:0.5;"/><text fill="#000000" font-family="monospace" font-size="11" lengthAdjust="spacing" textLength="105" x="779" y="959.2339">Gewinn&#160;erkannt?</text><text fill="#000000" font-family="monospace" font-size="11" lengthAdjust="spacing" textLength="14" x="743" y="947.0527">ja</text><text fill="#000000" font-family="monospace" font-size="11" lengthAdjust="spacing" textLength="28" x="906" y="947.0527">nein</text><rect fill="#F1F1F1" height="61.3359" rx="12.5" ry="12.5" style="stroke:#181818;stroke-width:0.5;" width="569" x="335" y="977.5371"/><text fill="#000000" font-family="monospace" font-size="12" lengthAdjust="spacing" textLength="189" x="350" y="1004.6016">Ergebnisbildschirm&#160;anzeigen</text><text fill="#000000" font-family="monospace" font-size="12" lengthAdjust="spacing" textLength="539" x="350" y="1020.2695">("Spieler&#160;1&#160;gewinnt"&#160;/&#160;"Spieler&#160;2&#160;gewinnt"&#160;/&#160;"Bot&#160;gewinnt"&#160;/&#160;"Unentschieden")</text><rect fill="#F1F1F1" height="61.3359" rx="12.5" ry="12.5" style="stroke:#181818;stroke-width:0.5;" width="219" x="934" y="1032.0806"/><text fill="#000000" font-family="monospace" font-size="12" lengthAdjust="spacing" textLength="189" x="949" y="1059.145">Ergebnisbildschirm&#160;anzeigen</text><text fill="#000000" font-family="monospace" font-size="12" lengthAdjust="spacing" textLength="119" x="949" y="1074.813">("Unentschieden")</text><polygon fill="#F1F1F1" points="961.5,977.5371,1125.5,977.5371,1137.5,989.7183,1125.5,1001.8994,961.5,1001.8994,949.5,989.7183,961.5,977.5371" style="stroke:#181818;stroke-width:0.5;"/><text fill="#000000" font-family="monospace" font-size="11" lengthAdjust="spacing" textLength="14" x="1052.5" y="1017.9585">ja</text><text fill="#000000" font-family="monospace" font-size="11" lengthAdjust="spacing" textLength="154" x="966.5" y="993.5962">Unentschieden&#160;erkannt?</text><text fill="#000000" font-family="monospace" font-size="11" lengthAdjust="spacing" textLength="28" x="1142.5" y="981.415">nein</text><polygon fill="#F1F1F1" points="503,1144.158,515,1156.158,503,1168.158,491,1156.158,503,1144.158" style="stroke:#181818;stroke-width:0.5;"/><polygon fill="#F1F1F1" points="456,296.2832,550,296.2832,562,308.4644,550,320.6455,456,320.6455,444,308.4644,456,296.2832" style="stroke:#181818;stroke-width:0.5;"/><text fill="#000000" font-family="monospace" font-size="11" lengthAdjust="spacing" textLength="14" x="512" y="336.7046">ja</text><text fill="#000000" font-family="monospace" font-size="11" lengthAdjust="spacing" textLength="84" x="461" y="312.3423">Spiel&#160;aktiv?</text><text fill="#000000" font-family="monospace" font-size="11" lengthAdjust="spacing" textLength="28" x="411" y="300.1611">nein</text><polygon fill="#F1F1F1" points="417.5,1210.158,588.5,1210.158,600.5,1222.3391,588.5,1234.5203,417.5,1234.5203,405.5,1222.3391,417.5,1210.158" style="stroke:#181818;stroke-width:0.5;"/><text fill="#000000" font-family="monospace" font-size="11" lengthAdjust="spacing" textLength="161" x="422.5" y="1226.217">Neue&#160;Runde&#160;im&#160;Ergebnis?</text><text fill="#000000" font-family="monospace" font-size="11" lengthAdjust="spacing" textLength="14" x="386.5" y="1214.0359">ja</text><text fill="#000000" font-family="monospace" font-size="11" lengthAdjust="spacing" textLength="140" x="605.5" y="1214.0359">Zur&#252;ck&#160;zum&#160;Hauptmen&#252;</text><rect fill="#F1F1F1" height="45.668" rx="12.5" ry="12.5" style="stroke:#181818;stroke-width:0.5;" width="261" x="258.25" y="1244.5203"/><text fill="#000000" font-family="monospace" font-size="12" lengthAdjust="spacing" textLength="231" x="273.25" y="1271.5847">Spielzustand&#160;zur&#252;cksetzen&#160;(AF-04)</text><rect fill="#F1F1F1" height="45.668" rx="12.5" ry="12.5" style="stroke:#181818;stroke-width:0.5;" width="177" x="300.25" y="1310.1882"/><text fill="#000000" font-family="monospace" font-size="12" lengthAdjust="spacing" textLength="147" x="315.25" y="1337.2527">Spielansicht&#160;anzeigen</text><ellipse cx="388.75" cy="1386.8562" fill="none" rx="11" ry="11" style="stroke:#222222;stroke-width:1.0;"/><ellipse cx="388.75" cy="1386.8562" fill="#222222" rx="6" ry="6" style="stroke:#222222;stroke-width:1.0;"/><rect fill="#F1F1F1" height="45.668" rx="12.5" ry="12.5" style="stroke:#181818;stroke-width:0.5;" width="156" x="539.25" y="1244.5203"/><text fill="#000000" font-family="monospace" font-size="12" lengthAdjust="spacing" textLength="126" x="554.25" y="1271.5847">Hauptmen&#252;&#160;anzeigen</text><ellipse cx="617.25" cy="1321.1882" fill="none" rx="11" ry="11" style="stroke:#222222;stroke-width:1.0;"/><ellipse cx="617.25" cy="1321.1882" fill="#222222" rx="6" ry="6" style="stroke:#222222;stroke-width:1.0;"/><line style="stroke:#181818;stroke-width:1.0;" x1="503" x2="503" y1="79.2793" y2="99.2793"/><polygon fill="#181818" points="499,89.2793,503,99.2793,507,89.2793,503,93.2793" style="stroke:#181818;stroke-width:1.0;"/><line style="stroke:#181818;stroke-width:1.0;" x1="503" x2="503" y1="144.9473" y2="164.9473"/><polygon fill="#181818" points="499,154.9473,503,164.9473,507,154.9473,503,158.9473" style="stroke:#181818;stroke-width:1.0;"/><line style="stroke:#181818;stroke-width:1.0;" x1="503" x2="503" y1="210.6152" y2="230.6152"/><polygon fill="#181818" points="499,220.6152,503,230.6152,507,220.6152,503,224.6152" style="stroke:#181818;stroke-width:1.0;"/><line style="stroke:#181818;stroke-width:1.0;" x1="503" x2="503" y1="458.416" y2="491.0066"/><polygon fill="#181818" points="499,481.0066,503,491.0066,507,481.0066,503,485.0066" style="stroke:#181818;stroke-width:1.0;"/><line style="stroke:#181818;stroke-width:1.0;" x1="503" x2="503" y1="382.5669" y2="412.748"/><polygon fill="#181818" points="499,402.748,503,412.748,507,402.748,503,406.748" style="stroke:#181818;stroke-width:1.0;"/><line style="stroke:#181818;stroke-width:1.0;" x1="590" x2="608.5" y1="370.3857" y2="370.3857"/><polygon fill="#181818" points="604.5,468.416,608.5,478.416,612.5,468.416,608.5,472.416" style="stroke:#181818;stroke-width:1.0;"/><line style="stroke:#181818;stroke-width:1.0;" x1="608.5" x2="608.5" y1="370.3857" y2="568.6746"/><line style="stroke:#181818;stroke-width:1.0;" x1="608.5" x2="515" y1="568.6746" y2="568.6746"/><polygon fill="#181818" points="525,564.6746,515,568.6746,525,572.6746,521,568.6746" style="stroke:#181818;stroke-width:1.0;"/><line style="stroke:#181818;stroke-width:1.0;" x1="503" x2="503" y1="536.6746" y2="556.6746"/><polygon fill="#181818" points="499,546.6746,503,556.6746,507,546.6746,503,550.6746" style="stroke:#181818;stroke-width:1.0;"/><line style="stroke:#181818;stroke-width:1.0;" x1="503" x2="503" y1="700.886" y2="733.4766"/><polygon fill="#181818" points="499,723.4766,503,733.4766,507,723.4766,503,727.4766" style="stroke:#181818;stroke-width:1.0;"/><line style="stroke:#181818;stroke-width:1.0;" x1="503" x2="503" y1="625.0369" y2="655.218"/><polygon fill="#181818" points="499,645.218,503,655.218,507,645.218,503,649.218" style="stroke:#181818;stroke-width:1.0;"/><line style="stroke:#181818;stroke-width:1.0;" x1="593.5" x2="608.5" y1="612.8557" y2="612.8557"/><polygon fill="#181818" points="604.5,710.886,608.5,720.886,612.5,710.886,608.5,714.886" style="stroke:#181818;stroke-width:1.0;"/><line style="stroke:#181818;stroke-width:1.0;" x1="608.5" x2="608.5" y1="612.8557" y2="811.1445"/><line style="stroke:#181818;stroke-width:1.0;" x1="608.5" x2="515" y1="811.1445" y2="811.1445"/><polygon fill="#181818" points="525,807.1445,515,811.1445,525,815.1445,521,811.1445" style="stroke:#181818;stroke-width:1.0;"/><line style="stroke:#181818;stroke-width:1.0;" x1="503" x2="503" y1="779.1445" y2="799.1445"/><polygon fill="#181818" points="499,789.1445,503,799.1445,507,789.1445,503,793.1445" style="stroke:#181818;stroke-width:1.0;"/><line style="stroke:#181818;stroke-width:1.0;" x1="503" x2="503" y1="580.6746" y2="600.6746"/><polygon fill="#181818" points="499,590.6746,503,600.6746,507,590.6746,503,594.6746" style="stroke:#181818;stroke-width:1.0;"/><line style="stroke:#181818;stroke-width:1.0;" x1="174.5" x2="174.5" y1="923.1748" y2="943.1748"/><polygon fill="#181818" points="170.5,933.1748,174.5,943.1748,178.5,933.1748,174.5,937.1748" style="stroke:#181818;stroke-width:1.0;"/><line style="stroke:#181818;stroke-width:1.0;" x1="619.5" x2="619.5" y1="1038.873" y2="1073.873"/><line style="stroke:#181818;stroke-width:1.0;" x1="619.5" x2="24" y1="1073.873" y2="1073.873"/><polygon fill="#181818" points="34,1069.873,24,1073.873,34,1077.873,30,1073.873" style="stroke:#181818;stroke-width:1.0;"/><line style="stroke:#181818;stroke-width:1.0;" x1="1043.5" x2="1043.5" y1="1093.4165" y2="1108.158"/><line style="stroke:#181818;stroke-width:1.0;" x1="1043.5" x2="24" y1="1108.158" y2="1108.158"/><polygon fill="#181818" points="34,1104.158,24,1108.158,34,1112.158,30,1108.158" style="stroke:#181818;stroke-width:1.0;"/><line style="stroke:#181818;stroke-width:1.0;" x1="1043.5" x2="1043.5" y1="1001.8994" y2="1032.0806"/><polygon fill="#181818" points="1039.5,1022.0806,1043.5,1032.0806,1047.5,1022.0806,1043.5,1026.0806" style="stroke:#181818;stroke-width:1.0;"/><line style="stroke:#181818;stroke-width:1.0;" x1="1137.5" x2="1163" y1="989.7183" y2="989.7183"/><polygon fill="#181818" points="1159,1084.158,1163,1094.158,1167,1084.158,1163,1088.158" style="stroke:#181818;stroke-width:1.0;"/><line style="stroke:#181818;stroke-width:1.0;" x1="1163" x2="1163" y1="989.7183" y2="1156.158"/><line style="stroke:#181818;stroke-width:1.0;" x1="1163" x2="515" y1="1156.158" y2="1156.158"/><polygon fill="#181818" points="525,1152.158,515,1156.158,525,1160.158,521,1156.158" style="stroke:#181818;stroke-width:1.0;"/><line style="stroke:#181818;stroke-width:1.0;" x1="762" x2="619.5" y1="955.356" y2="955.356"/><line style="stroke:#181818;stroke-width:1.0;" x1="619.5" x2="619.5" y1="955.356" y2="977.5371"/><polygon fill="#181818" points="615.5,967.5371,619.5,977.5371,623.5,967.5371,619.5,971.5371" style="stroke:#181818;stroke-width:1.0;"/><line style="stroke:#181818;stroke-width:1.0;" x1="901" x2="1043.5" y1="955.356" y2="955.356"/><line style="stroke:#181818;stroke-width:1.0;" x1="1043.5" x2="1043.5" y1="955.356" y2="977.5371"/><polygon fill="#181818" points="1039.5,967.5371,1043.5,977.5371,1047.5,967.5371,1043.5,971.5371" style="stroke:#181818;stroke-width:1.0;"/><line style="stroke:#181818;stroke-width:1.0;" x1="831.5" x2="831.5" y1="923.1748" y2="943.1748"/><polygon fill="#181818" points="827.5,933.1748,831.5,943.1748,835.5,933.1748,831.5,937.1748" style="stroke:#181818;stroke-width:1.0;"/><line style="stroke:#181818;stroke-width:1.0;" x1="416" x2="174.5" y1="855.3257" y2="855.3257"/><line style="stroke:#181818;stroke-width:1.0;" x1="174.5" x2="174.5" y1="855.3257" y2="877.5068"/><polygon fill="#181818" points="170.5,867.5068,174.5,877.5068,178.5,867.5068,174.5,871.5068" style="stroke:#181818;stroke-width:1.0;"/><line style="stroke:#181818;stroke-width:1.0;" x1="590" x2="831.5" y1="855.3257" y2="855.3257"/><line style="stroke:#181818;stroke-width:1.0;" x1="831.5" x2="831.5" y1="855.3257" y2="877.5068"/><polygon fill="#181818" points="827.5,867.5068,831.5,877.5068,835.5,867.5068,831.5,871.5068" style="stroke:#181818;stroke-width:1.0;"/><line style="stroke:#181818;stroke-width:1.0;" x1="174.5" x2="174.5" y1="988.8428" y2="1156.158"/><line style="stroke:#181818;stroke-width:1.0;" x1="174.5" x2="491" y1="1156.158" y2="1156.158"/><polygon fill="#181818" points="481,1152.158,491,1156.158,481,1160.158,485,1156.158" style="stroke:#181818;stroke-width:1.0;"/><line style="stroke:#181818;stroke-width:1.0;" x1="503" x2="503" y1="823.1445" y2="843.1445"/><polygon fill="#181818" points="499,833.1445,503,843.1445,507,833.1445,503,837.1445" style="stroke:#181818;stroke-width:1.0;"/><line style="stroke:#181818;stroke-width:1.0;" x1="503" x2="503" y1="320.6455" y2="358.2046"/><polygon fill="#181818" points="499,348.2046,503,358.2046,507,348.2046,503,352.2046" style="stroke:#181818;stroke-width:1.0;"/><line style="stroke:#181818;stroke-width:1.0;" x1="503" x2="503" y1="1168.158" y2="1178.158"/><line style="stroke:#181818;stroke-width:1.0;" x1="503" x2="1184.5" y1="1178.158" y2="1178.158"/><polygon fill="#181818" points="1180.5,775.22,1184.5,765.22,1188.5,775.22,1184.5,771.22" style="stroke:#181818;stroke-width:1.0;"/><line style="stroke:#181818;stroke-width:1.0;" x1="1184.5" x2="1184.5" y1="308.4644" y2="1178.158"/><line style="stroke:#181818;stroke-width:1.0;" x1="1184.5" x2="562" y1="308.4644" y2="308.4644"/><polygon fill="#181818" points="572,304.4644,562,308.4644,572,312.4644,568,308.4644" style="stroke:#181818;stroke-width:1.0;"/><line style="stroke:#181818;stroke-width:1.0;" x1="444" x2="24" y1="308.4644" y2="308.4644"/><polygon fill="#181818" points="20,766.22,24,776.22,28,766.22,24,770.22" style="stroke:#181818;stroke-width:1.0;"/><line style="stroke:#181818;stroke-width:1.0;" x1="24" x2="24" y1="308.4644" y2="1195.158"/><line style="stroke:#181818;stroke-width:1.0;" x1="24" x2="503" y1="1195.158" y2="1195.158"/><line style="stroke:#181818;stroke-width:1.0;" x1="503" x2="503" y1="1195.158" y2="1210.158"/><polygon fill="#181818" points="499,1200.158,503,1210.158,507,1200.158,503,1204.158" style="stroke:#181818;stroke-width:1.0;"/><line style="stroke:#181818;stroke-width:1.0;" x1="503" x2="503" y1="276.2832" y2="296.2832"/><polygon fill="#181818" points="499,286.2832,503,296.2832,507,286.2832,503,290.2832" style="stroke:#181818;stroke-width:1.0;"/><line style="stroke:#181818;stroke-width:1.0;" x1="388.75" x2="388.75" y1="1290.1882" y2="1310.1882"/><polygon fill="#181818" points="384.75,1300.1882,388.75,1310.1882,392.75,1300.1882,388.75,1304.1882" style="stroke:#181818;stroke-width:1.0;"/><line style="stroke:#181818;stroke-width:1.0;" x1="388.75" x2="388.75" y1="1355.8562" y2="1375.8562"/><polygon fill="#181818" points="384.75,1365.8562,388.75,1375.8562,392.75,1365.8562,388.75,1369.8562" style="stroke:#181818;stroke-width:1.0;"/><line style="stroke:#181818;stroke-width:1.0;" x1="617.25" x2="617.25" y1="1290.1882" y2="1310.1882"/><polygon fill="#181818" points="613.25,1300.1882,617.25,1310.1882,621.25,1300.1882,617.25,1304.1882" style="stroke:#181818;stroke-width:1.0;"/><line style="stroke:#181818;stroke-width:1.0;" x1="405.5" x2="388.75" y1="1222.3391" y2="1222.3391"/><line style="stroke:#181818;stroke-width:1.0;" x1="388.75" x2="388.75" y1="1222.3391" y2="1244.5203"/><polygon fill="#181818" points="384.75,1234.5203,388.75,1244.5203,392.75,1234.5203,388.75,1238.5203" style="stroke:#181818;stroke-width:1.0;"/><line style="stroke:#181818;stroke-width:1.0;" x1="600.5" x2="617.25" y1="1222.3391" y2="1222.3391"/><line style="stroke:#181818;stroke-width:1.0;" x1="617.25" x2="617.25" y1="1222.3391" y2="1244.5203"/><polygon fill="#181818" points="613.25,1234.5203,617.25,1244.5203,621.25,1234.5203,617.25,1238.5203" style="stroke:#181818;stroke-width:1.0;"/><!--SRC=[fLCzRzj03DtlLn2UvC6edOyb6OAqQ9eEpT2WIz7bhACaLX8bt54ruD-Jd-5DVwntakL8JfmKwA8FyjrxZpnII0g4YyMdYXbZWGNSva9_IDedSOPqQdLPmcDDMDY63IgbN4vSQny7Wubk2hchM1vqYV2juihLEaOp0d5bq64DvylbA6ervo6wcaHhRGnn2fT1HhGLTTL90vLmhvjQIkHs1xfnc_OfAv0XkhrRB5Vpwpsmh4pZO98yEoGrEuep0SrRf1JvMgbDHhxyg1VHeVAREP23wBUUAm1A8Bgd8i75rxXYID7OTXVdua6I1O4U1d3LeGxClVAbL-wIFvlk66mR2sCdVHeBvoqm4WSkP4E9sci_rbR7sRlYFGn7VVbVuGTi4Bw72tzRrrDk6tzJR896W3cKxT20Yw419zf_RE6PCWsr9EqkimFNkUVg8C7U5zmGCw3DDVDBOvxdiqrnpUJML1WNPsJBW-ulZcQT35fO-V82bSpW0noYPvFenqec_pyOMG8d6kJPlaI0jKMTlzBNmVFas1lMtpT_mi3Omkis-YiUV_Ll_zmlGezMHoFWjs-mT6Ju7qVWz00ugMhLEtqUrl6oTohZtNznk2lXBm00]--></g></svg>