<?xml version="1.0" encoding="us-ascii" standalone="no"?><svg xmlns="http://www.w3.org/2000/svg" xmlns:xlink="http://www.w3.org/1999/xlink" contentStyleType="text/css" height="1408px" preserveAspectRatio="none" style="width:1091px;height:1408px;background:#FFFFFF;" version="1.1" viewBox="0 0 1091 1408" width="1091px" zoomAndPan="magnify"><defs/><g><text fill="#000000" font-family="monospace" font-size="14" font-weight="bold" lengthAdjust="spacing" textLength="328" x="380.25" y="39.0752">4-Connect&#160;-&#160;Aktivit&#228;tsdiagramm&#160;Spielrunde</text><ellipse cx="461" cy="69.2793" fill="#222222" rx="10" ry="10" style="stroke:#222222;stroke-width:1.0;"/><rect fill="#F1F1F1" height="45.668" rx="12.5" ry="12.5" style="stroke:#181818;stroke-width:0.5;" width="282" x="320" y="99.2793"/><text fill="#000000" font-family="monospace" font-size="12" lengthAdjust="spacing" textLength="252" x="335" y="126.3438">Spiel&#160;im&#160;Hauptmen&#252;&#160;ausw&#228;hlen&#160;(AF-01)</text><rect fill="#F1F1F1" height="45.668" rx="12.5" ry="12.5" style="stroke:#181818;stroke-width:0.5;" width="205" x="358.5" y="164.9473"/><text fill="#000000" font-family="monospace" font-size="12" lengthAdjust="spacing" textLength="175" x="373.5" y="192.0117">Spielmodus&#160;w&#228;hlen&#160;(AF-02)</text><rect fill="#F1F1F1" height="45.668" rx="12.5" ry="12.5" style="stroke:#181818;stroke-width:0.5;" width="177" x="372.5" y="230.6152"/><text fill="#000000" font-family="monospace" font-size="12" lengthAdjust="spacing" textLength="147" x="387.5" y="257.6797">Spielansicht&#160;anzeigen</text><rect fill="#F1F1F1" height="45.668" rx="12.5" ry="12.5" style="stroke:#181818;stroke-width:0.5;" width="184" x="369" y="412.748"/><text fill="#000000" font-family="monospace" font-size="12" lengthAdjust="spacing" textLength="154" x="384" y="439.8125">Hilfe&#160;anzeigen&#160;(AF-05)</text><rect fill="#F1F1F1" height="45.668" rx="12.5" ry="12.5" style="stroke:#181818;stroke-width:0.5;" width="198" x="362" y="491.0066"/><text fill="#000000" font-family="monospace" font-size="12" lengthAdjust="spacing" textLength="168" x="377" y="518.071">Zurueck&#160;zur&#160;Spielansicht</text><polygon fill="#F1F1F1" points="386,358.2046,536,358.2046,548,370.3857,536,382.5669,386,382.5669,374,370.3857,386,358.2046" style="stroke:#181818;stroke-width:0.5;"/><text fill="#000000" font-family="monospace" font-size="11" lengthAdjust="spacing" textLength="14" x="470" y="398.626">ja</text><text fill="#000000" font-family="monospace" font-size="11" lengthAdjust="spacing" textLength="140" x="391" y="374.2637">Hilfe-Icon&#160;gedr&#252;ckt?</text><text fill="#000000" font-family="monospace" font-size="11" lengthAdjust="spacing" textLength="28" x="553" y="362.0825">nein</text><polygon fill="#F1F1F1" points="461,556.6746,473,568.6746,461,580.6746,449,568.6746,461,556.6746" style="stroke:#181818;stroke-width:0.5;"/><rect fill="#F1F1F1" height="45.668" rx="12.5" ry="12.5" style="stroke:#181818;stroke-width:0.5;" width="156" x="383" y="655.218"/><text fill="#000000" font-family="monospace" font-size="12" lengthAdjust="spacing" textLength="126" x="398" y="682.2825">Sprache&#160;auswaehlen</text><rect fill="#F1F1F1" height="45.668" rx="12.5" ry="12.5" style="stroke:#181818;stroke-width:0.5;" width="198" x="362" y="733.4766"/><text fill="#000000" font-family="monospace" font-size="12" lengthAdjust="spacing" textLength="168" x="377" y="760.541">Zurueck&#160;zur&#160;Spielansicht</text><polygon fill="#F1F1F1" points="382.5,600.6746,539.5,600.6746,551.5,612.8557,539.5,625.0369,382.5,625.0369,370.5,612.8557,382.5,600.6746" style="stroke:#181818;stroke-width:0.5;"/><text fill="#000000" font-family="monospace" font-size="11" lengthAdjust="spacing" textLength="14" x="470" y="641.0959">ja</text><text fill="#000000" font-family="monospace" font-size="11" lengthAdjust="spacing" textLength="147" x="387.5" y="616.7336">Sprach-Icon&#160;gedr&#252;ckt?</text><text fill="#000000" font-family="monospace" font-size="11" lengthAdjust="spacing" textLength="28" x="556.5" y="604.5525">nein</text><polygon fill="#F1F1F1" points="461,799.1445,473,811.1445,461,823.1445,449,811.1445,461,799.1445" style="stroke:#181818;stroke-width:0.5;"/><polygon fill="#F1F1F1" points="386,843.1445,536,843.1445,548,855.3257,536,867.5068,386,867.5068,374,855.3257,386,843.1445" style="stroke:#181818;stroke-width:0.5;"/><text fill="#000000" font-family="monospace" font-size="11" lengthAdjust="spacing" textLength="140" x="391" y="859.2036">Neue&#160;Runde&#160;gedr&#252;ckt?</text><text fill="#000000" font-family="monospace" font-size="11" lengthAdjust="spacing" textLength="14" x="355" y="847.0225">ja</text><text fill="#000000" font-family="monospace" font-size="11" lengthAdjust="spacing" textLength="28" x="553" y="847.0225">nein</text><rect fill="#F1F1F1" height="45.668" rx="12.5" ry="12.5" style="stroke:#181818;stroke-width:0.5;" width="268" x="44" y="877.5068"/><text fill="#000000" font-family="monospace" font-size="12" lengthAdjust="spacing" textLength="238" x="59" y="904.5713">Spielzustand&#160;zuruecksetzen&#160;(AF-04)</text><rect fill="#F1F1F1" height="45.668" rx="12.5" ry="12.5" style="stroke:#181818;stroke-width:0.5;" width="177" x="89.5" y="943.1748"/><text fill="#000000" font-family="monospace" font-size="12" lengthAdjust="spacing" textLength="147" x="104.5" y="970.2393">Spielansicht&#160;anzeigen</text><rect fill="#F1F1F1" height="45.668" rx="12.5" ry="12.5" style="stroke:#181818;stroke-width:0.5;" width="219" x="634.5" y="877.5068"/><text fill="#000000" font-family="monospace" font-size="12" lengthAdjust="spacing" textLength="189" x="649.5" y="904.5713">Spielzug&#160;ausfuehren&#160;(AF-03)</text><polygon fill="#F1F1F1" points="686.5,943.1748,801.5,943.1748,813.5,955.356,801.5,967.5371,686.5,967.5371,674.5,955.356,686.5,943.1748" style="stroke:#181818;stroke-width:0.5;"/><text fill="#000000" font-family="monospace" font-size="11" lengthAdjust="spacing" textLength="105" x="691.5" y="959.2339">Gewinn&#160;erkannt?</text><text fill="#000000" font-family="monospace" font-size="11" lengthAdjust="spacing" textLength="14" x="655.5" y="947.0527">ja</text><text fill="#000000" font-family="monospace" font-size="11" lengthAdjust="spacing" textLength="28" x="818.5" y="947.0527">nein</text><rect fill="#F1F1F1" height="61.3359" rx="12.5" ry="12.5" style="stroke:#181818;stroke-width:0.5;" width="443" x="342" y="977.5371"/><text fill="#000000" font-family="monospace" font-size="12" lengthAdjust="spacing" textLength="189" x="357" y="1004.6016">Ergebnisbildschirm&#160;anzeigen</text><text fill="#000000" font-family="monospace" font-size="12" lengthAdjust="spacing" textLength="413" x="357" y="1020.2695">("Spieler&#160;1&#160;gewinnt"&#160;/&#160;"Spieler&#160;2&#160;gewinnt"&#160;/&#160;"BOT&#160;gewinnt")</text><rect fill="#F1F1F1" height="61.3359" rx="12.5" ry="12.5" style="stroke:#181818;stroke-width:0.5;" width="219" x="815" y="1032.0806"/><text fill="#000000" font-family="monospace" font-size="12" lengthAdjust="spacing" textLength="189" x="830" y="1059.145">Ergebnisbildschirm&#160;anzeigen</text><text fill="#000000" font-family="monospace" font-size="12" lengthAdjust="spacing" textLength="119" x="830" y="1074.813">("Unentschieden")</text><polygon fill="#F1F1F1" points="842.5,977.5371,1006.5,977.5371,1018.5,989.7183,1006.5,1001.8994,842.5,1001.8994,830.5,989.7183,842.5,977.5371" style="stroke:#181818;stroke-width:0.5;"/><text fill="#000000" font-family="monospace" font-size="11" lengthAdjust="spacing" textLength="14" x="933.5" y="1017.9585">ja</text><text fill="#000000" font-family="monospace" font-size="11" lengthAdjust="spacing" textLength="154" x="847.5" y="993.5962">Unentschieden&#160;erkannt?</text><text fill="#000000" font-family="monospace" font-size="11" lengthAdjust="spacing" textLength="28" x="1023.5" y="981.415">nein</text><polygon fill="#F1F1F1" points="461,1144.158,473,1156.158,461,1168.158,449,1156.158,461,1144.158" style="stroke:#181818;stroke-width:0.5;"/><polygon fill="#F1F1F1" points="414,296.2832,508,296.2832,520,308.4644,508,320.6455,414,320.6455,402,308.4644,414,296.2832" style="stroke:#181818;stroke-width:0.5;"/><text fill="#000000" font-family="monospace" font-size="11" lengthAdjust="spacing" textLength="14" x="470" y="336.7046">ja</text><text fill="#000000" font-family="monospace" font-size="11" lengthAdjust="spacing" textLength="84" x="419" y="312.3423">Spiel&#160;aktiv?</text><text fill="#000000" font-family="monospace" font-size="11" lengthAdjust="spacing" textLength="28" x="369" y="300.1611">nein</text><polygon fill="#F1F1F1" points="375.5,1210.158,546.5,1210.158,558.5,1222.3391,546.5,1234.5203,375.5,1234.5203,363.5,1222.3391,375.5,1210.158" style="stroke:#181818;stroke-width:0.5;"/><text fill="#000000" font-family="monospace" font-size="11" lengthAdjust="spacing" textLength="161" x="380.5" y="1226.217">Neue&#160;Runde&#160;im&#160;Ergebnis?</text><text fill="#000000" font-family="monospace" font-size="11" lengthAdjust="spacing" textLength="14" x="344.5" y="1214.0359">ja</text><text fill="#000000" font-family="monospace" font-size="11" lengthAdjust="spacing" textLength="140" x="563.5" y="1214.0359">Zur&#252;ck&#160;zum&#160;Hauptmen&#252;</text><rect fill="#F1F1F1" height="45.668" rx="12.5" ry="12.5" style="stroke:#181818;stroke-width:0.5;" width="261" x="216.25" y="1244.5203"/><text fill="#000000" font-family="monospace" font-size="12" lengthAdjust="spacing" textLength="231" x="231.25" y="1271.5847">Spielzustand&#160;zur&#252;cksetzen&#160;(AF-04)</text><rect fill="#F1F1F1" height="45.668" rx="12.5" ry="12.5" style="stroke:#181818;stroke-width:0.5;" width="177" x="258.25" y="1310.1882"/><text fill="#000000" font-family="monospace" font-size="12" lengthAdjust="spacing" textLength="147" x="273.25" y="1337.2527">Spielansicht&#160;anzeigen</text><ellipse cx="346.75" cy="1386.8562" fill="none" rx="11" ry="11" style="stroke:#222222;stroke-width:1.0;"/><ellipse cx="346.75" cy="1386.8562" fill="#222222" rx="6" ry="6" style="stroke:#222222;stroke-width:1.0;"/><rect fill="#F1F1F1" height="45.668" rx="12.5" ry="12.5" style="stroke:#181818;stroke-width:0.5;" width="156" x="497.25" y="1244.5203"/><text fill="#000000" font-family="monospace" font-size="12" lengthAdjust="spacing" textLength="126" x="512.25" y="1271.5847">Hauptmen&#252;&#160;anzeigen</text><ellipse cx="575.25" cy="1321.1882" fill="none" rx="11" ry="11" style="stroke:#222222;stroke-width:1.0;"/><ellipse cx="575.25" cy="1321.1882" fill="#222222" rx="6" ry="6" style="stroke:#222222;stroke-width:1.0;"/><line style="stroke:#181818;stroke-width:1.0;" x1="461" x2="461" y1="79.2793" y2="99.2793"/><polygon fill="#181818" points="457,89.2793,461,99.2793,465,89.2793,461,93.2793" style="stroke:#181818;stroke-width:1.0;"/><line style="stroke:#181818;stroke-width:1.0;" x1="461" x2="461" y1="144.9473" y2="164.9473"/><polygon fill="#181818" points="457,154.9473,461,164.9473,465,154.9473,461,158.9473" style="stroke:#181818;stroke-width:1.0;"/><line style="stroke:#181818;stroke-width:1.0;" x1="461" x2="461" y1="210.6152" y2="230.6152"/><polygon fill="#181818" points="457,220.6152,461,230.6152,465,220.6152,461,224.6152" style="stroke:#181818;stroke-width:1.0;"/><line style="stroke:#181818;stroke-width:1.0;" x1="461" x2="461" y1="458.416" y2="491.0066"/><polygon fill="#181818" points="457,481.0066,461,491.0066,465,481.0066,461,485.0066" style="stroke:#181818;stroke-width:1.0;"/><line style="stroke:#181818;stroke-width:1.0;" x1="461" x2="461" y1="382.5669" y2="412.748"/><polygon fill="#181818" points="457,402.748,461,412.748,465,402.748,461,406.748" style="stroke:#181818;stroke-width:1.0;"/><line style="stroke:#181818;stroke-width:1.0;" x1="548" x2="570" y1="370.3857" y2="370.3857"/><polygon fill="#181818" points="566,468.416,570,478.416,574,468.416,570,472.416" style="stroke:#181818;stroke-width:1.0;"/><line style="stroke:#181818;stroke-width:1.0;" x1="570" x2="570" y1="370.3857" y2="568.6746"/><line style="stroke:#181818;stroke-width:1.0;" x1="570" x2="473" y1="568.6746" y2="568.6746"/><polygon fill="#181818" points="483,564.6746,473,568.6746,483,572.6746,479,568.6746" style="stroke:#181818;stroke-width:1.0;"/><line style="stroke:#181818;stroke-width:1.0;" x1="461" x2="461" y1="536.6746" y2="556.6746"/><polygon fill="#181818" points="457,546.6746,461,556.6746,465,546.6746,461,550.6746" style="stroke:#181818;stroke-width:1.0;"/><line style="stroke:#181818;stroke-width:1.0;" x1="461" x2="461" y1="700.886" y2="733.4766"/><polygon fill="#181818" points="457,723.4766,461,733.4766,465,723.4766,461,727.4766" style="stroke:#181818;stroke-width:1.0;"/><line style="stroke:#181818;stroke-width:1.0;" x1="461" x2="461" y1="625.0369" y2="655.218"/><polygon fill="#181818" points="457,645.218,461,655.218,465,645.218,461,649.218" style="stroke:#181818;stroke-width:1.0;"/><line style="stroke:#181818;stroke-width:1.0;" x1="551.5" x2="570" y1="612.8557" y2="612.8557"/><polygon fill="#181818" points="566,710.886,570,720.886,574,710.886,570,714.886" style="stroke:#181818;stroke-width:1.0;"/><line style="stroke:#181818;stroke-width:1.0;" x1="570" x2="570" y1="612.8557" y2="811.1445"/><line style="stroke:#181818;stroke-width:1.0;" x1="570" x2="473" y1="811.1445" y2="811.1445"/><polygon fill="#181818" points="483,807.1445,473,811.1445,483,815.1445,479,811.1445" style="stroke:#181818;stroke-width:1.0;"/><line style="stroke:#181818;stroke-width:1.0;" x1="461" x2="461" y1="779.1445" y2="799.1445"/><polygon fill="#181818" points="457,789.1445,461,799.1445,465,789.1445,461,793.1445" style="stroke:#181818;stroke-width:1.0;"/><line style="stroke:#181818;stroke-width:1.0;" x1="461" x2="461" y1="580.6746" y2="600.6746"/><polygon fill="#181818" points="457,590.6746,461,600.6746,465,590.6746,461,594.6746" style="stroke:#181818;stroke-width:1.0;"/><line style="stroke:#181818;stroke-width:1.0;" x1="178" x2="178" y1="923.1748" y2="943.1748"/><polygon fill="#181818" points="174,933.1748,178,943.1748,182,933.1748,178,937.1748" style="stroke:#181818;stroke-width:1.0;"/><line style="stroke:#181818;stroke-width:1.0;" x1="563.5" x2="563.5" y1="1038.873" y2="1073.873"/><line style="stroke:#181818;stroke-width:1.0;" x1="563.5" x2="24" y1="1073.873" y2="1073.873"/><polygon fill="#181818" points="34,1069.873,24,1073.873,34,1077.873,30,1073.873" style="stroke:#181818;stroke-width:1.0;"/><line style="stroke:#181818;stroke-width:1.0;" x1="924.5" x2="924.5" y1="1093.4165" y2="1108.158"/><line style="stroke:#181818;stroke-width:1.0;" x1="924.5" x2="24" y1="1108.158" y2="1108.158"/><polygon fill="#181818" points="34,1104.158,24,1108.158,34,1112.158,30,1108.158" style="stroke:#181818;stroke-width:1.0;"/><line style="stroke:#181818;stroke-width:1.0;" x1="924.5" x2="924.5" y1="1001.8994" y2="1032.0806"/><polygon fill="#181818" points="920.5,1022.0806,924.5,1032.0806,928.5,1022.0806,924.5,1026.0806" style="stroke:#181818;stroke-width:1.0;"/><line style="stroke:#181818;stroke-width:1.0;" x1="1018.5" x2="1044" y1="989.7183" y2="989.7183"/><polygon fill="#181818" points="1040,1084.158,1044,1094.158,1048,1084.158,1044,1088.158" style="stroke:#181818;stroke-width:1.0;"/><line style="stroke:#181818;stroke-width:1.0;" x1="1044" x2="1044" y1="989.7183" y2="1156.158"/><line style="stroke:#181818;stroke-width:1.0;" x1="1044" x2="473" y1="1156.158" y2="1156.158"/><polygon fill="#181818" points="483,1152.158,473,1156.158,483,1160.158,479,1156.158" style="stroke:#181818;stroke-width:1.0;"/><line style="stroke:#181818;stroke-width:1.0;" x1="674.5" x2="563.5" y1="955.356" y2="955.356"/><line style="stroke:#181818;stroke-width:1.0;" x1="563.5" x2="563.5" y1="955.356" y2="977.5371"/><polygon fill="#181818" points="559.5,967.5371,563.5,977.5371,567.5,967.5371,563.5,971.5371" style="stroke:#181818;stroke-width:1.0;"/><line style="stroke:#181818;stroke-width:1.0;" x1="813.5" x2="924.5" y1="955.356" y2="955.356"/><line style="stroke:#181818;stroke-width:1.0;" x1="924.5" x2="924.5" y1="955.356" y2="977.5371"/><polygon fill="#181818" points="920.5,967.5371,924.5,977.5371,928.5,967.5371,924.5,971.5371" style="stroke:#181818;stroke-width:1.0;"/><line style="stroke:#181818;stroke-width:1.0;" x1="744" x2="744" y1="923.1748" y2="943.1748"/><polygon fill="#181818" points="740,933.1748,744,943.1748,748,933.1748,744,937.1748" style="stroke:#181818;stroke-width:1.0;"/><line style="stroke:#181818;stroke-width:1.0;" x1="374" x2="178" y1="855.3257" y2="855.3257"/><line style="stroke:#181818;stroke-width:1.0;" x1="178" x2="178" y1="855.3257" y2="877.5068"/><polygon fill="#181818" points="174,867.5068,178,877.5068,182,867.5068,178,871.5068" style="stroke:#181818;stroke-width:1.0;"/><line style="stroke:#181818;stroke-width:1.0;" x1="548" x2="744" y1="855.3257" y2="855.3257"/><line style="stroke:#181818;stroke-width:1.0;" x1="744" x2="744" y1="855.3257" y2="877.5068"/><polygon fill="#181818" points="740,867.5068,744,877.5068,748,867.5068,744,871.5068" style="stroke:#181818;stroke-width:1.0;"/><line style="stroke:#181818;stroke-width:1.0;" x1="178" x2="178" y1="988.8428" y2="1156.158"/><line style="stroke:#181818;stroke-width:1.0;" x1="178" x2="449" y1="1156.158" y2="1156.158"/><polygon fill="#181818" points="439,1152.158,449,1156.158,439,1160.158,443,1156.158" style="stroke:#181818;stroke-width:1.0;"/><line style="stroke:#181818;stroke-width:1.0;" x1="461" x2="461" y1="823.1445" y2="843.1445"/><polygon fill="#181818" points="457,833.1445,461,843.1445,465,833.1445,461,837.1445" style="stroke:#181818;stroke-width:1.0;"/><line style="stroke:#181818;stroke-width:1.0;" x1="461" x2="461" y1="320.6455" y2="358.2046"/><polygon fill="#181818" points="457,348.2046,461,358.2046,465,348.2046,461,352.2046" style="stroke:#181818;stroke-width:1.0;"/><line style="stroke:#181818;stroke-width:1.0;" x1="461" x2="461" y1="1168.158" y2="1178.158"/><line style="stroke:#181818;stroke-width:1.0;" x1="461" x2="1065.5" y1="1178.158" y2="1178.158"/><polygon fill="#181818" points="1061.5,775.22,1065.5,765.22,1069.5,775.22,1065.5,771.22" style="stroke:#181818;stroke-width:1.0;"/><line style="stroke:#181818;stroke-width:1.0;" x1="1065.5" x2="1065.5" y1="308.4644" y2="1178.158"/><line style="stroke:#181818;stroke-width:1.0;" x1="1065.5" x2="520" y1="308.4644" y2="308.4644"/><polygon fill="#181818" points="530,304.4644,520,308.4644,530,312.4644,526,308.4644" style="stroke:#181818;stroke-width:1.0;"/><line style="stroke:#181818;stroke-width:1.0;" x1="402" x2="24" y1="308.4644" y2="308.4644"/><polygon fill="#181818" points="20,766.22,24,776.22,28,766.22,24,770.22" style="stroke:#181818;stroke-width:1.0;"/><line style="stroke:#181818;stroke-width:1.0;" x1="24" x2="24" y1="308.4644" y2="1195.158"/><line style="stroke:#181818;stroke-width:1.0;" x1="24" x2="461" y1="1195.158" y2="1195.158"/><line style="stroke:#181818;stroke-width:1.0;" x1="461" x2="461" y1="1195.158" y2="1210.158"/><polygon fill="#181818" points="457,1200.158,461,1210.158,465,1200.158,461,1204.158" style="stroke:#181818;stroke-width:1.0;"/><line style="stroke:#181818;stroke-width:1.0;" x1="461" x2="461" y1="276.2832" y2="296.2832"/><polygon fill="#181818" points="457,286.2832,461,296.2832,465,286.2832,461,290.2832" style="stroke:#181818;stroke-width:1.0;"/><line style="stroke:#181818;stroke-width:1.0;" x1="346.75" x2="346.75" y1="1290.1882" y2="1310.1882"/><polygon fill="#181818" points="342.75,1300.1882,346.75,1310.1882,350.75,1300.1882,346.75,1304.1882" style="stroke:#181818;stroke-width:1.0;"/><line style="stroke:#181818;stroke-width:1.0;" x1="346.75" x2="346.75" y1="1355.8562" y2="1375.8562"/><polygon fill="#181818" points="342.75,1365.8562,346.75,1375.8562,350.75,1365.8562,346.75,1369.8562" style="stroke:#181818;stroke-width:1.0;"/><line style="stroke:#181818;stroke-width:1.0;" x1="575.25" x2="575.25" y1="1290.1882" y2="1310.1882"/><polygon fill="#181818" points="571.25,1300.1882,575.25,1310.1882,579.25,1300.1882,575.25,1304.1882" style="stroke:#181818;stroke-width:1.0;"/><line style="stroke:#181818;stroke-width:1.0;" x1="363.5" x2="346.75" y1="1222.3391" y2="1222.3391"/><line style="stroke:#181818;stroke-width:1.0;" x1="346.75" x2="346.75" y1="1222.3391" y2="1244.5203"/><polygon fill="#181818" points="342.75,1234.5203,346.75,1244.5203,350.75,1234.5203,346.75,1238.5203" style="stroke:#181818;stroke-width:1.0;"/><line style="stroke:#181818;stroke-width:1.0;" x1="558.5" x2="575.25" y1="1222.3391" y2="1222.3391"/><line style="stroke:#181818;stroke-width:1.0;" x1="575.25" x2="575.25" y1="1222.3391" y2="1244.5203"/><polygon fill="#181818" points="571.25,1234.5203,575.25,1244.5203,579.25,1234.5203,575.25,1238.5203" style="stroke:#181818;stroke-width:1.0;"/><!--SRC=[fPEvSjim48PxFCMEAwhGHFBHs8N7ziHnYjWpTj9ut434ajoGN79mH3Dw7Z-6ExrO04AaASb7uOR7Ol5__-u2bco5S3ozQfWnjJ25YzBIFxBhPsiKoLpBkeQ7bh3IZXKA8Kn9t4eV1uMPT9MzRjZUoXhXLyEDQMMAQfJ4ZKA3BHpDPgEebbo6w7mhsagbY7Cu2HWhjHMd7HgeXXlfMbiZhrz0EhDSFnSLCYGNrzFPV7AsIQmRvGniBHuEYv8DfOK5oIka7FbCY6L1llmaGcIe_7m2P23vAoS2W398RgZASFepRHXoL7hzafRM9zaY068Qm6cNDIX7yeadTukFJZjCIrWv3MCdSHahuoqm4WSjP4MPsB0VMYtJubDuJCEkBn93wLy5tw93k0y3_vZh9LVEJufLO0IMGRlg6t3SD-2TzkzQU9NCGosPmqBtMaTUgqi9zdxWafW1TIcPzurvdUywnmMJML2bJ5gGhWVk4oS77GOrp7rvGSeUm3SOeeTRqSkxtyF_fY20XKPPlj75tk4VHhO1Z0e_ClgvrIsbLmDZ2s_RY0CTVyMtVswEVSmMEmFtTwstj6DuR-3XNEmF_Frn6zkq8ZfzZBkzolXgTvJnJT_Rt9Nm7m00]--></g></svg>
