<?xml version="1.0" encoding="us-ascii" standalone="no"?><svg xmlns="http://www.w3.org/2000/svg" xmlns:xlink="http://www.w3.org/1999/xlink" contentStyleType="text/css" height="713px" preserveAspectRatio="none" style="width:961px;height:713px;background:#FFFFFF;" version="1.1" viewBox="0 0 961 713" width="961px" zoomAndPan="magnify"><defs/><g><text fill="#000000" font-family="monospace" font-size="14" font-weight="bold" lengthAdjust="spacing" textLength="200" x="373.5" y="29.0752">4-Connect&#160;UI&#160;-&#160;Screenflow</text><g id="Hauptmen&#252;"><rect fill="#F1F1F1" height="58.2793" rx="12.5" ry="12.5" style="stroke:#181818;stroke-width:0.5;" width="182" x="278" y="175.2793"/><line style="stroke:#181818;stroke-width:0.5;" x1="278" x2="460" y1="213.5586" y2="213.5586"/><text fill="#000000" font-family="monospace" font-size="14" lengthAdjust="spacing" textLength="72" x="333" y="199.3545">Hauptmen&#252;</text></g><g id="Modusmen&#252;"><rect fill="#F1F1F1" height="58.2793" rx="12.5" ry="12.5" style="stroke:#181818;stroke-width:0.5;" width="182" x="7" y="333.2793"/><line style="stroke:#181818;stroke-width:0.5;" x1="7" x2="189" y1="371.5586" y2="371.5586"/><text fill="#000000" font-family="monospace" font-size="14" lengthAdjust="spacing" textLength="72" x="62" y="357.3545">Modusmen&#252;</text></g><g id="Spiel"><rect fill="#F1F1F1" height="58.2793" rx="12.5" ry="12.5" style="stroke:#181818;stroke-width:0.5;" width="190" x="274" y="491.2793"/><line style="stroke:#181818;stroke-width:0.5;" x1="274" x2="464" y1="529.5586" y2="529.5586"/><text fill="#000000" font-family="monospace" font-size="14" lengthAdjust="spacing" textLength="96" x="321" y="515.3545">Spielansicht</text></g><g id="Hilfe"><rect fill="#F1F1F1" height="58.2793" rx="12.5" ry="12.5" style="stroke:#181818;stroke-width:0.5;" width="190" x="274" y="649.2793"/><line style="stroke:#181818;stroke-width:0.5;" x1="274" x2="464" y1="687.5586" y2="687.5586"/><text fill="#000000" font-family="monospace" font-size="14" lengthAdjust="spacing" textLength="112" x="313" y="673.3545">Hilfe&#160;/&#160;Regeln</text></g><g id="Ergebnis"><rect fill="#F1F1F1" height="58.2793" rx="12.5" ry="12.5" style="stroke:#181818;stroke-width:0.5;" width="190" x="764" y="649.2793"/><line style="stroke:#181818;stroke-width:0.5;" x1="764" x2="954" y1="687.5586" y2="687.5586"/><text fill="#000000" font-family="monospace" font-size="14" lengthAdjust="spacing" textLength="64" x="827" y="673.3545">Ergebnis</text></g><ellipse cx="369" cy="65.2793" fill="#222222" rx="10" ry="10" style="stroke:#222222;stroke-width:1.0;"/><!--link *start* to Hauptmen?--><g id="link_*start*_Hauptmen&#252;"><path d="M369,75.7293 C369,96.6293 369,138.2293 369,169.2793 " fill="none" id="*start*-to-Hauptmen&#252;" style="stroke:#181818;stroke-width:1.0;"/><polygon fill="#181818" points="369,175.2793,373,166.2793,369,170.2793,365,166.2793,369,175.2793" style="stroke:#181818;stroke-width:1.0;"/><text fill="#000000" font-family="monospace" font-size="13" lengthAdjust="spacing" textLength="40" x="323" y="116.5691">Start</text></g><!--link Hauptmen? to Modusmen?--><g id="link_Hauptmen&#252;_Modusmen&#252;"><path d="M314.4,233.6293 C314.4,279.3193 314.4,362.2793 314.4,362.2793 C314.4,362.2793 254.29,362.2793 195.15,362.2793 " fill="none" id="Hauptmen&#252;-to-Modusmen&#252;" style="stroke:#181818;stroke-width:1.0;"/><polygon fill="#181818" points="189.15,362.2793,198.15,366.2793,194.15,362.2793,198.15,358.2793,189.15,362.2793" style="stroke:#181818;stroke-width:1.0;"/><text fill="#000000" font-family="monospace" font-size="13" lengthAdjust="spacing" textLength="120" x="320.4" y="334.6491">Spiel&#160;ausw&#228;hlen</text><text fill="#000000" font-family="monospace" font-size="13" lengthAdjust="spacing" textLength="56" x="352.4" y="351.6228">(AF-01)</text></g><!--link Modusmen? to Hauptmen?--><g id="link_Modusmen&#252;_Hauptmen&#252;"><path d="M98,332.9293 C98,287.2393 98,204.2793 98,204.2793 C98,204.2793 192.96,204.2793 271.63,204.2793 " fill="none" id="Modusmen&#252;-to-Hauptmen&#252;" style="stroke:#181818;stroke-width:1.0;"/><polygon fill="#181818" points="277.63,204.2793,268.63,200.2793,272.63,204.2793,268.63,208.2793,277.63,204.2793" style="stroke:#181818;stroke-width:1.0;"/><text fill="#000000" font-family="monospace" font-size="13" lengthAdjust="spacing" textLength="48" x="69.49" y="195.3491">Zur&#252;ck</text></g><!--link Modusmen? to Spiel--><g id="link_Modusmen&#252;_Spiel"><path d="M128.33,391.3593 C128.33,434.7193 128.33,511.2793 128.33,511.2793 C128.33,511.2793 200.61,511.2793 267.88,511.2793 " fill="none" id="Modusmen&#252;-to-Spiel" style="stroke:#181818;stroke-width:1.0;"/><polygon fill="#181818" points="273.88,511.2793,264.88,507.2793,268.88,511.2793,264.88,515.2793,273.88,511.2793" style="stroke:#181818;stroke-width:1.0;"/><text fill="#000000" font-family="monospace" font-size="13" lengthAdjust="spacing" textLength="96" x="39.15" y="485.3491">Zwei&#160;Spieler</text><text fill="#000000" font-family="monospace" font-size="13" lengthAdjust="spacing" textLength="56" x="59.15" y="502.3228">(AF-02)</text></g><!--link Modusmen? to Spiel--><g id="link_Modusmen&#252;_Spiel"><path d="M67.67,391.5393 C67.67,439.6793 67.67,530.2793 67.67,530.2793 C67.67,530.2793 179.38,530.2793 267.66,530.2793 " fill="none" id="Modusmen&#252;-to-Spiel-1" style="stroke:#181818;stroke-width:1.0;"/><polygon fill="#181818" points="273.66,530.2793,264.66,526.2793,268.66,530.2793,264.66,534.2793,273.66,530.2793" style="stroke:#181818;stroke-width:1.0;"/><text fill="#000000" font-family="monospace" font-size="13" lengthAdjust="spacing" textLength="72" x="23.29" y="549.3491">Gegen&#160;Bot</text><text fill="#000000" font-family="monospace" font-size="13" lengthAdjust="spacing" textLength="56" x="31.29" y="566.3228">(AF-02)</text></g><!--link Spiel to Hilfe--><g id="link_Spiel_Hilfe"><path d="M426,549.6293 C426,578.0093 426,614.7593 426,643.0893 " fill="none" id="Spiel-to-Hilfe" style="stroke:#181818;stroke-width:1.0;"/><polygon fill="#181818" points="426,649.0893,430,640.0893,426,644.0893,422,640.0893,426,649.0893" style="stroke:#181818;stroke-width:1.0;"/><text fill="#000000" font-family="monospace" font-size="13" lengthAdjust="spacing" textLength="40" x="372" y="618.4291">Hilfe</text><text fill="#000000" font-family="monospace" font-size="13" lengthAdjust="spacing" textLength="56" x="364" y="635.4028">(AF-05)</text></g><!--link Hilfe to Spiel--><g id="link_Hilfe_Spiel"><path d="M388,648.9293 C388,620.5493 388,583.7993 388,555.4693 " fill="none" id="Hilfe-to-Spiel" style="stroke:#181818;stroke-width:1.0;"/><polygon fill="#181818" points="388,549.4693,384,558.4693,388,554.4693,392,558.4693,388,549.4693" style="stroke:#181818;stroke-width:1.0;"/><text fill="#000000" font-family="monospace" font-size="13" lengthAdjust="spacing" textLength="48" x="334" y="590.2691">Zur&#252;ck</text></g><!--link Spiel to Spiel--><g id="link_Spiel_Spiel"><path d="M350.8,491.0993 C350.8,475.0093 350.8,458.2793 350.8,458.2793 C350.8,458.2793 245.67,458.2793 245.67,458.2793 C245.67,458.2793 245.67,583.2793 245.67,583.2793 C245.67,583.2793 312,583.2793 312,583.2793 C312,583.2793 312,572.0193 312,555.5693 " fill="none" id="Spiel-to-Spiel" style="stroke:#181818;stroke-width:1.0;"/><polygon fill="#181818" points="312,549.5693,308,558.5693,312,554.5693,316,558.5693,312,549.5693" style="stroke:#181818;stroke-width:1.0;"/><text fill="#000000" font-family="monospace" font-size="13" lengthAdjust="spacing" textLength="64" x="170.67" y="470.8991">Spielzug</text><text fill="#000000" font-family="monospace" font-size="13" lengthAdjust="spacing" textLength="56" x="174.67" y="487.8728">(AF-03)</text></g><!--link Spiel to Spiel--><g id="link_Spiel_Spiel"><path d="M387.2,491.2593 C387.2,463.3193 387.2,425.2793 387.2,425.2793 C387.2,425.2793 217.33,425.2793 217.33,425.2793 C217.33,425.2793 217.33,616.2793 217.33,616.2793 C217.33,616.2793 350,616.2793 350,616.2793 C350,616.2793 350,583.5993 350,555.3393 " fill="none" id="Spiel-to-Spiel-1" style="stroke:#181818;stroke-width:1.0;"/><polygon fill="#181818" points="350,549.3393,346,558.3393,350,554.3393,354,558.3393,350,549.3393" style="stroke:#181818;stroke-width:1.0;"/><text fill="#000000" font-family="monospace" font-size="13" lengthAdjust="spacing" textLength="80" x="177.33" y="526.7291">Neue&#160;Runde</text><text fill="#000000" font-family="monospace" font-size="13" lengthAdjust="spacing" textLength="56" x="189.33" y="543.7028">(AF-04)</text></g><!--link Spiel to Ergebnis--><g id="link_Spiel_Ergebnis"><path d="M464.2,530.2793 C594.25,530.2793 811.5,530.2793 811.5,530.2793 C811.5,530.2793 811.5,599.9093 811.5,643.0393 " fill="none" id="Spiel-to-Ergebnis" style="stroke:#181818;stroke-width:1.0;"/><polygon fill="#181818" points="811.5,649.0393,815.5,640.0393,811.5,644.0393,807.5,640.0393,811.5,649.0393" style="stroke:#181818;stroke-width:1.0;"/><text fill="#000000" font-family="monospace" font-size="13" lengthAdjust="spacing" textLength="72" x="575.23" y="504.3491">Spielende</text><text fill="#000000" font-family="monospace" font-size="13" lengthAdjust="spacing" textLength="160" x="531.23" y="521.3228">(Sieg/Unentschieden)</text></g><!--link Ergebnis to Spiel--><g id="link_Ergebnis_Spiel"><path d="M859,649.1893 C859,601.3393 859,511.2793 859,511.2793 C859,511.2793 612.55,511.2793 470.06,511.2793 " fill="none" id="Ergebnis-to-Spiel" style="stroke:#181818;stroke-width:1.0;"/><polygon fill="#181818" points="464.06,511.2793,473.06,515.2793,469.06,511.2793,473.06,507.2793,464.06,511.2793" style="stroke:#181818;stroke-width:1.0;"/><text fill="#000000" font-family="monospace" font-size="13" lengthAdjust="spacing" textLength="80" x="736.48" y="485.3491">Neue&#160;Runde</text><text fill="#000000" font-family="monospace" font-size="13" lengthAdjust="spacing" textLength="56" x="748.48" y="502.3228">(AF-04)</text></g><!--link Ergebnis to Hauptmen?--><g id="link_Ergebnis_Hauptmen&#252;"><path d="M906.5,648.9893 C906.5,545.6393 906.5,204.2793 906.5,204.2793 C906.5,204.2793 619.53,204.2793 466.18,204.2793 " fill="none" id="Ergebnis-to-Hauptmen&#252;" style="stroke:#181818;stroke-width:1.0;"/><polygon fill="#181818" points="460.18,204.2793,469.18,208.2793,465.18,204.2793,469.18,200.2793,460.18,204.2793" style="stroke:#181818;stroke-width:1.0;"/><text fill="#000000" font-family="monospace" font-size="13" lengthAdjust="spacing" textLength="56" x="843.69" y="195.3491">Beenden</text></g><!--link Spiel to Hauptmen?--><g id="link_Spiel_Hauptmen&#252;"><path d="M423.6,491.1193 C423.6,430.9193 423.6,299.5093 423.6,239.3693 " fill="none" id="Spiel-to-Hauptmen&#252;" style="stroke:#181818;stroke-width:1.0;"/><polygon fill="#181818" points="423.6,233.3693,419.6,242.3693,423.6,238.3693,427.6,242.3693,423.6,233.3693" style="stroke:#181818;stroke-width:1.0;"/><text fill="#000000" font-family="monospace" font-size="13" lengthAdjust="spacing" textLength="56" x="361.6" y="381.3091">Beenden</text></g><!--SRC=[XP1DRjim48NtFCMWcqOjX3XDil6YG5pafq2JHOniqdP1IyyIONeea4COxNbwZEnyiUh7TgWsGRWX-EQRDuyZHYpeBF_Yc548FNobdEQ51tXftKQfi3BSQA_NP0r3VZKWvwLsIQ74KaShLuxbJgz1juvTQ7I1KebhI1mjd8XhGUFR6SPnQikkH413fvD9edhDgquz6QcDBal35PqhzPxol4qgMX1eROIM20AcRte16-YeiZ153Pfv606LqHVrSpBwIFFk3bbdeq9dG- -eEpSwDh86Rv_wPolga8WZzjQLCVpBFeifEsyChERGXfA1RT5UJAWROvUWOxf71SjxgbT7S-dILrYm2KG7hxsarFSFFzjVVKv_CkqsvKKbKaSa-QT36D8nRBP_QWl-mKSNL_da95CguRgsWPpIumPcUC3lw4_PQ_1r-oUccPDNoL7Un-YtJyLAgQ6_h_VRcGxtpkKyKuCyolL_xxxKtxzZjMi_pLvWxX11zv7B_P2pBBKwx7xdXW6S6rJ73moMKDG69JXJ1_Gj-n4usiCCdJ-Fzl12_Iy0]--></g></svg>