<?xml version="1.0" encoding="us-ascii" standalone="no"?><svg xmlns="http://www.w3.org/2000/svg" xmlns:xlink="http://www.w3.org/1999/xlink" contentStyleType="text/css" height="220px" preserveAspectRatio="none" style="width:297px;height:220px;background:#FFFFFF;" version="1.1" viewBox="0 0 297 220" width="297px" zoomAndPan="magnify"><defs/><g><text fill="#000000" font-family="monospace" font-size="14" font-weight="bold" lengthAdjust="spacing" textLength="264" x="15" y="29.0752">4-Connect&#160;-&#160;Hauptmen&#252;&#160;(Wireframe)</text><rect fill="#EEEEEE" height="19.0938" rx="5" ry="5" style="stroke:#000000;stroke-width:2.5;" width="76" x="76" y="64.873"/><text fill="#000000" font-family="sans-serif" font-size="12" lengthAdjust="spacing" textLength="46" x="91" y="79.3301">Sprache</text><line style="stroke:#000000;stroke-width:1.0;" x1="72.5" x2="155.5" y1="53.8262" y2="53.8262"/><line style="stroke:#000000;stroke-width:1.0;" x1="72.5" x2="155.5" y1="87.4668" y2="87.4668"/><line style="stroke:#000000;stroke-width:1.0;" x1="72.5" x2="72.5" y1="53.8262" y2="87.4668"/><line style="stroke:#000000;stroke-width:1.0;" x1="155.5" x2="155.5" y1="53.8262" y2="87.4668"/><rect fill="#FFFFFF" height="15.0938" style="stroke:#FFFFFF;stroke-width:1.0;" width="65" x="78.5" y="46.2793"/><text fill="#000000" font-family="sans-serif" font-size="12" font-weight="bold" lengthAdjust="spacing" textLength="65" x="78.5" y="58.7363">Hauptmen&#252;</text><text fill="#000000" font-family="sans-serif" font-size="12" font-weight="bold" lengthAdjust="spacing" textLength="76" x="73.5" y="135.1113">Spielauswahl</text><rect fill="#EEEEEE" height="19.0938" rx="5" ry="5" style="stroke:#000000;stroke-width:2.5;" width="92" x="76" y="144.248"/><text fill="#000000" font-family="sans-serif" font-size="12" lengthAdjust="spacing" textLength="57" x="93.5" y="158.7051">4-Connect</text><rect fill="#EEEEEE" height="19.0938" rx="5" ry="5" style="stroke:#000000;stroke-width:2.5;" width="76" x="76" y="189.4355"/><text fill="#000000" font-family="sans-serif" font-size="12" lengthAdjust="spacing" textLength="50" x="89" y="203.8926">Beenden</text><line style="stroke:#000000;stroke-width:1.0;" x1="71.5" x2="223.5" y1="45.2793" y2="45.2793"/><line style="stroke:#000000;stroke-width:1.0;" x1="71.5" x2="223.5" y1="213.0293" y2="213.0293"/><line style="stroke:#000000;stroke-width:1.0;" x1="71.5" x2="71.5" y1="45.2793" y2="103.5605"/><line style="stroke:#000000;stroke-width:1.0;" x1="223.5" x2="223.5" y1="103.5605" y2="120.6543"/><line style="stroke:#000000;stroke-width:1.0;" x1="223.5" x2="223.5" y1="45.2793" y2="103.5605"/><line style="stroke:#000000;stroke-width:1.0;" x1="71.5" x2="71.5" y1="184.9355" y2="213.0293"/><line style="stroke:#000000;stroke-width:1.0;" x1="71.5" x2="71.5" y1="167.8418" y2="184.9355"/><line style="stroke:#000000;stroke-width:1.0;" x1="223.5" x2="223.5" y1="184.9355" y2="213.0293"/><line style="stroke:#000000;stroke-width:1.0;" x1="71.5" x2="71.5" y1="139.748" y2="167.8418"/><line style="stroke:#000000;stroke-width:1.0;" x1="223.5" x2="223.5" y1="167.8418" y2="184.9355"/><line style="stroke:#000000;stroke-width:1.0;" x1="71.5" x2="71.5" y1="120.6543" y2="139.748"/><line style="stroke:#000000;stroke-width:1.0;" x1="223.5" x2="223.5" y1="139.748" y2="167.8418"/><line style="stroke:#000000;stroke-width:1.0;" x1="71.5" x2="71.5" y1="103.5605" y2="120.6543"/><line style="stroke:#000000;stroke-width:1.0;" x1="223.5" x2="223.5" y1="120.6543" y2="139.748"/><!--SRC=[TOun3i8m34NtdEAF45GcJW0IOe6b0qDL9AjrrOZKYTfK32KtO-DYH7G01ZpOiltyv622PMoodHFXAY33WKOVEfRd0ukpwRdfgUEbKiFLYAVKeEQ6HXlsJi8fxN1quWPF5TU98XlKf81fbL8g5sZzKMgDEmhalgUgPPI8RsezimdDlM5But2Zrk9F9CbyDXLVdvS_gW9RPgbPvdbKyGK0]--></g></svg>