<?xml version="1.0" encoding="us-ascii" standalone="no"?><svg xmlns="http://www.w3.org/2000/svg" xmlns:xlink="http://www.w3.org/1999/xlink" contentStyleType="text/css" height="228px" preserveAspectRatio="none" style="width:297px;height:228px;background:#FFFFFF;" version="1.1" viewBox="0 0 297 228" width="297px" zoomAndPan="magnify"><defs/><g><text fill="#000000" font-family="monospace" font-size="14" font-weight="bold" lengthAdjust="spacing" textLength="264" x="15" y="29.0752">4-Connect&#160;-&#160;Modusmen&#252;&#160;(Wireframe)</text><rect fill="#EEEEEE" height="19.0938" rx="5" ry="5" style="stroke:#000000;stroke-width:2.5;" width="60" x="64.5" y="64.873"/><text fill="#000000" font-family="sans-serif" font-size="12" lengthAdjust="spacing" textLength="25" x="82" y="79.3301">Hilfe</text><rect fill="#EEEEEE" height="19.0938" rx="5" ry="5" style="stroke:#000000;stroke-width:2.5;" width="76" x="131.5" y="64.873"/><text fill="#000000" font-family="sans-serif" font-size="12" lengthAdjust="spacing" textLength="46" x="146.5" y="79.3301">Sprache</text><line style="stroke:#000000;stroke-width:1.0;" x1="61" x2="128" y1="53.8262" y2="53.8262"/><line style="stroke:#000000;stroke-width:1.0;" x1="128" x2="211" y1="87.4668" y2="87.4668"/><line style="stroke:#000000;stroke-width:1.0;" x1="128" x2="211" y1="53.8262" y2="53.8262"/><line style="stroke:#000000;stroke-width:1.0;" x1="61" x2="128" y1="87.4668" y2="87.4668"/><line style="stroke:#000000;stroke-width:1.0;" x1="61" x2="61" y1="53.8262" y2="87.4668"/><line style="stroke:#000000;stroke-width:1.0;" x1="211" x2="211" y1="53.8262" y2="87.4668"/><rect fill="#FFFFFF" height="15.0938" style="stroke:#FFFFFF;stroke-width:1.0;" width="106" x="67" y="46.2793"/><text fill="#000000" font-family="sans-serif" font-size="12" font-weight="bold" lengthAdjust="spacing" textLength="106" x="67" y="58.7363">4-Connect - Modus</text><rect fill="#EEEEEE" height="18.0938" style="stroke:#000000;stroke-width:1.0;" width="167" x="61" y="121.6543"/><text fill="#000000" font-family="sans-serif" font-size="12" lengthAdjust="spacing" textLength="110" x="63" y="136.1113">Bitte Modus w&#228;hlen:</text><line style="stroke:#000000;stroke-width:1.0;" x1="217" x2="217" y1="121.6543" y2="139.748"/><polygon fill="#000000" points="220,127.6543,226,127.6543,223,134.748" style="stroke:#000000;stroke-width:1.0;"/><rect fill="#EEEEEE" height="29.1875" style="stroke:#000000;stroke-width:1.0;" width="166" x="61" y="139.748"/><text fill="#000000" font-family="sans-serif" font-size="12" lengthAdjust="spacing" textLength="68" x="64" y="152.2051">Zwei Spieler</text><text fill="#000000" font-family="sans-serif" font-size="12" lengthAdjust="spacing" textLength="58" x="64" y="167.2988">Gegen Bot</text><rect fill="#EEEEEE" height="19.0938" rx="5" ry="5" style="stroke:#000000;stroke-width:2.5;" width="68" x="64.5" y="197.5293"/><text fill="#000000" font-family="sans-serif" font-size="12" lengthAdjust="spacing" textLength="37" x="80" y="211.9863">Zur&#252;ck</text><line style="stroke:#000000;stroke-width:1.0;" x1="60" x2="230" y1="45.2793" y2="45.2793"/><line style="stroke:#000000;stroke-width:1.0;" x1="230" x2="235" y1="45.2793" y2="45.2793"/><line style="stroke:#000000;stroke-width:1.0;" x1="60" x2="230" y1="221.123" y2="221.123"/><line style="stroke:#000000;stroke-width:1.0;" x1="230" x2="235" y1="221.123" y2="221.123"/><line style="stroke:#000000;stroke-width:1.0;" x1="60" x2="60" y1="45.2793" y2="103.5605"/><line style="stroke:#000000;stroke-width:1.0;" x1="235" x2="235" y1="120.6543" y2="141.748"/><line style="stroke:#000000;stroke-width:1.0;" x1="235" x2="235" y1="45.2793" y2="103.5605"/><line style="stroke:#000000;stroke-width:1.0;" x1="60" x2="60" y1="175.9355" y2="193.0293"/><line style="stroke:#000000;stroke-width:1.0;" x1="60" x2="60" y1="141.748" y2="158.8418"/><line style="stroke:#000000;stroke-width:1.0;" x1="235" x2="235" y1="175.9355" y2="193.0293"/><line style="stroke:#000000;stroke-width:1.0;" x1="60" x2="60" y1="103.5605" y2="120.6543"/><line style="stroke:#000000;stroke-width:1.0;" x1="235" x2="235" y1="141.748" y2="158.8418"/><line style="stroke:#000000;stroke-width:1.0;" x1="235" x2="235" y1="103.5605" y2="120.6543"/><line style="stroke:#000000;stroke-width:1.0;" x1="60" x2="60" y1="193.0293" y2="221.123"/><line style="stroke:#000000;stroke-width:1.0;" x1="60" x2="60" y1="158.8418" y2="175.9355"/><line style="stroke:#000000;stroke-width:1.0;" x1="235" x2="235" y1="193.0293" y2="221.123"/><line style="stroke:#000000;stroke-width:1.0;" x1="60" x2="60" y1="120.6543" y2="141.748"/><line style="stroke:#000000;stroke-width:1.0;" x1="235" x2="235" y1="158.8418" y2="175.9355"/><rect fill="#EEEEEE" height="29.1875" style="stroke:#000000;stroke-width:1.0;" width="166" x="61" y="139.748"/><text fill="#000000" font-family="sans-serif" font-size="12" lengthAdjust="spacing" textLength="68" x="64" y="152.2051">Zwei Spieler</text><text fill="#000000" font-family="sans-serif" font-size="12" lengthAdjust="spacing" textLength="58" x="64" y="167.2988">Gegen Bot</text><!--SRC=[POsn3e8m48RtFiK_AaOd9qTCr4KN1nCDJHeujA6qf1nnGDx6ns3ZnIoucBXyTt_klZlMR0ZhvTPPIobZYQFBcheaE_IONRIdtAkIvaBKXRQL2W4PvQenl7EMJs4M3ElgIgMKXIrbMBG2Q1S1eKX4qT_vAC8BDnoqoGd9r9yhhzB7cBf9N4sKiMQchuJdy7uOiXk9wvDqC3GPyX9xkfD5x5ZYzUF-ixtXslYXJmiauvTET1y0]--></g></svg>