<svg xmlns="http://www.w3.org/2000/svg" xmlns:xlink="http://www.w3.org/1999/xlink" contentStyleType="text/css" data-diagram-type="CLASS" height="1726px" preserveAspectRatio="none" style="width:2866px;height:1726px;background:#FFFFFF;" version="1.1" viewBox="0 0 2866 1726" width="2866px" zoomAndPan="magnify"><defs/><g><!--cluster Infrastructure--><g class="cluster" data-entity="Infrastructure" data-source-line="7" data-uid="ent0002" id="cluster_Infrastructure"><rect fill="none" height="399" rx="2.5" ry="2.5" style="stroke:#000000;stroke-width:1.5;" width="695" x="1843" y="575"/><text fill="#000000" font-family="sans-serif" font-size="14" font-weight="bold" lengthAdjust="spacing" textLength="91.0205" x="2144.9897" y="592.1074">Infrastructure</text></g><!--cluster FourConnect--><g class="cluster" data-entity="FourConnect" data-source-line="49" data-uid="ent0005" id="cluster_FourConnect"><rect fill="none" height="1532" rx="2.5" ry="2.5" style="stroke:#000000;stroke-width:1.5;" width="1630" x="7" y="188"/><text fill="#000000" font-family="sans-serif" font-size="14" font-weight="bold" lengthAdjust="spacing" textLength="87.1035" x="778.4482" y="205.1074">FourConnect</text></g><!--cluster Game Core--><g class="cluster" data-entity="Game Core" data-source-line="154" data-uid="ent0023" id="cluster_Game Core"><rect fill="none" height="225" rx="2.5" ry="2.5" style="stroke:#000000;stroke-width:1.5;" width="1199" x="1661" y="1387"/><text fill="#000000" font-family="sans-serif" font-size="14" font-weight="bold" lengthAdjust="spacing" textLength="74.6963" x="2223.1519" y="1404.1074">Game Core</text></g><!--cluster UIController--><g class="cluster" data-entity="UIController" data-source-line="202" data-uid="ent0037" id="cluster_UIController"><rect fill="none" height="175" rx="2.5" ry="2.5" style="stroke:#000000;stroke-width:1.5;" width="983" x="1661" y="290.5"/><text fill="#000000" font-family="sans-serif" font-size="14" font-weight="bold" lengthAdjust="spacing" textLength="80.8896" x="2112.0552" y="307.6074">UIController</text></g><!--cluster UIGameController--><g class="cluster" data-entity="UIGameController" data-source-line="238" data-uid="ent0044" id="cluster_UIGameController"><rect fill="none" height="157" rx="2.5" ry="2.5" style="stroke:#000000;stroke-width:1.5;" width="322" x="1417" y="7"/><text fill="#000000" font-family="sans-serif" font-size="14" font-weight="bold" lengthAdjust="spacing" textLength="119.7998" x="1518.1001" y="24.1074">UIGameController</text></g><!--class BrandingService--><g class="entity" data-entity="BrandingService" data-source-line="9" data-uid="ent0003" id="entity_BrandingService"><rect fill="#F1F1F1" height="345.9375" rx="2.5" ry="2.5" style="stroke:#181818;stroke-width:0.5;" width="339.9951" x="2182" y="612"/><ellipse cx="2296.3857" cy="628" fill="#ADD1B2" rx="11" ry="11" style="stroke:#181818;stroke-width:1;"/><path d="M2299.1514,623.875 Q2299.3076,623.6563 2299.4951,623.5469 Q2299.6826,623.4375 2299.9014,623.4375 Q2300.2764,623.4375 2300.5107,623.7031 Q2300.7451,623.9531 2300.7451,624.5625 L2300.7451,626.0156 Q2300.7451,626.625 2300.5107,626.8906 Q2300.2764,627.1563 2299.9014,627.1563 Q2299.5576,627.1563 2299.3545,626.9531 Q2299.1514,626.7656 2299.042,626.25 Q2298.9951,625.8906 2298.8076,625.7031 Q2298.4795,625.3281 2297.8701,625.1094 Q2297.2607,624.8906 2296.6357,624.8906 Q2295.8701,624.8906 2295.2295,625.2188 Q2294.6045,625.5469 2294.1045,626.2969 Q2293.6201,627.0469 2293.6201,628.0781 L2293.6201,629.1719 Q2293.6201,630.4063 2294.5107,631.2344 Q2295.4014,632.0469 2296.9951,632.0469 Q2297.9326,632.0469 2298.5889,631.7969 Q2298.9795,631.6406 2299.4014,631.2031 Q2299.667,630.9375 2299.8076,630.8594 Q2299.9639,630.7813 2300.167,630.7813 Q2300.4951,630.7813 2300.7451,631.0469 Q2301.0107,631.2969 2301.0107,631.6406 Q2301.0107,631.9844 2300.667,632.3906 Q2300.167,632.9688 2299.3701,633.2969 Q2298.292,633.75 2296.9951,633.75 Q2295.4795,633.75 2294.2764,633.125 Q2293.292,632.625 2292.6045,631.5625 Q2291.917,630.4844 2291.917,629.2031 L2291.917,628.0469 Q2291.917,626.7188 2292.5264,625.5781 Q2293.1514,624.4219 2294.2451,623.8125 Q2295.3389,623.1875 2296.5732,623.1875 Q2297.3076,623.1875 2297.9482,623.3594 Q2298.6045,623.5156 2299.1514,623.875 Z " fill="#000000"/><text fill="#000000" font-family="sans-serif" font-size="14" lengthAdjust="spacing" textLength="102.7236" x="2316.8857" y="633.7969">BrandingService</text><line style="stroke:#181818;stroke-width:0.5;" x1="2183" x2="2520.9951" y1="644" y2="644"/><text fill="#000000" font-family="sans-serif" font-size="14" lengthAdjust="spacing" text-decoration="underline" textLength="167.3096" x="2188" y="663.1074">-instance: BrandingService</text><text fill="#000000" font-family="sans-serif" font-size="14" lengthAdjust="spacing" textLength="136.9238" x="2188" y="681.7285">-primaryColour: String</text><text fill="#000000" font-family="sans-serif" font-size="14" lengthAdjust="spacing" textLength="154.8477" x="2188" y="700.3496">-secondaryColour: String</text><text fill="#000000" font-family="sans-serif" font-size="14" lengthAdjust="spacing" textLength="104.2822" x="2188" y="718.9707">-logoPath: String</text><text fill="#000000" font-family="sans-serif" font-size="14" lengthAdjust="spacing" textLength="123.71" x="2188" y="737.5918">-airlineName: String</text><line style="stroke:#181818;stroke-width:0.5;" x1="2183" x2="2520.9951" y1="745.1055" y2="745.1055"/><text fill="#000000" font-family="sans-serif" font-size="14" lengthAdjust="spacing" textLength="175.082" x="2188" y="764.2129">-&#171;create&#187; BrandingService()</text><text fill="#000000" font-family="sans-serif" font-size="14" lengthAdjust="spacing" textLength="215.9268" x="2188" y="782.834">+setTheme(themeId : String) : void</text><text fill="#000000" font-family="sans-serif" font-size="14" lengthAdjust="spacing" text-decoration="underline" textLength="198.8369" x="2188" y="801.4551">+getInstance(): brandingService</text><text fill="#000000" font-family="sans-serif" font-size="14" lengthAdjust="spacing" textLength="170.7754" x="2188" y="820.0762">+getPrimaryColour(): String</text><text fill="#000000" font-family="sans-serif" font-size="14" lengthAdjust="spacing" textLength="189.4854" x="2188" y="838.6973">+getSecondaryColour(): String</text><text fill="#000000" font-family="sans-serif" font-size="14" lengthAdjust="spacing" textLength="141.2578" x="2188" y="857.3184">+getLogoPath(): String</text><text fill="#000000" font-family="sans-serif" font-size="14" lengthAdjust="spacing" textLength="157.5615" x="2188" y="875.9395">+getAirlineName(): String</text><text fill="#000000" font-family="sans-serif" font-size="14" lengthAdjust="spacing" textLength="287.4717" x="2188" y="894.5605">+setPrimaryColour(primaryColour: String):void</text><text fill="#000000" font-family="sans-serif" font-size="14" lengthAdjust="spacing" textLength="327.9951" x="2188" y="913.1816">+setSecondaryColour(secondaryColour: String): void</text><text fill="#000000" font-family="sans-serif" font-size="14" lengthAdjust="spacing" textLength="225.3125" x="2188" y="931.8027">+setLogoPath(logoPath:String): void</text><text fill="#000000" font-family="sans-serif" font-size="14" lengthAdjust="spacing" textLength="264.9336" x="2188" y="950.4238">+setAirlineName(airlineName: String): void</text></g><!--class LocalizationService--><g class="entity" data-entity="LocalizationService" data-source-line="30" data-uid="ent0004" id="entity_LocalizationService"><rect fill="#F1F1F1" height="290.0742" rx="2.5" ry="2.5" style="stroke:#181818;stroke-width:0.5;" width="287.1396" x="1859.5" y="640"/><ellipse cx="1938.5098" cy="656" fill="#ADD1B2" rx="11" ry="11" style="stroke:#181818;stroke-width:1;"/><path d="M1941.2754,651.875 Q1941.4316,651.6563 1941.6191,651.5469 Q1941.8066,651.4375 1942.0254,651.4375 Q1942.4004,651.4375 1942.6348,651.7031 Q1942.8691,651.9531 1942.8691,652.5625 L1942.8691,654.0156 Q1942.8691,654.625 1942.6348,654.8906 Q1942.4004,655.1563 1942.0254,655.1563 Q1941.6816,655.1563 1941.4785,654.9531 Q1941.2754,654.7656 1941.166,654.25 Q1941.1191,653.8906 1940.9316,653.7031 Q1940.6035,653.3281 1939.9941,653.1094 Q1939.3848,652.8906 1938.7598,652.8906 Q1937.9941,652.8906 1937.3535,653.2188 Q1936.7285,653.5469 1936.2285,654.2969 Q1935.7441,655.0469 1935.7441,656.0781 L1935.7441,657.1719 Q1935.7441,658.4063 1936.6348,659.2344 Q1937.5254,660.0469 1939.1191,660.0469 Q1940.0566,660.0469 1940.7129,659.7969 Q1941.1035,659.6406 1941.5254,659.2031 Q1941.791,658.9375 1941.9316,658.8594 Q1942.0879,658.7813 1942.291,658.7813 Q1942.6191,658.7813 1942.8691,659.0469 Q1943.1348,659.2969 1943.1348,659.6406 Q1943.1348,659.9844 1942.791,660.3906 Q1942.291,660.9688 1941.4941,661.2969 Q1940.416,661.75 1939.1191,661.75 Q1937.6035,661.75 1936.4004,661.125 Q1935.416,660.625 1934.7285,659.5625 Q1934.041,658.4844 1934.041,657.2031 L1934.041,656.0469 Q1934.041,654.7188 1934.6504,653.5781 Q1935.2754,652.4219 1936.3691,651.8125 Q1937.4629,651.1875 1938.6973,651.1875 Q1939.4316,651.1875 1940.0723,651.3594 Q1940.7285,651.5156 1941.2754,651.875 Z " fill="#000000"/><text fill="#000000" font-family="sans-serif" font-size="14" lengthAdjust="spacing" textLength="120.6201" x="1959.0098" y="661.7969">LocalizationService</text><line style="stroke:#181818;stroke-width:0.5;" x1="1860.5" x2="2145.6396" y1="672" y2="672"/><text fill="#000000" font-family="sans-serif" font-size="14" lengthAdjust="spacing" text-decoration="underline" textLength="185.2061" x="1865.5" y="691.1074">-instance: LocalizationService</text><text fill="#000000" font-family="sans-serif" font-size="14" lengthAdjust="spacing" text-decoration="underline" textLength="150.9443" x="1865.5" y="709.7285">-BUNDLE_BASE: String</text><text fill="#000000" font-family="sans-serif" font-size="14" lengthAdjust="spacing" textLength="157.9922" x="1865.5" y="728.3496">-bundle: ResourceBundle</text><text fill="#000000" font-family="sans-serif" font-size="14" lengthAdjust="spacing" textLength="138.5234" x="1865.5" y="746.9707">-currentLocale: Locale</text><line style="stroke:#181818;stroke-width:0.5;" x1="1860.5" x2="2145.6396" y1="754.4844" y2="754.4844"/><text fill="#000000" font-family="sans-serif" font-size="14" lengthAdjust="spacing" textLength="192.9785" x="1865.5" y="773.5918">-&#171;create&#187; LocalizationService()</text><text fill="#000000" font-family="sans-serif" font-size="14" lengthAdjust="spacing" text-decoration="underline" textLength="218.2852" x="1865.5" y="792.2129">+getInstance(): LocalizationService</text><text fill="#000000" font-family="sans-serif" font-size="14" lengthAdjust="spacing" textLength="117.5098" x="1865.5" y="810.834">-loadBundle(): void</text><text fill="#000000" font-family="sans-serif" font-size="14" lengthAdjust="spacing" textLength="187.9131" x="1865.5" y="829.4551">+getString(key : String): String</text><text fill="#000000" font-family="sans-serif" font-size="14" lengthAdjust="spacing" textLength="196.5059" x="1865.5" y="848.0762">+setLocale(locale: Locale): void</text><text fill="#000000" font-family="sans-serif" font-size="14" lengthAdjust="spacing" textLength="173.9336" x="1865.5" y="866.6973">+getCurrentLocale(): Locale</text><text fill="#000000" font-family="sans-serif" font-size="14" lengthAdjust="spacing" textLength="198.8438" x="1865.5" y="885.3184">+getAvailableLocales(): Locale[]</text><text fill="#000000" font-family="sans-serif" font-size="14" lengthAdjust="spacing" textLength="275.1396" x="1865.5" y="903.9395">+setLanguage(languageCode : String) : void</text><text fill="#000000" font-family="sans-serif" font-size="14" lengthAdjust="spacing" textLength="182.458" x="1865.5" y="922.5605">+getText(key : String) : String</text></g><!--class FourConnectRules--><g class="entity" data-entity="FourConnectRules" data-source-line="50" data-uid="ent0006" id="entity_FourConnectRules"><rect fill="#F1F1F1" height="48" rx="2.5" ry="2.5" style="stroke:#181818;stroke-width:0.5;" width="148.7236" x="1471.5" y="761"/><ellipse cx="1486.5" cy="777" fill="#ADD1B2" rx="11" ry="11" style="stroke:#181818;stroke-width:1;"/><path d="M1489.2656,772.875 Q1489.4219,772.6563 1489.6094,772.5469 Q1489.7969,772.4375 1490.0156,772.4375 Q1490.3906,772.4375 1490.625,772.7031 Q1490.8594,772.9531 1490.8594,773.5625 L1490.8594,775.0156 Q1490.8594,775.625 1490.625,775.8906 Q1490.3906,776.1563 1490.0156,776.1563 Q1489.6719,776.1563 1489.4688,775.9531 Q1489.2656,775.7656 1489.1563,775.25 Q1489.1094,774.8906 1488.9219,774.7031 Q1488.5938,774.3281 1487.9844,774.1094 Q1487.375,773.8906 1486.75,773.8906 Q1485.9844,773.8906 1485.3438,774.2188 Q1484.7188,774.5469 1484.2188,775.2969 Q1483.7344,776.0469 1483.7344,777.0781 L1483.7344,778.1719 Q1483.7344,779.4063 1484.625,780.2344 Q1485.5156,781.0469 1487.1094,781.0469 Q1488.0469,781.0469 1488.7031,780.7969 Q1489.0938,780.6406 1489.5156,780.2031 Q1489.7813,779.9375 1489.9219,779.8594 Q1490.0781,779.7813 1490.2813,779.7813 Q1490.6094,779.7813 1490.8594,780.0469 Q1491.125,780.2969 1491.125,780.6406 Q1491.125,780.9844 1490.7813,781.3906 Q1490.2813,781.9688 1489.4844,782.2969 Q1488.4063,782.75 1487.1094,782.75 Q1485.5938,782.75 1484.3906,782.125 Q1483.4063,781.625 1482.7188,780.5625 Q1482.0313,779.4844 1482.0313,778.2031 L1482.0313,777.0469 Q1482.0313,775.7188 1482.6406,774.5781 Q1483.2656,773.4219 1484.3594,772.8125 Q1485.4531,772.1875 1486.6875,772.1875 Q1487.4219,772.1875 1488.0625,772.3594 Q1488.7188,772.5156 1489.2656,772.875 Z " fill="#000000"/><text fill="#000000" font-family="sans-serif" font-size="14" lengthAdjust="spacing" textLength="116.7236" x="1500.5" y="782.7969">FourConnectRules</text><line style="stroke:#181818;stroke-width:0.5;" x1="1472.5" x2="1619.2236" y1="793" y2="793"/><line style="stroke:#181818;stroke-width:0.5;" x1="1472.5" x2="1619.2236" y1="801" y2="801"/></g><!--class FourConnectGame--><g class="entity" data-entity="FourConnectGame" data-source-line="53" data-uid="ent0007" id="entity_FourConnectGame"><rect fill="#F1F1F1" height="327.3164" rx="2.5" ry="2.5" style="stroke:#181818;stroke-width:0.5;" width="461.3604" x="1159.5" y="225"/><ellipse cx="1326.4028" cy="241" fill="#ADD1B2" rx="11" ry="11" style="stroke:#181818;stroke-width:1;"/><path d="M1329.1685,236.875 Q1329.3247,236.6563 1329.5122,236.5469 Q1329.6997,236.4375 1329.9185,236.4375 Q1330.2935,236.4375 1330.5278,236.7031 Q1330.7622,236.9531 1330.7622,237.5625 L1330.7622,239.0156 Q1330.7622,239.625 1330.5278,239.8906 Q1330.2935,240.1563 1329.9185,240.1563 Q1329.5747,240.1563 1329.3716,239.9531 Q1329.1685,239.7656 1329.0591,239.25 Q1329.0122,238.8906 1328.8247,238.7031 Q1328.4966,238.3281 1327.8872,238.1094 Q1327.2778,237.8906 1326.6528,237.8906 Q1325.8872,237.8906 1325.2466,238.2188 Q1324.6216,238.5469 1324.1216,239.2969 Q1323.6372,240.0469 1323.6372,241.0781 L1323.6372,242.1719 Q1323.6372,243.4063 1324.5278,244.2344 Q1325.4185,245.0469 1327.0122,245.0469 Q1327.9497,245.0469 1328.606,244.7969 Q1328.9966,244.6406 1329.4185,244.2031 Q1329.6841,243.9375 1329.8247,243.8594 Q1329.981,243.7813 1330.1841,243.7813 Q1330.5122,243.7813 1330.7622,244.0469 Q1331.0278,244.2969 1331.0278,244.6406 Q1331.0278,244.9844 1330.6841,245.3906 Q1330.1841,245.9688 1329.3872,246.2969 Q1328.3091,246.75 1327.0122,246.75 Q1325.4966,246.75 1324.2935,246.125 Q1323.3091,245.625 1322.6216,244.5625 Q1321.9341,243.4844 1321.9341,242.2031 L1321.9341,241.0469 Q1321.9341,239.7188 1322.5435,238.5781 Q1323.1685,237.4219 1324.2622,236.8125 Q1325.356,236.1875 1326.5903,236.1875 Q1327.3247,236.1875 1327.9653,236.3594 Q1328.6216,236.5156 1329.1685,236.875 Z " fill="#000000"/><text fill="#000000" font-family="sans-serif" font-size="14" lengthAdjust="spacing" textLength="119.0547" x="1346.9028" y="246.7969">FourConnectGame</text><line style="stroke:#181818;stroke-width:0.5;" x1="1160.5" x2="1619.8604" y1="257" y2="257"/><text fill="#000000" font-family="sans-serif" font-size="14" lengthAdjust="spacing" textLength="117.4961" x="1165.5" y="276.1074">-state : GameState</text><text fill="#000000" font-family="sans-serif" font-size="14" lengthAdjust="spacing" textLength="189.8545" x="1165.5" y="294.7285">-players : FourConnectPlayer[]</text><text fill="#000000" font-family="sans-serif" font-size="14" lengthAdjust="spacing" textLength="177.4199" x="1165.5" y="313.3496">-currentPlayerIndex : Integer</text><text fill="#000000" font-family="sans-serif" font-size="14" lengthAdjust="spacing" textLength="163.3994" x="1165.5" y="331.9707">-rules : FourConnectRules</text><text fill="#000000" font-family="sans-serif" font-size="14" lengthAdjust="spacing" textLength="245.123" x="1165.5" y="350.5918">-gameBoard : FourConnectGameBoard</text><text fill="#000000" font-family="sans-serif" font-size="14" lengthAdjust="spacing" textLength="214.7783" x="1165.5" y="369.2129">-currenBranding : BrandingService</text><line style="stroke:#181818;stroke-width:0.5;" x1="1160.5" x2="1619.8604" y1="376.7266" y2="376.7266"/><text fill="#000000" font-family="sans-serif" font-size="14" lengthAdjust="spacing" textLength="186.751" x="1165.5" y="395.834">&#171;create&#187; FourConnectGame()</text><text fill="#000000" font-family="sans-serif" font-size="14" lengthAdjust="spacing" textLength="155.2441" x="1165.5" y="414.4551">+getStatus(): GameState</text><text fill="#000000" font-family="sans-serif" font-size="14" lengthAdjust="spacing" textLength="109.3271" x="1165.5" y="433.0762">+setStatus(): void</text><text fill="#000000" font-family="sans-serif" font-size="14" lengthAdjust="spacing" textLength="238.5127" x="1165.5" y="451.6973">+getBoard(): FourConnectGameBoard</text><text fill="#000000" font-family="sans-serif" font-size="14" lengthAdjust="spacing" textLength="90.6377" x="1165.5" y="470.3184">+restart(): void</text><text fill="#000000" font-family="sans-serif" font-size="14" lengthAdjust="spacing" textLength="112.4443" x="1165.5" y="488.9395">+endGame(): void</text><text fill="#000000" font-family="sans-serif" font-size="14" lengthAdjust="spacing" textLength="255.6094" x="1165.5" y="507.5605">+dropDisc(column : Integer) : GameState</text><text fill="#000000" font-family="sans-serif" font-size="14" lengthAdjust="spacing" textLength="121.7686" x="1165.5" y="526.1816">+playerTurn() : void</text><text fill="#000000" font-family="sans-serif" font-size="14" lengthAdjust="spacing" textLength="449.3604" x="1165.5" y="544.8027">+initFourConnectGame(playerOne : Player, playerTwo : Player) : Integer</text></g><!--class FourConnectGameBoard--><g class="entity" data-entity="FourConnectGameBoard" data-source-line="71" data-uid="ent0008" id="entity_FourConnectGameBoard"><rect fill="#F1F1F1" height="215.5898" rx="2.5" ry="2.5" style="stroke:#181818;stroke-width:0.5;" width="469.1533" x="967.5" y="677"/><ellipse cx="1119.6201" cy="693" fill="#ADD1B2" rx="11" ry="11" style="stroke:#181818;stroke-width:1;"/><path d="M1122.3857,688.875 Q1122.542,688.6563 1122.7295,688.5469 Q1122.917,688.4375 1123.1357,688.4375 Q1123.5107,688.4375 1123.7451,688.7031 Q1123.9795,688.9531 1123.9795,689.5625 L1123.9795,691.0156 Q1123.9795,691.625 1123.7451,691.8906 Q1123.5107,692.1563 1123.1357,692.1563 Q1122.792,692.1563 1122.5889,691.9531 Q1122.3857,691.7656 1122.2764,691.25 Q1122.2295,690.8906 1122.042,690.7031 Q1121.7139,690.3281 1121.1045,690.1094 Q1120.4951,689.8906 1119.8701,689.8906 Q1119.1045,689.8906 1118.4639,690.2188 Q1117.8389,690.5469 1117.3389,691.2969 Q1116.8545,692.0469 1116.8545,693.0781 L1116.8545,694.1719 Q1116.8545,695.4063 1117.7451,696.2344 Q1118.6357,697.0469 1120.2295,697.0469 Q1121.167,697.0469 1121.8232,696.7969 Q1122.2139,696.6406 1122.6357,696.2031 Q1122.9014,695.9375 1123.042,695.8594 Q1123.1982,695.7813 1123.4014,695.7813 Q1123.7295,695.7813 1123.9795,696.0469 Q1124.2451,696.2969 1124.2451,696.6406 Q1124.2451,696.9844 1123.9014,697.3906 Q1123.4014,697.9688 1122.6045,698.2969 Q1121.5264,698.75 1120.2295,698.75 Q1118.7139,698.75 1117.5107,698.125 Q1116.5264,697.625 1115.8389,696.5625 Q1115.1514,695.4844 1115.1514,694.2031 L1115.1514,693.0469 Q1115.1514,691.7188 1115.7607,690.5781 Q1116.3857,689.4219 1117.4795,688.8125 Q1118.5732,688.1875 1119.8076,688.1875 Q1120.542,688.1875 1121.1826,688.3594 Q1121.8389,688.5156 1122.3857,688.875 Z " fill="#000000"/><text fill="#000000" font-family="sans-serif" font-size="14" lengthAdjust="spacing" textLength="156.4131" x="1140.1201" y="698.7969">FourConnectGameBoard</text><line style="stroke:#181818;stroke-width:0.5;" x1="968.5" x2="1435.6533" y1="709" y2="709"/><text fill="#000000" font-family="sans-serif" font-size="14" lengthAdjust="spacing" text-decoration="underline" textLength="161.0273" x="973.5" y="728.1074">-ROW_COUNTS : Integer</text><text fill="#000000" font-family="sans-serif" font-size="14" lengthAdjust="spacing" text-decoration="underline" textLength="187.4824" x="973.5" y="746.7285">-COLUMN_COUNTS : Integer</text><text fill="#000000" font-family="sans-serif" font-size="14" lengthAdjust="spacing" textLength="71.5723" x="973.5" y="765.3496">-cells : Map</text><line style="stroke:#181818;stroke-width:0.5;" x1="968.5" x2="1435.6533" y1="772.8633" y2="772.8633"/><text fill="#000000" font-family="sans-serif" font-size="14" lengthAdjust="spacing" textLength="127.2236" x="973.5" y="791.9707">+getRows() : Integer</text><text fill="#000000" font-family="sans-serif" font-size="14" lengthAdjust="spacing" textLength="147.458" x="973.5" y="810.5918">+getColumns() : Integer</text><text fill="#000000" font-family="sans-serif" font-size="14" lengthAdjust="spacing" textLength="366.8848" x="973.5" y="829.2129">+getCellOwner(x : Integer, y : Integer) : FourConnectPlayer</text><text fill="#000000" font-family="sans-serif" font-size="14" lengthAdjust="spacing" textLength="457.1533" x="973.5" y="847.834">+setCellValue(cell : Position, currentPlayer : FourConnectPlayer) : Integer</text><text fill="#000000" font-family="sans-serif" font-size="14" lengthAdjust="spacing" textLength="232.2852" x="973.5" y="866.4551">+&#171;create&#187; FourConnectGameBoard()</text><text fill="#000000" font-family="sans-serif" font-size="14" lengthAdjust="spacing" textLength="288.3125" x="973.5" y="885.0762">+copy(board : FourConnectGameBoard) : void</text></g><!--class Position--><g class="entity" data-entity="Position" data-source-line="83" data-uid="ent0009" id="entity_Position"><rect fill="#F1F1F1" height="141.1055" rx="2.5" ry="2.5" style="stroke:#181818;stroke-width:0.5;" width="269.9678" x="23" y="714.5"/><ellipse cx="128.8306" cy="730.5" fill="#ADD1B2" rx="11" ry="11" style="stroke:#181818;stroke-width:1;"/><path d="M131.5962,726.375 Q131.7524,726.1563 131.9399,726.0469 Q132.1274,725.9375 132.3462,725.9375 Q132.7212,725.9375 132.9556,726.2031 Q133.1899,726.4531 133.1899,727.0625 L133.1899,728.5156 Q133.1899,729.125 132.9556,729.3906 Q132.7212,729.6563 132.3462,729.6563 Q132.0024,729.6563 131.7993,729.4531 Q131.5962,729.2656 131.4868,728.75 Q131.4399,728.3906 131.2524,728.2031 Q130.9243,727.8281 130.3149,727.6094 Q129.7056,727.3906 129.0806,727.3906 Q128.3149,727.3906 127.6743,727.7188 Q127.0493,728.0469 126.5493,728.7969 Q126.0649,729.5469 126.0649,730.5781 L126.0649,731.6719 Q126.0649,732.9063 126.9556,733.7344 Q127.8462,734.5469 129.4399,734.5469 Q130.3774,734.5469 131.0337,734.2969 Q131.4243,734.1406 131.8462,733.7031 Q132.1118,733.4375 132.2524,733.3594 Q132.4087,733.2813 132.6118,733.2813 Q132.9399,733.2813 133.1899,733.5469 Q133.4556,733.7969 133.4556,734.1406 Q133.4556,734.4844 133.1118,734.8906 Q132.6118,735.4688 131.8149,735.7969 Q130.7368,736.25 129.4399,736.25 Q127.9243,736.25 126.7212,735.625 Q125.7368,735.125 125.0493,734.0625 Q124.3618,732.9844 124.3618,731.7031 L124.3618,730.5469 Q124.3618,729.2188 124.9712,728.0781 Q125.5962,726.9219 126.6899,726.3125 Q127.7837,725.6875 129.0181,725.6875 Q129.7524,725.6875 130.3931,725.8594 Q131.0493,726.0156 131.5962,726.375 Z " fill="#000000"/><text fill="#000000" font-family="sans-serif" font-size="14" lengthAdjust="spacing" textLength="49.8066" x="149.3306" y="736.2969">Position</text><line style="stroke:#181818;stroke-width:0.5;" x1="24" x2="291.9678" y1="746.5" y2="746.5"/><text fill="#000000" font-family="sans-serif" font-size="14" lengthAdjust="spacing" textLength="66.917" x="29" y="765.6074">-x : Integer</text><text fill="#000000" font-family="sans-serif" font-size="14" lengthAdjust="spacing" textLength="66.917" x="29" y="784.2285">-y : Integer</text><line style="stroke:#181818;stroke-width:0.5;" x1="24" x2="291.9678" y1="791.7422" y2="791.7422"/><text fill="#000000" font-family="sans-serif" font-size="14" lengthAdjust="spacing" textLength="101.5547" x="29" y="810.8496">+getX() : Integer</text><text fill="#000000" font-family="sans-serif" font-size="14" lengthAdjust="spacing" textLength="101.5547" x="29" y="829.4707">+getY() : Integer</text><text fill="#000000" font-family="sans-serif" font-size="14" lengthAdjust="spacing" textLength="257.9678" x="29" y="848.0918">+&#171;create&#187; Position(x : Integer, y : Integer)</text></g><!--class Player--><g class="entity" data-entity="Player" data-source-line="91" data-uid="ent0010" id="entity_Player"><rect fill="#F1F1F1" height="135.0664" rx="2.5" ry="2.5" style="stroke:#181818;stroke-width:0.5;" width="108.0566" x="804" y="321"/><ellipse cx="819" cy="343.291" fill="#EB937F" rx="11" ry="11" style="stroke:#181818;stroke-width:1;"/><path d="M817.8594,344.0879 L817.8594,346.5879 L822.1875,346.5879 L822.1875,345.666 Q822.1875,345.0566 822.4219,344.791 Q822.6719,344.5254 823.0469,344.5254 Q823.4219,344.5254 823.6563,344.791 Q823.8906,345.0566 823.8906,345.666 L823.8906,348.291 L815.8906,348.291 Q815.2656,348.291 815,348.0566 Q814.75,347.8223 814.75,347.4316 Q814.75,347.0566 815.0156,346.8223 Q815.2813,346.5879 815.8906,346.5879 L816.1563,346.5879 L816.1563,339.9316 L815.8906,339.9316 Q815.2656,339.9316 815,339.6973 Q814.75,339.4629 814.75,339.0723 Q814.75,338.6973 815,338.4629 Q815.2656,338.2285 815.8906,338.2285 L823.5156,338.2285 L823.5156,340.8223 Q823.5156,341.4316 823.2813,341.6973 Q823.0625,341.9473 822.6719,341.9473 Q822.2969,341.9473 822.0625,341.6973 Q821.8281,341.4316 821.8281,340.8223 L821.8281,339.9316 L817.8594,339.9316 L817.8594,342.3848 L819.3438,342.3848 Q819.3438,341.7285 819.4688,341.541 Q819.7344,341.1348 820.2031,341.1348 Q820.5781,341.1348 820.8125,341.4004 Q821.0469,341.6504 821.0469,342.2598 L821.0469,344.2285 Q821.0469,344.7754 820.9219,344.9629 Q820.6563,345.3535 820.2031,345.3535 Q819.7344,345.3535 819.4688,344.9473 Q819.3438,344.7598 819.3438,344.0879 L817.8594,344.0879 Z " fill="#000000"/><text fill="#000000" font-family="sans-serif" font-size="12" font-style="italic" lengthAdjust="spacing" textLength="80.0566" x="831" y="338.9492">&#171;enumeration&#187;</text><text fill="#000000" font-family="sans-serif" font-size="14" lengthAdjust="spacing" textLength="39.6826" x="851.187" y="357.0684">Player</text><line style="stroke:#181818;stroke-width:0.5;" x1="805" x2="911.0566" y1="365.582" y2="365.582"/><text fill="#000000" font-family="sans-serif" font-size="14" lengthAdjust="spacing" textLength="51.3311" x="810" y="384.6895">HUMAN</text><text fill="#000000" font-family="sans-serif" font-size="14" lengthAdjust="spacing" textLength="66.1309" x="810" y="403.3105">EASYBOT</text><text fill="#000000" font-family="sans-serif" font-size="14" lengthAdjust="spacing" textLength="68.4482" x="810" y="421.9316">HARDBOT</text><text fill="#000000" font-family="sans-serif" font-size="14" lengthAdjust="spacing" textLength="40.4482" x="810" y="440.5527">NONE</text><line style="stroke:#181818;stroke-width:0.5;" x1="805" x2="911.0566" y1="448.0664" y2="448.0664"/></g><!--class FourConnectPlayer--><g class="entity" data-entity="FourConnectPlayer" data-source-line="98" data-uid="ent0011" id="entity_FourConnectPlayer"><rect fill="#F1F1F1" height="178.3477" rx="2.5" ry="2.5" style="stroke:#181818;stroke-width:0.5;" width="603.7803" x="328" y="696"/><ellipse cx="565.3335" cy="712" fill="#ADD1B2" rx="11" ry="11" style="stroke:#181818;stroke-width:1;"/><path d="M568.0991,707.875 Q568.2554,707.6563 568.4429,707.5469 Q568.6304,707.4375 568.8491,707.4375 Q569.2241,707.4375 569.4585,707.7031 Q569.6929,707.9531 569.6929,708.5625 L569.6929,710.0156 Q569.6929,710.625 569.4585,710.8906 Q569.2241,711.1563 568.8491,711.1563 Q568.5054,711.1563 568.3022,710.9531 Q568.0991,710.7656 567.9897,710.25 Q567.9429,709.8906 567.7554,709.7031 Q567.4272,709.3281 566.8179,709.1094 Q566.2085,708.8906 565.5835,708.8906 Q564.8179,708.8906 564.1772,709.2188 Q563.5522,709.5469 563.0522,710.2969 Q562.5679,711.0469 562.5679,712.0781 L562.5679,713.1719 Q562.5679,714.4063 563.4585,715.2344 Q564.3491,716.0469 565.9429,716.0469 Q566.8804,716.0469 567.5366,715.7969 Q567.9272,715.6406 568.3491,715.2031 Q568.6147,714.9375 568.7554,714.8594 Q568.9116,714.7813 569.1147,714.7813 Q569.4429,714.7813 569.6929,715.0469 Q569.9585,715.2969 569.9585,715.6406 Q569.9585,715.9844 569.6147,716.3906 Q569.1147,716.9688 568.3179,717.2969 Q567.2397,717.75 565.9429,717.75 Q564.4272,717.75 563.2241,717.125 Q562.2397,716.625 561.5522,715.5625 Q560.8647,714.4844 560.8647,713.2031 L560.8647,712.0469 Q560.8647,710.7188 561.4741,709.5781 Q562.0991,708.4219 563.1929,707.8125 Q564.2866,707.1875 565.521,707.1875 Q566.2554,707.1875 566.896,707.3594 Q567.5522,707.5156 568.0991,707.875 Z " fill="#000000"/><text fill="#000000" font-family="sans-serif" font-size="14" lengthAdjust="spacing" textLength="120.6133" x="585.8335" y="717.7969">FourConnectPlayer</text><line style="stroke:#181818;stroke-width:0.5;" x1="329" x2="930.7803" y1="728" y2="728"/><text fill="#000000" font-family="sans-serif" font-size="14" lengthAdjust="spacing" textLength="82.4756" x="334" y="747.1074">-type : Player</text><text fill="#000000" font-family="sans-serif" font-size="14" lengthAdjust="spacing" textLength="220.2129" x="334" y="765.7285">-strategy : FourConnectBotStrategy</text><text fill="#000000" font-family="sans-serif" font-size="14" lengthAdjust="spacing" textLength="91.0342" x="334" y="784.3496">-colour : String</text><line style="stroke:#181818;stroke-width:0.5;" x1="329" x2="930.7803" y1="791.8633" y2="791.8633"/><text fill="#000000" font-family="sans-serif" font-size="14" lengthAdjust="spacing" textLength="119.4375" x="334" y="810.9707">+getType() : Player</text><text fill="#000000" font-family="sans-serif" font-size="14" lengthAdjust="spacing" textLength="254.8506" x="334" y="829.5918">+getStrategy() : FourConnectBotStrategy</text><text fill="#000000" font-family="sans-serif" font-size="14" lengthAdjust="spacing" textLength="126.4443" x="334" y="848.2129">+getColour() : String</text><text fill="#000000" font-family="sans-serif" font-size="14" lengthAdjust="spacing" textLength="591.7803" x="334" y="866.834">+&#171;create&#187; FourConnectPlayer(type : Player, strategy : FourConnectBotStrategy, colour : String)</text></g><!--class FourConnectBotStrategy--><g class="entity" data-entity="FourConnectBotStrategy" data-source-line="108" data-uid="ent0012" id="entity_FourConnectBotStrategy"><rect fill="#F1F1F1" height="345.9375" rx="2.5" ry="2.5" style="stroke:#181818;stroke-width:0.5;" width="468.3877" x="538" y="1018"/><ellipse cx="690.9028" cy="1034" fill="#ADD1B2" rx="11" ry="11" style="stroke:#181818;stroke-width:1;"/><path d="M693.6685,1029.875 Q693.8247,1029.6563 694.0122,1029.5469 Q694.1997,1029.4375 694.4185,1029.4375 Q694.7935,1029.4375 695.0278,1029.7031 Q695.2622,1029.9531 695.2622,1030.5625 L695.2622,1032.0156 Q695.2622,1032.625 695.0278,1032.8906 Q694.7935,1033.1563 694.4185,1033.1563 Q694.0747,1033.1563 693.8716,1032.9531 Q693.6685,1032.7656 693.5591,1032.25 Q693.5122,1031.8906 693.3247,1031.7031 Q692.9966,1031.3281 692.3872,1031.1094 Q691.7778,1030.8906 691.1528,1030.8906 Q690.3872,1030.8906 689.7466,1031.2188 Q689.1216,1031.5469 688.6216,1032.2969 Q688.1372,1033.0469 688.1372,1034.0781 L688.1372,1035.1719 Q688.1372,1036.4063 689.0278,1037.2344 Q689.9185,1038.0469 691.5122,1038.0469 Q692.4497,1038.0469 693.106,1037.7969 Q693.4966,1037.6406 693.9185,1037.2031 Q694.1841,1036.9375 694.3247,1036.8594 Q694.481,1036.7813 694.6841,1036.7813 Q695.0122,1036.7813 695.2622,1037.0469 Q695.5278,1037.2969 695.5278,1037.6406 Q695.5278,1037.9844 695.1841,1038.3906 Q694.6841,1038.9688 693.8872,1039.2969 Q692.8091,1039.75 691.5122,1039.75 Q689.9966,1039.75 688.7935,1039.125 Q687.8091,1038.625 687.1216,1037.5625 Q686.4341,1036.4844 686.4341,1035.2031 L686.4341,1034.0469 Q686.4341,1032.7188 687.0435,1031.5781 Q687.6685,1030.4219 688.7622,1029.8125 Q689.856,1029.1875 691.0903,1029.1875 Q691.8247,1029.1875 692.4653,1029.3594 Q693.1216,1029.5156 693.6685,1029.875 Z " fill="#000000"/><text fill="#000000" font-family="sans-serif" font-size="14" lengthAdjust="spacing" textLength="154.082" x="711.4028" y="1039.7969">FourConnectBotStrategy</text><line style="stroke:#181818;stroke-width:0.5;" x1="539" x2="1005.3877" y1="1050" y2="1050"/><text fill="#000000" font-family="sans-serif" font-size="14" lengthAdjust="spacing" textLength="184.0234" x="544" y="1069.1074">~fcGame: FourConnectGame</text><text fill="#000000" font-family="sans-serif" font-size="14" lengthAdjust="spacing" textLength="179.3613" x="544" y="1087.7285">~fcRules: FourConnectRules</text><text fill="#000000" font-family="sans-serif" font-size="14" lengthAdjust="spacing" textLength="122.9375" x="544" y="1106.3496">-randNum: Random</text><text fill="#000000" font-family="sans-serif" font-size="14" lengthAdjust="spacing" text-decoration="underline" textLength="90.2549" x="544" y="1124.9707">-player: Player</text><text fill="#000000" font-family="sans-serif" font-size="14" lengthAdjust="spacing" text-decoration="underline" textLength="71.5859" x="544" y="1143.5918">-bot: Player</text><text fill="#000000" font-family="sans-serif" font-size="14" lengthAdjust="spacing" text-decoration="underline" textLength="161.0273" x="544" y="1162.2129">-SCORE_BOT_FOUR: int</text><text fill="#000000" font-family="sans-serif" font-size="14" lengthAdjust="spacing" text-decoration="underline" textLength="168.8135" x="544" y="1180.834">-SCORE_BOT_THREE: int</text><text fill="#000000" font-family="sans-serif" font-size="14" lengthAdjust="spacing" text-decoration="underline" textLength="154.0205" x="544" y="1199.4551">-SCORE_BOT_TWO: int</text><text fill="#000000" font-family="sans-serif" font-size="14" lengthAdjust="spacing" text-decoration="underline" textLength="161.8135" x="544" y="1218.0762">-SCORE_OPP_FOUR: int</text><text fill="#000000" font-family="sans-serif" font-size="14" lengthAdjust="spacing" text-decoration="underline" textLength="169.5996" x="544" y="1236.6973">-SCORE_OPP_THREE: int</text><text fill="#000000" font-family="sans-serif" font-size="14" lengthAdjust="spacing" text-decoration="underline" textLength="154.8066" x="544" y="1255.3184">-SCORE_OPP_TWO: int</text><text fill="#000000" font-family="sans-serif" font-size="14" lengthAdjust="spacing" text-decoration="underline" textLength="142.3516" x="544" y="1273.9395">-MINIMAX_DEPTH: int</text><line style="stroke:#181818;stroke-width:0.5;" x1="539" x2="1005.3877" y1="1281.4531" y2="1281.4531"/><text fill="#000000" font-family="sans-serif" font-size="14" lengthAdjust="spacing" textLength="244.7266" x="544" y="1300.5605">+FourConnectBotStrategy(game, rules)</text><text fill="#000000" font-family="sans-serif" font-size="14" lengthAdjust="spacing" textLength="234.623" x="544" y="1319.1816">+chooseMove(board: IPlayArea): void</text><text fill="#000000" font-family="sans-serif" font-size="14" lengthAdjust="spacing" textLength="359.9258" x="544" y="1337.8027">~appraiseBoard(board: FourConnectGameBoard): Integer</text><text fill="#000000" font-family="sans-serif" font-size="14" lengthAdjust="spacing" textLength="456.3877" x="544" y="1356.4238">~allFourConnects(board: FourConnectGameBoard): ArrayList&lt;Position[]&gt;</text></g><!--class Easy--><g class="entity" data-entity="Easy" data-source-line="127" data-uid="ent0013" id="entity_Easy"><rect fill="#F1F1F1" height="66.6211" rx="2.5" ry="2.5" style="stroke:#181818;stroke-width:0.5;" width="246.623" x="343.5" y="1476.5"/><ellipse cx="410.4238" cy="1492.5" fill="#ADD1B2" rx="11" ry="11" style="stroke:#181818;stroke-width:1;"/><path d="M413.1895,1488.375 Q413.3457,1488.1563 413.5332,1488.0469 Q413.7207,1487.9375 413.9395,1487.9375 Q414.3145,1487.9375 414.5488,1488.2031 Q414.7832,1488.4531 414.7832,1489.0625 L414.7832,1490.5156 Q414.7832,1491.125 414.5488,1491.3906 Q414.3145,1491.6563 413.9395,1491.6563 Q413.5957,1491.6563 413.3926,1491.4531 Q413.1895,1491.2656 413.0801,1490.75 Q413.0332,1490.3906 412.8457,1490.2031 Q412.5176,1489.8281 411.9082,1489.6094 Q411.2988,1489.3906 410.6738,1489.3906 Q409.9082,1489.3906 409.2676,1489.7188 Q408.6426,1490.0469 408.1426,1490.7969 Q407.6582,1491.5469 407.6582,1492.5781 L407.6582,1493.6719 Q407.6582,1494.9063 408.5488,1495.7344 Q409.4395,1496.5469 411.0332,1496.5469 Q411.9707,1496.5469 412.627,1496.2969 Q413.0176,1496.1406 413.4395,1495.7031 Q413.7051,1495.4375 413.8457,1495.3594 Q414.002,1495.2813 414.2051,1495.2813 Q414.5332,1495.2813 414.7832,1495.5469 Q415.0488,1495.7969 415.0488,1496.1406 Q415.0488,1496.4844 414.7051,1496.8906 Q414.2051,1497.4688 413.4082,1497.7969 Q412.3301,1498.25 411.0332,1498.25 Q409.5176,1498.25 408.3145,1497.625 Q407.3301,1497.125 406.6426,1496.0625 Q405.9551,1494.9844 405.9551,1493.7031 L405.9551,1492.5469 Q405.9551,1491.2188 406.5645,1490.0781 Q407.1895,1488.9219 408.2832,1488.3125 Q409.377,1487.6875 410.6113,1487.6875 Q411.3457,1487.6875 411.9863,1487.8594 Q412.6426,1488.0156 413.1895,1488.375 Z " fill="#000000"/><text fill="#000000" font-family="sans-serif" font-size="14" lengthAdjust="spacing" textLength="104.2754" x="430.9238" y="1498.2969">EasyBotStrategy</text><line style="stroke:#181818;stroke-width:0.5;" x1="344.5" x2="589.123" y1="1508.5" y2="1508.5"/><line style="stroke:#181818;stroke-width:0.5;" x1="344.5" x2="589.123" y1="1516.5" y2="1516.5"/><text fill="#000000" font-family="sans-serif" font-size="14" lengthAdjust="spacing" textLength="234.623" x="349.5" y="1535.6074">+chooseMove(board: IPlayArea): void</text></g><!--class Hard--><g class="entity" data-entity="Hard" data-source-line="131" data-uid="ent0014" id="entity_Hard"><rect fill="#F1F1F1" height="159.7266" rx="2.5" ry="2.5" style="stroke:#181818;stroke-width:0.5;" width="292.8818" x="625.5" y="1430"/><ellipse cx="715.9429" cy="1446" fill="#ADD1B2" rx="11" ry="11" style="stroke:#181818;stroke-width:1;"/><path d="M718.7085,1441.875 Q718.8647,1441.6563 719.0522,1441.5469 Q719.2397,1441.4375 719.4585,1441.4375 Q719.8335,1441.4375 720.0679,1441.7031 Q720.3022,1441.9531 720.3022,1442.5625 L720.3022,1444.0156 Q720.3022,1444.625 720.0679,1444.8906 Q719.8335,1445.1563 719.4585,1445.1563 Q719.1147,1445.1563 718.9116,1444.9531 Q718.7085,1444.7656 718.5991,1444.25 Q718.5522,1443.8906 718.3647,1443.7031 Q718.0366,1443.3281 717.4272,1443.1094 Q716.8179,1442.8906 716.1929,1442.8906 Q715.4272,1442.8906 714.7866,1443.2188 Q714.1616,1443.5469 713.6616,1444.2969 Q713.1772,1445.0469 713.1772,1446.0781 L713.1772,1447.1719 Q713.1772,1448.4063 714.0679,1449.2344 Q714.9585,1450.0469 716.5522,1450.0469 Q717.4897,1450.0469 718.146,1449.7969 Q718.5366,1449.6406 718.9585,1449.2031 Q719.2241,1448.9375 719.3647,1448.8594 Q719.521,1448.7813 719.7241,1448.7813 Q720.0522,1448.7813 720.3022,1449.0469 Q720.5679,1449.2969 720.5679,1449.6406 Q720.5679,1449.9844 720.2241,1450.3906 Q719.7241,1450.9688 718.9272,1451.2969 Q717.8491,1451.75 716.5522,1451.75 Q715.0366,1451.75 713.8335,1451.125 Q712.8491,1450.625 712.1616,1449.5625 Q711.4741,1448.4844 711.4741,1447.2031 L711.4741,1446.0469 Q711.4741,1444.7188 712.0835,1443.5781 Q712.7085,1442.4219 713.8022,1441.8125 Q714.896,1441.1875 716.1304,1441.1875 Q716.8647,1441.1875 717.5054,1441.3594 Q718.1616,1441.5156 718.7085,1441.875 Z " fill="#000000"/><text fill="#000000" font-family="sans-serif" font-size="14" lengthAdjust="spacing" textLength="103.4961" x="736.4429" y="1451.7969">HardBotStrategy</text><line style="stroke:#181818;stroke-width:0.5;" x1="626.5" x2="917.3818" y1="1462" y2="1462"/><line style="stroke:#181818;stroke-width:0.5;" x1="626.5" x2="917.3818" y1="1470" y2="1470"/><text fill="#000000" font-family="sans-serif" font-size="14" lengthAdjust="spacing" textLength="234.623" x="631.5" y="1489.1074">+chooseMove(board: IPlayArea): void</text><text fill="#000000" font-family="sans-serif" font-size="14" lengthAdjust="spacing" textLength="223.3438" x="631.5" y="1507.7285">-findBestTurn(board, depth): Integer</text><text fill="#000000" font-family="sans-serif" font-size="14" lengthAdjust="spacing" textLength="280.8818" x="631.5" y="1526.3496">-minMax(board, depth, isMaximizing): Integer</text><text fill="#000000" font-family="sans-serif" font-size="14" lengthAdjust="spacing" textLength="242.792" x="631.5" y="1544.9707">-findValideTurns(board): List&lt;Position&gt;</text><text fill="#000000" font-family="sans-serif" font-size="14" lengthAdjust="spacing" textLength="224.0957" x="631.5" y="1563.5918">-playTestTurn(board, turn, bot): void</text><text fill="#000000" font-family="sans-serif" font-size="14" lengthAdjust="spacing" textLength="202.3164" x="631.5" y="1582.2129">-undoTestTurn(board, turn): void</text></g><!--class GameMode--><g class="entity" data-entity="GameMode" data-source-line="140" data-uid="ent0015" id="entity_GameMode"><rect fill="#F1F1F1" height="97.8242" rx="2.5" ry="2.5" style="stroke:#181818;stroke-width:0.5;" width="108.0566" x="236" y="339.5"/><ellipse cx="251" cy="361.791" fill="#EB937F" rx="11" ry="11" style="stroke:#181818;stroke-width:1;"/><path d="M249.8594,362.5879 L249.8594,365.0879 L254.1875,365.0879 L254.1875,364.166 Q254.1875,363.5566 254.4219,363.291 Q254.6719,363.0254 255.0469,363.0254 Q255.4219,363.0254 255.6563,363.291 Q255.8906,363.5566 255.8906,364.166 L255.8906,366.791 L247.8906,366.791 Q247.2656,366.791 247,366.5566 Q246.75,366.3223 246.75,365.9316 Q246.75,365.5566 247.0156,365.3223 Q247.2813,365.0879 247.8906,365.0879 L248.1563,365.0879 L248.1563,358.4316 L247.8906,358.4316 Q247.2656,358.4316 247,358.1973 Q246.75,357.9629 246.75,357.5723 Q246.75,357.1973 247,356.9629 Q247.2656,356.7285 247.8906,356.7285 L255.5156,356.7285 L255.5156,359.3223 Q255.5156,359.9316 255.2813,360.1973 Q255.0625,360.4473 254.6719,360.4473 Q254.2969,360.4473 254.0625,360.1973 Q253.8281,359.9316 253.8281,359.3223 L253.8281,358.4316 L249.8594,358.4316 L249.8594,360.8848 L251.3438,360.8848 Q251.3438,360.2285 251.4688,360.041 Q251.7344,359.6348 252.2031,359.6348 Q252.5781,359.6348 252.8125,359.9004 Q253.0469,360.1504 253.0469,360.7598 L253.0469,362.7285 Q253.0469,363.2754 252.9219,363.4629 Q252.6563,363.8535 252.2031,363.8535 Q251.7344,363.8535 251.4688,363.4473 Q251.3438,363.2598 251.3438,362.5879 L249.8594,362.5879 Z " fill="#000000"/><text fill="#000000" font-family="sans-serif" font-size="12" font-style="italic" lengthAdjust="spacing" textLength="80.0566" x="263" y="357.4492">&#171;enumeration&#187;</text><text fill="#000000" font-family="sans-serif" font-size="14" lengthAdjust="spacing" textLength="73.1445" x="266.4561" y="375.5684">GameMode</text><line style="stroke:#181818;stroke-width:0.5;" x1="237" x2="343.0566" y1="384.082" y2="384.082"/><text fill="#000000" font-family="sans-serif" font-size="14" lengthAdjust="spacing" textLength="87.9033" x="242" y="403.1895">TWOPLAYER</text><text fill="#000000" font-family="sans-serif" font-size="14" lengthAdjust="spacing" textLength="28.7793" x="242" y="421.8105">BOT</text><line style="stroke:#181818;stroke-width:0.5;" x1="237" x2="343.0566" y1="429.3242" y2="429.3242"/></g><!--class IMoveStrategy--><g class="entity" data-entity="IMoveStrategy" data-source-line="148" data-uid="ent0019" id="entity_IMoveStrategy"><rect fill="#F1F1F1" height="48" rx="2.5" ry="2.5" style="stroke:#181818;stroke-width:0.5;" width="122.2617" x="711" y="1656"/><ellipse cx="726" cy="1672" fill="#ADD1B2" rx="11" ry="11" style="stroke:#181818;stroke-width:1;"/><path d="M728.7656,1667.875 Q728.9219,1667.6563 729.1094,1667.5469 Q729.2969,1667.4375 729.5156,1667.4375 Q729.8906,1667.4375 730.125,1667.7031 Q730.3594,1667.9531 730.3594,1668.5625 L730.3594,1670.0156 Q730.3594,1670.625 730.125,1670.8906 Q729.8906,1671.1563 729.5156,1671.1563 Q729.1719,1671.1563 728.9688,1670.9531 Q728.7656,1670.7656 728.6563,1670.25 Q728.6094,1669.8906 728.4219,1669.7031 Q728.0938,1669.3281 727.4844,1669.1094 Q726.875,1668.8906 726.25,1668.8906 Q725.4844,1668.8906 724.8438,1669.2188 Q724.2188,1669.5469 723.7188,1670.2969 Q723.2344,1671.0469 723.2344,1672.0781 L723.2344,1673.1719 Q723.2344,1674.4063 724.125,1675.2344 Q725.0156,1676.0469 726.6094,1676.0469 Q727.5469,1676.0469 728.2031,1675.7969 Q728.5938,1675.6406 729.0156,1675.2031 Q729.2813,1674.9375 729.4219,1674.8594 Q729.5781,1674.7813 729.7813,1674.7813 Q730.1094,1674.7813 730.3594,1675.0469 Q730.625,1675.2969 730.625,1675.6406 Q730.625,1675.9844 730.2813,1676.3906 Q729.7813,1676.9688 728.9844,1677.2969 Q727.9063,1677.75 726.6094,1677.75 Q725.0938,1677.75 723.8906,1677.125 Q722.9063,1676.625 722.2188,1675.5625 Q721.5313,1674.4844 721.5313,1673.2031 L721.5313,1672.0469 Q721.5313,1670.7188 722.1406,1669.5781 Q722.7656,1668.4219 723.8594,1667.8125 Q724.9531,1667.1875 726.1875,1667.1875 Q726.9219,1667.1875 727.5625,1667.3594 Q728.2188,1667.5156 728.7656,1667.875 Z " fill="#000000"/><text fill="#000000" font-family="sans-serif" font-size="14" lengthAdjust="spacing" textLength="90.2617" x="740" y="1677.7969">IMoveStrategy</text><line style="stroke:#181818;stroke-width:0.5;" x1="712" x2="832.2617" y1="1688" y2="1688"/><line style="stroke:#181818;stroke-width:0.5;" x1="712" x2="832.2617" y1="1696" y2="1696"/></g><!--class IRuleSet--><g class="entity" data-entity="IRuleSet" data-source-line="156" data-uid="ent0024" id="entity_IRuleSet"><rect fill="#F1F1F1" height="97.8242" rx="2.5" ry="2.5" style="stroke:#181818;stroke-width:0.5;" width="367.2158" x="2126.5" y="1461"/><ellipse cx="2278.1714" cy="1483.291" fill="#B4A7E5" rx="11" ry="11" style="stroke:#181818;stroke-width:1;"/><path d="M2279.1245,1479.9316 L2279.1245,1486.5879 L2280.8433,1486.5879 Q2281.4526,1486.5879 2281.7183,1486.8223 Q2281.9839,1487.0566 2281.9839,1487.4473 Q2281.9839,1487.8223 2281.7183,1488.0566 Q2281.4526,1488.291 2280.8433,1488.291 L2275.7026,1488.291 Q2275.0933,1488.291 2274.8276,1488.0566 Q2274.562,1487.8223 2274.562,1487.4316 Q2274.562,1487.0566 2274.8276,1486.8223 Q2275.0933,1486.5879 2275.7026,1486.5879 L2277.4214,1486.5879 L2277.4214,1479.9316 L2275.7026,1479.9316 Q2275.0933,1479.9316 2274.8276,1479.6973 Q2274.562,1479.4629 2274.562,1479.0723 Q2274.562,1478.6973 2274.8276,1478.4629 Q2275.0933,1478.2285 2275.7026,1478.2285 L2280.8433,1478.2285 Q2281.4526,1478.2285 2281.7183,1478.4629 Q2281.9839,1478.6973 2281.9839,1479.0723 Q2281.9839,1479.4629 2281.7183,1479.6973 Q2281.4526,1479.9316 2280.8433,1479.9316 L2279.1245,1479.9316 Z " fill="#000000"/><text fill="#000000" font-family="sans-serif" font-size="12" font-style="italic" lengthAdjust="spacing" textLength="59.373" x="2296.6714" y="1478.9492">&#171;interface&#187;</text><text fill="#000000" font-family="sans-serif" font-size="14" font-style="italic" lengthAdjust="spacing" textLength="53.6963" x="2299.5098" y="1497.0684">IRuleSet</text><line style="stroke:#181818;stroke-width:0.5;" x1="2127.5" x2="2492.7158" y1="1505.582" y2="1505.582"/><line style="stroke:#181818;stroke-width:0.5;" x1="2127.5" x2="2492.7158" y1="1513.582" y2="1513.582"/><text fill="#000000" font-family="sans-serif" font-size="14" lengthAdjust="spacing" textLength="355.2158" x="2132.5" y="1532.6895">+checkWin(board : IPlayArea, player : PlayerT) : Boolean</text><text fill="#000000" font-family="sans-serif" font-size="14" lengthAdjust="spacing" textLength="244.7402" x="2132.5" y="1551.3105">+checkTie(board : IPlayArea) : Boolean</text></g><!--class GameState--><g class="entity" data-entity="GameState" data-source-line="161" data-uid="ent0025" id="entity_GameState"><rect fill="#F1F1F1" height="172.3086" rx="2.5" ry="2.5" style="stroke:#181818;stroke-width:0.5;" width="108.0566" x="2529" y="1424"/><ellipse cx="2544" cy="1446.291" fill="#EB937F" rx="11" ry="11" style="stroke:#181818;stroke-width:1;"/><path d="M2542.8594,1447.0879 L2542.8594,1449.5879 L2547.1875,1449.5879 L2547.1875,1448.666 Q2547.1875,1448.0566 2547.4219,1447.791 Q2547.6719,1447.5254 2548.0469,1447.5254 Q2548.4219,1447.5254 2548.6563,1447.791 Q2548.8906,1448.0566 2548.8906,1448.666 L2548.8906,1451.291 L2540.8906,1451.291 Q2540.2656,1451.291 2540,1451.0566 Q2539.75,1450.8223 2539.75,1450.4316 Q2539.75,1450.0566 2540.0156,1449.8223 Q2540.2813,1449.5879 2540.8906,1449.5879 L2541.1563,1449.5879 L2541.1563,1442.9316 L2540.8906,1442.9316 Q2540.2656,1442.9316 2540,1442.6973 Q2539.75,1442.4629 2539.75,1442.0723 Q2539.75,1441.6973 2540,1441.4629 Q2540.2656,1441.2285 2540.8906,1441.2285 L2548.5156,1441.2285 L2548.5156,1443.8223 Q2548.5156,1444.4316 2548.2813,1444.6973 Q2548.0625,1444.9473 2547.6719,1444.9473 Q2547.2969,1444.9473 2547.0625,1444.6973 Q2546.8281,1444.4316 2546.8281,1443.8223 L2546.8281,1442.9316 L2542.8594,1442.9316 L2542.8594,1445.3848 L2544.3438,1445.3848 Q2544.3438,1444.7285 2544.4688,1444.541 Q2544.7344,1444.1348 2545.2031,1444.1348 Q2545.5781,1444.1348 2545.8125,1444.4004 Q2546.0469,1444.6504 2546.0469,1445.2598 L2546.0469,1447.2285 Q2546.0469,1447.7754 2545.9219,1447.9629 Q2545.6563,1448.3535 2545.2031,1448.3535 Q2544.7344,1448.3535 2544.4688,1447.9473 Q2544.3438,1447.7598 2544.3438,1447.0879 L2542.8594,1447.0879 Z " fill="#000000"/><text fill="#000000" font-family="sans-serif" font-size="12" font-style="italic" lengthAdjust="spacing" textLength="80.0566" x="2556" y="1441.9492">&#171;enumeration&#187;</text><text fill="#000000" font-family="sans-serif" font-size="14" lengthAdjust="spacing" textLength="70.8135" x="2560.6216" y="1460.0684">GameState</text><line style="stroke:#181818;stroke-width:0.5;" x1="2530" x2="2636.0566" y1="1468.582" y2="1468.582"/><text fill="#000000" font-family="sans-serif" font-size="14" lengthAdjust="spacing" textLength="66.9238" x="2535" y="1487.6895">NotStarted</text><text fill="#000000" font-family="sans-serif" font-size="14" lengthAdjust="spacing" textLength="52.1514" x="2535" y="1506.3105">Running</text><text fill="#000000" font-family="sans-serif" font-size="14" lengthAdjust="spacing" textLength="47.4824" x="2535" y="1524.9316">Paused</text><text fill="#000000" font-family="sans-serif" font-size="14" lengthAdjust="spacing" textLength="52.917" x="2535" y="1543.5527">Finished</text><text fill="#000000" font-family="sans-serif" font-size="14" lengthAdjust="spacing" textLength="28.7861" x="2535" y="1562.1738">Won</text><text fill="#000000" font-family="sans-serif" font-size="14" lengthAdjust="spacing" textLength="27.2344" x="2535" y="1580.7949">Tied</text><line style="stroke:#181818;stroke-width:0.5;" x1="2530" x2="2636.0566" y1="1588.3086" y2="1588.3086"/></g><!--class IPlayArea--><g class="entity" data-entity="IPlayArea" data-source-line="170" data-uid="ent0026" id="entity_IPlayArea"><rect fill="#F1F1F1" height="97.8242" rx="2.5" ry="2.5" style="stroke:#181818;stroke-width:0.5;" width="125.2168" x="1966.5" y="1461"/><ellipse cx="1996.1342" cy="1483.291" fill="#B4A7E5" rx="11" ry="11" style="stroke:#181818;stroke-width:1;"/><path d="M1997.0874,1479.9316 L1997.0874,1486.5879 L1998.8061,1486.5879 Q1999.4155,1486.5879 1999.6811,1486.8223 Q1999.9467,1487.0566 1999.9467,1487.4473 Q1999.9467,1487.8223 1999.6811,1488.0566 Q1999.4155,1488.291 1998.8061,1488.291 L1993.6655,1488.291 Q1993.0561,1488.291 1992.7905,1488.0566 Q1992.5249,1487.8223 1992.5249,1487.4316 Q1992.5249,1487.0566 1992.7905,1486.8223 Q1993.0561,1486.5879 1993.6655,1486.5879 L1995.3842,1486.5879 L1995.3842,1479.9316 L1993.6655,1479.9316 Q1993.0561,1479.9316 1992.7905,1479.6973 Q1992.5249,1479.4629 1992.5249,1479.0723 Q1992.5249,1478.6973 1992.7905,1478.4629 Q1993.0561,1478.2285 1993.6655,1478.2285 L1998.8061,1478.2285 Q1999.4155,1478.2285 1999.6811,1478.4629 Q1999.9467,1478.6973 1999.9467,1479.0723 Q1999.9467,1479.4629 1999.6811,1479.6973 Q1999.4155,1479.9316 1998.8061,1479.9316 L1997.0874,1479.9316 Z " fill="#000000"/><text fill="#000000" font-family="sans-serif" font-size="12" font-style="italic" lengthAdjust="spacing" textLength="59.373" x="2014.0479" y="1478.9492">&#171;interface&#187;</text><text fill="#000000" font-family="sans-serif" font-size="14" font-style="italic" lengthAdjust="spacing" textLength="60.6963" x="2013.3863" y="1497.0684">IPlayArea</text><line style="stroke:#181818;stroke-width:0.5;" x1="1967.5" x2="2090.7168" y1="1505.582" y2="1505.582"/><line style="stroke:#181818;stroke-width:0.5;" x1="1967.5" x2="2090.7168" y1="1513.582" y2="1513.582"/><text fill="#000000" font-family="sans-serif" font-size="14" lengthAdjust="spacing" textLength="113.2168" x="1972.5" y="1532.6895">+isFull() : Boolean</text><text fill="#000000" font-family="sans-serif" font-size="14" lengthAdjust="spacing" textLength="103.0996" x="1972.5" y="1551.3105">+clear() : Integer</text></g><!--class IMoveStrategy--><g class="entity" data-entity="IMoveStrategy" data-source-line="175" data-uid="ent0027" id="entity_IMoveStrategy"><rect fill="#F1F1F1" height="79.2031" rx="2.5" ry="2.5" style="stroke:#181818;stroke-width:0.5;" width="254.4023" x="1677" y="1470.5"/><ellipse cx="1754.8203" cy="1492.791" fill="#B4A7E5" rx="11" ry="11" style="stroke:#181818;stroke-width:1;"/><path d="M1755.7734,1489.4316 L1755.7734,1496.0879 L1757.4922,1496.0879 Q1758.1016,1496.0879 1758.3672,1496.3223 Q1758.6328,1496.5566 1758.6328,1496.9473 Q1758.6328,1497.3223 1758.3672,1497.5566 Q1758.1016,1497.791 1757.4922,1497.791 L1752.3516,1497.791 Q1751.7422,1497.791 1751.4766,1497.5566 Q1751.2109,1497.3223 1751.2109,1496.9316 Q1751.2109,1496.5566 1751.4766,1496.3223 Q1751.7422,1496.0879 1752.3516,1496.0879 L1754.0703,1496.0879 L1754.0703,1489.4316 L1752.3516,1489.4316 Q1751.7422,1489.4316 1751.4766,1489.1973 Q1751.2109,1488.9629 1751.2109,1488.5723 Q1751.2109,1488.1973 1751.4766,1487.9629 Q1751.7422,1487.7285 1752.3516,1487.7285 L1757.4922,1487.7285 Q1758.1016,1487.7285 1758.3672,1487.9629 Q1758.6328,1488.1973 1758.6328,1488.5723 Q1758.6328,1488.9629 1758.3672,1489.1973 Q1758.1016,1489.4316 1757.4922,1489.4316 L1755.7734,1489.4316 Z " fill="#000000"/><text fill="#000000" font-family="sans-serif" font-size="12" font-style="italic" lengthAdjust="spacing" textLength="59.373" x="1790.7646" y="1488.4492">&#171;interface&#187;</text><text fill="#000000" font-family="sans-serif" font-size="14" font-style="italic" lengthAdjust="spacing" textLength="90.2617" x="1775.3203" y="1506.5684">IMoveStrategy</text><line style="stroke:#181818;stroke-width:0.5;" x1="1678" x2="1930.4023" y1="1515.082" y2="1515.082"/><line style="stroke:#181818;stroke-width:0.5;" x1="1678" x2="1930.4023" y1="1523.082" y2="1523.082"/><text fill="#000000" font-family="sans-serif" font-size="14" lengthAdjust="spacing" textLength="242.4023" x="1683" y="1542.1895">+chooseMove(board : IPlayArea) : void</text></g><!--class IGame--><g class="entity" data-entity="IGame" data-source-line="179" data-uid="ent0028" id="entity_IGame"><rect fill="#F1F1F1" height="135.0664" rx="2.5" ry="2.5" style="stroke:#181818;stroke-width:0.5;" width="171.1338" x="2672.5" y="1442.5"/><ellipse cx="2726.1304" cy="1464.791" fill="#B4A7E5" rx="11" ry="11" style="stroke:#181818;stroke-width:1;"/><path d="M2727.0835,1461.4316 L2727.0835,1468.0879 L2728.8022,1468.0879 Q2729.4116,1468.0879 2729.6772,1468.3223 Q2729.9429,1468.5566 2729.9429,1468.9473 Q2729.9429,1469.3223 2729.6772,1469.5566 Q2729.4116,1469.791 2728.8022,1469.791 L2723.6616,1469.791 Q2723.0522,1469.791 2722.7866,1469.5566 Q2722.521,1469.3223 2722.521,1468.9316 Q2722.521,1468.5566 2722.7866,1468.3223 Q2723.0522,1468.0879 2723.6616,1468.0879 L2725.3804,1468.0879 L2725.3804,1461.4316 L2723.6616,1461.4316 Q2723.0522,1461.4316 2722.7866,1461.1973 Q2722.521,1460.9629 2722.521,1460.5723 Q2722.521,1460.1973 2722.7866,1459.9629 Q2723.0522,1459.7285 2723.6616,1459.7285 L2728.8022,1459.7285 Q2729.4116,1459.7285 2729.6772,1459.9629 Q2729.9429,1460.1973 2729.9429,1460.5723 Q2729.9429,1460.9629 2729.6772,1461.1973 Q2729.4116,1461.4316 2728.8022,1461.4316 L2727.0835,1461.4316 Z " fill="#000000"/><text fill="#000000" font-family="sans-serif" font-size="12" font-style="italic" lengthAdjust="spacing" textLength="59.373" x="2744.6304" y="1460.4492">&#171;interface&#187;</text><text fill="#000000" font-family="sans-serif" font-size="14" font-style="italic" lengthAdjust="spacing" textLength="42.0137" x="2753.3101" y="1478.5684">IGame</text><line style="stroke:#181818;stroke-width:0.5;" x1="2673.5" x2="2842.6338" y1="1487.082" y2="1487.082"/><line style="stroke:#181818;stroke-width:0.5;" x1="2673.5" x2="2842.6338" y1="1495.082" y2="1495.082"/><text fill="#000000" font-family="sans-serif" font-size="14" lengthAdjust="spacing" textLength="113.2168" x="2678.5" y="1514.1895">+setStatus() : void</text><text fill="#000000" font-family="sans-serif" font-size="14" lengthAdjust="spacing" textLength="94.5273" x="2678.5" y="1532.8105">+restart() : void</text><text fill="#000000" font-family="sans-serif" font-size="14" lengthAdjust="spacing" textLength="159.1338" x="2678.5" y="1551.4316">+getStatus() : GameState</text><text fill="#000000" font-family="sans-serif" font-size="14" lengthAdjust="spacing" textLength="146.6855" x="2678.5" y="1570.0527">+getBoard() : IPlayArea</text></g><!--class MainMenuController--><g class="entity" data-entity="MainMenuController" data-source-line="205" data-uid="ent0038" id="entity_MainMenuController"><rect fill="#F1F1F1" height="122.4844" rx="2.5" ry="2.5" style="stroke:#181818;stroke-width:0.5;" width="158.0547" x="2470" y="327.5"/><ellipse cx="2485" cy="343.5" fill="#ADD1B2" rx="11" ry="11" style="stroke:#181818;stroke-width:1;"/><path d="M2487.7656,339.375 Q2487.9219,339.1563 2488.1094,339.0469 Q2488.2969,338.9375 2488.5156,338.9375 Q2488.8906,338.9375 2489.125,339.2031 Q2489.3594,339.4531 2489.3594,340.0625 L2489.3594,341.5156 Q2489.3594,342.125 2489.125,342.3906 Q2488.8906,342.6563 2488.5156,342.6563 Q2488.1719,342.6563 2487.9688,342.4531 Q2487.7656,342.2656 2487.6563,341.75 Q2487.6094,341.3906 2487.4219,341.2031 Q2487.0938,340.8281 2486.4844,340.6094 Q2485.875,340.3906 2485.25,340.3906 Q2484.4844,340.3906 2483.8438,340.7188 Q2483.2188,341.0469 2482.7188,341.7969 Q2482.2344,342.5469 2482.2344,343.5781 L2482.2344,344.6719 Q2482.2344,345.9063 2483.125,346.7344 Q2484.0156,347.5469 2485.6094,347.5469 Q2486.5469,347.5469 2487.2031,347.2969 Q2487.5938,347.1406 2488.0156,346.7031 Q2488.2813,346.4375 2488.4219,346.3594 Q2488.5781,346.2813 2488.7813,346.2813 Q2489.1094,346.2813 2489.3594,346.5469 Q2489.625,346.7969 2489.625,347.1406 Q2489.625,347.4844 2489.2813,347.8906 Q2488.7813,348.4688 2487.9844,348.7969 Q2486.9063,349.25 2485.6094,349.25 Q2484.0938,349.25 2482.8906,348.625 Q2481.9063,348.125 2481.2188,347.0625 Q2480.5313,345.9844 2480.5313,344.7031 L2480.5313,343.5469 Q2480.5313,342.2188 2481.1406,341.0781 Q2481.7656,339.9219 2482.8594,339.3125 Q2483.9531,338.6875 2485.1875,338.6875 Q2485.9219,338.6875 2486.5625,338.8594 Q2487.2188,339.0156 2487.7656,339.375 Z " fill="#000000"/><text fill="#000000" font-family="sans-serif" font-size="14" lengthAdjust="spacing" textLength="126.0547" x="2499" y="349.2969">MainMenuController</text><line style="stroke:#181818;stroke-width:0.5;" x1="2471" x2="2627.0547" y1="359.5" y2="359.5"/><line style="stroke:#181818;stroke-width:0.5;" x1="2471" x2="2627.0547" y1="367.5" y2="367.5"/><text fill="#000000" font-family="sans-serif" font-size="14" lengthAdjust="spacing" textLength="120.2031" x="2476" y="386.6074">+startGame() : void</text><text fill="#000000" font-family="sans-serif" font-size="14" lengthAdjust="spacing" textLength="129.582" x="2476" y="405.2285">+openSetting() : void</text><text fill="#000000" font-family="sans-serif" font-size="14" lengthAdjust="spacing" textLength="114.7891" x="2476" y="423.8496">+openHelp() : void</text><text fill="#000000" font-family="sans-serif" font-size="14" lengthAdjust="spacing" textLength="76.6377" x="2476" y="442.4707">+exit() : void</text></g><!--class HelpController--><g class="entity" data-entity="HelpController" data-source-line="212" data-uid="ent0039" id="entity_HelpController"><rect fill="#F1F1F1" height="66.6211" rx="2.5" ry="2.5" style="stroke:#181818;stroke-width:0.5;" width="195.2441" x="2239.5" y="355"/><ellipse cx="2288.1309" cy="371" fill="#ADD1B2" rx="11" ry="11" style="stroke:#181818;stroke-width:1;"/><path d="M2290.8965,366.875 Q2291.0527,366.6563 2291.2402,366.5469 Q2291.4277,366.4375 2291.6465,366.4375 Q2292.0215,366.4375 2292.2559,366.7031 Q2292.4902,366.9531 2292.4902,367.5625 L2292.4902,369.0156 Q2292.4902,369.625 2292.2559,369.8906 Q2292.0215,370.1563 2291.6465,370.1563 Q2291.3027,370.1563 2291.0996,369.9531 Q2290.8965,369.7656 2290.7871,369.25 Q2290.7402,368.8906 2290.5527,368.7031 Q2290.2246,368.3281 2289.6152,368.1094 Q2289.0059,367.8906 2288.3809,367.8906 Q2287.6152,367.8906 2286.9746,368.2188 Q2286.3496,368.5469 2285.8496,369.2969 Q2285.3652,370.0469 2285.3652,371.0781 L2285.3652,372.1719 Q2285.3652,373.4063 2286.2559,374.2344 Q2287.1465,375.0469 2288.7402,375.0469 Q2289.6777,375.0469 2290.334,374.7969 Q2290.7246,374.6406 2291.1465,374.2031 Q2291.4121,373.9375 2291.5527,373.8594 Q2291.709,373.7813 2291.9121,373.7813 Q2292.2402,373.7813 2292.4902,374.0469 Q2292.7559,374.2969 2292.7559,374.6406 Q2292.7559,374.9844 2292.4121,375.3906 Q2291.9121,375.9688 2291.1152,376.2969 Q2290.0371,376.75 2288.7402,376.75 Q2287.2246,376.75 2286.0215,376.125 Q2285.0371,375.625 2284.3496,374.5625 Q2283.6621,373.4844 2283.6621,372.2031 L2283.6621,371.0469 Q2283.6621,369.7188 2284.2715,368.5781 Q2284.8965,367.4219 2285.9902,366.8125 Q2287.084,366.1875 2288.3184,366.1875 Q2289.0527,366.1875 2289.6934,366.3594 Q2290.3496,366.5156 2290.8965,366.875 Z " fill="#000000"/><text fill="#000000" font-family="sans-serif" font-size="14" lengthAdjust="spacing" textLength="89.4824" x="2308.6309" y="376.7969">HelpController</text><line style="stroke:#181818;stroke-width:0.5;" x1="2240.5" x2="2433.7441" y1="387" y2="387"/><line style="stroke:#181818;stroke-width:0.5;" x1="2240.5" x2="2433.7441" y1="395" y2="395"/><text fill="#000000" font-family="sans-serif" font-size="14" lengthAdjust="spacing" textLength="183.2441" x="2245.5" y="414.1074">+backToGameScreen() : void</text></g><!--class SettingsController--><g class="entity" data-entity="SettingsController" data-source-line="216" data-uid="ent0040" id="entity_SettingsController"><rect fill="#F1F1F1" height="122.4844" rx="2.5" ry="2.5" style="stroke:#181818;stroke-width:0.5;" width="314.3945" x="1890" y="327.5"/><ellipse cx="1987.3096" cy="343.5" fill="#ADD1B2" rx="11" ry="11" style="stroke:#181818;stroke-width:1;"/><path d="M1990.0752,339.375 Q1990.2314,339.1563 1990.4189,339.0469 Q1990.6064,338.9375 1990.8252,338.9375 Q1991.2002,338.9375 1991.4346,339.2031 Q1991.6689,339.4531 1991.6689,340.0625 L1991.6689,341.5156 Q1991.6689,342.125 1991.4346,342.3906 Q1991.2002,342.6563 1990.8252,342.6563 Q1990.4814,342.6563 1990.2783,342.4531 Q1990.0752,342.2656 1989.9658,341.75 Q1989.9189,341.3906 1989.7314,341.2031 Q1989.4033,340.8281 1988.7939,340.6094 Q1988.1846,340.3906 1987.5596,340.3906 Q1986.7939,340.3906 1986.1533,340.7188 Q1985.5283,341.0469 1985.0283,341.7969 Q1984.5439,342.5469 1984.5439,343.5781 L1984.5439,344.6719 Q1984.5439,345.9063 1985.4346,346.7344 Q1986.3252,347.5469 1987.9189,347.5469 Q1988.8564,347.5469 1989.5127,347.2969 Q1989.9033,347.1406 1990.3252,346.7031 Q1990.5908,346.4375 1990.7314,346.3594 Q1990.8877,346.2813 1991.0908,346.2813 Q1991.4189,346.2813 1991.6689,346.5469 Q1991.9346,346.7969 1991.9346,347.1406 Q1991.9346,347.4844 1991.5908,347.8906 Q1991.0908,348.4688 1990.2939,348.7969 Q1989.2158,349.25 1987.9189,349.25 Q1986.4033,349.25 1985.2002,348.625 Q1984.2158,348.125 1983.5283,347.0625 Q1982.8408,345.9844 1982.8408,344.7031 L1982.8408,343.5469 Q1982.8408,342.2188 1983.4502,341.0781 Q1984.0752,339.9219 1985.1689,339.3125 Q1986.2627,338.6875 1987.4971,338.6875 Q1988.2314,338.6875 1988.8721,338.8594 Q1989.5283,339.0156 1990.0752,339.375 Z " fill="#000000"/><text fill="#000000" font-family="sans-serif" font-size="14" lengthAdjust="spacing" textLength="111.2754" x="2007.8096" y="349.2969">SettingsController</text><line style="stroke:#181818;stroke-width:0.5;" x1="1891" x2="2203.3945" y1="359.5" y2="359.5"/><text fill="#000000" font-family="sans-serif" font-size="14" lengthAdjust="spacing" textLength="252.8955" x="1896" y="378.6074">-localizationService : LocalizationService</text><text fill="#000000" font-family="sans-serif" font-size="14" lengthAdjust="spacing" textLength="220.2266" x="1896" y="397.2285">-brandingService : BrandingService</text><line style="stroke:#181818;stroke-width:0.5;" x1="1891" x2="2203.3945" y1="404.7422" y2="404.7422"/><text fill="#000000" font-family="sans-serif" font-size="14" lengthAdjust="spacing" textLength="302.3945" x="1896" y="423.8496">+changeLanguage(languageCode : String) : void</text><text fill="#000000" font-family="sans-serif" font-size="14" lengthAdjust="spacing" textLength="243.1816" x="1896" y="442.4707">+changeTheme(themeId : String) : void</text></g><!--class GameController--><g class="entity" data-entity="GameController" data-source-line="223" data-uid="ent0041" id="entity_GameController"><rect fill="#F1F1F1" height="116.4453" rx="2.5" ry="2.5" style="stroke:#181818;stroke-width:0.5;" width="178.127" x="1677" y="330.5"/><ellipse cx="1713.2911" cy="352.791" fill="#B4A7E5" rx="11" ry="11" style="stroke:#181818;stroke-width:1;"/><path d="M1714.2442,349.4316 L1714.2442,356.0879 L1715.9629,356.0879 Q1716.5723,356.0879 1716.8379,356.3223 Q1717.1036,356.5566 1717.1036,356.9473 Q1717.1036,357.3223 1716.8379,357.5566 Q1716.5723,357.791 1715.9629,357.791 L1710.8223,357.791 Q1710.2129,357.791 1709.9473,357.5566 Q1709.6817,357.3223 1709.6817,356.9316 Q1709.6817,356.5566 1709.9473,356.3223 Q1710.2129,356.0879 1710.8223,356.0879 L1712.5411,356.0879 L1712.5411,349.4316 L1710.8223,349.4316 Q1710.2129,349.4316 1709.9473,349.1973 Q1709.6817,348.9629 1709.6817,348.5723 Q1709.6817,348.1973 1709.9473,347.9629 Q1710.2129,347.7285 1710.8223,347.7285 L1715.9629,347.7285 Q1716.5723,347.7285 1716.8379,347.9629 Q1717.1036,348.1973 1717.1036,348.5723 Q1717.1036,348.9629 1716.8379,349.1973 Q1716.5723,349.4316 1715.9629,349.4316 L1714.2442,349.4316 Z " fill="#000000"/><text fill="#000000" font-family="sans-serif" font-size="12" font-style="italic" lengthAdjust="spacing" textLength="59.373" x="1751.7426" y="348.4492">&#171;interface&#187;</text><text fill="#000000" font-family="sans-serif" font-size="14" font-style="italic" lengthAdjust="spacing" textLength="98.8135" x="1732.0224" y="366.5684">GameController</text><line style="stroke:#181818;stroke-width:0.5;" x1="1678" x2="1854.127" y1="375.082" y2="375.082"/><line style="stroke:#181818;stroke-width:0.5;" x1="1678" x2="1854.127" y1="383.082" y2="383.082"/><text fill="#000000" font-family="sans-serif" font-size="14" lengthAdjust="spacing" textLength="132.6514" x="1683" y="402.1895">+restartGame() : void</text><text fill="#000000" font-family="sans-serif" font-size="14" lengthAdjust="spacing" textLength="166.127" x="1683" y="420.8105">+backToMainMenu() : void</text><text fill="#000000" font-family="sans-serif" font-size="14" lengthAdjust="spacing" textLength="114.7891" x="1683" y="439.4316">+openHelp() : void</text></g><!--class FourConnectGameController--><g class="entity" data-entity="FourConnectGameController" data-source-line="240" data-uid="ent0045" id="entity_FourConnectGameController"><rect fill="#F1F1F1" height="103.8633" rx="2.5" ry="2.5" style="stroke:#181818;stroke-width:0.5;" width="288.6572" x="1433.5" y="44"/><ellipse cx="1483.7065" cy="60" fill="#ADD1B2" rx="11" ry="11" style="stroke:#181818;stroke-width:1;"/><path d="M1486.4722,55.875 Q1486.6284,55.6563 1486.8159,55.5469 Q1487.0034,55.4375 1487.2222,55.4375 Q1487.5972,55.4375 1487.8315,55.7031 Q1488.0659,55.9531 1488.0659,56.5625 L1488.0659,58.0156 Q1488.0659,58.625 1487.8315,58.8906 Q1487.5972,59.1563 1487.2222,59.1563 Q1486.8784,59.1563 1486.6753,58.9531 Q1486.4722,58.7656 1486.3628,58.25 Q1486.3159,57.8906 1486.1284,57.7031 Q1485.8003,57.3281 1485.1909,57.1094 Q1484.5815,56.8906 1483.9565,56.8906 Q1483.1909,56.8906 1482.5503,57.2188 Q1481.9253,57.5469 1481.4253,58.2969 Q1480.9409,59.0469 1480.9409,60.0781 L1480.9409,61.1719 Q1480.9409,62.4063 1481.8315,63.2344 Q1482.7222,64.0469 1484.3159,64.0469 Q1485.2534,64.0469 1485.9097,63.7969 Q1486.3003,63.6406 1486.7222,63.2031 Q1486.9878,62.9375 1487.1284,62.8594 Q1487.2847,62.7813 1487.4878,62.7813 Q1487.8159,62.7813 1488.0659,63.0469 Q1488.3315,63.2969 1488.3315,63.6406 Q1488.3315,63.9844 1487.9878,64.3906 Q1487.4878,64.9688 1486.6909,65.2969 Q1485.6128,65.75 1484.3159,65.75 Q1482.8003,65.75 1481.5972,65.125 Q1480.6128,64.625 1479.9253,63.5625 Q1479.2378,62.4844 1479.2378,61.2031 L1479.2378,60.0469 Q1479.2378,58.7188 1479.8472,57.5781 Q1480.4722,56.4219 1481.5659,55.8125 Q1482.6597,55.1875 1483.894,55.1875 Q1484.6284,55.1875 1485.269,55.3594 Q1485.9253,55.5156 1486.4722,55.875 Z " fill="#000000"/><text fill="#000000" font-family="sans-serif" font-size="14" lengthAdjust="spacing" textLength="179.7441" x="1504.2065" y="65.7969">FourConnectGameController</text><line style="stroke:#181818;stroke-width:0.5;" x1="1434.5" x2="1721.1572" y1="76" y2="76"/><line style="stroke:#181818;stroke-width:0.5;" x1="1434.5" x2="1721.1572" y1="84" y2="84"/><text fill="#000000" font-family="sans-serif" font-size="14" lengthAdjust="spacing" textLength="276.6572" x="1439.5" y="103.1074">+handleColumnInput(column : Integer) : void</text><text fill="#000000" font-family="sans-serif" font-size="14" lengthAdjust="spacing" textLength="114.7891" x="1439.5" y="121.7285">+openHelp() : void</text><text fill="#000000" font-family="sans-serif" font-size="14" lengthAdjust="spacing" textLength="132.6514" x="1439.5" y="140.3496">+restartGame() : void</text></g><!--link Position to FourConnectGameBoard--><g class="link" data-entity-1="Position" data-entity-2="FourConnectGameBoard" data-source-line="144" data-uid="lnk16" id="link_Position_FourConnectGameBoard"><path codeLine="144" d="M264.5,714.3 C264.5,698.84 264.5,687 264.5,687 C264.5,687 689.55,687 967.24,687" fill="none" id="Position-FourConnectGameBoard" style="stroke:#181818;stroke-width:1;"/></g><!--reverse link FourConnectBotStrategy to Easy--><g class="link" data-entity-1="FourConnectBotStrategy" data-entity-2="Easy" data-source-line="145" data-uid="lnk17" id="link_FourConnectBotStrategy_Easy"><path codeLine="145" d="M564.25,1380.04 C564.25,1422.95 564.25,1448.55 564.25,1476.29" fill="none" id="FourConnectBotStrategy-backto-Easy" style="stroke:#181818;stroke-width:1;"/><ellipse cx="564.25" cy="1372.04" fill="#FFFFFF" rx="8" ry="8" style="stroke:#181818;stroke-width:1;"/><line style="stroke:#181818;stroke-width:1;" x1="564.25" x2="564.25" y1="1380.04" y2="1364.04"/><line style="stroke:#181818;stroke-width:1;" x1="556.25" x2="572.25" y1="1372.04" y2="1372.04"/><text fill="#000000" font-family="sans-serif" font-size="13" lengthAdjust="spacing" textLength="28.9072" x="535.25" y="1416.1883">inner</text></g><!--reverse link FourConnectBotStrategy to Hard--><g class="link" data-entity-1="FourConnectBotStrategy" data-entity-2="Hard" data-source-line="146" data-uid="lnk18" id="link_FourConnectBotStrategy_Hard"><path codeLine="146" d="M772,1380.04 C772,1403.03 772,1409.65 772,1429.96" fill="none" id="FourConnectBotStrategy-backto-Hard" style="stroke:#181818;stroke-width:1;"/><ellipse cx="772" cy="1372.04" fill="#FFFFFF" rx="8" ry="8" style="stroke:#181818;stroke-width:1;"/><line style="stroke:#181818;stroke-width:1;" x1="772" x2="772" y1="1380.04" y2="1364.04"/><line style="stroke:#181818;stroke-width:1;" x1="764" x2="780" y1="1372.04" y2="1372.04"/><text fill="#000000" font-family="sans-serif" font-size="13" lengthAdjust="spacing" textLength="28.9072" x="743" y="1393.0283">inner</text></g><!--link FourConnectBotStrategy to IMoveStrategy--><g class="link" data-entity-1="FourConnectBotStrategy" data-entity-2="IMoveStrategy" data-source-line="148" data-uid="lnk20" id="link_FourConnectBotStrategy_IMoveStrategy"><path codeLine="148" d="M608,1364.31 C608,1502.15 608,1672 608,1672 C608,1672 646.3,1672 692.93,1672" fill="none" id="FourConnectBotStrategy-to-IMoveStrategy" style="stroke:#181818;stroke-width:1;stroke-dasharray:7,7;"/><polygon fill="none" points="710.93,1672,692.93,1666,692.93,1678,710.93,1672" style="stroke:#181818;stroke-width:1;"/></g><!--link Easy to IMoveStrategy--><g class="link" data-entity-1="Easy" data-entity-2="IMoveStrategy" data-source-line="149" data-uid="lnk21" id="link_Easy_IMoveStrategy"><path codeLine="149" d="M467,1543.9 C467,1595.54 467,1688 467,1688 C467,1688 603.58,1688 692.65,1688" fill="none" id="Easy-to-IMoveStrategy" style="stroke:#181818;stroke-width:1;stroke-dasharray:7,7;"/><polygon fill="none" points="710.65,1688,692.65,1682,692.65,1694,710.65,1688" style="stroke:#181818;stroke-width:1;"/></g><!--link Hard to IMoveStrategy--><g class="link" data-entity-1="Hard" data-entity-2="IMoveStrategy" data-source-line="150" data-uid="lnk22" id="link_Hard_IMoveStrategy"><path codeLine="150" d="M772,1590.02 C772,1613.96 772,1620.43 772,1637.8" fill="none" id="Hard-to-IMoveStrategy" style="stroke:#181818;stroke-width:1;stroke-dasharray:7,7;"/><polygon fill="none" points="772,1655.8,778,1637.8,766,1637.8,772,1655.8" style="stroke:#181818;stroke-width:1;"/></g><!--link FourConnectRules to IRuleSet--><g class="link" data-entity-1="FourConnectRules" data-entity-2="IRuleSet" data-source-line="189" data-uid="lnk29" id="link_FourConnectRules_IRuleSet"><path codeLine="189" d="M1546,809.15 C1546,853.63 1546,944 1546,944 C1546,944 2136.5,944 2136.5,944 C2136.5,944 2136.5,1305.06 2136.5,1442.76" fill="none" id="FourConnectRules-to-IRuleSet" style="stroke:#181818;stroke-width:1;stroke-dasharray:7,7;"/><polygon fill="none" points="2136.5,1460.76,2142.5,1442.76,2130.5,1442.76,2136.5,1460.76" style="stroke:#181818;stroke-width:1;"/></g><!--link FourConnectGame to IGame--><g class="link" data-entity-1="FourConnectGame" data-entity-2="IGame" data-source-line="190" data-uid="lnk30" id="link_FourConnectGame_IGame"><path codeLine="190" d="M1620.52,501 C2010.39,501 2758,501 2758,501 C2758,501 2758,1198 2758,1424.23" fill="none" id="FourConnectGame-to-IGame" style="stroke:#181818;stroke-width:1;stroke-dasharray:7,7;"/><polygon fill="none" points="2758,1442.23,2764,1424.23,2752,1424.23,2758,1442.23" style="stroke:#181818;stroke-width:1;"/></g><!--link FourConnectGameBoard to IPlayArea--><g class="link" data-entity-1="FourConnectGameBoard" data-entity-2="IPlayArea" data-source-line="191" data-uid="lnk31" id="link_FourConnectGameBoard_IPlayArea"><path codeLine="191" d="M1221.25,893.28 C1221.25,1085.43 1221.25,1466 1221.25,1466 C1221.25,1466 1758.5,1466 1948.29,1466" fill="none" id="FourConnectGameBoard-to-IPlayArea" style="stroke:#181818;stroke-width:1;stroke-dasharray:7,7;"/><polygon fill="none" points="1966.29,1466,1948.29,1460,1948.29,1472,1966.29,1466" style="stroke:#181818;stroke-width:1;"/></g><!--link FourConnectBotStrategy to IMoveStrategy--><g class="link" data-entity-1="FourConnectBotStrategy" data-entity-2="IMoveStrategy" data-source-line="192" data-uid="lnk32" id="link_FourConnectBotStrategy_IMoveStrategy"><path codeLine="192" d="M962.25,1364.04 C962.25,1439.03 962.25,1510 962.25,1510 C962.25,1510 1423.3,1510 1658.61,1510" fill="none" id="FourConnectBotStrategy-to-IMoveStrategy-1" style="stroke:#181818;stroke-width:1;stroke-dasharray:7,7;"/><polygon fill="none" points="1676.61,1510,1658.61,1504,1658.61,1516,1676.61,1510" style="stroke:#181818;stroke-width:1;"/></g><!--link FourConnectGame to FourConnectPlayer--><g class="link" data-entity-1="FourConnectGame" data-entity-2="FourConnectPlayer" data-source-line="195" data-uid="lnk33" id="link_FourConnectGame_FourConnectPlayer"><path codeLine="195" d="M1147.43,504 C1029.3,504 922,504 922,504 C922,504 922,607.42 922,689.7" fill="none" id="FourConnectGame-FourConnectPlayer" style="stroke:#181818;stroke-width:1;"/><polygon fill="#181818" points="1159.43,504,1153.43,500,1147.43,504,1153.43,508,1159.43,504" style="stroke:#181818;stroke-width:1;"/><polygon fill="#181818" points="922,695.7,926,686.7,922,690.7,918,686.7,922,695.7" style="stroke:#181818;stroke-width:1;"/><text fill="#000000" font-family="sans-serif" font-size="13" lengthAdjust="spacing" textLength="7.23" x="1144.0158" y="504.8732">1</text><text fill="#000000" font-family="sans-serif" font-size="13" lengthAdjust="spacing" textLength="5.0591" x="940.0806" y="684.9326">*</text></g><!--link FourConnectGame to FourConnectRules--><g class="link" data-entity-1="FourConnectGame" data-entity-2="FourConnectRules" data-source-line="196" data-uid="lnk34" id="link_FourConnectGame_FourConnectRules"><path codeLine="196" d="M1546,564.06 C1546,643.84 1546,713.36 1546,754.74" fill="none" id="FourConnectGame-FourConnectRules" style="stroke:#181818;stroke-width:1;"/><polygon fill="#181818" points="1546,552.06,1542,558.06,1546,564.06,1550,558.06,1546,552.06" style="stroke:#181818;stroke-width:1;"/><polygon fill="#181818" points="1546,760.74,1550,751.74,1546,755.74,1542,751.74,1546,760.74" style="stroke:#181818;stroke-width:1;"/></g><!--link FourConnectGame to FourConnectGameBoard--><g class="link" data-entity-1="FourConnectGame" data-entity-2="FourConnectGameBoard" data-source-line="197" data-uid="lnk35" id="link_FourConnectGame_FourConnectGameBoard"><path codeLine="197" d="M1298,564.06 C1298,606.19 1298,632.48 1298,670.99" fill="none" id="FourConnectGame-FourConnectGameBoard" style="stroke:#181818;stroke-width:1;"/><polygon fill="#181818" points="1298,552.06,1294,558.06,1298,564.06,1302,558.06,1298,552.06" style="stroke:#181818;stroke-width:1;"/><polygon fill="#181818" points="1298,676.99,1302,667.99,1298,671.99,1294,667.99,1298,676.99" style="stroke:#181818;stroke-width:1;"/></g><!--link FourConnectPlayer to FourConnectBotStrategy--><g class="link" data-entity-1="FourConnectPlayer" data-entity-2="FourConnectBotStrategy" data-source-line="198" data-uid="lnk36" id="link_FourConnectPlayer_FourConnectBotStrategy"><path codeLine="198" d="M735,886.1 C735,928.35 735,962.33 735,1011.88" fill="none" id="FourConnectPlayer-FourConnectBotStrategy" style="stroke:#181818;stroke-width:1;"/><polygon fill="none" points="735,874.1,731,880.1,735,886.1,739,880.1,735,874.1" style="stroke:#181818;stroke-width:1;"/><polygon fill="#181818" points="735,1017.88,739,1008.88,735,1012.88,731,1008.88,735,1017.88" style="stroke:#181818;stroke-width:1;"/><text fill="#000000" font-family="sans-serif" font-size="13" lengthAdjust="spacing" textLength="7.23" x="736.742" y="896.5134">1</text><text fill="#000000" font-family="sans-serif" font-size="13" lengthAdjust="spacing" textLength="21.6836" x="711.8544" y="1006.6867">0..1</text></g><!--link SettingsController to LocalizationService--><g class="link" data-entity-1="SettingsController" data-entity-2="LocalizationService" data-source-line="233" data-uid="lnk42" id="link_SettingsController_LocalizationService"><path codeLine="233" d="M2018.25,449.58 C2018.25,500.2 2018.25,568.21 2018.25,633.84" fill="none" id="SettingsController-to-LocalizationService" style="stroke:#181818;stroke-width:1;stroke-dasharray:7,7;"/><polygon fill="#181818" points="2018.25,639.84,2022.25,630.84,2018.25,634.84,2014.25,630.84,2018.25,639.84" style="stroke:#181818;stroke-width:1;"/><text fill="#000000" font-family="sans-serif" font-size="13" lengthAdjust="spacing" textLength="20.96" x="1997.25" y="540.7383">use</text></g><!--link SettingsController to BrandingService--><g class="link" data-entity-1="SettingsController" data-entity-2="BrandingService" data-source-line="234" data-uid="lnk43" id="link_SettingsController_BrandingService"><path codeLine="234" d="M2193,449.58 C2193,493.14 2193,548.02 2193,605.97" fill="none" id="SettingsController-to-BrandingService" style="stroke:#181818;stroke-width:1;stroke-dasharray:7,7;"/><polygon fill="#181818" points="2193,611.97,2197,602.97,2193,606.97,2189,602.97,2193,611.97" style="stroke:#181818;stroke-width:1;"/><text fill="#000000" font-family="sans-serif" font-size="13" lengthAdjust="spacing" textLength="20.96" x="2172" y="526.8083">use</text></g><!--link FourConnectGameController to GameController--><g class="link" data-entity-1="FourConnectGameController" data-entity-2="GameController" data-source-line="248" data-uid="lnk46" id="link_FourConnectGameController_GameController"><path codeLine="248" d="M1699.75,148.29 C1699.75,199.48 1699.75,259.29 1699.75,312.39" fill="none" id="FourConnectGameController-to-GameController" style="stroke:#181818;stroke-width:1;stroke-dasharray:7,7;"/><polygon fill="none" points="1699.75,330.39,1705.75,312.39,1693.75,312.39,1699.75,330.39" style="stroke:#181818;stroke-width:1;"/></g><!--link FourConnectGameController to FourConnectGame--><g class="link" data-entity-1="FourConnectGameController" data-entity-2="FourConnectGame" data-source-line="249" data-uid="lnk47" id="link_FourConnectGameController_FourConnectGame"><path codeLine="249" d="M1527,148.29 C1527,170.23 1527,191.06 1527,218.74" fill="none" id="FourConnectGameController-to-FourConnectGame" style="stroke:#181818;stroke-width:1;stroke-dasharray:7,7;"/><polygon fill="#181818" points="1527,224.74,1531,215.74,1527,219.74,1523,215.74,1527,224.74" style="stroke:#181818;stroke-width:1;"/><text fill="#000000" font-family="sans-serif" font-size="13" lengthAdjust="spacing" textLength="20.96" x="1506" y="182.5383">use</text></g><!--SRC=[pLZTJXiv5BxFKrYvwQG4jdkBAgGa18X4VfI4fLLL8JCnmM9YHvuPIifIxKFiM_GHUiUZx9FiySyuzemdqAiMLPNZStnyVhxpCqxlA5jZWLTeZUCxl2IpR9CG94YSORPCI2Er3762qxIJPO9UvnaPn9pDw5U2tZai2MKaswm9uYAxvOt66_JVl__ymdyDOnHg3jYDm6acyZZB1McYnqO3QOjGLs2se6mv8-AUnWH82FxsqMEQuOp6JuWoMB6O79PP3UDQq1KMcnvFU2uEqGmyn9Q6bXBmqwAEcl0bd-3ijhIDgP2U7E4LiHH3Uly-5WHdvEYeh4pKKYnxS6KsloKh4cNo_y425J9QiBhdT67uh7rBaWsCYL7h45q7ZDoJJ1FNJidfAAqOPhwn8PPpOt68rjcQNI6dvUk3JcyTElQbLOLgej7o_98wMje0rJ2wAWUYLl33WQSjuCvvZ1Fw5PmFAVGow0BiPURknUZul7_LxSpw9IXTvsoHW90fIS7Wc7JLRqECSo48ozG5nKKaWBI01XPjTIYgrphXUA7LY7n_IWGftQCxia6E3yj8q8f2S5ozAx9whdLM9GVFdNjC4toT44r8jpoVFZkNGHtCeOP4YLdq-8BKvHH8dPE7p3S0EHOyDPv-fx9u0g3eSSQWt3S1WXgVpkOq1xyy-l1roAU0TGjT2GJf6Bava-kYF2PuGqGA5EVaH6qQFriawjq1Mv07O1-mZ2o9C2n2gk8BKTePyX9kxN8i5ZxBQR7jNLIKJXGkwGxqIw8ix1LMSPOhqFWMwyfZYJuwb2vokrR7FMY-u4gHbGuJjZWrbT7PNGY-FgPf7CKyoLTiwxKMgkgb8p7F1OjAkAMCPcLJDVUOoPZgmBGB2L-utMjvWQg7YOvDfSnDnvTNlV75Q3wh1DpozCRd5yDH7LjCaaJYOeZNMpTF-PSqQfLuTLLGVgeZWgpn5qP4vE2lZJQ-MoimtePT2lWB9pc9f5hIIJobiWIsVOY7f5GrUlwkSVZy8-XD2yQOhpVHzGxmEz5s8bJePgDIJRfDo4iVmixx6EsqeBYjthM5TeJbAuCkI4NvYmZLHo0VjQfd5yFEIAtwdTd7xdYkTplJus8z6e_wjNWqiWkprSHQuDaMCxYIB3U-GxjSTYX5AD2d1WbK7MRc85Gvn8E8Rd5AGDJQBRj0gngaoXU4aQ6lYZnxsY-RqYvROI9HyPjpHZdl6xg9JzMuKmATeQdw7ApOKCwXx8xo5KmciE2hXfVnkimuldDerpmB4sQzyHHceF7ywcHyCJs4cfRLCSpFflt-RexBSIrzF9dila8oxBv2SGIl60v6Ws7dmzLnVp8_A-XxDL68PDThwzROKdpnBUSf6V9xeWi2P9VqLGVGicqStn1UhmMcgQaZXZDOEToCXdD9ud2bBvpi284tvpJDtXV9_-dpaP-LpJvEDuv5JOHJ9FTCThxI8bVY6J2L9Pvjcyyh9SgWt52sw48pLXrJiRRHWgopsrQvJgue6-87ZwUDQ0fxT4M_wYdMFo5bGwUW2oAb6q_A0THrrv4pGirBYi1tB7GLo0PVPnYiUOYrv2jLOsMiXdAQ3LTP0EZalFEnFrM_T6LzKclREVITjRDCJUtOsz_NCKP88fmPf-pWLl7RSkzYFpZu-mWDP7IzSghkgw4fwG4QU6exAgjPjyVjum5a9X4t6BxT1hAgpKW6RhIRreaIRYI-kwJCTcYBjcAUiiLwBWjzb_E4OEQUdbDIFUtp-b5LKrzDM4VIMJ1V4XsZQSvOqLWcE4_DzWcCXEcj-N79jJgWXqMGOt-XKOq3Q7gI9qaKi0tM8WfCa8viDo2r3lRpkUma5_UEP1NGi4HdWFVdP3kQe-gNg-KlZztRiT_LJ6iaTNe3N-VsMrbsntB3L6bc06gmvdCfKrmkquI3CxXXSVHuVIOfRNjyjJO584L_G7bDUKorylBP0aeQiiaIqBFvPnEztTy_GistpL8UsxOUj4qTCd-1cU9dphXbgZeOIWsvql3TmG6iQwQqt-fB_c806cQ29maHgaBPXZZ4q9oW46pfMvnBCEklIX_GV4qOe2oJZp41qXb9rkLzya2zl71QicGFt7uDki-voXQOPWchEMtqI2iIv5DIzILjrzDJwMcpvlDVLXJCbkIdNdxqaHSVNaj5I1hls1MkHgReXEAaNLX4-3MXUhAFaRySkwgM29wc-mMAON0YR45OJ5L61o9lgrpmLL9E2C_VeOSz_tZnUFdPN_zjpxkz_sBW1whvMFlE4S0v86EH4FtmC63hF0i-rhmYnO90QDYfx2LtXikWex0g-FxUwuuTrJGZnviIS_y3]--></g></svg>