<?plantuml 1.2026.2?><svg xmlns="http://www.w3.org/2000/svg" xmlns:xlink="http://www.w3.org/1999/xlink" contentStyleType="text/css" data-diagram-type="CLASS" height="1098.61px" preserveAspectRatio="none" style="width:2033px;height:1098px;background:#FFFFFF;" version="1.1" viewBox="0 0 2033 1098" width="2033.74px" zoomAndPan="magnify"><defs/><g><!--cluster Infrastructure--><g class="cluster" data-qualified-name="Infrastructure" data-source-line="7" id="ent0002"><rect fill="none" height="243.39" rx="1.525" ry="1.525" style="stroke:#000000;stroke-width:0.915;" width="423.95" x="1606.13" y="384.91"/><text fill="#000000" font-family="sans-serif" font-size="8.54" font-weight="bold" lengthAdjust="spacing" textLength="55.5225" x="1790.3437" y="395.3455">Infrastructure</text></g><!--cluster FourConnect--><g class="cluster" data-qualified-name="FourConnect" data-source-line="49" id="ent0005"><rect fill="none" height="946.11" rx="1.525" ry="1.525" style="stroke:#000000;stroke-width:0.915;" width="944.28" x="4.27" y="148.84"/><text fill="#000000" font-family="sans-serif" font-size="8.54" font-weight="bold" lengthAdjust="spacing" textLength="53.1331" x="449.8434" y="159.2755">FourConnect</text></g><!--cluster Game Core--><g class="cluster" data-qualified-name="Game Core" data-source-line="157" id="ent0023"><rect fill="none" height="137.25" rx="1.525" ry="1.525" style="stroke:#000000;stroke-width:0.915;" width="731.39" x="963.19" y="891.82"/><text fill="#000000" font-family="sans-serif" font-size="8.54" font-weight="bold" lengthAdjust="spacing" textLength="45.5647" x="1306.1026" y="902.2555">Game Core</text></g><!--cluster UIController--><g class="cluster" data-qualified-name="UIController" data-source-line="205" id="ent0037"><rect fill="none" height="365.695" rx="1.525" ry="1.525" style="stroke:#000000;stroke-width:0.915;" width="599.63" x="991.86" y="194.285"/><text fill="#000000" font-family="sans-serif" font-size="8.54" font-weight="bold" lengthAdjust="spacing" textLength="49.3427" x="1267.0037" y="204.7205">UIController</text></g><!--cluster UIGameController--><g class="cluster" data-qualified-name="UIGameController" data-source-line="258" id="ent0046"><rect fill="none" height="129.93" rx="1.525" ry="1.525" style="stroke:#000000;stroke-width:0.915;" width="268.4" x="792.39" y="4.27"/><text fill="#000000" font-family="sans-serif" font-size="8.54" font-weight="bold" lengthAdjust="spacing" textLength="73.0779" x="890.0511" y="14.7055">UIGameController</text></g><!--class BrandingService--><g class="entity" data-qualified-name="Infrastructure.BrandingService" data-source-line="9" id="ent0003"><rect fill="#F1F1F1" height="211.0219" rx="1.525" ry="1.525" style="stroke:#181818;stroke-width:0.305;" width="207.397" x="1812.92" y="407.48"/><ellipse cx="1882.6953" cy="417.24" fill="#ADD1B2" rx="6.71" ry="6.71" style="stroke:#181818;stroke-width:0.61;"/><path d="M1884.3823,414.7238 Q1884.4776,414.5903 1884.592,414.5236 Q1884.7064,414.4569 1884.8398,414.4569 Q1885.0686,414.4569 1885.2116,414.6189 Q1885.3545,414.7714 1885.3545,415.1431 L1885.3545,416.0295 Q1885.3545,416.4013 1885.2116,416.5633 Q1885.0686,416.7253 1884.8398,416.7253 Q1884.6301,416.7253 1884.5062,416.6014 Q1884.3823,416.487 1884.3156,416.1725 Q1884.287,415.9533 1884.1726,415.8389 Q1883.9725,415.6102 1883.6008,415.4767 Q1883.2291,415.3433 1882.8478,415.3433 Q1882.3808,415.3433 1881.99,415.5434 Q1881.6087,415.7436 1881.3037,416.2011 Q1881.0083,416.6586 1881.0083,417.2877 L1881.0083,417.9548 Q1881.0083,418.7078 1881.5516,419.213 Q1882.0948,419.7086 1883.067,419.7086 Q1883.6389,419.7086 1884.0392,419.5561 Q1884.2775,419.4608 1884.5348,419.1939 Q1884.6969,419.0319 1884.7826,418.9842 Q1884.878,418.9366 1885.0019,418.9366 Q1885.202,418.9366 1885.3545,419.0986 Q1885.5166,419.2511 1885.5166,419.4608 Q1885.5166,419.6705 1885.3069,419.9183 Q1885.0019,420.2709 1884.5158,420.4711 Q1883.8581,420.7475 1883.067,420.7475 Q1882.1425,420.7475 1881.4086,420.3663 Q1880.8081,420.0613 1880.3887,419.4131 Q1879.9694,418.7555 1879.9694,417.9739 L1879.9694,417.2686 Q1879.9694,416.4584 1880.3411,415.7627 Q1880.7223,415.0573 1881.3895,414.6856 Q1882.0567,414.3044 1882.8097,414.3044 Q1883.2576,414.3044 1883.6484,414.4092 Q1884.0487,414.5045 1884.3823,414.7238 Z " fill="#000000"/><text fill="#000000" font-family="sans-serif" font-size="8.54" lengthAdjust="spacing" textLength="62.6614" x="1895.2003" y="420.7761">BrandingService</text><line style="stroke:#181818;stroke-width:0.305;" x1="1813.53" x2="2019.707" y1="427" y2="427"/><text fill="#000000" font-family="sans-serif" font-size="8.54" lengthAdjust="spacing" text-decoration="underline" textLength="102.0588" x="1816.58" y="438.6555">-instance: BrandingService</text><text fill="#000000" font-family="sans-serif" font-size="8.54" lengthAdjust="spacing" textLength="83.5235" x="1816.58" y="450.0144">-primaryColour: String</text><text fill="#000000" font-family="sans-serif" font-size="8.54" lengthAdjust="spacing" textLength="94.4571" x="1816.58" y="461.3733">-secondaryColour: String</text><text fill="#000000" font-family="sans-serif" font-size="8.54" lengthAdjust="spacing" textLength="63.6122" x="1816.58" y="472.7321">-logoPath: String</text><text fill="#000000" font-family="sans-serif" font-size="8.54" lengthAdjust="spacing" textLength="75.4631" x="1816.58" y="484.091">-airlineName: String</text><line style="stroke:#181818;stroke-width:0.305;" x1="1813.53" x2="2019.707" y1="488.6743" y2="488.6743"/><text fill="#000000" font-family="sans-serif" font-size="8.54" lengthAdjust="spacing" textLength="106.8" x="1816.58" y="500.3299">-&#171;create&#187; BrandingService()</text><text fill="#000000" font-family="sans-serif" font-size="8.54" lengthAdjust="spacing" textLength="131.7153" x="1816.58" y="511.6887">+setTheme(themeId : String) : void</text><text fill="#000000" font-family="sans-serif" font-size="8.54" lengthAdjust="spacing" text-decoration="underline" textLength="121.2905" x="1816.58" y="523.0476">+getInstance(): brandingService</text><text fill="#000000" font-family="sans-serif" font-size="8.54" lengthAdjust="spacing" textLength="104.173" x="1816.58" y="534.4065">+getPrimaryColour(): String</text><text fill="#000000" font-family="sans-serif" font-size="8.54" lengthAdjust="spacing" textLength="115.5861" x="1816.58" y="545.7653">+getSecondaryColour(): String</text><text fill="#000000" font-family="sans-serif" font-size="8.54" lengthAdjust="spacing" textLength="86.1673" x="1816.58" y="557.1242">+getLogoPath(): String</text><text fill="#000000" font-family="sans-serif" font-size="8.54" lengthAdjust="spacing" textLength="96.1125" x="1816.58" y="568.4831">+getAirlineName(): String</text><text fill="#000000" font-family="sans-serif" font-size="8.54" lengthAdjust="spacing" textLength="175.3577" x="1816.58" y="579.8419">+setPrimaryColour(primaryColour: String):void</text><text fill="#000000" font-family="sans-serif" font-size="8.54" lengthAdjust="spacing" textLength="200.077" x="1816.58" y="591.2008">+setSecondaryColour(secondaryColour: String): void</text><text fill="#000000" font-family="sans-serif" font-size="8.54" lengthAdjust="spacing" textLength="137.4406" x="1816.58" y="602.5597">+setLogoPath(logoPath:String): void</text><text fill="#000000" font-family="sans-serif" font-size="8.54" lengthAdjust="spacing" textLength="161.6095" x="1816.58" y="613.9185">+setAirlineName(airlineName: String): void</text></g><!--class LocalizationService--><g class="entity" data-qualified-name="Infrastructure.LocalizationService" data-source-line="30" id="ent0004"><rect fill="#F1F1F1" height="176.9453" rx="1.525" ry="1.525" style="stroke:#181818;stroke-width:0.305;" width="175.1552" x="1616.195" y="424.56"/><ellipse cx="1664.391" cy="434.32" fill="#ADD1B2" rx="6.71" ry="6.71" style="stroke:#181818;stroke-width:0.61;"/><path d="M1666.078,431.8038 Q1666.1733,431.6703 1666.2877,431.6036 Q1666.4021,431.5369 1666.5355,431.5369 Q1666.7642,431.5369 1666.9072,431.6989 Q1667.0502,431.8514 1667.0502,432.2231 L1667.0502,433.1095 Q1667.0502,433.4813 1666.9072,433.6433 Q1666.7642,433.8053 1666.5355,433.8053 Q1666.3258,433.8053 1666.2019,433.6814 Q1666.078,433.567 1666.0113,433.2525 Q1665.9827,433.0333 1665.8683,432.9189 Q1665.6681,432.6902 1665.2964,432.5567 Q1664.9247,432.4233 1664.5435,432.4233 Q1664.0764,432.4233 1663.6856,432.6234 Q1663.3044,432.8236 1662.9994,433.2811 Q1662.7039,433.7386 1662.7039,434.3677 L1662.7039,435.0348 Q1662.7039,435.7878 1663.2472,436.293 Q1663.7905,436.7886 1664.7627,436.7886 Q1665.3346,436.7886 1665.7349,436.6361 Q1665.9731,436.5408 1666.2305,436.2739 Q1666.3925,436.1119 1666.4783,436.0642 Q1666.5736,436.0166 1666.6975,436.0166 Q1666.8977,436.0166 1667.0502,436.1786 Q1667.2122,436.3311 1667.2122,436.5408 Q1667.2122,436.7505 1667.0025,436.9983 Q1666.6975,437.3509 1666.2114,437.5511 Q1665.5538,437.8275 1664.7627,437.8275 Q1663.8381,437.8275 1663.1042,437.4462 Q1662.5038,437.1413 1662.0844,436.4931 Q1661.665,435.8355 1661.665,435.0539 L1661.665,434.3486 Q1661.665,433.5384 1662.0367,432.8427 Q1662.418,432.1373 1663.0852,431.7656 Q1663.7524,431.3844 1664.5053,431.3844 Q1664.9533,431.3844 1665.3441,431.4892 Q1665.7444,431.5845 1666.078,431.8038 Z " fill="#000000"/><text fill="#000000" font-family="sans-serif" font-size="8.54" lengthAdjust="spacing" textLength="73.5783" x="1676.896" y="437.8561">LocalizationService</text><line style="stroke:#181818;stroke-width:0.305;" x1="1616.805" x2="1790.7402" y1="444.08" y2="444.08"/><text fill="#000000" font-family="sans-serif" font-size="8.54" lengthAdjust="spacing" text-decoration="underline" textLength="112.9757" x="1619.855" y="455.7355">-instance: LocalizationService</text><text fill="#000000" font-family="sans-serif" font-size="8.54" lengthAdjust="spacing" text-decoration="underline" textLength="92.076" x="1619.855" y="467.0944">-BUNDLE_BASE: String</text><text fill="#000000" font-family="sans-serif" font-size="8.54" lengthAdjust="spacing" textLength="96.3752" x="1619.855" y="478.4533">-bundle: ResourceBundle</text><text fill="#000000" font-family="sans-serif" font-size="8.54" lengthAdjust="spacing" textLength="84.4993" x="1619.855" y="489.8121">-currentLocale: Locale</text><line style="stroke:#181818;stroke-width:0.305;" x1="1616.805" x2="1790.7402" y1="494.3955" y2="494.3955"/><text fill="#000000" font-family="sans-serif" font-size="8.54" lengthAdjust="spacing" textLength="117.7169" x="1619.855" y="506.051">-&#171;create&#187; LocalizationService()</text><text fill="#000000" font-family="sans-serif" font-size="8.54" lengthAdjust="spacing" text-decoration="underline" textLength="133.1539" x="1619.855" y="517.4099">+getInstance(): LocalizationService</text><text fill="#000000" font-family="sans-serif" font-size="8.54" lengthAdjust="spacing" textLength="71.681" x="1619.855" y="528.7687">-loadBundle(): void</text><text fill="#000000" font-family="sans-serif" font-size="8.54" lengthAdjust="spacing" textLength="114.627" x="1619.855" y="540.1276">+getString(key : String): String</text><text fill="#000000" font-family="sans-serif" font-size="8.54" lengthAdjust="spacing" textLength="119.8686" x="1619.855" y="551.4865">+setLocale(locale: Locale): void</text><text fill="#000000" font-family="sans-serif" font-size="8.54" lengthAdjust="spacing" textLength="106.0995" x="1619.855" y="562.8453">+getCurrentLocale(): Locale</text><text fill="#000000" font-family="sans-serif" font-size="8.54" lengthAdjust="spacing" textLength="121.2947" x="1619.855" y="574.2042">+getAvailableLocales(): Locale[]</text><text fill="#000000" font-family="sans-serif" font-size="8.54" lengthAdjust="spacing" textLength="167.8352" x="1619.855" y="585.5631">+setLanguage(languageCode : String) : void</text><text fill="#000000" font-family="sans-serif" font-size="8.54" lengthAdjust="spacing" textLength="111.2994" x="1619.855" y="596.9219">+getText(key : String) : String</text></g><!--class FourConnectRules--><g class="entity" data-qualified-name="FourConnect.FourConnectRules" data-source-line="50" id="ent0006"><rect fill="#F1F1F1" height="29.28" rx="1.525" ry="1.525" style="stroke:#181818;stroke-width:0.305;" width="90.7214" x="847.595" y="498.37"/><ellipse cx="856.745" cy="508.13" fill="#ADD1B2" rx="6.71" ry="6.71" style="stroke:#181818;stroke-width:0.61;"/><path d="M858.432,505.6138 Q858.5273,505.4803 858.6417,505.4136 Q858.7561,505.3469 858.8895,505.3469 Q859.1183,505.3469 859.2613,505.5089 Q859.4042,505.6614 859.4042,506.0331 L859.4042,506.9195 Q859.4042,507.2913 859.2613,507.4533 Q859.1183,507.6153 858.8895,507.6153 Q858.6798,507.6153 858.5559,507.4914 Q858.432,507.377 858.3653,507.0625 Q858.3367,506.8433 858.2223,506.7289 Q858.0222,506.5002 857.6505,506.3667 Q857.2788,506.2333 856.8975,506.2333 Q856.4305,506.2333 856.0397,506.4334 Q855.6584,506.6336 855.3534,507.0911 Q855.058,507.5486 855.058,508.1777 L855.058,508.8448 Q855.058,509.5978 855.6012,510.103 Q856.1445,510.5986 857.1167,510.5986 Q857.6886,510.5986 858.0889,510.4461 Q858.3272,510.3508 858.5845,510.0839 Q858.7466,509.9219 858.8323,509.8742 Q858.9277,509.8266 859.0516,509.8266 Q859.2517,509.8266 859.4042,509.9886 Q859.5663,510.1411 859.5663,510.3508 Q859.5663,510.5605 859.3566,510.8083 Q859.0516,511.1609 858.5655,511.3611 Q857.9078,511.6375 857.1167,511.6375 Q856.1922,511.6375 855.4583,511.2562 Q854.8578,510.9513 854.4384,510.3031 Q854.0191,509.6455 854.0191,508.8639 L854.0191,508.1586 Q854.0191,507.3484 854.3908,506.6527 Q854.772,505.9473 855.4392,505.5756 Q856.1064,505.1944 856.8594,505.1944 Q857.3073,505.1944 857.6981,505.2992 Q858.0984,505.3945 858.432,505.6138 Z " fill="#000000"/><text fill="#000000" font-family="sans-serif" font-size="8.54" lengthAdjust="spacing" textLength="71.2014" x="865.285" y="511.6661">FourConnectRules</text><line style="stroke:#181818;stroke-width:0.305;" x1="848.205" x2="937.7064" y1="517.89" y2="517.89"/><line style="stroke:#181818;stroke-width:0.305;" x1="848.205" x2="937.7064" y1="522.77" y2="522.77"/></g><!--class FourConnectGame--><g class="entity" data-qualified-name="FourConnect.FourConnectGame" data-source-line="53" id="ent0007"><rect fill="#F1F1F1" height="199.663" rx="1.525" ry="1.525" style="stroke:#181818;stroke-width:0.305;" width="281.4298" x="657.275" y="171.41"/><ellipse cx="759.0857" cy="181.17" fill="#ADD1B2" rx="6.71" ry="6.71" style="stroke:#181818;stroke-width:0.61;"/><path d="M760.7728,178.6538 Q760.8681,178.5203 760.9824,178.4536 Q761.0968,178.3869 761.2303,178.3869 Q761.459,178.3869 761.602,178.5489 Q761.7449,178.7014 761.7449,179.0731 L761.7449,179.9595 Q761.7449,180.3312 761.602,180.4933 Q761.459,180.6553 761.2303,180.6553 Q761.0206,180.6553 760.8967,180.5314 Q760.7728,180.417 760.706,180.1025 Q760.6774,179.8833 760.5631,179.7689 Q760.3629,179.5402 759.9912,179.4067 Q759.6195,179.2733 759.2382,179.2733 Q758.7712,179.2733 758.3804,179.4734 Q757.9992,179.6736 757.6942,180.1311 Q757.3987,180.5886 757.3987,181.2177 L757.3987,181.8848 Q757.3987,182.6378 757.942,183.143 Q758.4853,183.6386 759.4574,183.6386 Q760.0293,183.6386 760.4296,183.4861 Q760.6679,183.3908 760.9253,183.1239 Q761.0873,182.9619 761.1731,182.9142 Q761.2684,182.8666 761.3923,182.8666 Q761.5924,182.8666 761.7449,183.0286 Q761.907,183.1811 761.907,183.3908 Q761.907,183.6005 761.6973,183.8483 Q761.3923,184.2009 760.9062,184.4011 Q760.2485,184.6775 759.4574,184.6775 Q758.5329,184.6775 757.799,184.2963 Q757.1985,183.9913 756.7792,183.3431 Q756.3598,182.6855 756.3598,181.9039 L756.3598,181.1986 Q756.3598,180.3884 756.7315,179.6927 Q757.1128,178.9873 757.7799,178.6156 Q758.4471,178.2344 759.2001,178.2344 Q759.6481,178.2344 760.0389,178.3392 Q760.4392,178.4345 760.7728,178.6538 Z " fill="#000000"/><text fill="#000000" font-family="sans-serif" font-size="8.54" lengthAdjust="spacing" textLength="72.6234" x="771.5907" y="184.7061">FourConnectGame</text><line style="stroke:#181818;stroke-width:0.305;" x1="657.885" x2="938.0948" y1="190.93" y2="190.93"/><text fill="#000000" font-family="sans-serif" font-size="8.54" lengthAdjust="spacing" textLength="71.6726" x="660.935" y="202.5855">-state : GameState</text><text fill="#000000" font-family="sans-serif" font-size="8.54" lengthAdjust="spacing" textLength="115.8112" x="660.935" y="213.9444">-players : FourConnectPlayer[]</text><text fill="#000000" font-family="sans-serif" font-size="8.54" lengthAdjust="spacing" textLength="90.6583" x="660.935" y="225.3033">-currentPlayerIndex : int</text><text fill="#000000" font-family="sans-serif" font-size="8.54" lengthAdjust="spacing" textLength="99.6736" x="660.935" y="236.6621">-rules : FourConnectRules</text><text fill="#000000" font-family="sans-serif" font-size="8.54" lengthAdjust="spacing" textLength="149.5251" x="660.935" y="248.021">-gameBoard : FourConnectGameBoard</text><text fill="#000000" font-family="sans-serif" font-size="8.54" lengthAdjust="spacing" textLength="133.3875" x="660.935" y="259.3799">-currentBranding : BrandingService</text><text fill="#000000" font-family="sans-serif" font-size="8.54" lengthAdjust="spacing" textLength="89.2572" x="660.935" y="270.7387">-oneBotPlayer: boolean</text><line style="stroke:#181818;stroke-width:0.305;" x1="657.885" x2="938.0948" y1="275.3221" y2="275.3221"/><text fill="#000000" font-family="sans-serif" font-size="8.54" lengthAdjust="spacing" textLength="113.9181" x="660.935" y="286.9776">&#171;create&#187; FourConnectGame()</text><text fill="#000000" font-family="sans-serif" font-size="8.54" lengthAdjust="spacing" textLength="134.088" x="660.935" y="298.3365">+getPlayers(): FourConnectPlayer[]</text><text fill="#000000" font-family="sans-serif" font-size="8.54" lengthAdjust="spacing" textLength="68.591" x="660.935" y="309.6953">+endGame(): void</text><text fill="#000000" font-family="sans-serif" font-size="8.54" lengthAdjust="spacing" textLength="155.9217" x="660.935" y="321.0542">+dropDisc(column : Integer) : GameState</text><text fill="#000000" font-family="sans-serif" font-size="8.54" lengthAdjust="spacing" textLength="110.8532" x="660.935" y="332.4131">+getOneBotPlayer(): boolean</text><text fill="#000000" font-family="sans-serif" font-size="8.54" lengthAdjust="spacing" textLength="74.2788" x="660.935" y="343.7719">+playerTurn() : void</text><text fill="#000000" font-family="sans-serif" font-size="8.54" lengthAdjust="spacing" textLength="107.0336" x="660.935" y="355.1308">+playBotTurn() : GameState</text><text fill="#000000" font-family="sans-serif" font-size="8.54" lengthAdjust="spacing" textLength="274.1098" x="660.935" y="366.4897">+initFourConnectGame(playerOne : Player, playerTwo : Player) : Integer</text></g><!--class FourConnectGameBoard--><g class="entity" data-qualified-name="FourConnect.FourConnectGameBoard" data-source-line="71" id="ent0008"><rect fill="#F1F1F1" height="142.8687" rx="1.525" ry="1.525" style="stroke:#181818;stroke-width:0.305;" width="275.2625" x="551.135" y="441.64"/><ellipse cx="638.4678" cy="451.4" fill="#ADD1B2" rx="6.71" ry="6.71" style="stroke:#181818;stroke-width:0.61;"/><path d="M640.1548,448.8837 Q640.2501,448.7503 640.3645,448.6836 Q640.4789,448.6169 640.6123,448.6169 Q640.841,448.6169 640.984,448.7789 Q641.127,448.9314 641.127,449.3031 L641.127,450.1895 Q641.127,450.5613 640.984,450.7233 Q640.841,450.8853 640.6123,450.8853 Q640.4026,450.8853 640.2787,450.7614 Q640.1548,450.647 640.0881,450.3325 Q640.0595,450.1133 639.9451,449.9989 Q639.7449,449.7702 639.3732,449.6367 Q639.0015,449.5033 638.6203,449.5033 Q638.1532,449.5033 637.7624,449.7034 Q637.3812,449.9036 637.0762,450.3611 Q636.7807,450.8186 636.7807,451.4477 L636.7807,452.1148 Q636.7807,452.8678 637.324,453.373 Q637.8673,453.8686 638.8395,453.8686 Q639.4114,453.8686 639.8117,453.7161 Q640.0499,453.6208 640.3073,453.3539 Q640.4693,453.1919 640.5551,453.1442 Q640.6504,453.0966 640.7743,453.0966 Q640.9745,453.0966 641.127,453.2586 Q641.289,453.4111 641.289,453.6208 Q641.289,453.8305 641.0793,454.0783 Q640.7743,454.4309 640.2882,454.6311 Q639.6306,454.9075 638.8395,454.9075 Q637.9149,454.9075 637.181,454.5263 Q636.5806,454.2213 636.1612,453.5731 Q635.7418,452.9155 635.7418,452.1339 L635.7418,451.4286 Q635.7418,450.6184 636.1135,449.9227 Q636.4948,449.2173 637.162,448.8456 Q637.8292,448.4644 638.5821,448.4644 Q639.0301,448.4644 639.4209,448.5692 Q639.8212,448.6645 640.1548,448.8837 Z " fill="#000000"/><text fill="#000000" font-family="sans-serif" font-size="8.54" lengthAdjust="spacing" textLength="95.412" x="650.9728" y="454.9361">FourConnectGameBoard</text><line style="stroke:#181818;stroke-width:0.305;" x1="551.745" x2="825.7875" y1="461.16" y2="461.16"/><text fill="#000000" font-family="sans-serif" font-size="8.54" lengthAdjust="spacing" text-decoration="underline" textLength="98.2267" x="554.795" y="472.8155">-ROW_COUNTS : Integer</text><text fill="#000000" font-family="sans-serif" font-size="8.54" lengthAdjust="spacing" text-decoration="underline" textLength="114.3643" x="554.795" y="484.1744">-COLUMN_COUNTS : Integer</text><text fill="#000000" font-family="sans-serif" font-size="8.54" lengthAdjust="spacing" textLength="43.6591" x="554.795" y="495.5333">-cells : Map</text><line style="stroke:#181818;stroke-width:0.305;" x1="551.745" x2="825.7875" y1="500.1166" y2="500.1166"/><text fill="#000000" font-family="sans-serif" font-size="8.54" lengthAdjust="spacing" textLength="141.6939" x="554.795" y="511.7721">+&#171;create&#187; FourConnectGameBoard()</text><text fill="#000000" font-family="sans-serif" font-size="8.54" lengthAdjust="spacing" textLength="77.6064" x="554.795" y="523.131">+getRows() : Integer</text><text fill="#000000" font-family="sans-serif" font-size="8.54" lengthAdjust="spacing" textLength="89.9494" x="554.795" y="534.4899">+getColumns() : Integer</text><text fill="#000000" font-family="sans-serif" font-size="8.54" lengthAdjust="spacing" textLength="223.7997" x="554.795" y="545.8487">+getCellOwner(x : Integer, y : Integer) : FourConnectPlayer</text><text fill="#000000" font-family="sans-serif" font-size="8.54" lengthAdjust="spacing" textLength="210.039" x="554.795" y="557.2076">+getCellOwner(position : Position) : FourConnectPlayer</text><text fill="#000000" font-family="sans-serif" font-size="8.54" lengthAdjust="spacing" textLength="267.9425" x="554.795" y="568.5665">+setCellValue(cell : Position, currentPlayer : FourConnectPlayer) : void</text><text fill="#000000" font-family="sans-serif" font-size="8.54" lengthAdjust="spacing" textLength="175.8706" x="554.795" y="579.9253">+copy(board : FourConnectGameBoard) : void</text></g><!--class Position--><g class="entity" data-qualified-name="FourConnect.Position" data-source-line="84" id="ent0009"><rect fill="#F1F1F1" height="108.7921" rx="1.525" ry="1.525" style="stroke:#181818;stroke-width:0.305;" width="164.6803" x="14.03" y="458.72"/><ellipse cx="78.5866" cy="468.48" fill="#ADD1B2" rx="6.71" ry="6.71" style="stroke:#181818;stroke-width:0.61;"/><path d="M80.2737,465.9638 Q80.369,465.8303 80.4834,465.7636 Q80.5977,465.6969 80.7312,465.6969 Q80.9599,465.6969 81.1029,465.8589 Q81.2459,466.0114 81.2459,466.3831 L81.2459,467.2695 Q81.2459,467.6413 81.1029,467.8033 Q80.9599,467.9653 80.7312,467.9653 Q80.5215,467.9653 80.3976,467.8414 Q80.2737,467.727 80.207,467.4125 Q80.1784,467.1933 80.064,467.0789 Q79.8638,466.8502 79.4921,466.7167 Q79.1204,466.5833 78.7391,466.5833 Q78.2721,466.5833 77.8813,466.7834 Q77.5001,466.9836 77.1951,467.4411 Q76.8996,467.8986 76.8996,468.5277 L76.8996,469.1948 Q76.8996,469.9478 77.4429,470.453 Q77.9862,470.9486 78.9584,470.9486 Q79.5302,470.9486 79.9306,470.7961 Q80.1688,470.7008 80.4262,470.4339 Q80.5882,470.2719 80.674,470.2242 Q80.7693,470.1766 80.8932,470.1766 Q81.0934,470.1766 81.2459,470.3386 Q81.4079,470.4911 81.4079,470.7008 Q81.4079,470.9105 81.1982,471.1583 Q80.8932,471.5109 80.4071,471.7111 Q79.7495,471.9875 78.9584,471.9875 Q78.0338,471.9875 77.2999,471.6063 Q76.6995,471.3013 76.2801,470.6531 Q75.8607,469.9955 75.8607,469.2139 L75.8607,468.5086 Q75.8607,467.6984 76.2324,467.0027 Q76.6137,466.2973 77.2809,465.9256 Q77.9481,465.5444 78.701,465.5444 Q79.149,465.5444 79.5398,465.6492 Q79.9401,465.7445 80.2737,465.9638 Z " fill="#000000"/><text fill="#000000" font-family="sans-serif" font-size="8.54" lengthAdjust="spacing" textLength="30.3821" x="91.0916" y="472.0161">Position</text><line style="stroke:#181818;stroke-width:0.305;" x1="14.64" x2="178.1003" y1="478.24" y2="478.24"/><text fill="#000000" font-family="sans-serif" font-size="8.54" lengthAdjust="spacing" textLength="40.8194" x="17.69" y="489.8955">-x : Integer</text><text fill="#000000" font-family="sans-serif" font-size="8.54" lengthAdjust="spacing" textLength="40.8194" x="17.69" y="501.2544">-y : Integer</text><line style="stroke:#181818;stroke-width:0.305;" x1="14.64" x2="178.1003" y1="505.8377" y2="505.8377"/><text fill="#000000" font-family="sans-serif" font-size="8.54" lengthAdjust="spacing" textLength="157.3603" x="17.69" y="517.4933">+&#171;create&#187; Position(x : Integer, y : Integer)</text><text fill="#000000" font-family="sans-serif" font-size="8.54" lengthAdjust="spacing" textLength="61.9484" x="17.69" y="528.8521">+getX() : Integer</text><text fill="#000000" font-family="sans-serif" font-size="8.54" lengthAdjust="spacing" textLength="61.9484" x="17.69" y="540.211">+getY() : Integer</text><text fill="#000000" font-family="sans-serif" font-size="8.54" lengthAdjust="spacing" textLength="109.9025" x="17.69" y="551.5699">+equals(o : Object) : boolean</text><text fill="#000000" font-family="sans-serif" font-size="8.54" lengthAdjust="spacing" textLength="65.7472" x="17.69" y="562.9287">+hashCode() : int</text></g><!--class Player--><g class="entity" data-qualified-name="FourConnect.Player" data-source-line="94" id="ent0010"><rect fill="#F1F1F1" height="82.3905" rx="1.525" ry="1.525" style="stroke:#181818;stroke-width:0.305;" width="65.9146" x="452.62" y="229.97"/><ellipse cx="461.77" cy="243.5675" fill="#EB937F" rx="6.71" ry="6.71" style="stroke:#181818;stroke-width:0.61;"/><path d="M461.0742,244.0536 L461.0742,245.5786 L463.7144,245.5786 L463.7144,245.0163 Q463.7144,244.6446 463.8573,244.4825 Q464.0098,244.3205 464.2386,244.3205 Q464.4673,244.3205 464.6103,244.4825 Q464.7533,244.6446 464.7533,245.0163 L464.7533,246.6175 L459.8733,246.6175 Q459.492,246.6175 459.33,246.4746 Q459.1775,246.3316 459.1775,246.0933 Q459.1775,245.8646 459.3395,245.7216 Q459.5016,245.5786 459.8733,245.5786 L460.0353,245.5786 L460.0353,241.5183 L459.8733,241.5183 Q459.492,241.5183 459.33,241.3753 Q459.1775,241.2324 459.1775,240.9941 Q459.1775,240.7653 459.33,240.6224 Q459.492,240.4794 459.8733,240.4794 L464.5245,240.4794 L464.5245,242.0616 Q464.5245,242.4333 464.3816,242.5953 Q464.2481,242.7478 464.0098,242.7478 Q463.7811,242.7478 463.6381,242.5953 Q463.4952,242.4333 463.4952,242.0616 L463.4952,241.5183 L461.0742,241.5183 L461.0742,243.0147 L461.9797,243.0147 Q461.9797,242.6144 462.0559,242.5 Q462.218,242.2522 462.5039,242.2522 Q462.7327,242.2522 462.8756,242.4142 Q463.0186,242.5667 463.0186,242.9385 L463.0186,244.1394 Q463.0186,244.473 462.9423,244.5874 Q462.7803,244.8256 462.5039,244.8256 Q462.218,244.8256 462.0559,244.5778 Q461.9797,244.4635 461.9797,244.0536 L461.0742,244.0536 Z " fill="#000000"/><text fill="#000000" font-family="sans-serif" font-size="7.32" font-style="italic" lengthAdjust="spacing" textLength="48.8346" x="469.09" y="240.919">&#171;enumeration&#187;</text><text fill="#000000" font-family="sans-serif" font-size="8.54" lengthAdjust="spacing" textLength="24.2064" x="481.4041" y="251.9717">Player</text><line style="stroke:#181818;stroke-width:0.305;" x1="453.23" x2="517.9246" y1="257.165" y2="257.165"/><text fill="#000000" font-family="sans-serif" font-size="8.54" lengthAdjust="spacing" textLength="31.3119" x="456.28" y="268.8206">HUMAN</text><text fill="#000000" font-family="sans-serif" font-size="8.54" lengthAdjust="spacing" textLength="40.3398" x="456.28" y="280.1794">EASYBOT</text><text fill="#000000" font-family="sans-serif" font-size="8.54" lengthAdjust="spacing" textLength="41.7534" x="456.28" y="291.5383">HARDBOT</text><text fill="#000000" font-family="sans-serif" font-size="8.54" lengthAdjust="spacing" textLength="24.6734" x="456.28" y="302.8972">NONE</text><line style="stroke:#181818;stroke-width:0.305;" x1="453.23" x2="517.9246" y1="307.4805" y2="307.4805"/></g><!--class FourConnectPlayer--><g class="entity" data-qualified-name="FourConnect.FourConnectPlayer" data-source-line="101" id="ent0011"><rect fill="#F1F1F1" height="108.7921" rx="1.525" ry="1.525" style="stroke:#181818;stroke-width:0.305;" width="329.3756" x="200.08" y="458.72"/><ellipse cx="325.3882" cy="468.48" fill="#ADD1B2" rx="6.71" ry="6.71" style="stroke:#181818;stroke-width:0.61;"/><path d="M327.0753,465.9638 Q327.1706,465.8303 327.285,465.7636 Q327.3993,465.6969 327.5328,465.6969 Q327.7615,465.6969 327.9045,465.8589 Q328.0475,466.0114 328.0475,466.3831 L328.0475,467.2695 Q328.0475,467.6413 327.9045,467.8033 Q327.7615,467.9653 327.5328,467.9653 Q327.3231,467.9653 327.1992,467.8414 Q327.0753,467.727 327.0085,467.4125 Q326.98,467.1933 326.8656,467.0789 Q326.6654,466.8502 326.2937,466.7167 Q325.922,466.5833 325.5407,466.5833 Q325.0737,466.5833 324.6829,466.7834 Q324.3017,466.9836 323.9967,467.4411 Q323.7012,467.8986 323.7012,468.5277 L323.7012,469.1948 Q323.7012,469.9478 324.2445,470.453 Q324.7878,470.9486 325.76,470.9486 Q326.3318,470.9486 326.7321,470.7961 Q326.9704,470.7008 327.2278,470.4339 Q327.3898,470.2719 327.4756,470.2242 Q327.5709,470.1766 327.6948,470.1766 Q327.895,470.1766 328.0475,470.3386 Q328.2095,470.4911 328.2095,470.7008 Q328.2095,470.9105 327.9998,471.1583 Q327.6948,471.5109 327.2087,471.7111 Q326.551,471.9875 325.76,471.9875 Q324.8354,471.9875 324.1015,471.6063 Q323.501,471.3013 323.0817,470.6531 Q322.6623,469.9955 322.6623,469.2139 L322.6623,468.5086 Q322.6623,467.6984 323.034,467.0027 Q323.4153,466.2973 324.0825,465.9256 Q324.7496,465.5444 325.5026,465.5444 Q325.9506,465.5444 326.3414,465.6492 Q326.7417,465.7445 327.0753,465.9638 Z " fill="#000000"/><text fill="#000000" font-family="sans-serif" font-size="8.54" lengthAdjust="spacing" textLength="73.5741" x="337.8932" y="472.0161">FourConnectPlayer</text><line style="stroke:#181818;stroke-width:0.305;" x1="200.69" x2="528.8456" y1="478.24" y2="478.24"/><text fill="#000000" font-family="sans-serif" font-size="8.54" lengthAdjust="spacing" textLength="50.3101" x="203.74" y="489.8955">-type : Player</text><text fill="#000000" font-family="sans-serif" font-size="8.54" lengthAdjust="spacing" textLength="95.3995" x="203.74" y="501.2544">-strategy : IMoveStrategy</text><text fill="#000000" font-family="sans-serif" font-size="8.54" lengthAdjust="spacing" textLength="55.5308" x="203.74" y="512.6133">-colour : String</text><line style="stroke:#181818;stroke-width:0.305;" x1="200.69" x2="528.8456" y1="517.1966" y2="517.1966"/><text fill="#000000" font-family="sans-serif" font-size="8.54" lengthAdjust="spacing" textLength="322.0556" x="203.74" y="528.8521">+&#171;create&#187; FourConnectPlayer(type : Player, strategy : IMoveStrategy, colour : String)</text><text fill="#000000" font-family="sans-serif" font-size="8.54" lengthAdjust="spacing" textLength="72.8569" x="203.74" y="540.211">+getType() : Player</text><text fill="#000000" font-family="sans-serif" font-size="8.54" lengthAdjust="spacing" textLength="116.5285" x="203.74" y="551.5699">+getStrategy() : IMoveStrategy</text><text fill="#000000" font-family="sans-serif" font-size="8.54" lengthAdjust="spacing" textLength="77.131" x="203.74" y="562.9287">+getColour() : String</text></g><!--class FourConnectBotStrategy--><g class="entity" data-qualified-name="FourConnect.FourConnectBotStrategy" data-source-line="111" id="ent0012"><rect fill="#F1F1F1" height="222.3807" rx="1.525" ry="1.525" style="stroke:#181818;stroke-width:0.305;" width="309.9187" x="278.16" y="655.14"/><ellipse cx="383.5318" cy="664.9" fill="#ADD1B2" rx="6.71" ry="6.71" style="stroke:#181818;stroke-width:0.61;"/><path d="M385.2189,662.3838 Q385.3142,662.2503 385.4286,662.1836 Q385.5429,662.1169 385.6764,662.1169 Q385.9051,662.1169 386.0481,662.2789 Q386.1911,662.4314 386.1911,662.8031 L386.1911,663.6895 Q386.1911,664.0613 386.0481,664.2233 Q385.9051,664.3853 385.6764,664.3853 Q385.4667,664.3853 385.3428,664.2614 Q385.2189,664.147 385.1522,663.8325 Q385.1236,663.6133 385.0092,663.4989 Q384.809,663.2702 384.4373,663.1367 Q384.0656,663.0033 383.6843,663.0033 Q383.2173,663.0033 382.8265,663.2034 Q382.4453,663.4036 382.1403,663.8611 Q381.8448,664.3186 381.8448,664.9477 L381.8448,665.6148 Q381.8448,666.3678 382.3881,666.873 Q382.9314,667.3686 383.9036,667.3686 Q384.4754,667.3686 384.8757,667.2161 Q385.114,667.1208 385.3714,666.8539 Q385.5334,666.6919 385.6192,666.6442 Q385.7145,666.5966 385.8384,666.5966 Q386.0386,666.5966 386.1911,666.7586 Q386.3531,666.9111 386.3531,667.1208 Q386.3531,667.3305 386.1434,667.5783 Q385.8384,667.9309 385.3523,668.1311 Q384.6947,668.4075 383.9036,668.4075 Q382.979,668.4075 382.2451,668.0263 Q381.6447,667.7212 381.2253,667.0731 Q380.8059,666.4155 380.8059,665.6339 L380.8059,664.9286 Q380.8059,664.1184 381.1776,663.4227 Q381.5589,662.7173 382.2261,662.3456 Q382.8932,661.9644 383.6462,661.9644 Q384.0942,661.9644 384.485,662.0692 Q384.8853,662.1645 385.2189,662.3838 Z " fill="#000000"/><text fill="#000000" font-family="sans-serif" font-size="8.54" lengthAdjust="spacing" textLength="93.99" x="396.0368" y="668.4361">FourConnectBotStrategy</text><line style="stroke:#181818;stroke-width:0.305;" x1="278.77" x2="587.4687" y1="674.66" y2="674.66"/><text fill="#000000" font-family="sans-serif" font-size="8.54" lengthAdjust="spacing" textLength="112.2543" x="281.82" y="686.3155">~fcGame: FourConnectGame</text><text fill="#000000" font-family="sans-serif" font-size="8.54" lengthAdjust="spacing" textLength="109.4104" x="281.82" y="697.6744">~fcRules: FourConnectRules</text><text fill="#000000" font-family="sans-serif" font-size="8.54" lengthAdjust="spacing" textLength="74.9919" x="281.82" y="709.0333">-randNum: Random</text><text fill="#000000" font-family="sans-serif" font-size="8.54" lengthAdjust="spacing" text-decoration="underline" textLength="55.0555" x="281.82" y="720.3921">-player: Player</text><text fill="#000000" font-family="sans-serif" font-size="8.54" lengthAdjust="spacing" text-decoration="underline" textLength="43.6674" x="281.82" y="731.751">-bot: Player</text><text fill="#000000" font-family="sans-serif" font-size="8.54" lengthAdjust="spacing" text-decoration="underline" textLength="98.2267" x="281.82" y="743.1099">-SCORE_BOT_FOUR: int</text><text fill="#000000" font-family="sans-serif" font-size="8.54" lengthAdjust="spacing" text-decoration="underline" textLength="102.9762" x="281.82" y="754.4687">-SCORE_BOT_THREE: int</text><text fill="#000000" font-family="sans-serif" font-size="8.54" lengthAdjust="spacing" text-decoration="underline" textLength="93.9525" x="281.82" y="765.8276">-SCORE_BOT_TWO: int</text><text fill="#000000" font-family="sans-serif" font-size="8.54" lengthAdjust="spacing" text-decoration="underline" textLength="92.5389" x="281.82" y="777.1865">-SCORE_BOT_ONE: int</text><text fill="#000000" font-family="sans-serif" font-size="8.54" lengthAdjust="spacing" text-decoration="underline" textLength="98.7062" x="281.82" y="788.5453">-SCORE_OPP_FOUR: int</text><text fill="#000000" font-family="sans-serif" font-size="8.54" lengthAdjust="spacing" text-decoration="underline" textLength="103.4558" x="281.82" y="799.9042">-SCORE_OPP_THREE: int</text><text fill="#000000" font-family="sans-serif" font-size="8.54" lengthAdjust="spacing" text-decoration="underline" textLength="94.4321" x="281.82" y="811.2631">-SCORE_OPP_TWO: int</text><text fill="#000000" font-family="sans-serif" font-size="8.54" lengthAdjust="spacing" text-decoration="underline" textLength="93.0184" x="281.82" y="822.6219">-SCORE_OPP_ONE: int</text><text fill="#000000" font-family="sans-serif" font-size="8.54" lengthAdjust="spacing" text-decoration="underline" textLength="86.8345" x="281.82" y="833.9808">-MINIMAX_DEPTH: int</text><line style="stroke:#181818;stroke-width:0.305;" x1="278.77" x2="587.4687" y1="838.5641" y2="838.5641"/><text fill="#000000" font-family="sans-serif" font-size="8.54" lengthAdjust="spacing" textLength="302.5987" x="281.82" y="850.2197">+FourConnectBotStrategy(game: FourConnectGame, rules: FourConnectRules)</text><text fill="#000000" font-family="sans-serif" font-size="8.54" lengthAdjust="spacing" textLength="219.5547" x="281.82" y="861.5785">~appraiseBoard(board: FourConnectGameBoard): Integer</text><text fill="#000000" font-family="sans-serif" font-size="8.54" lengthAdjust="spacing" textLength="278.3965" x="281.82" y="872.9374">~allFourConnects(board: FourConnectGameBoard): ArrayList&lt;Position[]&gt;</text></g><!--class Easy--><g class="entity" data-qualified-name="FourConnect.Easy" data-source-line="131" id="ent0013"><rect fill="#F1F1F1" height="29.28" rx="1.525" ry="1.525" style="stroke:#181818;stroke-width:0.305;" width="83.128" x="123.22" y="952.21"/><ellipse cx="132.37" cy="961.97" fill="#ADD1B2" rx="6.71" ry="6.71" style="stroke:#181818;stroke-width:0.61;"/><path d="M134.057,959.4538 Q134.1523,959.3203 134.2667,959.2536 Q134.3811,959.1869 134.5145,959.1869 Q134.7433,959.1869 134.8863,959.3489 Q135.0292,959.5014 135.0292,959.8731 L135.0292,960.7595 Q135.0292,961.1313 134.8863,961.2933 Q134.7433,961.4553 134.5145,961.4553 Q134.3048,961.4553 134.1809,961.3314 Q134.057,961.217 133.9903,960.9025 Q133.9617,960.6833 133.8473,960.5689 Q133.6472,960.3402 133.2755,960.2067 Q132.9038,960.0733 132.5225,960.0733 Q132.0555,960.0733 131.6647,960.2734 Q131.2834,960.4736 130.9784,960.9311 Q130.683,961.3886 130.683,962.0177 L130.683,962.6848 Q130.683,963.4378 131.2263,963.943 Q131.7695,964.4386 132.7417,964.4386 Q133.3136,964.4386 133.7139,964.2861 Q133.9522,964.1908 134.2095,963.9239 Q134.3716,963.7619 134.4573,963.7142 Q134.5527,963.6666 134.6766,963.6666 Q134.8767,963.6666 135.0292,963.8286 Q135.1913,963.9811 135.1913,964.1908 Q135.1913,964.4005 134.9816,964.6483 Q134.6766,965.0009 134.1905,965.2011 Q133.5328,965.4775 132.7417,965.4775 Q131.8172,965.4775 131.0833,965.0962 Q130.4828,964.7913 130.0634,964.1431 Q129.6441,963.4855 129.6441,962.7039 L129.6441,961.9986 Q129.6441,961.1884 130.0158,960.4927 Q130.397,959.7873 131.0642,959.4156 Q131.7314,959.0344 132.4844,959.0344 Q132.9323,959.0344 133.3231,959.1392 Q133.7234,959.2345 134.057,959.4538 Z " fill="#000000"/><text fill="#000000" font-family="sans-serif" font-size="8.54" lengthAdjust="spacing" textLength="63.608" x="140.91" y="965.5061">EasyBotStrategy</text><line style="stroke:#181818;stroke-width:0.305;" x1="123.83" x2="205.738" y1="971.73" y2="971.73"/><line style="stroke:#181818;stroke-width:0.305;" x1="123.83" x2="205.738" y1="976.61" y2="976.61"/></g><!--class Hard--><g class="entity" data-qualified-name="FourConnect.Hard" data-source-line="134" id="ent0014"><rect fill="#F1F1F1" height="97.4332" rx="1.525" ry="1.525" style="stroke:#181818;stroke-width:0.305;" width="410.7725" x="227.835" y="918.05"/><ellipse cx="399.0624" cy="927.81" fill="#ADD1B2" rx="6.71" ry="6.71" style="stroke:#181818;stroke-width:0.61;"/><path d="M400.7494,925.2937 Q400.8448,925.1603 400.9591,925.0936 Q401.0735,925.0269 401.2069,925.0269 Q401.4357,925.0269 401.5787,925.1889 Q401.7216,925.3414 401.7216,925.7131 L401.7216,926.5995 Q401.7216,926.9712 401.5787,927.1333 Q401.4357,927.2953 401.2069,927.2953 Q400.9973,927.2953 400.8734,927.1714 Q400.7494,927.057 400.6827,926.7425 Q400.6541,926.5233 400.5398,926.4089 Q400.3396,926.1802 399.9679,926.0467 Q399.5962,925.9133 399.2149,925.9133 Q398.7479,925.9133 398.3571,926.1134 Q397.9759,926.3136 397.6709,926.7711 Q397.3754,927.2286 397.3754,927.8577 L397.3754,928.5248 Q397.3754,929.2778 397.9187,929.783 Q398.4619,930.2786 399.4341,930.2786 Q400.006,930.2786 400.4063,930.1261 Q400.6446,930.0308 400.9019,929.7639 Q401.064,929.6019 401.1498,929.5542 Q401.2451,929.5066 401.369,929.5066 Q401.5691,929.5066 401.7216,929.6686 Q401.8837,929.8211 401.8837,930.0308 Q401.8837,930.2405 401.674,930.4883 Q401.369,930.8409 400.8829,931.0411 Q400.2252,931.3175 399.4341,931.3175 Q398.5096,931.3175 397.7757,930.9363 Q397.1752,930.6313 396.7559,929.9831 Q396.3365,929.3255 396.3365,928.5439 L396.3365,927.8386 Q396.3365,927.0284 396.7082,926.3327 Q397.0894,925.6273 397.7566,925.2556 Q398.4238,924.8744 399.1768,924.8744 Q399.6248,924.8744 400.0155,924.9792 Q400.4159,925.0745 400.7494,925.2937 Z " fill="#000000"/><text fill="#000000" font-family="sans-serif" font-size="8.54" lengthAdjust="spacing" textLength="63.1326" x="411.5674" y="931.3461">HardBotStrategy</text><line style="stroke:#181818;stroke-width:0.305;" x1="228.445" x2="637.9975" y1="937.57" y2="937.57"/><line style="stroke:#181818;stroke-width:0.305;" x1="228.445" x2="637.9975" y1="942.45" y2="942.45"/><text fill="#000000" font-family="sans-serif" font-size="8.54" lengthAdjust="spacing" textLength="256.3293" x="231.495" y="954.1055">-findBestTurn(boardC: FourConnectGameBoard, depth: int): Integer</text><text fill="#000000" font-family="sans-serif" font-size="8.54" lengthAdjust="spacing" textLength="320.4001" x="231.495" y="965.4644">-minMax(board: FourConnectGameBoard, depth: int, isMaximizing: boolean): Integer</text><text fill="#000000" font-family="sans-serif" font-size="8.54" lengthAdjust="spacing" textLength="248.2605" x="231.495" y="976.8233">-findValideTurns(board: FourConnectGameBoard): List&lt;Position&gt;</text><text fill="#000000" font-family="sans-serif" font-size="8.54" lengthAdjust="spacing" textLength="403.4525" x="231.495" y="988.1821">-playTestTurn(board: FourConnectGameBoard, turn: Position, currentFCPLayer: FourConnectPlayer): void</text><text fill="#000000" font-family="sans-serif" font-size="8.54" lengthAdjust="spacing" textLength="258.6978" x="231.495" y="999.541">-undoTestTurn(board: FourConnectGameBoard, turn: Position): void</text><text fill="#000000" font-family="sans-serif" font-size="8.54" lengthAdjust="spacing" textLength="231.635" x="231.495" y="1010.8999">-findBotPlayerPosition(players: FourConnectPlayer[]): Integer</text></g><!--class GameMode--><g class="entity" data-qualified-name="FourConnect.GameMode" data-source-line="143" id="ent0015"><rect fill="#F1F1F1" height="59.6728" rx="1.525" ry="1.525" style="stroke:#181818;stroke-width:0.305;" width="65.9146" x="131.15" y="241.255"/><ellipse cx="140.3" cy="254.8525" fill="#EB937F" rx="6.71" ry="6.71" style="stroke:#181818;stroke-width:0.61;"/><path d="M139.6042,255.3386 L139.6042,256.8636 L142.2444,256.8636 L142.2444,256.3013 Q142.2444,255.9296 142.3873,255.7675 Q142.5398,255.6055 142.7686,255.6055 Q142.9973,255.6055 143.1403,255.7675 Q143.2833,255.9296 143.2833,256.3013 L143.2833,257.9025 L138.4033,257.9025 Q138.022,257.9025 137.86,257.7596 Q137.7075,257.6166 137.7075,257.3783 Q137.7075,257.1496 137.8695,257.0066 Q138.0316,256.8636 138.4033,256.8636 L138.5653,256.8636 L138.5653,252.8033 L138.4033,252.8033 Q138.022,252.8033 137.86,252.6603 Q137.7075,252.5174 137.7075,252.2791 Q137.7075,252.0503 137.86,251.9074 Q138.022,251.7644 138.4033,251.7644 L143.0545,251.7644 L143.0545,253.3466 Q143.0545,253.7183 142.9116,253.8803 Q142.7781,254.0328 142.5398,254.0328 Q142.3111,254.0328 142.1681,253.8803 Q142.0252,253.7183 142.0252,253.3466 L142.0252,252.8033 L139.6042,252.8033 L139.6042,254.2997 L140.5097,254.2997 Q140.5097,253.8994 140.5859,253.785 Q140.748,253.5372 141.0339,253.5372 Q141.2627,253.5372 141.4056,253.6992 Q141.5486,253.8517 141.5486,254.2235 L141.5486,255.4244 Q141.5486,255.758 141.4723,255.8724 Q141.3103,256.1106 141.0339,256.1106 Q140.748,256.1106 140.5859,255.8628 Q140.5097,255.7485 140.5097,255.3386 L139.6042,255.3386 Z " fill="#000000"/><text fill="#000000" font-family="sans-serif" font-size="7.32" font-style="italic" lengthAdjust="spacing" textLength="48.8346" x="147.62" y="252.204">&#171;enumeration&#187;</text><text fill="#000000" font-family="sans-serif" font-size="8.54" lengthAdjust="spacing" textLength="44.6182" x="149.7282" y="263.2567">GameMode</text><line style="stroke:#181818;stroke-width:0.305;" x1="131.76" x2="196.4546" y1="268.45" y2="268.45"/><text fill="#000000" font-family="sans-serif" font-size="8.54" lengthAdjust="spacing" textLength="53.621" x="134.81" y="280.1056">TWOPLAYER</text><text fill="#000000" font-family="sans-serif" font-size="8.54" lengthAdjust="spacing" textLength="17.5554" x="134.81" y="291.4644">BOT</text><line style="stroke:#181818;stroke-width:0.305;" x1="131.76" x2="196.4546" y1="296.0478" y2="296.0478"/></g><!--class IMoveStrategy--><g class="entity" data-qualified-name="FourConnect.IMoveStrategy" data-source-line="151" id="ent0019"><rect fill="#F1F1F1" height="29.28" rx="1.525" ry="1.525" style="stroke:#181818;stroke-width:0.305;" width="74.5796" x="395.89" y="1055.91"/><ellipse cx="405.04" cy="1065.67" fill="#ADD1B2" rx="6.71" ry="6.71" style="stroke:#181818;stroke-width:0.61;"/><path d="M406.727,1063.1538 Q406.8223,1063.0203 406.9367,1062.9536 Q407.0511,1062.8869 407.1845,1062.8869 Q407.4133,1062.8869 407.5563,1063.0489 Q407.6992,1063.2014 407.6992,1063.5731 L407.6992,1064.4595 Q407.6992,1064.8313 407.5563,1064.9933 Q407.4133,1065.1553 407.1845,1065.1553 Q406.9748,1065.1553 406.8509,1065.0314 Q406.727,1064.917 406.6603,1064.6025 Q406.6317,1064.3833 406.5173,1064.2689 Q406.3172,1064.0402 405.9455,1063.9067 Q405.5738,1063.7733 405.1925,1063.7733 Q404.7255,1063.7733 404.3347,1063.9734 Q403.9534,1064.1736 403.6484,1064.6311 Q403.353,1065.0886 403.353,1065.7177 L403.353,1066.3848 Q403.353,1067.1378 403.8963,1067.643 Q404.4395,1068.1386 405.4117,1068.1386 Q405.9836,1068.1386 406.3839,1067.9861 Q406.6222,1067.8908 406.8795,1067.6239 Q407.0416,1067.4619 407.1273,1067.4142 Q407.2227,1067.3666 407.3466,1067.3666 Q407.5467,1067.3666 407.6992,1067.5286 Q407.8613,1067.6811 407.8613,1067.8908 Q407.8613,1068.1005 407.6516,1068.3483 Q407.3466,1068.7009 406.8605,1068.9011 Q406.2028,1069.1775 405.4117,1069.1775 Q404.4872,1069.1775 403.7533,1068.7962 Q403.1528,1068.4913 402.7334,1067.8431 Q402.3141,1067.1855 402.3141,1066.4039 L402.3141,1065.6986 Q402.3141,1064.8884 402.6858,1064.1927 Q403.067,1063.4873 403.7342,1063.1156 Q404.4014,1062.7344 405.1544,1062.7344 Q405.6023,1062.7344 405.9931,1062.8392 Q406.3934,1062.9345 406.727,1063.1538 Z " fill="#000000"/><text fill="#000000" font-family="sans-serif" font-size="8.54" lengthAdjust="spacing" textLength="55.0596" x="413.58" y="1069.2061">IMoveStrategy</text><line style="stroke:#181818;stroke-width:0.305;" x1="396.5" x2="469.8596" y1="1075.43" y2="1075.43"/><line style="stroke:#181818;stroke-width:0.305;" x1="396.5" x2="469.8596" y1="1080.31" y2="1080.31"/></g><!--class IRuleSet--><g class="entity" data-qualified-name="Game Core.IRuleSet" data-source-line="159" id="ent0024"><rect fill="#F1F1F1" height="59.6728" rx="1.525" ry="1.525" style="stroke:#181818;stroke-width:0.305;" width="224.0017" x="1247.145" y="936.96"/><ellipse cx="1339.6645" cy="950.5575" fill="#B4A7E5" rx="6.71" ry="6.71" style="stroke:#181818;stroke-width:0.61;"/><path d="M1340.246,948.5083 L1340.246,952.5686 L1341.2944,952.5686 Q1341.6661,952.5686 1341.8281,952.7116 Q1341.9902,952.8546 1341.9902,953.0928 Q1341.9902,953.3216 1341.8281,953.4646 Q1341.6661,953.6075 1341.2944,953.6075 L1338.1586,953.6075 Q1337.7869,953.6075 1337.6249,953.4646 Q1337.4628,953.3216 1337.4628,953.0833 Q1337.4628,952.8546 1337.6249,952.7116 Q1337.7869,952.5686 1338.1586,952.5686 L1339.207,952.5686 L1339.207,948.5083 L1338.1586,948.5083 Q1337.7869,948.5083 1337.6249,948.3653 Q1337.4628,948.2224 1337.4628,947.9841 Q1337.4628,947.7553 1337.6249,947.6124 Q1337.7869,947.4694 1338.1586,947.4694 L1341.2944,947.4694 Q1341.6661,947.4694 1341.8281,947.6124 Q1341.9902,947.7553 1341.9902,947.9841 Q1341.9902,948.2224 1341.8281,948.3653 Q1341.6661,948.5083 1341.2944,948.5083 L1340.246,948.5083 Z " fill="#000000"/><text fill="#000000" font-family="sans-serif" font-size="7.32" font-style="italic" lengthAdjust="spacing" textLength="36.2176" x="1350.9495" y="947.909">&#171;interface&#187;</text><text fill="#000000" font-family="sans-serif" font-size="8.54" font-style="italic" lengthAdjust="spacing" textLength="32.7547" x="1352.681" y="958.9617">IRuleSet</text><line style="stroke:#181818;stroke-width:0.305;" x1="1247.755" x2="1470.5367" y1="964.155" y2="964.155"/><line style="stroke:#181818;stroke-width:0.305;" x1="1247.755" x2="1470.5367" y1="969.035" y2="969.035"/><text fill="#000000" font-family="sans-serif" font-size="8.54" lengthAdjust="spacing" textLength="216.6817" x="1250.805" y="980.6906">+checkWin(board : IPlayArea, player : PlayerT) : Boolean</text><text fill="#000000" font-family="sans-serif" font-size="8.54" lengthAdjust="spacing" textLength="149.2915" x="1250.805" y="992.0494">+checkTie(board : IPlayArea) : Boolean</text></g><!--class GameState--><g class="entity" data-qualified-name="Game Core.GameState" data-source-line="164" id="ent0025"><rect fill="#F1F1F1" height="105.1082" rx="1.525" ry="1.525" style="stroke:#181818;stroke-width:0.305;" width="65.9146" x="1492.67" y="914.39"/><ellipse cx="1501.82" cy="927.9875" fill="#EB937F" rx="6.71" ry="6.71" style="stroke:#181818;stroke-width:0.61;"/><path d="M1501.1242,928.4736 L1501.1242,929.9986 L1503.7644,929.9986 L1503.7644,929.4363 Q1503.7644,929.0646 1503.9073,928.9025 Q1504.0598,928.7405 1504.2886,928.7405 Q1504.5173,928.7405 1504.6603,928.9025 Q1504.8033,929.0646 1504.8033,929.4363 L1504.8033,931.0375 L1499.9233,931.0375 Q1499.542,931.0375 1499.38,930.8946 Q1499.2275,930.7516 1499.2275,930.5133 Q1499.2275,930.2846 1499.3895,930.1416 Q1499.5516,929.9986 1499.9233,929.9986 L1500.0853,929.9986 L1500.0853,925.9383 L1499.9233,925.9383 Q1499.542,925.9383 1499.38,925.7953 Q1499.2275,925.6524 1499.2275,925.4141 Q1499.2275,925.1853 1499.38,925.0424 Q1499.542,924.8994 1499.9233,924.8994 L1504.5745,924.8994 L1504.5745,926.4816 Q1504.5745,926.8533 1504.4316,927.0153 Q1504.2981,927.1678 1504.0598,927.1678 Q1503.8311,927.1678 1503.6881,927.0153 Q1503.5452,926.8533 1503.5452,926.4816 L1503.5452,925.9383 L1501.1242,925.9383 L1501.1242,927.4347 L1502.0297,927.4347 Q1502.0297,927.0344 1502.1059,926.92 Q1502.268,926.6722 1502.5539,926.6722 Q1502.7827,926.6722 1502.9256,926.8342 Q1503.0686,926.9867 1503.0686,927.3585 L1503.0686,928.5594 Q1503.0686,928.893 1502.9923,929.0074 Q1502.8303,929.2456 1502.5539,929.2456 Q1502.268,929.2456 1502.1059,928.9978 Q1502.0297,928.8835 1502.0297,928.4736 L1501.1242,928.4736 Z " fill="#000000"/><text fill="#000000" font-family="sans-serif" font-size="7.32" font-style="italic" lengthAdjust="spacing" textLength="48.8346" x="1509.14" y="925.339">&#171;enumeration&#187;</text><text fill="#000000" font-family="sans-serif" font-size="8.54" lengthAdjust="spacing" textLength="43.1962" x="1511.9592" y="936.3917">GameState</text><line style="stroke:#181818;stroke-width:0.305;" x1="1493.28" x2="1557.9746" y1="941.585" y2="941.585"/><text fill="#000000" font-family="sans-serif" font-size="8.54" lengthAdjust="spacing" textLength="40.8235" x="1496.33" y="953.2406">NotStarted</text><text fill="#000000" font-family="sans-serif" font-size="8.54" lengthAdjust="spacing" textLength="31.8123" x="1496.33" y="964.5994">Running</text><text fill="#000000" font-family="sans-serif" font-size="8.54" lengthAdjust="spacing" textLength="28.9643" x="1496.33" y="975.9583">Paused</text><text fill="#000000" font-family="sans-serif" font-size="8.54" lengthAdjust="spacing" textLength="32.2794" x="1496.33" y="987.3172">Finished</text><text fill="#000000" font-family="sans-serif" font-size="8.54" lengthAdjust="spacing" textLength="17.5595" x="1496.33" y="998.676">Won</text><text fill="#000000" font-family="sans-serif" font-size="8.54" lengthAdjust="spacing" textLength="16.613" x="1496.33" y="1010.0349">Tied</text><line style="stroke:#181818;stroke-width:0.305;" x1="1493.28" x2="1557.9746" y1="1014.6182" y2="1014.6182"/></g><!--class IPlayArea--><g class="entity" data-qualified-name="Game Core.IPlayArea" data-source-line="173" id="ent0026"><rect fill="#F1F1F1" height="59.6728" rx="1.525" ry="1.525" style="stroke:#181818;stroke-width:0.305;" width="76.3822" x="1149.545" y="936.96"/><ellipse cx="1167.6219" cy="950.5575" fill="#B4A7E5" rx="6.71" ry="6.71" style="stroke:#181818;stroke-width:0.61;"/><path d="M1168.2033,948.5083 L1168.2033,952.5686 L1169.2517,952.5686 Q1169.6234,952.5686 1169.7855,952.7116 Q1169.9475,952.8546 1169.9475,953.0928 Q1169.9475,953.3216 1169.7855,953.4646 Q1169.6234,953.6075 1169.2517,953.6075 L1166.1159,953.6075 Q1165.7442,953.6075 1165.5822,953.4646 Q1165.4202,953.3216 1165.4202,953.0833 Q1165.4202,952.8546 1165.5822,952.7116 Q1165.7442,952.5686 1166.1159,952.5686 L1167.1644,952.5686 L1167.1644,948.5083 L1166.1159,948.5083 Q1165.7442,948.5083 1165.5822,948.3653 Q1165.4202,948.2224 1165.4202,947.9841 Q1165.4202,947.7553 1165.5822,947.6124 Q1165.7442,947.4694 1166.1159,947.4694 L1169.2517,947.4694 Q1169.6234,947.4694 1169.7855,947.6124 Q1169.9475,947.7553 1169.9475,947.9841 Q1169.9475,948.2224 1169.7855,948.3653 Q1169.6234,948.5083 1169.2517,948.5083 L1168.2033,948.5083 Z " fill="#000000"/><text fill="#000000" font-family="sans-serif" font-size="7.32" font-style="italic" lengthAdjust="spacing" textLength="36.2176" x="1178.5492" y="947.909">&#171;interface&#187;</text><text fill="#000000" font-family="sans-serif" font-size="8.54" font-style="italic" lengthAdjust="spacing" textLength="37.0247" x="1178.1456" y="958.9617">IPlayArea</text><line style="stroke:#181818;stroke-width:0.305;" x1="1150.155" x2="1225.3172" y1="964.155" y2="964.155"/><line style="stroke:#181818;stroke-width:0.305;" x1="1150.155" x2="1225.3172" y1="969.035" y2="969.035"/><text fill="#000000" font-family="sans-serif" font-size="8.54" lengthAdjust="spacing" textLength="69.0622" x="1153.205" y="980.6906">+isFull() : Boolean</text><text fill="#000000" font-family="sans-serif" font-size="8.54" lengthAdjust="spacing" textLength="62.8908" x="1153.205" y="992.0494">+clear() : Integer</text></g><!--class IMoveStrategy--><g class="entity" data-qualified-name="Game Core.IMoveStrategy" data-source-line="178" id="ent0027"><rect fill="#F1F1F1" height="48.3139" rx="1.525" ry="1.525" style="stroke:#181818;stroke-width:0.305;" width="155.1854" x="972.95" y="942.755"/><ellipse cx="1020.4204" cy="956.3525" fill="#B4A7E5" rx="6.71" ry="6.71" style="stroke:#181818;stroke-width:0.61;"/><path d="M1021.0018,954.3033 L1021.0018,958.3636 L1022.0502,958.3636 Q1022.422,958.3636 1022.584,958.5066 Q1022.746,958.6496 1022.746,958.8878 Q1022.746,959.1166 1022.584,959.2596 Q1022.422,959.4025 1022.0502,959.4025 L1018.9145,959.4025 Q1018.5427,959.4025 1018.3807,959.2596 Q1018.2187,959.1166 1018.2187,958.8783 Q1018.2187,958.6496 1018.3807,958.5066 Q1018.5427,958.3636 1018.9145,958.3636 L1019.9629,958.3636 L1019.9629,954.3033 L1018.9145,954.3033 Q1018.5427,954.3033 1018.3807,954.1603 Q1018.2187,954.0174 1018.2187,953.7791 Q1018.2187,953.5503 1018.3807,953.4074 Q1018.5427,953.2644 1018.9145,953.2644 L1022.0502,953.2644 Q1022.422,953.2644 1022.584,953.4074 Q1022.746,953.5503 1022.746,953.7791 Q1022.746,954.0174 1022.584,954.1603 Q1022.422,954.3033 1022.0502,954.3033 L1021.0018,954.3033 Z " fill="#000000"/><text fill="#000000" font-family="sans-serif" font-size="7.32" font-style="italic" lengthAdjust="spacing" textLength="36.2176" x="1042.3464" y="953.704">&#171;interface&#187;</text><text fill="#000000" font-family="sans-serif" font-size="8.54" font-style="italic" lengthAdjust="spacing" textLength="55.0596" x="1032.9254" y="964.7567">IMoveStrategy</text><line style="stroke:#181818;stroke-width:0.305;" x1="973.56" x2="1127.5254" y1="969.95" y2="969.95"/><line style="stroke:#181818;stroke-width:0.305;" x1="973.56" x2="1127.5254" y1="974.83" y2="974.83"/><text fill="#000000" font-family="sans-serif" font-size="8.54" lengthAdjust="spacing" textLength="147.8654" x="976.61" y="986.4856">+chooseMove(board : IPlayArea) : void</text></g><!--class IGame--><g class="entity" data-qualified-name="Game Core.IGame" data-source-line="182" id="ent0028"><rect fill="#F1F1F1" height="82.3905" rx="1.525" ry="1.525" style="stroke:#181818;stroke-width:0.305;" width="104.3916" x="1580.205" y="925.675"/><ellipse cx="1612.9195" cy="939.2725" fill="#B4A7E5" rx="6.71" ry="6.71" style="stroke:#181818;stroke-width:0.61;"/><path d="M1613.5009,937.2233 L1613.5009,941.2836 L1614.5494,941.2836 Q1614.9211,941.2836 1615.0831,941.4266 Q1615.2452,941.5696 1615.2452,941.8078 Q1615.2452,942.0366 1615.0831,942.1796 Q1614.9211,942.3225 1614.5494,942.3225 L1611.4136,942.3225 Q1611.0419,942.3225 1610.8798,942.1796 Q1610.7178,942.0366 1610.7178,941.7983 Q1610.7178,941.5696 1610.8798,941.4266 Q1611.0419,941.2836 1611.4136,941.2836 L1612.462,941.2836 L1612.462,937.2233 L1611.4136,937.2233 Q1611.0419,937.2233 1610.8798,937.0803 Q1610.7178,936.9374 1610.7178,936.6991 Q1610.7178,936.4703 1610.8798,936.3274 Q1611.0419,936.1844 1611.4136,936.1844 L1614.5494,936.1844 Q1614.9211,936.1844 1615.0831,936.3274 Q1615.2452,936.4703 1615.2452,936.6991 Q1615.2452,936.9374 1615.0831,937.0803 Q1614.9211,937.2233 1614.5494,937.2233 L1613.5009,937.2233 Z " fill="#000000"/><text fill="#000000" font-family="sans-serif" font-size="7.32" font-style="italic" lengthAdjust="spacing" textLength="36.2176" x="1624.2045" y="936.624">&#171;interface&#187;</text><text fill="#000000" font-family="sans-serif" font-size="8.54" font-style="italic" lengthAdjust="spacing" textLength="25.6283" x="1629.4991" y="947.6767">IGame</text><line style="stroke:#181818;stroke-width:0.305;" x1="1580.815" x2="1683.9866" y1="952.87" y2="952.87"/><line style="stroke:#181818;stroke-width:0.305;" x1="1580.815" x2="1683.9866" y1="957.75" y2="957.75"/><text fill="#000000" font-family="sans-serif" font-size="8.54" lengthAdjust="spacing" textLength="69.0622" x="1583.865" y="969.4056">+setStatus() : void</text><text fill="#000000" font-family="sans-serif" font-size="8.54" lengthAdjust="spacing" textLength="57.6617" x="1583.865" y="980.7644">+restart() : void</text><text fill="#000000" font-family="sans-serif" font-size="8.54" lengthAdjust="spacing" textLength="97.0716" x="1583.865" y="992.1233">+getStatus() : GameState</text><text fill="#000000" font-family="sans-serif" font-size="8.54" lengthAdjust="spacing" textLength="89.4782" x="1583.865" y="1003.4822">+getBoard() : IPlayArea</text></g><!--class MainMenuController--><g class="entity" data-qualified-name="UIController.MainMenuController" data-source-line="208" id="ent0038"><rect fill="#F1F1F1" height="74.7155" rx="1.525" ry="1.525" style="stroke:#181818;stroke-width:0.305;" width="96.4134" x="1131.55" y="233.935"/><ellipse cx="1140.7" cy="243.695" fill="#ADD1B2" rx="6.71" ry="6.71" style="stroke:#181818;stroke-width:0.61;"/><path d="M1142.387,241.1788 Q1142.4823,241.0453 1142.5967,240.9786 Q1142.7111,240.9119 1142.8445,240.9119 Q1143.0733,240.9119 1143.2163,241.0739 Q1143.3592,241.2264 1143.3592,241.5981 L1143.3592,242.4845 Q1143.3592,242.8563 1143.2163,243.0183 Q1143.0733,243.1803 1142.8445,243.1803 Q1142.6348,243.1803 1142.5109,243.0564 Q1142.387,242.942 1142.3203,242.6275 Q1142.2917,242.4083 1142.1773,242.2939 Q1141.9772,242.0652 1141.6055,241.9317 Q1141.2337,241.7983 1140.8525,241.7983 Q1140.3855,241.7983 1139.9947,241.9984 Q1139.6134,242.1986 1139.3084,242.6561 Q1139.013,243.1136 1139.013,243.7427 L1139.013,244.4098 Q1139.013,245.1628 1139.5562,245.668 Q1140.0995,246.1636 1141.0717,246.1636 Q1141.6436,246.1636 1142.0439,246.0111 Q1142.2822,245.9158 1142.5395,245.6489 Q1142.7016,245.4869 1142.7873,245.4392 Q1142.8827,245.3916 1143.0066,245.3916 Q1143.2067,245.3916 1143.3592,245.5536 Q1143.5213,245.7061 1143.5213,245.9158 Q1143.5213,246.1255 1143.3116,246.3733 Q1143.0066,246.7259 1142.5205,246.9261 Q1141.8628,247.2025 1141.0717,247.2025 Q1140.1472,247.2025 1139.4133,246.8213 Q1138.8128,246.5162 1138.3934,245.8681 Q1137.9741,245.2105 1137.9741,244.4289 L1137.9741,243.7236 Q1137.9741,242.9134 1138.3458,242.2177 Q1138.727,241.5123 1139.3942,241.1406 Q1140.0614,240.7594 1140.8144,240.7594 Q1141.2623,240.7594 1141.6531,240.8642 Q1142.0534,240.9595 1142.387,241.1788 Z " fill="#000000"/><text fill="#000000" font-family="sans-serif" font-size="8.54" lengthAdjust="spacing" textLength="76.8934" x="1149.24" y="247.2311">MainMenuController</text><line style="stroke:#181818;stroke-width:0.305;" x1="1132.16" x2="1227.3534" y1="253.455" y2="253.455"/><line style="stroke:#181818;stroke-width:0.305;" x1="1132.16" x2="1227.3534" y1="258.335" y2="258.335"/><text fill="#000000" font-family="sans-serif" font-size="8.54" lengthAdjust="spacing" textLength="73.3239" x="1135.21" y="269.9905">+startGame() : void</text><text fill="#000000" font-family="sans-serif" font-size="8.54" lengthAdjust="spacing" textLength="79.045" x="1135.21" y="281.3494">+openSetting() : void</text><text fill="#000000" font-family="sans-serif" font-size="8.54" lengthAdjust="spacing" textLength="70.0213" x="1135.21" y="292.7083">+openHelp() : void</text><text fill="#000000" font-family="sans-serif" font-size="8.54" lengthAdjust="spacing" textLength="46.749" x="1135.21" y="304.0671">+exit() : void</text></g><!--class HelpController--><g class="entity" data-qualified-name="UIController.HelpController" data-source-line="215" id="ent0039"><rect fill="#F1F1F1" height="40.6389" rx="1.525" ry="1.525" style="stroke:#181818;stroke-width:0.305;" width="119.0989" x="1462.475" y="250.71"/><ellipse cx="1492.1398" cy="260.47" fill="#ADD1B2" rx="6.71" ry="6.71" style="stroke:#181818;stroke-width:0.61;"/><path d="M1493.8269,257.9538 Q1493.9222,257.8203 1494.0365,257.7536 Q1494.1509,257.6869 1494.2844,257.6869 Q1494.5131,257.6869 1494.6561,257.8489 Q1494.799,258.0014 1494.799,258.3731 L1494.799,259.2595 Q1494.799,259.6313 1494.6561,259.7933 Q1494.5131,259.9553 1494.2844,259.9553 Q1494.0747,259.9553 1493.9508,259.8314 Q1493.8269,259.717 1493.7601,259.4025 Q1493.7315,259.1833 1493.6172,259.0689 Q1493.417,258.8402 1493.0453,258.7067 Q1492.6736,258.5733 1492.2923,258.5733 Q1491.8253,258.5733 1491.4345,258.7734 Q1491.0533,258.9736 1490.7483,259.4311 Q1490.4528,259.8886 1490.4528,260.5177 L1490.4528,261.1848 Q1490.4528,261.9378 1490.9961,262.443 Q1491.5394,262.9386 1492.5115,262.9386 Q1493.0834,262.9386 1493.4837,262.7861 Q1493.722,262.6908 1493.9794,262.4239 Q1494.1414,262.2619 1494.2272,262.2142 Q1494.3225,262.1666 1494.4464,262.1666 Q1494.6465,262.1666 1494.799,262.3286 Q1494.9611,262.4811 1494.9611,262.6908 Q1494.9611,262.9005 1494.7514,263.1483 Q1494.4464,263.5009 1493.9603,263.7011 Q1493.3026,263.9775 1492.5115,263.9775 Q1491.587,263.9775 1490.8531,263.5963 Q1490.2526,263.2913 1489.8333,262.6431 Q1489.4139,261.9855 1489.4139,261.2039 L1489.4139,260.4986 Q1489.4139,259.6884 1489.7856,258.9927 Q1490.1669,258.2873 1490.834,257.9156 Q1491.5012,257.5344 1492.2542,257.5344 Q1492.7022,257.5344 1493.0929,257.6392 Q1493.4933,257.7345 1493.8269,257.9538 Z " fill="#000000"/><text fill="#000000" font-family="sans-serif" font-size="8.54" lengthAdjust="spacing" textLength="54.5843" x="1504.6448" y="264.0061">HelpController</text><line style="stroke:#181818;stroke-width:0.305;" x1="1463.085" x2="1580.9639" y1="270.23" y2="270.23"/><line style="stroke:#181818;stroke-width:0.305;" x1="1463.085" x2="1580.9639" y1="275.11" y2="275.11"/><text fill="#000000" font-family="sans-serif" font-size="8.54" lengthAdjust="spacing" textLength="111.7789" x="1466.135" y="286.7655">+backToGameScreen() : void</text></g><!--class ModeMenuController--><g class="entity" data-qualified-name="UIController.ModeMenuController" data-source-line="219" id="ent0040"><rect fill="#F1F1F1" height="74.7155" rx="1.525" ry="1.525" style="stroke:#181818;stroke-width:0.305;" width="112.4479" x="1123.62" y="475.8"/><ellipse cx="1138.702" cy="485.56" fill="#ADD1B2" rx="6.71" ry="6.71" style="stroke:#181818;stroke-width:0.61;"/><path d="M1140.3891,483.0438 Q1140.4844,482.9103 1140.5988,482.8436 Q1140.7131,482.7769 1140.8466,482.7769 Q1141.0753,482.7769 1141.2183,482.9389 Q1141.3613,483.0914 1141.3613,483.4631 L1141.3613,484.3495 Q1141.3613,484.7213 1141.2183,484.8833 Q1141.0753,485.0453 1140.8466,485.0453 Q1140.6369,485.0453 1140.513,484.9214 Q1140.3891,484.807 1140.3224,484.4925 Q1140.2938,484.2733 1140.1794,484.1589 Q1139.9792,483.9302 1139.6075,483.7967 Q1139.2358,483.6633 1138.8545,483.6633 Q1138.3875,483.6633 1137.9967,483.8634 Q1137.6155,484.0636 1137.3105,484.5211 Q1137.015,484.9786 1137.015,485.6077 L1137.015,486.2748 Q1137.015,487.0278 1137.5583,487.533 Q1138.1016,488.0286 1139.0738,488.0286 Q1139.6456,488.0286 1140.0459,487.8761 Q1140.2842,487.7808 1140.5416,487.5139 Q1140.7036,487.3519 1140.7894,487.3042 Q1140.8847,487.2566 1141.0086,487.2566 Q1141.2088,487.2566 1141.3613,487.4186 Q1141.5233,487.5711 1141.5233,487.7808 Q1141.5233,487.9905 1141.3136,488.2383 Q1141.0086,488.5909 1140.5225,488.7911 Q1139.8649,489.0675 1139.0738,489.0675 Q1138.1492,489.0675 1137.4153,488.6863 Q1136.8149,488.3812 1136.3955,487.7331 Q1135.9761,487.0755 1135.9761,486.2939 L1135.9761,485.5886 Q1135.9761,484.7784 1136.3478,484.0827 Q1136.7291,483.3773 1137.3963,483.0056 Q1138.0634,482.6244 1138.8164,482.6244 Q1139.2644,482.6244 1139.6552,482.7292 Q1140.0555,482.8245 1140.3891,483.0438 Z " fill="#000000"/><text fill="#000000" font-family="sans-serif" font-size="8.54" lengthAdjust="spacing" textLength="79.7456" x="1148.5603" y="489.0961">ModeMenuController</text><line style="stroke:#181818;stroke-width:0.305;" x1="1124.23" x2="1235.4579" y1="495.32" y2="495.32"/><line style="stroke:#181818;stroke-width:0.305;" x1="1124.23" x2="1235.4579" y1="500.2" y2="500.2"/><text fill="#000000" font-family="sans-serif" font-size="8.54" lengthAdjust="spacing" textLength="73.3239" x="1127.28" y="511.8555">+startGame() : void</text><text fill="#000000" font-family="sans-serif" font-size="8.54" lengthAdjust="spacing" textLength="105.1279" x="1127.28" y="523.2144">+startGameEasyBot() : void</text><text fill="#000000" font-family="sans-serif" font-size="8.54" lengthAdjust="spacing" textLength="104.6525" x="1127.28" y="534.5733">+startGameHardBot() : void</text><text fill="#000000" font-family="sans-serif" font-size="8.54" lengthAdjust="spacing" textLength="101.3374" x="1127.28" y="545.9321">+backToMainMenu() : void</text></g><!--class SettingsController--><g class="entity" data-qualified-name="UIController.SettingsController" data-source-line="226" id="ent0041"><rect fill="#F1F1F1" height="108.7921" rx="1.525" ry="1.525" style="stroke:#181818;stroke-width:0.305;" width="191.7807" x="1249.28" y="216.855"/><ellipse cx="1308.6388" cy="226.615" fill="#ADD1B2" rx="6.71" ry="6.71" style="stroke:#181818;stroke-width:0.61;"/><path d="M1310.3259,224.0988 Q1310.4212,223.9653 1310.5356,223.8986 Q1310.6499,223.8319 1310.7834,223.8319 Q1311.0121,223.8319 1311.1551,223.9939 Q1311.2981,224.1464 1311.2981,224.5181 L1311.2981,225.4045 Q1311.2981,225.7763 1311.1551,225.9383 Q1311.0121,226.1003 1310.7834,226.1003 Q1310.5737,226.1003 1310.4498,225.9764 Q1310.3259,225.862 1310.2592,225.5475 Q1310.2306,225.3283 1310.1162,225.2139 Q1309.916,224.9852 1309.5443,224.8517 Q1309.1726,224.7183 1308.7913,224.7183 Q1308.3243,224.7183 1307.9335,224.9184 Q1307.5523,225.1186 1307.2473,225.5761 Q1306.9518,226.0336 1306.9518,226.6627 L1306.9518,227.3298 Q1306.9518,228.0828 1307.4951,228.588 Q1308.0384,229.0836 1309.0106,229.0836 Q1309.5824,229.0836 1309.9827,228.9311 Q1310.221,228.8358 1310.4784,228.5689 Q1310.6404,228.4069 1310.7262,228.3592 Q1310.8215,228.3116 1310.9454,228.3116 Q1311.1456,228.3116 1311.2981,228.4736 Q1311.4601,228.6261 1311.4601,228.8358 Q1311.4601,229.0455 1311.2504,229.2933 Q1310.9454,229.6459 1310.4593,229.8461 Q1309.8017,230.1225 1309.0106,230.1225 Q1308.086,230.1225 1307.3521,229.7413 Q1306.7517,229.4363 1306.3323,228.7881 Q1305.9129,228.1305 1305.9129,227.3489 L1305.9129,226.6436 Q1305.9129,225.8334 1306.2846,225.1377 Q1306.6659,224.4323 1307.3331,224.0606 Q1308.0002,223.6794 1308.7532,223.6794 Q1309.2012,223.6794 1309.592,223.7842 Q1309.9923,223.8795 1310.3259,224.0988 Z " fill="#000000"/><text fill="#000000" font-family="sans-serif" font-size="8.54" lengthAdjust="spacing" textLength="67.878" x="1321.1438" y="230.1511">SettingsController</text><line style="stroke:#181818;stroke-width:0.305;" x1="1249.89" x2="1440.4507" y1="236.375" y2="236.375"/><text fill="#000000" font-family="sans-serif" font-size="8.54" lengthAdjust="spacing" textLength="134.3507" x="1252.94" y="248.0305">-languageBox : ComboBox&lt;String&gt;</text><text fill="#000000" font-family="sans-serif" font-size="8.54" lengthAdjust="spacing" textLength="154.2663" x="1252.94" y="259.3894">-localizationService : LocalizationService</text><text fill="#000000" font-family="sans-serif" font-size="8.54" lengthAdjust="spacing" textLength="134.3382" x="1252.94" y="270.7483">-brandingService : BrandingService</text><line style="stroke:#181818;stroke-width:0.305;" x1="1249.89" x2="1440.4507" y1="275.3316" y2="275.3316"/><text fill="#000000" font-family="sans-serif" font-size="8.54" lengthAdjust="spacing" textLength="184.4607" x="1252.94" y="286.9871">+changeLanguage(languageCode : String) : void</text><text fill="#000000" font-family="sans-serif" font-size="8.54" lengthAdjust="spacing" textLength="148.3408" x="1252.94" y="298.346">+changeTheme(themeId : String) : void</text><text fill="#000000" font-family="sans-serif" font-size="8.54" lengthAdjust="spacing" textLength="101.3374" x="1252.94" y="309.7049">+backToMainMenu() : void</text><text fill="#000000" font-family="sans-serif" font-size="8.54" lengthAdjust="spacing" textLength="63.8373" x="1252.94" y="321.0637">+initialize() : void</text></g><!--class GameController--><g class="entity" data-qualified-name="UIController.GameController" data-source-line="236" id="ent0042"><rect fill="#F1F1F1" height="71.0316" rx="1.525" ry="1.525" style="stroke:#181818;stroke-width:0.305;" width="108.6574" x="1001.62" y="235.765"/><ellipse cx="1023.7575" cy="249.3625" fill="#B4A7E5" rx="6.71" ry="6.71" style="stroke:#181818;stroke-width:0.61;"/><path d="M1024.339,247.3133 L1024.339,251.3736 L1025.3874,251.3736 Q1025.7591,251.3736 1025.9211,251.5166 Q1026.0832,251.6596 1026.0832,251.8978 Q1026.0832,252.1266 1025.9211,252.2696 Q1025.7591,252.4125 1025.3874,252.4125 L1022.2516,252.4125 Q1021.8799,252.4125 1021.7179,252.2696 Q1021.5558,252.1266 1021.5558,251.8883 Q1021.5558,251.6596 1021.7179,251.5166 Q1021.8799,251.3736 1022.2516,251.3736 L1023.3,251.3736 L1023.3,247.3133 L1022.2516,247.3133 Q1021.8799,247.3133 1021.7179,247.1703 Q1021.5558,247.0274 1021.5558,246.7891 Q1021.5558,246.5603 1021.7179,246.4174 Q1021.8799,246.2744 1022.2516,246.2744 L1025.3874,246.2744 Q1025.7591,246.2744 1025.9211,246.4174 Q1026.0832,246.5603 1026.0832,246.7891 Q1026.0832,247.0274 1025.9211,247.1703 Q1025.7591,247.3133 1025.3874,247.3133 L1024.339,247.3133 Z " fill="#000000"/><text fill="#000000" font-family="sans-serif" font-size="7.32" font-style="italic" lengthAdjust="spacing" textLength="36.2176" x="1047.213" y="246.714">&#171;interface&#187;</text><text fill="#000000" font-family="sans-serif" font-size="8.54" font-style="italic" lengthAdjust="spacing" textLength="60.2762" x="1035.1837" y="257.7667">GameController</text><line style="stroke:#181818;stroke-width:0.305;" x1="1002.23" x2="1109.6674" y1="262.96" y2="262.96"/><line style="stroke:#181818;stroke-width:0.305;" x1="1002.23" x2="1109.6674" y1="267.84" y2="267.84"/><text fill="#000000" font-family="sans-serif" font-size="8.54" lengthAdjust="spacing" textLength="80.9173" x="1005.28" y="279.4956">+restartGame() : void</text><text fill="#000000" font-family="sans-serif" font-size="8.54" lengthAdjust="spacing" textLength="101.3374" x="1005.28" y="290.8544">+backToMainMenu() : void</text><text fill="#000000" font-family="sans-serif" font-size="8.54" lengthAdjust="spacing" textLength="70.0213" x="1005.28" y="302.2133">+openHelp() : void</text></g><!--class EndScreenController--><g class="entity" data-qualified-name="UIController.EndScreenController" data-source-line="242" id="ent0043"><rect fill="#F1F1F1" height="74.7155" rx="1.525" ry="1.525" style="stroke:#181818;stroke-width:0.305;" width="102.9697" x="1257.515" y="475.8"/><ellipse cx="1268.5439" cy="485.56" fill="#ADD1B2" rx="6.71" ry="6.71" style="stroke:#181818;stroke-width:0.61;"/><path d="M1270.2309,483.0438 Q1270.3262,482.9103 1270.4406,482.8436 Q1270.555,482.7769 1270.6884,482.7769 Q1270.9172,482.7769 1271.0601,482.9389 Q1271.2031,483.0914 1271.2031,483.4631 L1271.2031,484.3495 Q1271.2031,484.7213 1271.0601,484.8833 Q1270.9172,485.0453 1270.6884,485.0453 Q1270.4787,485.0453 1270.3548,484.9214 Q1270.2309,484.807 1270.1642,484.4925 Q1270.1356,484.2733 1270.0212,484.1589 Q1269.8211,483.9302 1269.4493,483.7967 Q1269.0776,483.6633 1268.6964,483.6633 Q1268.2293,483.6633 1267.8386,483.8634 Q1267.4573,484.0636 1267.1523,484.5211 Q1266.8568,484.9786 1266.8568,485.6077 L1266.8568,486.2748 Q1266.8568,487.0278 1267.4001,487.533 Q1267.9434,488.0286 1268.9156,488.0286 Q1269.4875,488.0286 1269.8878,487.8761 Q1270.1261,487.7808 1270.3834,487.5139 Q1270.5454,487.3519 1270.6312,487.3042 Q1270.7265,487.2566 1270.8504,487.2566 Q1271.0506,487.2566 1271.2031,487.4186 Q1271.3651,487.5711 1271.3651,487.7808 Q1271.3651,487.9905 1271.1554,488.2383 Q1270.8504,488.5909 1270.3643,488.7911 Q1269.7067,489.0675 1268.9156,489.0675 Q1267.9911,489.0675 1267.2572,488.6863 Q1266.6567,488.3812 1266.2373,487.7331 Q1265.8179,487.0755 1265.8179,486.2939 L1265.8179,485.5886 Q1265.8179,484.7784 1266.1897,484.0827 Q1266.5709,483.3773 1267.2381,483.0056 Q1267.9053,482.6244 1268.6583,482.6244 Q1269.1062,482.6244 1269.497,482.7292 Q1269.8973,482.8245 1270.2309,483.0438 Z " fill="#000000"/><text fill="#000000" font-family="sans-serif" font-size="8.54" lengthAdjust="spacing" textLength="79.2744" x="1277.5014" y="489.0961">EndScreenController</text><line style="stroke:#181818;stroke-width:0.305;" x1="1258.125" x2="1359.8747" y1="495.32" y2="495.32"/><text fill="#000000" font-family="sans-serif" font-size="8.54" lengthAdjust="spacing" textLength="72.6359" x="1261.175" y="506.9755">-resultLabel : Label</text><text fill="#000000" font-family="sans-serif" font-size="8.54" lengthAdjust="spacing" textLength="95.6497" x="1261.175" y="518.3344">+backToMainMenu : void</text><line style="stroke:#181818;stroke-width:0.305;" x1="1258.125" x2="1359.8747" y1="522.9177" y2="522.9177"/><text fill="#000000" font-family="sans-serif" font-size="8.54" lengthAdjust="spacing" textLength="63.8373" x="1261.175" y="534.5733">+initialize() : void</text><text fill="#000000" font-family="sans-serif" font-size="8.54" lengthAdjust="spacing" textLength="80.9173" x="1261.175" y="545.9321">+restartGame() : void</text></g><!--class FourConnectGameController--><g class="entity" data-qualified-name="UIGameController.FourConnectGameController" data-source-line="260" id="ent0047"><rect fill="#F1F1F1" height="97.4332" rx="1.525" ry="1.525" style="stroke:#181818;stroke-width:0.305;" width="248.2164" x="802.455" y="26.84"/><ellipse cx="869.1487" cy="36.6" fill="#ADD1B2" rx="6.71" ry="6.71" style="stroke:#181818;stroke-width:0.61;"/><path d="M870.8358,34.0838 Q870.9311,33.9503 871.0454,33.8836 Q871.1598,33.8169 871.2933,33.8169 Q871.522,33.8169 871.665,33.9789 Q871.8079,34.1314 871.8079,34.5031 L871.8079,35.3895 Q871.8079,35.7613 871.665,35.9233 Q871.522,36.0853 871.2933,36.0853 Q871.0836,36.0853 870.9597,35.9614 Q870.8358,35.847 870.769,35.5325 Q870.7404,35.3133 870.6261,35.1989 Q870.4259,34.9702 870.0542,34.8367 Q869.6825,34.7033 869.3012,34.7033 Q868.8342,34.7033 868.4434,34.9034 Q868.0622,35.1036 867.7572,35.5611 Q867.4617,36.0186 867.4617,36.6477 L867.4617,37.3148 Q867.4617,38.0678 868.005,38.573 Q868.5483,39.0686 869.5204,39.0686 Q870.0923,39.0686 870.4926,38.9161 Q870.7309,38.8208 870.9883,38.5539 Q871.1503,38.3919 871.2361,38.3442 Q871.3314,38.2966 871.4553,38.2966 Q871.6554,38.2966 871.8079,38.4586 Q871.97,38.6111 871.97,38.8208 Q871.97,39.0305 871.7603,39.2783 Q871.4553,39.6309 870.9692,39.8311 Q870.3115,40.1075 869.5204,40.1075 Q868.5959,40.1075 867.862,39.7263 Q867.2615,39.4213 866.8422,38.7731 Q866.4228,38.1155 866.4228,37.3339 L866.4228,36.6286 Q866.4228,35.8184 866.7945,35.1227 Q867.1758,34.4173 867.8429,34.0456 Q868.5101,33.6644 869.2631,33.6644 Q869.7111,33.6644 870.1019,33.7692 Q870.5022,33.8645 870.8358,34.0838 Z " fill="#000000"/><text fill="#000000" font-family="sans-serif" font-size="8.54" lengthAdjust="spacing" textLength="109.6439" x="881.6537" y="40.1361">FourConnectGameController</text><line style="stroke:#181818;stroke-width:0.305;" x1="803.065" x2="1050.0614" y1="46.36" y2="46.36"/><line style="stroke:#181818;stroke-width:0.305;" x1="803.065" x2="1050.0614" y1="51.24" y2="51.24"/><text fill="#000000" font-family="sans-serif" font-size="8.54" lengthAdjust="spacing" textLength="168.7609" x="806.115" y="62.8955">+handleColumnInput(column : Integer) : void</text><text fill="#000000" font-family="sans-serif" font-size="8.54" lengthAdjust="spacing" textLength="240.8964" x="806.115" y="74.2544">+handlePlayMode( playerOne : Player, playerTwo : Player) void</text><text fill="#000000" font-family="sans-serif" font-size="8.54" lengthAdjust="spacing" textLength="85.1915" x="806.115" y="85.6133">+resumeGame() : void</text><text fill="#000000" font-family="sans-serif" font-size="8.54" lengthAdjust="spacing" textLength="65.0216" x="806.115" y="96.9721">-initBoard() : void</text><text fill="#000000" font-family="sans-serif" font-size="8.54" lengthAdjust="spacing" textLength="80.2251" x="806.115" y="108.331">-updateBoard() : void</text><text fill="#000000" font-family="sans-serif" font-size="8.54" lengthAdjust="spacing" textLength="81.6471" x="806.115" y="119.6899">-updateStatus() : void</text></g><!--link Position to FourConnectGameBoard--><g class="link" data-entity-1="ent0009" data-entity-2="ent0008" data-link-type="association" data-source-line="147" id="lnk16"><path codeLine="147" d="M154.94,458.6529 C154.94,453.5167 154.94,450.18 154.94,450.18 C154.94,450.18 392.9132,450.18 551.0618,450.18" fill="none" id="Position-FourConnectGameBoard" style="stroke:#181818;stroke-width:0.61;"/></g><!--reverse link FourConnectBotStrategy to Easy--><g class="link" data-entity-1="ent0012" data-entity-2="ent0013" data-link-type="nested" data-source-line="148" id="lnk17"><path codeLine="148" d="M268.3512,729.56 C226.9017,729.56 203.13,729.56 203.13,729.56 C203.13,729.56 203.13,900.4515 203.13,952.1856" fill="none" id="FourConnectBotStrategy-backto-Easy" style="stroke:#181818;stroke-width:0.61;"/><ellipse cx="273.2312" cy="729.56" fill="#FFFFFF" rx="4.88" ry="4.88" style="stroke:#181818;stroke-width:0.61;"/><line style="stroke:#181818;stroke-width:0.61;" x1="268.3512" x2="278.1112" y1="729.56" y2="729.56"/><line style="stroke:#181818;stroke-width:0.61;" x1="273.2312" x2="273.2312" y1="724.68" y2="734.44"/><text fill="#000000" font-family="sans-serif" font-size="7.93" lengthAdjust="spacing" textLength="17.6334" x="185.44" y="800.9595">inner</text></g><!--reverse link FourConnectBotStrategy to Hard--><g class="link" data-entity-1="ent0012" data-entity-2="ent0014" data-link-type="nested" data-source-line="149" id="lnk18"><path codeLine="149" d="M433.1,887.55 C433.1,901.6044 433.1,905.5999 433.1,917.9402" fill="none" id="FourConnectBotStrategy-backto-Hard" style="stroke:#181818;stroke-width:0.61;"/><ellipse cx="433.1" cy="882.67" fill="#FFFFFF" rx="4.88" ry="4.88" style="stroke:#181818;stroke-width:0.61;"/><line style="stroke:#181818;stroke-width:0.61;" x1="433.1" x2="433.1" y1="887.55" y2="877.79"/><line style="stroke:#181818;stroke-width:0.61;" x1="428.22" x2="437.98" y1="882.67" y2="882.67"/><text fill="#000000" font-family="sans-serif" font-size="7.93" lengthAdjust="spacing" textLength="17.6334" x="415.41" y="895.4424">inner</text></g><!--link FourConnectBotStrategy to IMoveStrategy--><g class="link" data-entity-1="ent0012" data-entity-2="ent0019" data-link-type="extension" data-source-line="151" id="lnk20"><path codeLine="151" d="M278.0624,803.98 C243.5669,803.98 217.0075,803.98 217.0075,803.98 C217.0075,803.98 217.0075,1065.67 217.0075,1065.67 C217.0075,1065.67 322.8791,1065.67 384.727,1065.67" fill="none" id="FourConnectBotStrategy-to-IMoveStrategy" style="stroke:#181818;stroke-width:0.61;stroke-dasharray:4.27,4.27;"/><polygon fill="none" points="395.707,1065.67,384.727,1062.01,384.727,1069.33,395.707,1065.67" style="stroke:#181818;stroke-width:0.61;"/></g><!--link Easy to IMoveStrategy--><g class="link" data-entity-1="ent0013" data-entity-2="ent0019" data-link-type="extension" data-source-line="152" id="lnk21"><path codeLine="152" d="M164.7,981.4961 C164.7,1011.1299 164.7,1075.43 164.7,1075.43 C164.7,1075.43 311.0512,1075.43 384.8002,1075.43" fill="none" id="Easy-to-IMoveStrategy" style="stroke:#181818;stroke-width:0.61;stroke-dasharray:4.27,4.27;"/><polygon fill="none" points="395.7802,1075.43,384.8002,1071.77,384.8002,1079.09,395.7802,1075.43" style="stroke:#181818;stroke-width:0.61;"/></g><!--link Hard to IMoveStrategy--><g class="link" data-entity-1="ent0014" data-entity-2="ent0019" data-link-type="extension" data-source-line="153" id="lnk22"><path codeLine="153" d="M433.1,1015.6622 C433.1,1030.2656 433.1,1034.2123 433.1,1044.808" fill="none" id="Hard-to-IMoveStrategy" style="stroke:#181818;stroke-width:0.61;stroke-dasharray:4.27,4.27;"/><polygon fill="none" points="433.1,1055.788,436.76,1044.808,429.44,1044.808,433.1,1055.788" style="stroke:#181818;stroke-width:0.61;"/></g><!--link FourConnectRules to IRuleSet--><g class="link" data-entity-1="ent0006" data-entity-2="ent0024" data-link-type="extension" data-source-line="192" id="lnk29"><path codeLine="192" d="M893.04,527.65 C893.04,542.0277 893.04,561.81 893.04,561.81 C893.04,561.81 1253.3975,561.81 1253.3975,561.81 C1253.3975,561.81 1253.3975,832.2169 1253.3975,925.919" fill="none" id="FourConnectRules-to-IRuleSet" style="stroke:#181818;stroke-width:0.61;stroke-dasharray:4.27,4.27;"/><polygon fill="none" points="1253.3975,936.899,1257.0575,925.919,1249.7375,925.919,1253.3975,936.899" style="stroke:#181818;stroke-width:0.61;"/></g><!--link FourConnectGame to IGame--><g class="link" data-entity-1="ent0007" data-entity-2="ent0028" data-link-type="extension" data-source-line="193" id="lnk30"><path codeLine="193" d="M938.5399,356.24 C1168.2964,356.24 1598.81,356.24 1598.81,356.24 C1598.81,356.24 1598.81,777.4511 1598.81,914.6218" fill="none" id="FourConnectGame-to-IGame" style="stroke:#181818;stroke-width:0.61;stroke-dasharray:4.27,4.27;"/><polygon fill="none" points="1598.81,925.6018,1602.47,914.6218,1595.15,914.6218,1598.81,925.6018" style="stroke:#181818;stroke-width:0.61;"/></g><!--link FourConnectGameBoard to IPlayArea--><g class="link" data-entity-1="ent0008" data-entity-2="ent0026" data-link-type="extension" data-source-line="194" id="lnk31"><path codeLine="194" d="M826.3609,573.4 C974.0541,573.4 1187.67,573.4 1187.67,573.4 C1187.67,573.4 1187.67,834.1567 1187.67,925.9739" fill="none" id="FourConnectGameBoard-to-IPlayArea" style="stroke:#181818;stroke-width:0.61;stroke-dasharray:4.27,4.27;"/><polygon fill="none" points="1187.67,936.9539,1191.33,925.9739,1184.01,925.9739,1187.67,936.9539" style="stroke:#181818;stroke-width:0.61;"/></g><!--link FourConnectBotStrategy to IMoveStrategy--><g class="link" data-entity-1="ent0012" data-entity-2="ent0027" data-link-type="extension" data-source-line="195" id="lnk32"><path codeLine="195" d="M588.2108,766.77 C752.1544,766.77 987.285,766.77 987.285,766.77 C987.285,766.77 987.285,878.522 987.285,931.7384" fill="none" id="FourConnectBotStrategy-to-IMoveStrategy-1" style="stroke:#181818;stroke-width:0.61;stroke-dasharray:4.27,4.27;"/><polygon fill="none" points="987.285,942.7184,990.945,931.7384,983.625,931.7384,987.285,942.7184" style="stroke:#181818;stroke-width:0.61;"/></g><!--link FourConnectGame to FourConnectPlayer--><g class="link" data-entity-1="ent0007" data-entity-2="ent0011" data-link-type="composition" data-source-line="198" id="lnk33"><path codeLine="198" d="M649.8025,341.6 C582.6232,341.6 523.99,341.6 523.99,341.6 C523.99,341.6 523.99,404.6862 523.99,454.877" fill="none" id="FourConnectGame-FourConnectPlayer" style="stroke:#181818;stroke-width:0.61;"/><polygon fill="#181818" points="657.1225,341.6,653.4625,339.16,649.8025,341.6,653.4625,344.04,657.1225,341.6" style="stroke:#181818;stroke-width:0.61;"/><polygon fill="#181818" points="523.99,458.537,526.43,453.047,523.99,455.487,521.55,453.047,523.99,458.537" style="stroke:#181818;stroke-width:0.61;"/><text fill="#000000" font-family="sans-serif" font-size="7.93" lengthAdjust="spacing" textLength="4.4103" x="648.1625" y="341.9287">1</text><text fill="#000000" font-family="sans-serif" font-size="7.93" lengthAdjust="spacing" textLength="3.086" x="534.0008" y="451.7824">*</text></g><!--link FourConnectGame to FourConnectRules--><g class="link" data-entity-1="ent0007" data-entity-2="ent0006" data-link-type="composition" data-source-line="199" id="lnk34"><path codeLine="199" d="M893.04,378.2366 C893.04,426.9024 893.04,469.3096 893.04,494.5514" fill="none" id="FourConnectGame-FourConnectRules" style="stroke:#181818;stroke-width:0.61;"/><polygon fill="#181818" points="893.04,370.9166,890.6,374.5766,893.04,378.2366,895.48,374.5766,893.04,370.9166" style="stroke:#181818;stroke-width:0.61;"/><polygon fill="#181818" points="893.04,498.2114,895.48,492.7214,893.04,495.1614,890.6,492.7214,893.04,498.2114" style="stroke:#181818;stroke-width:0.61;"/></g><!--link FourConnectGame to FourConnectGameBoard--><g class="link" data-entity-1="ent0007" data-entity-2="ent0008" data-link-type="composition" data-source-line="200" id="lnk35"><path codeLine="200" d="M741.76,378.2366 C741.76,401.9229 741.76,415.7394 741.76,437.8702" fill="none" id="FourConnectGame-FourConnectGameBoard" style="stroke:#181818;stroke-width:0.61;"/><polygon fill="#181818" points="741.76,370.9166,739.32,374.5766,741.76,378.2366,744.2,374.5766,741.76,370.9166" style="stroke:#181818;stroke-width:0.61;"/><polygon fill="#181818" points="741.76,441.5302,744.2,436.0402,741.76,438.4802,739.32,436.0402,741.76,441.5302" style="stroke:#181818;stroke-width:0.61;"/></g><!--link FourConnectPlayer to FourConnectBotStrategy--><g class="link" data-entity-1="ent0011" data-entity-2="ent0012" data-link-type="aggregation" data-source-line="201" id="lnk36"><path codeLine="201" d="M403.82,574.7054 C403.82,600.3742 403.82,621.0288 403.82,651.4556" fill="none" id="FourConnectPlayer-FourConnectBotStrategy" style="stroke:#181818;stroke-width:0.61;"/><polygon fill="none" points="403.82,567.3854,401.38,571.0454,403.82,574.7054,406.26,571.0454,403.82,567.3854" style="stroke:#181818;stroke-width:0.61;"/><polygon fill="#181818" points="403.82,655.1156,406.26,649.6256,403.82,652.0656,401.38,649.6256,403.82,655.1156" style="stroke:#181818;stroke-width:0.61;"/><text fill="#000000" font-family="sans-serif" font-size="7.93" lengthAdjust="spacing" textLength="4.4103" x="402.613" y="580.8736">1</text><text fill="#000000" font-family="sans-serif" font-size="7.93" lengthAdjust="spacing" textLength="13.227" x="389.5125" y="648.396">0..1</text></g><!--link SettingsController to LocalizationService--><g class="link" data-entity-1="ent0041" data-entity-2="ent0004" data-link-type="dependency" data-source-line="253" id="lnk44"><path codeLine="253" d="M1387.3413,325.5265 C1387.3413,372.5758 1387.3413,433.1 1387.3413,433.1 C1387.3413,433.1 1518.7231,433.1 1612.3581,433.1" fill="none" id="SettingsController-to-LocalizationService" style="stroke:#181818;stroke-width:0.61;stroke-dasharray:4.27,4.27;"/><polygon fill="#181818" points="1616.0181,433.1,1610.5281,430.66,1612.9681,433.1,1610.5281,435.54,1616.0181,433.1" style="stroke:#181818;stroke-width:0.61;"/><text fill="#000000" font-family="sans-serif" font-size="7.93" lengthAdjust="spacing" textLength="12.7856" x="1435.086" y="430.6773">use</text></g><!--link SettingsController to BrandingService--><g class="link" data-entity-1="ent0041" data-entity-2="ent0003" data-link-type="dependency" data-source-line="254" id="lnk45"><path codeLine="254" d="M1414.0837,325.5021 C1414.0837,366.61 1414.0837,416.02 1414.0837,416.02 C1414.0837,416.02 1661.9816,416.02 1809.138,416.02" fill="none" id="SettingsController-to-BrandingService" style="stroke:#181818;stroke-width:0.61;stroke-dasharray:4.27,4.27;"/><polygon fill="#181818" points="1812.798,416.02,1807.308,413.58,1809.748,416.02,1807.308,418.46,1812.798,416.02" style="stroke:#181818;stroke-width:0.61;"/><text fill="#000000" font-family="sans-serif" font-size="7.93" lengthAdjust="spacing" textLength="12.7856" x="1555.3719" y="413.5973">use</text></g><!--link FourConnectGameController to GameController--><g class="link" data-entity-1="ent0047" data-entity-2="ent0042" data-link-type="extension" data-source-line="269" id="lnk48"><path codeLine="269" d="M1026.1725,124.4705 C1026.1725,159.0209 1026.1725,193.5835 1026.1725,224.6935" fill="none" id="FourConnectGameController-to-GameController" style="stroke:#181818;stroke-width:0.61;stroke-dasharray:4.27,4.27;"/><polygon fill="none" points="1026.1725,235.6735,1029.8325,224.6935,1022.5125,224.6935,1026.1725,235.6735" style="stroke:#181818;stroke-width:0.61;"/></g><!--link FourConnectGameController to FourConnectGame--><g class="link" data-entity-1="ent0047" data-entity-2="ent0007" data-link-type="dependency" data-source-line="270" id="lnk49"><path codeLine="270" d="M870.47,124.4705 C870.47,138.775 870.47,151.3105 870.47,167.5792" fill="none" id="FourConnectGameController-to-FourConnectGame" style="stroke:#181818;stroke-width:0.61;stroke-dasharray:4.27,4.27;"/><polygon fill="#181818" points="870.47,171.2392,872.91,165.7492,870.47,168.1892,868.03,165.7492,870.47,171.2392" style="stroke:#181818;stroke-width:0.61;"/><text fill="#000000" font-family="sans-serif" font-size="7.93" lengthAdjust="spacing" textLength="12.7856" x="857.66" y="145.4291">use</text></g><?plantuml-src pLdTRjis5BxtKn2-gTp4MNSR105inqaCn3-mdQL5KGIqn3XSPD8ZfJHkbc4FiRVe8_GkZx8dsU6FP4gYd7GthL6q5CyX-Pt_GrRUKRR60g_G6eTtU4bcoIOcI90mmMmPauRC6S8OIzb94a4NQK868MSp-eMWTmvBJ1b9Dck2k4XkUQFn1ltxpzy_y4_32eMQ0tOZi4n46YQf84tqs6WW8n7g2imYofOp8kvfI824uDT6ZpB12GsV46KmOY4vBBDQnhMWAomsFHxpL1oY6MY8BIrD4j1JL4UD-P9FS79RciPKA4sEy8ha54iwEWe5mGavFYw32LgQPG-EJEQtP4M2HFqzY52sHmj6zvn6bY-NRqcIWHKnQ1sYXKV8FSKqSULKd0vepJ0h2kjZkR0I-sYThTWLiYmVxrLwwz2HJrO1rLYZLT2BT53c1gfXT25xh9RnmuAdhSDTy137z0ie7qBePQVpi9UPkvUZaul-TRSpwvTSQP6oA8PDfaI2m27fwczB35CX24lq0Tb1nEDf7WIvjzLvKJtgcEF8m0YA-bGUfB47TsI371sMFS401UEuk2jxzLpfSaYEFtVkCOtn8YQ68BSy7pyvXq4UJ2671B4Tz7X4wc8ATfsJXwGe078aU6ey_KnfyHISeiSPWtJV11Sq_kbCJbFGosFHVHto6VXwxhhA4PHYrEHCZRFq6ECD4H8epig9dhHwpZtHp0vOH1w0dRB4aeM2KTn08xFa9PpOvLX4HPQpRBfuI9OtKLq-vmoMMIoG3ZcF2MQQviH4wPmy7bIUD08hTwgJU0yH5ftPHEVuJoJu-eJAC0XvdAuOG1omX2o9Q5KKguyQEr1rxdR0xbdDprF1WfAVAWeip4dbhIcZILb2inkS2FpcnFtiXCyydsjjCUzq6sElIjgRZg-kU-FBqNnMsAV0qnjVN0v7TMmXYMFbAqEyji8yVpLMU_xc1U6QRie_ow1LsjDa4ssGEYASEVxCm0OFM_8-sXJjLt46tmPhBgdAcKgXThXhhJHhVyDnIW8bkhDklnXMlbrARX7ozIPOx8WaXzynRNPWRiw7YbKs5RKvLidMrsjlgwdtVWjyy4oJFr8Soq3vvdZnEuYXM8eHSelbhShdUhN9DrekmjALTMW8UlL5X2vb4Fb6oFFBOMUaH_tEx4DtF3UpdUb9DXwDH_tQ4B1xPmhJJNCMGda-XIF9KgjXoEyXFirtvkUwXK6bwkZtTPiW2gVirnwmNzxRKVySjj3AAdjmjjZOeO8tYo7T5XOBOgEY7CXCsMAjeR_GJNYcswgIJrgQhWNUwW2b0pByA5r11mG3lceKCidQvlXS68Usu8cVCEkDfz1hZUVNf-FBQUOsNeRv-RJVtyrnDTv91n-gfOydazqG5CDk29fZ1mH5zqCO3aQ3OUVzzKb_CZ_Fw7irLWoMFkljcxfUDLnBsnMlrm9JQPEqpaerISaDV5WNnmwNV65bHmYykQ0oESgoqCTFnyMmRVQnt3ZID16MICsXKcVKF8SzoupdRfsxeIpg4caAhmRMyoFRHn5PguiXABPLJgOhoeRuOPTWxl9zH2MmqnNz0Y6NPy3AhWeRr14Q4ONk9RqLL7Rij7hpWdXryE0MpZoLwhGtkJ0XMIrLJgLg8xW_yFzpKd4NROwiVygha6rOlTrRgzBTw5AXpXkgUu6_M428JIuw7_fJ_MKAn9CUvwNJ0AhjNckourwxRJmHwVh5h35tS6jtt7BlOZyu-FFOayhrUJKqlRk71fhQNZhqhQ77ysSOy54YRZ3SWWSg_6Sa0JNcaxaIeJsv9U7T5MLvYp9GPkb0mSiwqRmmpLMHwHPglLuzfwIwkiXRjAhkYclCEbBAmY8XnaRJbB6i4azmAktqAJJJyjP-N7431t3aJPGZVuQeHW5KdgPn77XaWx48FBstixTha5e5Sow9OlGhoMtzd9srGVqxgaSOq60gopSG0S4BgWkg5sY7ttFZiIsxYymWKfZUe2d9NnrK_IzN5Xrcra6jhnMvj2WkbsqplBSNo-BWU7qaQRGzlihwVOb-WMeXUKWDUFK01AaOvS7YmTdyjOdUjjl7gFcsMOhZl77nogONsP-dQ_gUDMwQglQt2Y7N2DyT7C3Ohv-VwqtaSW084y7Zc0YTeVBwFiHGU24HREbRFrVER2xqHOVcQyB0onBrhEKXdPDuNPud3xGG5qw7eTWzfoy0-vphQ87sdx2QrQf25V6_23yds1webcvRdpBT8CiKLuFBwaTM96kZxD6jozNT4E9bmM5uPAuFn_cBOlL1TTSBPEc5k-OXIAL3E9ryrmEWMVAgz_TwrMGlC5JX9q5zvbMATvJcJy4sq_giknk2ppyTg_LPPBojx4vjTMGQ9nTuGTHxXFvtfrZV1RC4vicaqX-SFNGs5rpATfP7e04dB28if3gdUdmyhpFU5tRLepr_XIxY-TkBoyl_XML-s_LkztKvA7fDyx7sZSwJQS2zevYOnx01MwU9zwNIiPrPeCg1oZu1UkqhOj4peFUgEaPRUzEs8N2l1-i8AiiEKhKfCVtuIsRq5q17KRhK5-TUj-oufWrnhAXy_Jy0?></g></svg>