<?xml version="1.0" encoding="us-ascii" standalone="no"?><svg xmlns="http://www.w3.org/2000/svg" xmlns:xlink="http://www.w3.org/1999/xlink" contentStyleType="text/css" height="202px" preserveAspectRatio="none" style="width:329px;height:202px;background:#FFFFFF;" version="1.1" viewBox="0 0 329 202" width="329px" zoomAndPan="magnify"><defs/><g><text fill="#000000" font-family="monospace" font-size="14" font-weight="bold" lengthAdjust="spacing" textLength="296" x="15" y="29.0752">4-Connect&#160;-&#160;Sprachauswahl&#160;(Wireframe)</text><text fill="#000000" font-family="sans-serif" font-size="12" font-weight="bold" lengthAdjust="spacing" textLength="48" x="67" y="59.7363">Sprache</text><text fill="#000000" font-family="sans-serif" font-size="12" lengthAdjust="spacing" textLength="70" x="86" y="94.9238">English (EN)</text><ellipse cx="73" cy="90.0137" fill="none" rx="5" ry="5" style="stroke:#000000;stroke-width:1.5;"/><text fill="#000000" font-family="sans-serif" font-size="12" lengthAdjust="spacing" textLength="74" x="86" y="112.0176">Deutsch (DE)</text><ellipse cx="73" cy="107.1074" fill="none" rx="5" ry="5" style="stroke:#000000;stroke-width:1.5;"/><ellipse cx="73" cy="107.1074" fill="#000000" rx="2" ry="2" style="stroke:#000000;stroke-width:1.5;"/><rect fill="#EEEEEE" height="19.0938" rx="5" ry="5" style="stroke:#000000;stroke-width:2.5;" width="36" x="69.5" y="171.4355"/><text fill="#000000" font-family="sans-serif" font-size="12" lengthAdjust="spacing" textLength="17" x="79" y="185.8926">OK</text><rect fill="#EEEEEE" height="19.0938" rx="5" ry="5" style="stroke:#000000;stroke-width:2.5;" width="92" x="165.5" y="171.4355"/><text fill="#000000" font-family="sans-serif" font-size="12" lengthAdjust="spacing" textLength="59" x="182" y="185.8926">Abbrechen</text><line style="stroke:#000000;stroke-width:1.0;" x1="65" x2="161" y1="45.2793" y2="45.2793"/><line style="stroke:#000000;stroke-width:1.0;" x1="161" x2="262" y1="45.2793" y2="45.2793"/><line style="stroke:#000000;stroke-width:1.0;" x1="65" x2="161" y1="195.0293" y2="195.0293"/><line style="stroke:#000000;stroke-width:1.0;" x1="161" x2="262" y1="195.0293" y2="195.0293"/><line style="stroke:#000000;stroke-width:1.0;" x1="65" x2="65" y1="45.2793" y2="64.373"/><line style="stroke:#000000;stroke-width:1.0;" x1="262" x2="262" y1="81.4668" y2="98.5605"/><line style="stroke:#000000;stroke-width:1.0;" x1="262" x2="262" y1="45.2793" y2="64.373"/><line style="stroke:#000000;stroke-width:1.0;" x1="65" x2="65" y1="166.9355" y2="195.0293"/><line style="stroke:#000000;stroke-width:1.0;" x1="65" x2="65" y1="132.748" y2="149.8418"/><line style="stroke:#000000;stroke-width:1.0;" x1="262" x2="262" y1="166.9355" y2="195.0293"/><line style="stroke:#000000;stroke-width:1.0;" x1="65" x2="65" y1="98.5605" y2="115.6543"/><line style="stroke:#000000;stroke-width:1.0;" x1="262" x2="262" y1="132.748" y2="149.8418"/><line style="stroke:#000000;stroke-width:1.0;" x1="65" x2="65" y1="64.373" y2="81.4668"/><line style="stroke:#000000;stroke-width:1.0;" x1="262" x2="262" y1="98.5605" y2="115.6543"/><line style="stroke:#000000;stroke-width:1.0;" x1="262" x2="262" y1="64.373" y2="81.4668"/><line style="stroke:#000000;stroke-width:1.0;" x1="65" x2="65" y1="149.8418" y2="166.9355"/><line style="stroke:#000000;stroke-width:1.0;" x1="65" x2="65" y1="115.6543" y2="132.748"/><line style="stroke:#000000;stroke-width:1.0;" x1="262" x2="262" y1="149.8418" y2="166.9355"/><line style="stroke:#000000;stroke-width:1.0;" x1="65" x2="65" y1="81.4668" y2="98.5605"/><line style="stroke:#000000;stroke-width:1.0;" x1="262" x2="262" y1="115.6543" y2="132.748"/><!--SRC=[JOqn3u8m48Nt_eetKenE_W4Zk1XnSD34E9HoI6Cjf2rnGFwx9omix-w-z_8kccW9s_M-TOvqn1gNpYlTg3vyL6EHN8sdsgitII72oxXEyO6AQjNRU6XTBDZ3gNLjw9IcYbFAHZ48O5Yny42QpgMKfXWdjfaqWKJkdjQ41abUo1dU93BgOz0CirmkyaiTxZWVyHZn_Q-xilJ43nmJjaSn_W00]--></g></svg>