<?xml version="1.0" encoding="us-ascii" standalone="no"?><svg xmlns="http://www.w3.org/2000/svg" xmlns:xlink="http://www.w3.org/1999/xlink" contentStyleType="text/css" height="249px" preserveAspectRatio="none" style="width:321px;height:249px;background:#FFFFFF;" version="1.1" viewBox="0 0 321 249" width="321px" zoomAndPan="magnify"><defs/><g><text fill="#000000" font-family="monospace" font-size="14" font-weight="bold" lengthAdjust="spacing" textLength="288" x="15" y="29.0752">4-Connect&#160;-&#160;Spielansicht&#160;(Wireframe)</text><line style="stroke:#000000;stroke-width:1.0;" x1="42.5" x2="42.5" y1="53.8262" y2="53.8262"/><line style="stroke:#000000;stroke-width:1.0;" x1="42.5" x2="42.5" y1="53.8262" y2="53.8262"/><line style="stroke:#000000;stroke-width:1.0;" x1="42.5" x2="42.5" y1="53.8262" y2="53.8262"/><line style="stroke:#000000;stroke-width:1.0;" x1="42.5" x2="42.5" y1="53.8262" y2="53.8262"/><rect fill="#FFFFFF" height="15.0938" style="stroke:#FFFFFF;stroke-width:1.0;" width="61" x="48.5" y="46.2793"/><text fill="#000000" font-family="sans-serif" font-size="12" font-weight="bold" lengthAdjust="spacing" textLength="58" x="48.5" y="58.7363">4-Connect</text><text fill="#000000" font-family="sans-serif" font-size="12" font-weight="bold" lengthAdjust="spacing" textLength="75" x="43.5" y="101.4707">Spielfeld (2D)</text><text fill="#000000" font-family="sans-serif" font-size="12" lengthAdjust="spacing" textLength="67" x="43.5" y="135.6582">o o o o o o o</text><text fill="#000000" font-family="sans-serif" font-size="12" lengthAdjust="spacing" textLength="67" x="43.5" y="152.752">o o o o o o o</text><text fill="#000000" font-family="sans-serif" font-size="12" lengthAdjust="spacing" textLength="67" x="43.5" y="169.8457">o o o o o o o</text><text fill="#000000" font-family="sans-serif" font-size="12" lengthAdjust="spacing" textLength="67" x="43.5" y="186.9395">o o o o o o o</text><text fill="#000000" font-family="sans-serif" font-size="12" lengthAdjust="spacing" textLength="67" x="43.5" y="204.0332">o o o o o o o</text><text fill="#000000" font-family="sans-serif" font-size="12" lengthAdjust="spacing" textLength="67" x="43.5" y="221.127">o o o o o o o</text><text fill="#000000" font-family="sans-serif" font-size="12" font-weight="bold" lengthAdjust="spacing" textLength="46" x="132.5" y="101.4707">Am Zug:</text><text fill="#000000" font-family="sans-serif" font-size="12" lengthAdjust="spacing" textLength="143" x="132.5" y="118.5645">&lt; "Spieler 1" / "Spieler 2" &gt;</text><rect fill="#EEEEEE" height="19.0938" rx="5" ry="5" style="stroke:#000000;stroke-width:2.5;" width="116" x="135" y="142.7949"/><text fill="#000000" font-family="sans-serif" font-size="12" lengthAdjust="spacing" textLength="70" x="158" y="157.252">Neue Runde</text><rect fill="#EEEEEE" height="19.0938" rx="5" ry="5" style="stroke:#000000;stroke-width:2.5;" width="116" x="135" y="168.8887"/><text fill="#000000" font-family="sans-serif" font-size="12" lengthAdjust="spacing" textLength="74" x="156" y="183.3457">Hilfe / Regeln</text><rect fill="#EEEEEE" height="19.0938" rx="5" ry="5" style="stroke:#000000;stroke-width:2.5;" width="116" x="135" y="194.9824"/><text fill="#000000" font-family="sans-serif" font-size="12" lengthAdjust="spacing" textLength="65" x="160.5" y="209.4395">Hauptmen&#252;</text><line style="stroke:#000000;stroke-width:1.0;" x1="41.5" x2="120.5" y1="45.2793" y2="45.2793"/><line style="stroke:#000000;stroke-width:1.0;" x1="126.5" x2="128.5" y1="242.8574" y2="242.8574"/><line style="stroke:#000000;stroke-width:1.0;" x1="120.5" x2="122.5" y1="45.2793" y2="45.2793"/><line style="stroke:#000000;stroke-width:1.0;" x1="128.5" x2="130.5" y1="242.8574" y2="242.8574"/><line style="stroke:#000000;stroke-width:1.0;" x1="122.5" x2="124.5" y1="45.2793" y2="45.2793"/><line style="stroke:#000000;stroke-width:1.0;" x1="130.5" x2="277.5" y1="242.8574" y2="242.8574"/><line style="stroke:#000000;stroke-width:1.0;" x1="124.5" x2="126.5" y1="45.2793" y2="45.2793"/><line style="stroke:#000000;stroke-width:1.0;" x1="126.5" x2="128.5" y1="45.2793" y2="45.2793"/><line style="stroke:#000000;stroke-width:1.0;" x1="128.5" x2="130.5" y1="45.2793" y2="45.2793"/><line style="stroke:#000000;stroke-width:1.0;" x1="130.5" x2="277.5" y1="45.2793" y2="45.2793"/><line style="stroke:#000000;stroke-width:1.0;" x1="41.5" x2="120.5" y1="242.8574" y2="242.8574"/><line style="stroke:#000000;stroke-width:1.0;" x1="120.5" x2="122.5" y1="242.8574" y2="242.8574"/><line style="stroke:#000000;stroke-width:1.0;" x1="122.5" x2="124.5" y1="242.8574" y2="242.8574"/><line style="stroke:#000000;stroke-width:1.0;" x1="124.5" x2="126.5" y1="242.8574" y2="242.8574"/><line style="stroke:#000000;stroke-width:1.0;" x1="41.5" x2="41.5" y1="45.2793" y2="69.9199"/><line style="stroke:#000000;stroke-width:1.0;" x1="277.5" x2="277.5" y1="225.7637" y2="242.8574"/><line style="stroke:#000000;stroke-width:1.0;" x1="277.5" x2="277.5" y1="87.0137" y2="225.7637"/><line style="stroke:#000000;stroke-width:1.0;" x1="277.5" x2="277.5" y1="69.9199" y2="87.0137"/><line style="stroke:#000000;stroke-width:1.0;" x1="277.5" x2="277.5" y1="45.2793" y2="69.9199"/><line style="stroke:#000000;stroke-width:1.0;" x1="41.5" x2="41.5" y1="225.7637" y2="242.8574"/><line style="stroke:#000000;stroke-width:1.0;" x1="41.5" x2="41.5" y1="87.0137" y2="225.7637"/><line style="stroke:#000000;stroke-width:1.0;" x1="41.5" x2="41.5" y1="69.9199" y2="87.0137"/><!--SRC=[jL3DIiGm4BxdAJvwsetiYeidaGLHP2_kOJq8oWgXdQx1T5BQv5JoPjvyCSTqItq16PZX-ndcIu8DZd2zklVCL0QiyDnQSePxMtu4B5viHtLd6begrNzQReq0L5IRwCAZvx0N3K-UVT-QaYfn6HVKe83XGfgCTsWz7z0wPNezYeBpmPfSXSNcOQarrAZvl_NFJ6u9GvfAacKEqz3whi5hFDty1XofMnGvEtMuAd0veqs1xTcpFiytO4-HS8XS4N2Sw9sLfylkWKxa-3YxiJEn3GtnzzTadpykgVG3]--></g></svg>