<?xml version="1.0" encoding="us-ascii" standalone="no"?><svg xmlns="http://www.w3.org/2000/svg" xmlns:xlink="http://www.w3.org/1999/xlink" contentStyleType="text/css" height="214px" preserveAspectRatio="none" style="width:417px;height:214px;background:#FFFFFF;" version="1.1" viewBox="0 0 417 214" width="417px" zoomAndPan="magnify"><defs/><g><text fill="#000000" font-family="monospace" font-size="14" font-weight="bold" lengthAdjust="spacing" textLength="264" x="75.5" y="29.0752">4-Connect&#160;-&#160;Hauptmen&#252;&#160;(Wireframe)</text><line style="stroke:#000000;stroke-width:1.0;" x1="7" x2="7" y1="53.8262" y2="53.8262"/><line style="stroke:#000000;stroke-width:1.0;" x1="7" x2="7" y1="53.8262" y2="53.8262"/><line style="stroke:#000000;stroke-width:1.0;" x1="7" x2="7" y1="53.8262" y2="53.8262"/><line style="stroke:#000000;stroke-width:1.0;" x1="7" x2="7" y1="53.8262" y2="53.8262"/><rect fill="#FFFFFF" height="15.0938" style="stroke:#FFFFFF;stroke-width:1.0;" width="65" x="13" y="46.2793"/><text fill="#000000" font-family="sans-serif" font-size="12" font-weight="bold" lengthAdjust="spacing" textLength="65" x="13" y="58.7363">Hauptmen&#252;</text><text fill="#000000" font-family="sans-serif" font-size="12" font-weight="bold" lengthAdjust="spacing" textLength="76" x="8" y="101.4707">Spielauswahl</text><rect fill="#EEEEEE" height="19.0938" rx="5" ry="5" style="stroke:#000000;stroke-width:2.5;" width="92" x="10.5" y="110.6074"/><text fill="#000000" font-family="sans-serif" font-size="12" lengthAdjust="spacing" textLength="57" x="28" y="125.0645">4-Connect</text><rect fill="#EEEEEE" height="19.0938" rx="5" ry="5" style="stroke:#000000;stroke-width:2.5;" width="124" x="111.5" y="110.6074"/><text fill="#000000" font-family="sans-serif" font-size="12" lengthAdjust="spacing" textLength="38" x="154.5" y="125.0645">Spiel 2</text><rect fill="#EEEEEE" height="19.0938" rx="5" ry="5" style="stroke:#000000;stroke-width:2.5;" width="76" x="244.5" y="110.6074"/><text fill="#000000" font-family="sans-serif" font-size="12" lengthAdjust="spacing" textLength="38" x="263.5" y="125.0645">Spiel 3</text><rect fill="#EEEEEE" height="19.0938" rx="5" ry="5" style="stroke:#000000;stroke-width:2.5;" width="76" x="329.5" y="110.6074"/><text fill="#000000" font-family="sans-serif" font-size="12" lengthAdjust="spacing" textLength="38" x="348.5" y="125.0645">Spiel 4</text><rect fill="#EEEEEE" height="19.0938" rx="5" ry="5" style="stroke:#000000;stroke-width:2.5;" width="92" x="10.5" y="138.7012"/><text fill="#000000" font-family="sans-serif" font-size="12" lengthAdjust="spacing" textLength="38" x="37.5" y="153.1582">Spiel 5</text><rect fill="#EEEEEE" height="19.0938" rx="5" ry="5" style="stroke:#000000;stroke-width:2.5;" width="124" x="111.5" y="138.7012"/><text fill="#000000" font-family="sans-serif" font-size="12" lengthAdjust="spacing" textLength="38" x="154.5" y="153.1582">Spiel 6</text><rect fill="#EEEEEE" height="19.0938" rx="5" ry="5" style="stroke:#000000;stroke-width:2.5;" width="76" x="244.5" y="138.7012"/><text fill="#000000" font-family="sans-serif" font-size="12" lengthAdjust="spacing" textLength="38" x="263.5" y="153.1582">Spiel 7</text><rect fill="#EEEEEE" height="19.0938" rx="5" ry="5" style="stroke:#000000;stroke-width:2.5;" width="76" x="329.5" y="138.7012"/><text fill="#000000" font-family="sans-serif" font-size="12" lengthAdjust="spacing" textLength="38" x="348.5" y="153.1582">Spiel 8</text><rect fill="#EEEEEE" height="19.0938" rx="5" ry="5" style="stroke:#000000;stroke-width:2.5;" width="92" x="10.5" y="183.8887"/><text fill="#000000" font-family="sans-serif" font-size="12" lengthAdjust="spacing" textLength="26" x="43.5" y="198.3457">Help</text><rect fill="#EEEEEE" height="19.0938" rx="5" ry="5" style="stroke:#000000;stroke-width:2.5;" width="124" x="111.5" y="183.8887"/><text fill="#000000" font-family="sans-serif" font-size="12" lengthAdjust="spacing" textLength="76" x="135.5" y="198.3457">Einstellungen</text><rect fill="#EEEEEE" height="19.0938" rx="5" ry="5" style="stroke:#000000;stroke-width:2.5;" width="76" x="329.5" y="183.8887"/><text fill="#000000" font-family="sans-serif" font-size="12" lengthAdjust="spacing" textLength="50" x="342.5" y="198.3457">Beenden</text><line style="stroke:#000000;stroke-width:1.0;" x1="6" x2="107" y1="45.2793" y2="45.2793"/><line style="stroke:#000000;stroke-width:1.0;" x1="107" x2="240" y1="45.2793" y2="45.2793"/><line style="stroke:#000000;stroke-width:1.0;" x1="240" x2="325" y1="45.2793" y2="45.2793"/><line style="stroke:#000000;stroke-width:1.0;" x1="325" x2="410" y1="45.2793" y2="45.2793"/><line style="stroke:#000000;stroke-width:1.0;" x1="6" x2="107" y1="207.4824" y2="207.4824"/><line style="stroke:#000000;stroke-width:1.0;" x1="107" x2="240" y1="207.4824" y2="207.4824"/><line style="stroke:#000000;stroke-width:1.0;" x1="240" x2="325" y1="207.4824" y2="207.4824"/><line style="stroke:#000000;stroke-width:1.0;" x1="325" x2="410" y1="207.4824" y2="207.4824"/><line style="stroke:#000000;stroke-width:1.0;" x1="6" x2="6" y1="45.2793" y2="69.9199"/><line style="stroke:#000000;stroke-width:1.0;" x1="410" x2="410" y1="134.2012" y2="162.2949"/><line style="stroke:#000000;stroke-width:1.0;" x1="410" x2="410" y1="87.0137" y2="106.1074"/><line style="stroke:#000000;stroke-width:1.0;" x1="410" x2="410" y1="45.2793" y2="69.9199"/><line style="stroke:#000000;stroke-width:1.0;" x1="6" x2="6" y1="162.2949" y2="179.3887"/><line style="stroke:#000000;stroke-width:1.0;" x1="6" x2="6" y1="106.1074" y2="134.2012"/><line style="stroke:#000000;stroke-width:1.0;" x1="6" x2="6" y1="69.9199" y2="87.0137"/><line style="stroke:#000000;stroke-width:1.0;" x1="410" x2="410" y1="162.2949" y2="179.3887"/><line style="stroke:#000000;stroke-width:1.0;" x1="410" x2="410" y1="106.1074" y2="134.2012"/><line style="stroke:#000000;stroke-width:1.0;" x1="410" x2="410" y1="69.9199" y2="87.0137"/><line style="stroke:#000000;stroke-width:1.0;" x1="6" x2="6" y1="179.3887" y2="207.4824"/><line style="stroke:#000000;stroke-width:1.0;" x1="6" x2="6" y1="134.2012" y2="162.2949"/><line style="stroke:#000000;stroke-width:1.0;" x1="6" x2="6" y1="87.0137" y2="106.1074"/><line style="stroke:#000000;stroke-width:1.0;" x1="410" x2="410" y1="179.3887" y2="207.4824"/><!--SRC=[NOw_3e903CRtUugEYf51yS-iqR3euk1WDBb0qOj7kS0H1yARkVbY5X0aT6Zl-xxsbxFAQWHlkas8CB0m1L_cniP8dpUCpYh5A9KnZeN8degCP04XHZBNTf-GFN86XuIIpCW0GzwIsef201GJRZnku3X_fED0MVjkat9uCWgrpBENVEWkBYwzFrrBbbpr9iogPsqrUjuN7eiMyBCMC00i1u1LNwnRWDjX07pKfhtPASeiQftJ7QcoeAqgtI1IMFjyNeho2m00]--></g></svg>