<?xml version="1.0" encoding="us-ascii" standalone="no"?><svg xmlns="http://www.w3.org/2000/svg" xmlns:xlink="http://www.w3.org/1999/xlink" contentStyleType="text/css" height="950px" preserveAspectRatio="none" style="width:1290px;height:950px;background:#FFFFFF;" version="1.1" viewBox="0 0 1290 950" width="1290px" zoomAndPan="magnify"><defs/><g><text fill="#000000" font-family="monospace" font-size="14" font-weight="bold" lengthAdjust="spacing" textLength="272" x="502" y="24.0752">4-Connect&#160;-&#160;Anwendungsfalldiagramm</text><!--cluster 4-Connect--><g id="cluster_4-Connect"><rect fill="none" height="599" rx="2.5" ry="2.5" style="stroke:#181818;stroke-width:1.0;" width="968" x="316" y="46.2793"/><text fill="#000000" font-family="monospace" font-size="14" font-weight="bold" lengthAdjust="spacing" textLength="72" x="764" y="62.3545">4-Connect</text></g><g id="elem_UC1"><ellipse cx="440.0059" cy="587.4805" fill="#F1F1F1" rx="79.0059" ry="18.2012" style="stroke:#181818;stroke-width:0.5;"/><text fill="#000000" font-family="monospace" font-size="14" lengthAdjust="spacing" textLength="104" x="385.0059" y="591.7681">Spiel&#160;starten</text></g><g id="elem_UC2"><ellipse cx="439.7774" cy="272.4348" fill="#F1F1F1" rx="91.2774" ry="20.6555" style="stroke:#181818;stroke-width:0.5;"/><text fill="#000000" font-family="monospace" font-size="14" lengthAdjust="spacing" textLength="136" x="368.7774" y="276.7224">Spielmodus&#160;w&#228;hlen</text></g><g id="elem_UC3"><ellipse cx="440.0059" cy="431.4805" fill="#F1F1F1" rx="79.0059" ry="18.2012" style="stroke:#181818;stroke-width:0.5;"/><text fill="#000000" font-family="monospace" font-size="14" lengthAdjust="spacing" textLength="104" x="385.0059" y="435.7681">Spiel&#160;spielen</text></g><g id="elem_UC4"><ellipse cx="816.5254" cy="443.0844" fill="#F1F1F1" rx="94.5254" ry="21.3051" style="stroke:#181818;stroke-width:0.5;"/><text fill="#000000" font-family="monospace" font-size="14" lengthAdjust="spacing" textLength="144" x="741.5254" y="447.372">Neue&#160;Runde&#160;starten</text></g><g id="elem_UC5"><ellipse cx="816.3309" cy="607.2455" fill="#F1F1F1" rx="97.8309" ry="21.9662" style="stroke:#181818;stroke-width:0.5;"/><text fill="#000000" font-family="monospace" font-size="14" lengthAdjust="spacing" textLength="152" x="737.3309" y="611.5331">Spielhilfe&#160;anzeigen</text></g><g id="elem_UC6"><ellipse cx="816.6881" cy="106.4169" fill="#F1F1F1" rx="101.1881" ry="22.6376" style="stroke:#181818;stroke-width:0.5;"/><text fill="#000000" font-family="monospace" font-size="14" lengthAdjust="spacing" textLength="160" x="733.6881" y="110.7045">Einstellungen&#160;&#246;ffnen</text></g><g id="elem_UC7"><ellipse cx="1176.2774" cy="357.4348" fill="#F1F1F1" rx="91.2774" ry="20.6555" style="stroke:#181818;stroke-width:0.5;"/><text fill="#000000" font-family="monospace" font-size="14" lengthAdjust="spacing" textLength="136" x="1105.2774" y="361.7224">Sprache&#160;ausw&#228;hlen</text></g><g id="elem_UC8"><ellipse cx="816.5959" cy="275.3985" fill="#F1F1F1" rx="118.5959" ry="26.1192" style="stroke:#181818;stroke-width:0.5;"/><text fill="#000000" font-family="monospace" font-size="14" lengthAdjust="spacing" textLength="200" x="714.1531" y="279.4672">Zur&#252;ck&#160;zur&#160;Spielesammlung</text></g><g id="elem_UC9"><ellipse cx="440.0376" cy="107.2868" fill="#F1F1F1" rx="108.0376" ry="24.0075" style="stroke:#181818;stroke-width:0.5;"/><text fill="#000000" font-family="monospace" font-size="14" lengthAdjust="spacing" textLength="176" x="349.0376" y="111.5744">Branding&#160;konfigurieren</text></g><!--entity Fluggast--><g id="elem_Fluggast"><ellipse cx="94" cy="876.7793" fill="#F1F1F1" rx="8" ry="8" style="stroke:#181818;stroke-width:0.5;"/><path d="M94,884.7793 L94,911.7793 M81,892.7793 L107,892.7793 M94,911.7793 L81,926.7793 M94,911.7793 L107,926.7793 " fill="none" style="stroke:#181818;stroke-width:0.5;"/><text fill="#000000" font-family="monospace" font-size="14" lengthAdjust="spacing" textLength="64" x="62" y="942.3545">Fluggast</text></g><!--entity Airline--><g id="elem_Airline"><ellipse cx="94" cy="76.7793" fill="#F1F1F1" rx="8" ry="8" style="stroke:#181818;stroke-width:0.5;"/><path d="M94,84.7793 L94,111.7793 M81,92.7793 L107,92.7793 M94,111.7793 L81,126.7793 M94,111.7793 L107,126.7793 " fill="none" style="stroke:#181818;stroke-width:0.5;"/><text fill="#000000" font-family="monospace" font-size="14" lengthAdjust="spacing" textLength="128" x="30" y="142.3545">Fluggesellschaft</text></g><!--link Fluggast to UC1--><g id="link_Fluggast_UC1"><path d="M113,868.0393 C113,782.5893 113,587.2793 113,587.2793 C113,587.2793 258.07,587.2793 354.84,587.2793 " fill="none" id="Fluggast-to-UC1" style="stroke:#444444;stroke-width:1.0;"/><polygon fill="#444444" points="360.84,587.2793,351.84,583.2793,355.84,587.2793,351.84,591.2793,360.84,587.2793" style="stroke:#444444;stroke-width:1.0;"/></g><!--link Fluggast to UC2--><g id="link_Fluggast_UC2"><path d="M150.31,887.7793 C227.04,887.7793 355,887.7793 355,887.7793 C355,887.7793 355,357.3093 355,286.0593 " fill="none" id="Fluggast-to-UC2" style="stroke:#444444;stroke-width:1.0;"/><polygon fill="#444444" points="355,280.0593,351,289.0593,355,285.0593,359,289.0593,355,280.0593" style="stroke:#444444;stroke-width:1.0;"/></g><!--link Fluggast to UC3--><g id="link_Fluggast_UC3"><path d="M76,867.9193 C76,753.8793 76,431.2793 76,431.2793 C76,431.2793 247.47,431.2793 354.57,431.2793 " fill="none" id="Fluggast-to-UC3" style="stroke:#444444;stroke-width:1.0;"/><polygon fill="#444444" points="360.57,431.2793,351.57,427.2793,355.57,431.2793,351.57,435.2793,360.57,431.2793" style="stroke:#444444;stroke-width:1.0;"/></g><!--link Fluggast to UC4--><g id="link_Fluggast_UC4"><path d="M94,868.1093 C94,758.5693 94,457.0293 94,457.0293 C94,457.0293 554.13,457.0293 737.58,457.0293 " fill="none" id="Fluggast-to-UC4" style="stroke:#444444;stroke-width:1.0;"/><polygon fill="#444444" points="743.58,457.0293,734.58,453.0293,738.58,457.0293,734.58,461.0293,743.58,457.0293" style="stroke:#444444;stroke-width:1.0;"/></g><!--link Fluggast to UC5--><g id="link_Fluggast_UC5"><path d="M132,868.1693 C132,789.0093 132,617.2793 132,617.2793 C132,617.2793 538.58,617.2793 723.11,617.2793 " fill="none" id="Fluggast-to-UC5" style="stroke:#444444;stroke-width:1.0;"/><polygon fill="#444444" points="729.11,617.2793,720.11,613.2793,724.11,617.2793,720.11,621.2793,729.11,617.2793" style="stroke:#444444;stroke-width:1.0;"/></g><!--link Fluggast to UC6--><g id="link_Fluggast_UC6"><path d="M150.11,907.2793 C286.26,907.2793 623,907.2793 623,907.2793 C623,907.2793 623,113.7793 623,113.7793 C623,113.7793 666.32,113.7793 715.17,113.7793 " fill="none" id="Fluggast-to-UC6" style="stroke:#444444;stroke-width:1.0;"/><polygon fill="#444444" points="721.17,113.7793,712.17,109.7793,716.17,113.7793,712.17,117.7793,721.17,113.7793" style="stroke:#444444;stroke-width:1.0;"/></g><!--link Fluggast to UC7--><g id="link_Fluggast_UC7"><path d="M57,868.1693 C57,742.5093 57,357.2793 57,357.2793 C57,357.2793 811.52,357.2793 1078.89,357.2793 " fill="none" id="Fluggast-to-UC7" style="stroke:#444444;stroke-width:1.0;"/><polygon fill="#444444" points="1084.89,357.2793,1075.89,353.2793,1079.89,357.2793,1075.89,361.2793,1084.89,357.2793" style="stroke:#444444;stroke-width:1.0;"/></g><!--link Fluggast to UC8--><g id="link_Fluggast_UC8"><path d="M150.21,926.7793 C302.55,926.7793 712,926.7793 712,926.7793 C712,926.7793 712,383.7793 712,293.7093 " fill="none" id="Fluggast-to-UC8" style="stroke:#444444;stroke-width:1.0;"/><polygon fill="#444444" points="712,287.7093,708,296.7093,712,292.7093,716,296.7093,712,287.7093" style="stroke:#444444;stroke-width:1.0;"/></g><!--link Airline to UC9--><g id="link_Airline_UC9"><path d="M182.21,107.2793 C227.76,107.2793 277.72,107.2793 325.86,107.2793 " fill="none" id="Airline-to-UC9" style="stroke:#444444;stroke-width:1.0;"/><polygon fill="#444444" points="331.86,107.2793,322.86,103.2793,326.86,107.2793,322.86,111.2793,331.86,107.2793" style="stroke:#444444;stroke-width:1.0;"/></g><!--link UC6 to UC7--><g id="link_UC6_UC7"><path d="M917.88,106.2793 C1024.51,106.2793 1177,106.2793 1177,106.2793 C1177,106.2793 1177,270.7893 1177,330.7393 " fill="none" id="UC6-to-UC7" style="stroke:#444444;stroke-width:1.0;stroke-dasharray:7.0,7.0;"/><polygon fill="#444444" points="1177,336.7393,1181,327.7393,1177,331.7393,1173,327.7393,1177,336.7393" style="stroke:#444444;stroke-width:1.0;"/><text fill="#000000" font-family="monospace" font-size="13" lengthAdjust="spacing" textLength="72" x="1089.67" y="120.3491">&#171;include&#187;</text></g><!--link UC3 to UC4--><g id="link_UC3_UC4"><path d="M519.39,430.9493 C584,430.9493 668.69,430.9493 732.83,430.9493 " fill="none" id="UC3-to-UC4" style="stroke:#444444;stroke-width:1.0;stroke-dasharray:7.0,7.0;"/><polygon fill="#444444" points="738.83,430.9493,729.83,426.9493,733.83,430.9493,729.83,434.9493,738.83,430.9493" style="stroke:#444444;stroke-width:1.0;"/><text fill="#000000" font-family="monospace" font-size="13" lengthAdjust="spacing" textLength="64" x="564.11" y="445.0191">&#171;extend&#187;</text></g><!--link UC3 to UC5--><g id="link_UC3_UC5"><path d="M509.02,440.1093 C573.86,440.1093 661,440.1093 661,440.1093 C661,440.1093 661,595.2793 661,595.2793 C661,595.2793 690.9,595.2793 728.2,595.2793 " fill="none" id="UC3-to-UC5" style="stroke:#444444;stroke-width:1.0;stroke-dasharray:7.0,7.0;"/><polygon fill="#444444" points="734.2,595.2793,725.2,591.2793,729.2,595.2793,725.2,599.2793,734.2,595.2793" style="stroke:#444444;stroke-width:1.0;"/><text fill="#000000" font-family="monospace" font-size="13" lengthAdjust="spacing" textLength="64" x="596" y="492.3691">&#171;extend&#187;</text></g><!--link UC3 to UC6--><g id="link_UC3_UC6"><path d="M482.62,416.1093 C525.72,416.1093 586,416.1093 586,416.1093 C586,416.1093 586,98.7793 586,98.7793 C586,98.7793 651.67,98.7793 715.08,98.7793 " fill="none" id="UC3-to-UC6" style="stroke:#444444;stroke-width:1.0;stroke-dasharray:7.0,7.0;"/><polygon fill="#444444" points="721.08,98.7793,712.08,94.7793,716.08,98.7793,712.08,102.7793,721.08,98.7793" style="stroke:#444444;stroke-width:1.0;"/><text fill="#000000" font-family="monospace" font-size="13" lengthAdjust="spacing" textLength="64" x="587" y="255.6591">&#171;extend&#187;</text></g><!--link UC3 to UC8--><g id="link_UC3_UC8"><path d="M497.83,418.9493 C575.8,418.9493 705,418.9493 705,418.9493 C705,418.9493 705,321.7193 705,290.2693 " fill="none" id="UC3-to-UC8" style="stroke:#444444;stroke-width:1.0;stroke-dasharray:7.0,7.0;"/><polygon fill="#444444" points="705,284.2693,701,293.2693,705,289.2693,709,293.2693,705,284.2693" style="stroke:#444444;stroke-width:1.0;"/><text fill="#000000" font-family="monospace" font-size="13" lengthAdjust="spacing" textLength="64" x="603.75" y="415.0191">&#171;extend&#187;</text></g><!--SRC=[TP9DRjim48NtFCN0NJk8V-CKWG77Q5PD5ccxoMuWZYX2z53W3zocw6rwXgwwyyLA2u90CmqNWlZUnpSaXq47Gx2SxYqpLG6ciECZiOoiV8t6I8tAuU4WXA4wGB3Wj6e2IEqIhYqBuLlD7IO89DKOJNYm79xmGF1esVeEAv8PP3HJ-D4HM1SQcnaxv-pnQwEhbibxc9NMtXhhuCEo7tbLz0t9pobs8DRzo0YsaZnrC9jVPwf3RdjrTPqVufbyPzdJOze4AhedOuzzVGWkaX1OXLHa0W0F9Yg5FgJV2Q0VvoMIQXlZgmRh4TrfTxu78SwtYAnI3oPZ4oRmKm14JnNwf7_fD1dm0LqWxbT_sy_U00SheuVZwNTZHch-dvZpTmGMEV14aU0vigIYsF9DJADDJO3yIbgDs2h7Fcds8HqxlIDYEFsfQnx1zMMUmwf9OT5VRlucfrwYE_sjMdYD3leTa4-Fyfm-q9kSla-jbPeLj9PhhQBJvCRSM_5BYB5rq-cslyv2c9V2eXIMfR0gXNKft9J2HeZX8Gp2hH1f7LnTzJXyXBixpPM9ahRRv2m6Pzaxz3srI5uOg_UCzNl6vjBu1m00]--></g></svg>