<?xml version="1.0" encoding="us-ascii" standalone="no"?><svg xmlns="http://www.w3.org/2000/svg" xmlns:xlink="http://www.w3.org/1999/xlink" contentStyleType="text/css" height="979px" preserveAspectRatio="none" style="width:792px;height:979px;background:#FFFFFF;" version="1.1" viewBox="0 0 792 979" width="792px" zoomAndPan="magnify"><defs/><g><text fill="#000000" font-family="monospace" font-size="14" font-weight="bold" lengthAdjust="spacing" textLength="328" x="230.625" y="39.0752">4-Connect&#160;-&#160;Aktivit&#228;tsdiagramm&#160;Spielrunde</text><ellipse cx="448.75" cy="69.2793" fill="#222222" rx="10" ry="10" style="stroke:#222222;stroke-width:1.0;"/><rect fill="#F1F1F1" height="45.668" rx="12.5" ry="12.5" style="stroke:#181818;stroke-width:0.5;" width="219" x="339.25" y="99.2793"/><text fill="#000000" font-family="monospace" font-size="12" lengthAdjust="spacing" textLength="189" x="354.25" y="126.3438">Spielzustand&#160;initialisieren</text><rect fill="#F1F1F1" height="45.668" rx="12.5" ry="12.5" style="stroke:#181818;stroke-width:0.5;" width="184" x="356.75" y="164.9473"/><text fill="#000000" font-family="monospace" font-size="12" lengthAdjust="spacing" textLength="154" x="371.75" y="192.0117">Startspieler&#160;festlegen</text><rect fill="#F1F1F1" height="45.668" rx="12.5" ry="12.5" style="stroke:#181818;stroke-width:0.5;" width="163" x="367.25" y="230.6152"/><text fill="#000000" font-family="monospace" font-size="12" lengthAdjust="spacing" textLength="133" x="382.25" y="257.6797">Spielbrett&#160;anzeigen</text><rect fill="#F1F1F1" height="45.668" rx="12.5" ry="12.5" style="stroke:#181818;stroke-width:0.5;" width="212" x="342.75" y="340.2832"/><text fill="#000000" font-family="monospace" font-size="12" lengthAdjust="spacing" textLength="182" x="357.75" y="367.3477">Aktuellen&#160;Spieler&#160;anzeigen</text><rect fill="#F1F1F1" height="45.668" rx="12.5" ry="12.5" style="stroke:#181818;stroke-width:0.5;" width="149" x="374.25" y="405.9512"/><text fill="#000000" font-family="monospace" font-size="12" lengthAdjust="spacing" textLength="119" x="389.25" y="433.0156">Spielzug&#160;eingeben</text><rect fill="#F1F1F1" height="45.668" rx="12.5" ry="12.5" style="stroke:#181818;stroke-width:0.5;" width="163" x="367.25" y="471.6191"/><text fill="#000000" font-family="monospace" font-size="12" lengthAdjust="spacing" textLength="133" x="382.25" y="498.6836">Spielzug&#160;validieren</text><polygon fill="#F1F1F1" points="405.25,537.2871,492.25,537.2871,504.25,549.4683,492.25,561.6494,405.25,561.6494,393.25,549.4683,405.25,537.2871" style="stroke:#181818;stroke-width:0.5;"/><text fill="#000000" font-family="monospace" font-size="11" lengthAdjust="spacing" textLength="77" x="410.25" y="553.3462">Zug&#160;g&#252;ltig?</text><text fill="#000000" font-family="monospace" font-size="11" lengthAdjust="spacing" textLength="14" x="374.25" y="541.165">ja</text><text fill="#000000" font-family="monospace" font-size="11" lengthAdjust="spacing" textLength="28" x="509.25" y="541.165">nein</text><rect fill="#F1F1F1" height="45.668" rx="12.5" ry="12.5" style="stroke:#181818;stroke-width:0.5;" width="177" x="141" y="571.6494"/><text fill="#000000" font-family="monospace" font-size="12" lengthAdjust="spacing" textLength="147" x="156" y="598.7139">Spielstein&#160;platzieren</text><rect fill="#F1F1F1" height="45.668" rx="12.5" ry="12.5" style="stroke:#181818;stroke-width:0.5;" width="198" x="130.5" y="652.3174"/><text fill="#000000" font-family="monospace" font-size="12" lengthAdjust="spacing" textLength="168" x="145.5" y="679.3818">Spielbrett&#160;aktualisieren</text><polygon fill="#F1F1F1" points="140.5,717.9854,318.5,717.9854,330.5,730.1665,318.5,742.3477,140.5,742.3477,128.5,730.1665,140.5,717.9854" style="stroke:#181818;stroke-width:0.5;"/><text fill="#000000" font-family="monospace" font-size="11" lengthAdjust="spacing" textLength="168" x="145.5" y="734.0444">Gewinnbedingung&#160;erf&#252;llt?</text><text fill="#000000" font-family="monospace" font-size="11" lengthAdjust="spacing" textLength="14" x="109.5" y="721.8633">ja</text><text fill="#000000" font-family="monospace" font-size="11" lengthAdjust="spacing" textLength="28" x="335.5" y="721.8633">nein</text><rect fill="#F1F1F1" height="45.668" rx="12.5" ry="12.5" style="stroke:#181818;stroke-width:0.5;" width="149" x="11" y="752.3477"/><text fill="#000000" font-family="monospace" font-size="12" lengthAdjust="spacing" textLength="119" x="26" y="779.4121">Gewinner&#160;anzeigen</text><ellipse cx="85.5" cy="844.0156" fill="none" rx="11" ry="11" style="stroke:#222222;stroke-width:1.0;"/><ellipse cx="85.5" cy="844.0156" fill="#222222" rx="6" ry="6" style="stroke:#222222;stroke-width:1.0;"/><polygon fill="#F1F1F1" points="316,752.3477,431,752.3477,443,764.5288,431,776.71,316,776.71,304,764.5288,316,752.3477" style="stroke:#181818;stroke-width:0.5;"/><text fill="#000000" font-family="monospace" font-size="11" lengthAdjust="spacing" textLength="105" x="321" y="768.4067">Spielfeld&#160;voll?</text><text fill="#000000" font-family="monospace" font-size="11" lengthAdjust="spacing" textLength="14" x="285" y="756.2256">ja</text><text fill="#000000" font-family="monospace" font-size="11" lengthAdjust="spacing" textLength="28" x="448" y="756.2256">nein</text><rect fill="#F1F1F1" height="45.668" rx="12.5" ry="12.5" style="stroke:#181818;stroke-width:0.5;" width="184" x="190" y="786.71"/><text fill="#000000" font-family="monospace" font-size="12" lengthAdjust="spacing" textLength="154" x="205" y="813.7744">Unentschieden&#160;anzeigen</text><ellipse cx="282" cy="878.3779" fill="none" rx="11" ry="11" style="stroke:#222222;stroke-width:1.0;"/><ellipse cx="282" cy="878.3779" fill="#222222" rx="6" ry="6" style="stroke:#222222;stroke-width:1.0;"/><rect fill="#F1F1F1" height="45.668" rx="12.5" ry="12.5" style="stroke:#181818;stroke-width:0.5;" width="142" x="394" y="786.71"/><text fill="#000000" font-family="monospace" font-size="12" lengthAdjust="spacing" textLength="112" x="409" y="813.7744">Spieler&#160;wechseln</text><rect fill="#F1F1F1" height="45.668" rx="12.5" ry="12.5" style="stroke:#181818;stroke-width:0.5;" width="184" x="568.25" y="571.6494"/><text fill="#000000" font-family="monospace" font-size="12" lengthAdjust="spacing" textLength="154" x="583.25" y="598.7139">Fehlermeldung&#160;anzeigen</text><polygon fill="#F1F1F1" points="448.75,899.3779,460.75,911.3779,448.75,923.3779,436.75,911.3779,448.75,899.3779" style="stroke:#181818;stroke-width:0.5;"/><polygon fill="#F1F1F1" points="448.75,296.2832,460.75,308.2832,448.75,320.2832,436.75,308.2832,448.75,296.2832" style="stroke:#181818;stroke-width:0.5;"/><polygon fill="#F1F1F1" points="373.75,943.3779,523.75,943.3779,535.75,955.5591,523.75,967.7402,373.75,967.7402,361.75,955.5591,373.75,943.3779" style="stroke:#181818;stroke-width:0.5;"/><text fill="#000000" font-family="monospace" font-size="11" lengthAdjust="spacing" textLength="140" x="378.75" y="959.437">Spiel&#160;nicht&#160;beendet?</text><text fill="#000000" font-family="monospace" font-size="11" lengthAdjust="spacing" textLength="14" x="540.75" y="947.2559">ja</text><line style="stroke:#181818;stroke-width:1.0;" x1="448.75" x2="448.75" y1="79.2793" y2="99.2793"/><polygon fill="#181818" points="444.75,89.2793,448.75,99.2793,452.75,89.2793,448.75,93.2793" style="stroke:#181818;stroke-width:1.0;"/><line style="stroke:#181818;stroke-width:1.0;" x1="448.75" x2="448.75" y1="144.9473" y2="164.9473"/><polygon fill="#181818" points="444.75,154.9473,448.75,164.9473,452.75,154.9473,448.75,158.9473" style="stroke:#181818;stroke-width:1.0;"/><line style="stroke:#181818;stroke-width:1.0;" x1="448.75" x2="448.75" y1="210.6152" y2="230.6152"/><polygon fill="#181818" points="444.75,220.6152,448.75,230.6152,452.75,220.6152,448.75,224.6152" style="stroke:#181818;stroke-width:1.0;"/><line style="stroke:#181818;stroke-width:1.0;" x1="448.75" x2="448.75" y1="385.9512" y2="405.9512"/><polygon fill="#181818" points="444.75,395.9512,448.75,405.9512,452.75,395.9512,448.75,399.9512" style="stroke:#181818;stroke-width:1.0;"/><line style="stroke:#181818;stroke-width:1.0;" x1="448.75" x2="448.75" y1="451.6191" y2="471.6191"/><polygon fill="#181818" points="444.75,461.6191,448.75,471.6191,452.75,461.6191,448.75,465.6191" style="stroke:#181818;stroke-width:1.0;"/><line style="stroke:#181818;stroke-width:1.0;" x1="229.5" x2="229.5" y1="617.3174" y2="652.3174"/><polygon fill="#181818" points="225.5,642.3174,229.5,652.3174,233.5,642.3174,229.5,646.3174" style="stroke:#181818;stroke-width:1.0;"/><line style="stroke:#181818;stroke-width:1.0;" x1="85.5" x2="85.5" y1="798.0156" y2="833.0156"/><polygon fill="#181818" points="81.5,823.0156,85.5,833.0156,89.5,823.0156,85.5,827.0156" style="stroke:#181818;stroke-width:1.0;"/><line style="stroke:#181818;stroke-width:1.0;" x1="282" x2="282" y1="832.3779" y2="867.3779"/><polygon fill="#181818" points="278,857.3779,282,867.3779,286,857.3779,282,861.3779" style="stroke:#181818;stroke-width:1.0;"/><line style="stroke:#181818;stroke-width:1.0;" x1="304" x2="282" y1="764.5288" y2="764.5288"/><line style="stroke:#181818;stroke-width:1.0;" x1="282" x2="282" y1="764.5288" y2="786.71"/><polygon fill="#181818" points="278,776.71,282,786.71,286,776.71,282,780.71" style="stroke:#181818;stroke-width:1.0;"/><line style="stroke:#181818;stroke-width:1.0;" x1="443" x2="465" y1="764.5288" y2="764.5288"/><line style="stroke:#181818;stroke-width:1.0;" x1="465" x2="465" y1="764.5288" y2="786.71"/><polygon fill="#181818" points="461,776.71,465,786.71,469,776.71,465,780.71" style="stroke:#181818;stroke-width:1.0;"/><line style="stroke:#181818;stroke-width:1.0;" x1="465" x2="465" y1="832.3779" y2="894.3779"/><line style="stroke:#181818;stroke-width:1.0;" x1="465" x2="229.5" y1="894.3779" y2="894.3779"/><line style="stroke:#181818;stroke-width:1.0;" x1="229.5" x2="229.5" y1="894.3779" y2="911.3779"/><line style="stroke:#181818;stroke-width:1.0;" x1="229.5" x2="436.75" y1="911.3779" y2="911.3779"/><polygon fill="#181818" points="426.75,907.3779,436.75,911.3779,426.75,915.3779,430.75,911.3779" style="stroke:#181818;stroke-width:1.0;"/><line style="stroke:#181818;stroke-width:1.0;" x1="128.5" x2="85.5" y1="730.1665" y2="730.1665"/><line style="stroke:#181818;stroke-width:1.0;" x1="85.5" x2="85.5" y1="730.1665" y2="752.3477"/><polygon fill="#181818" points="81.5,742.3477,85.5,752.3477,89.5,742.3477,85.5,746.3477" style="stroke:#181818;stroke-width:1.0;"/><line style="stroke:#181818;stroke-width:1.0;" x1="330.5" x2="373.5" y1="730.1665" y2="730.1665"/><line style="stroke:#181818;stroke-width:1.0;" x1="373.5" x2="373.5" y1="730.1665" y2="752.3477"/><polygon fill="#181818" points="369.5,742.3477,373.5,752.3477,377.5,742.3477,373.5,746.3477" style="stroke:#181818;stroke-width:1.0;"/><line style="stroke:#181818;stroke-width:1.0;" x1="229.5" x2="229.5" y1="697.9854" y2="717.9854"/><polygon fill="#181818" points="225.5,707.9854,229.5,717.9854,233.5,707.9854,229.5,711.9854" style="stroke:#181818;stroke-width:1.0;"/><line style="stroke:#181818;stroke-width:1.0;" x1="393.25" x2="229.5" y1="549.4683" y2="549.4683"/><line style="stroke:#181818;stroke-width:1.0;" x1="229.5" x2="229.5" y1="549.4683" y2="571.6494"/><polygon fill="#181818" points="225.5,561.6494,229.5,571.6494,233.5,561.6494,229.5,565.6494" style="stroke:#181818;stroke-width:1.0;"/><line style="stroke:#181818;stroke-width:1.0;" x1="504.25" x2="660.25" y1="549.4683" y2="549.4683"/><line style="stroke:#181818;stroke-width:1.0;" x1="660.25" x2="660.25" y1="549.4683" y2="571.6494"/><polygon fill="#181818" points="656.25,561.6494,660.25,571.6494,664.25,561.6494,660.25,565.6494" style="stroke:#181818;stroke-width:1.0;"/><line style="stroke:#181818;stroke-width:1.0;" x1="660.25" x2="660.25" y1="617.3174" y2="911.3779"/><line style="stroke:#181818;stroke-width:1.0;" x1="660.25" x2="460.75" y1="911.3779" y2="911.3779"/><polygon fill="#181818" points="470.75,907.3779,460.75,911.3779,470.75,915.3779,466.75,911.3779" style="stroke:#181818;stroke-width:1.0;"/><line style="stroke:#181818;stroke-width:1.0;" x1="448.75" x2="448.75" y1="517.2871" y2="537.2871"/><polygon fill="#181818" points="444.75,527.2871,448.75,537.2871,452.75,527.2871,448.75,531.2871" style="stroke:#181818;stroke-width:1.0;"/><line style="stroke:#181818;stroke-width:1.0;" x1="448.75" x2="448.75" y1="320.2832" y2="340.2832"/><polygon fill="#181818" points="444.75,330.2832,448.75,340.2832,452.75,330.2832,448.75,334.2832" style="stroke:#181818;stroke-width:1.0;"/><line style="stroke:#181818;stroke-width:1.0;" x1="535.75" x2="766.25" y1="955.5591" y2="955.5591"/><polygon fill="#181818" points="762.25,635.9211,766.25,625.9211,770.25,635.9211,766.25,631.9211" style="stroke:#181818;stroke-width:1.0;"/><line style="stroke:#181818;stroke-width:1.0;" x1="766.25" x2="766.25" y1="308.2832" y2="955.5591"/><line style="stroke:#181818;stroke-width:1.0;" x1="766.25" x2="460.75" y1="308.2832" y2="308.2832"/><polygon fill="#181818" points="470.75,304.2832,460.75,308.2832,470.75,312.2832,466.75,308.2832" style="stroke:#181818;stroke-width:1.0;"/><line style="stroke:#181818;stroke-width:1.0;" x1="448.75" x2="448.75" y1="923.3779" y2="943.3779"/><polygon fill="#181818" points="444.75,933.3779,448.75,943.3779,452.75,933.3779,448.75,937.3779" style="stroke:#181818;stroke-width:1.0;"/><line style="stroke:#181818;stroke-width:1.0;" x1="448.75" x2="448.75" y1="276.2832" y2="296.2832"/><polygon fill="#181818" points="444.75,286.2832,448.75,296.2832,452.75,286.2832,448.75,290.2832" style="stroke:#181818;stroke-width:1.0;"/><!--SRC=[RLAnJkj04Epz5Lk60eade0d54tfIgA11D7GNtzXUSbbRT-j4olVm6NJy67ksys82hiupEpipPojh0DrS_cj5K2fTqlr6USVw-Qx9iwkZssxfkME4s8j7KQGDI-SC9e_AzK5NhUYJsu8UMsbJvqhusP2q7WaTNLzTpT3eP9FHFz_GpddFKjEjkQYBMXJBmVdGswjuOc5b5pWn8kJEs3oLyWWYLKZMfHw9ZAqZLCd90JoWHKG7fmNHqahs204oLZFrQSpeoRKcM1oipz6TPV1J1YEueiMhmVNdHr2k_rwGDhPvyUOkZ3qAazeoweBJmoGzSLDI2pLhD_1vzmFsBB96lflUhWUnCgUWFunitJXxrYS_ITjkE5eIq48ip56KFOOO5OAdNHl2Bvjjzuj0D9KDmnjtRZ2p-CtaMDMYxL4s2U6_4kAvAawdugT-kK9Zqgq5p3SmzvuquxUbVSFsFuzrIBXibDQm4UJRuZGs-W80]--></g></svg>