<?xml version="1.0" encoding="us-ascii" standalone="no"?><svg xmlns="http://www.w3.org/2000/svg" xmlns:xlink="http://www.w3.org/1999/xlink" contentStyleType="text/css" height="3026px" preserveAspectRatio="none" style="width:1991px;height:3026px;background:#FFFFFF;" version="1.1" viewBox="0 0 1991 3026" width="1991px" zoomAndPan="magnify"><defs/><g><text fill="#000000" font-family="monospace" font-size="14" font-weight="bold" lengthAdjust="spacing" textLength="368" x="812.5" y="29.0752">4-Connect&#160;-&#160;Sequenzdiagramm&#160;Spielzug&#160;ausf&#252;hren</text><rect fill="none" height="2530.8633" style="stroke:#000000;stroke-width:1.5;" width="1974" x="10" y="345.5322"/><rect fill="none" height="253.2041" style="stroke:#000000;stroke-width:1.5;" width="904" x="720" y="745.9932"/><rect fill="none" height="1706.251" style="stroke:#000000;stroke-width:1.5;" width="1792" x="182" y="1138.1445"/><rect fill="none" height="1378.6582" style="stroke:#000000;stroke-width:1.5;" width="1772" x="192" y="1433.7373"/><rect fill="none" height="253.2041" style="stroke:#000000;stroke-width:1.5;" width="904" x="720" y="1933.3945"/><rect fill="none" height="307.5664" style="stroke:#000000;stroke-width:1.5;" width="1752" x="202" y="2431.4668"/><line style="stroke:#666666;stroke-width:0.5;stroke-dasharray:5.0,5.0;" x1="111" x2="111" y1="122.5586" y2="2943.3955"/><line style="stroke:#666666;stroke-width:0.5;stroke-dasharray:5.0,5.0;" x1="371" x2="371" y1="122.5586" y2="2943.3955"/><line style="stroke:#666666;stroke-width:0.5;stroke-dasharray:5.0,5.0;" x1="849" x2="849" y1="122.5586" y2="2943.3955"/><line style="stroke:#666666;stroke-width:0.5;stroke-dasharray:5.0,5.0;" x1="1105" x2="1105" y1="122.5586" y2="2943.3955"/><line style="stroke:#666666;stroke-width:0.5;stroke-dasharray:5.0,5.0;" x1="1365" x2="1365" y1="122.5586" y2="2943.3955"/><line style="stroke:#666666;stroke-width:0.5;stroke-dasharray:5.0,5.0;" x1="1645" x2="1645" y1="122.5586" y2="2943.3955"/><line style="stroke:#666666;stroke-width:0.5;stroke-dasharray:5.0,5.0;" x1="1873" x2="1873" y1="122.5586" y2="2943.3955"/><text fill="#000000" font-family="monospace" font-size="14" lengthAdjust="spacing" textLength="64" x="76" y="118.3545">Fluggast</text><ellipse cx="111" cy="52.7793" fill="#E2E2F0" rx="8" ry="8" style="stroke:#181818;stroke-width:0.5;"/><path d="M111,60.7793 L111,87.7793 M98,68.7793 L124,68.7793 M111,87.7793 L98,102.7793 M111,87.7793 L124,102.7793 " fill="none" style="stroke:#181818;stroke-width:0.5;"/><text fill="#000000" font-family="monospace" font-size="14" lengthAdjust="spacing" textLength="64" x="76" y="2956.4707">Fluggast</text><ellipse cx="111" cy="2969.1748" fill="#E2E2F0" rx="8" ry="8" style="stroke:#181818;stroke-width:0.5;"/><path d="M111,2977.1748 L111,3004.1748 M98,2985.1748 L124,2985.1748 M111,3004.1748 L98,3019.1748 M111,3004.1748 L124,3019.1748 " fill="none" style="stroke:#181818;stroke-width:0.5;"/><text fill="#000000" font-family="monospace" font-size="14" lengthAdjust="spacing" textLength="200" x="268" y="118.3545">FourConnectGameController</text><path d="M350.5,76.2793 L350.5,100.2793 M350.5,88.2793 L367.5,88.2793 " fill="none" style="stroke:#181818;stroke-width:0.5;"/><ellipse cx="379.5" cy="88.2793" fill="#E2E2F0" rx="12" ry="12" style="stroke:#181818;stroke-width:0.5;"/><text fill="#000000" font-family="monospace" font-size="14" lengthAdjust="spacing" textLength="200" x="268" y="2956.4707">FourConnectGameController</text><path d="M350.5,2964.6748 L350.5,2988.6748 M350.5,2976.6748 L367.5,2976.6748 " fill="none" style="stroke:#181818;stroke-width:0.5;"/><ellipse cx="379.5" cy="2976.6748" fill="#E2E2F0" rx="12" ry="12" style="stroke:#181818;stroke-width:0.5;"/><text fill="#000000" font-family="monospace" font-size="14" lengthAdjust="spacing" textLength="120" x="786" y="118.3545">FourConnectGame</text><ellipse cx="849" cy="88.2793" fill="#E2E2F0" rx="12" ry="12" style="stroke:#181818;stroke-width:0.5;"/><polygon fill="#181818" points="845,76.2793,851,71.2793,849,76.2793,851,81.2793,845,76.2793" style="stroke:#181818;stroke-width:1.0;"/><text fill="#000000" font-family="monospace" font-size="14" lengthAdjust="spacing" textLength="120" x="786" y="2956.4707">FourConnectGame</text><ellipse cx="849" cy="2976.6748" fill="#E2E2F0" rx="12" ry="12" style="stroke:#181818;stroke-width:0.5;"/><polygon fill="#181818" points="845,2964.6748,851,2959.6748,849,2964.6748,851,2969.6748,845,2964.6748" style="stroke:#181818;stroke-width:1.0;"/><text fill="#000000" font-family="monospace" font-size="14" lengthAdjust="spacing" textLength="136" x="1034" y="118.3545">FourConnectPlayer</text><ellipse cx="1105" cy="88.2793" fill="#E2E2F0" rx="12" ry="12" style="stroke:#181818;stroke-width:0.5;"/><line style="stroke:#181818;stroke-width:0.5;" x1="1093" x2="1117" y1="102.2793" y2="102.2793"/><text fill="#000000" font-family="monospace" font-size="14" lengthAdjust="spacing" textLength="136" x="1034" y="2956.4707">FourConnectPlayer</text><ellipse cx="1105" cy="2976.6748" fill="#E2E2F0" rx="12" ry="12" style="stroke:#181818;stroke-width:0.5;"/><line style="stroke:#181818;stroke-width:0.5;" x1="1093" x2="1117" y1="2990.6748" y2="2990.6748"/><text fill="#000000" font-family="monospace" font-size="14" lengthAdjust="spacing" textLength="128" x="1298" y="118.3545">FourConnectRules</text><ellipse cx="1365" cy="88.2793" fill="#E2E2F0" rx="12" ry="12" style="stroke:#181818;stroke-width:0.5;"/><polygon fill="#181818" points="1361,76.2793,1367,71.2793,1365,76.2793,1367,81.2793,1361,76.2793" style="stroke:#181818;stroke-width:1.0;"/><text fill="#000000" font-family="monospace" font-size="14" lengthAdjust="spacing" textLength="128" x="1298" y="2956.4707">FourConnectRules</text><ellipse cx="1365" cy="2976.6748" fill="#E2E2F0" rx="12" ry="12" style="stroke:#181818;stroke-width:0.5;"/><polygon fill="#181818" points="1361,2964.6748,1367,2959.6748,1365,2964.6748,1367,2969.6748,1361,2964.6748" style="stroke:#181818;stroke-width:1.0;"/><text fill="#000000" font-family="monospace" font-size="14" lengthAdjust="spacing" textLength="176" x="1554" y="118.3545">FourConnectBotStrategy</text><ellipse cx="1645" cy="88.2793" fill="#E2E2F0" rx="12" ry="12" style="stroke:#181818;stroke-width:0.5;"/><polygon fill="#181818" points="1641,76.2793,1647,71.2793,1645,76.2793,1647,81.2793,1641,76.2793" style="stroke:#181818;stroke-width:1.0;"/><text fill="#000000" font-family="monospace" font-size="14" lengthAdjust="spacing" textLength="176" x="1554" y="2956.4707">FourConnectBotStrategy</text><ellipse cx="1645" cy="2976.6748" fill="#E2E2F0" rx="12" ry="12" style="stroke:#181818;stroke-width:0.5;"/><polygon fill="#181818" points="1641,2964.6748,1647,2959.6748,1645,2964.6748,1647,2969.6748,1641,2964.6748" style="stroke:#181818;stroke-width:1.0;"/><text fill="#000000" font-family="monospace" font-size="14" lengthAdjust="spacing" textLength="24" x="1858" y="118.3545">App</text><ellipse cx="1873" cy="88.2793" fill="#E2E2F0" rx="12" ry="12" style="stroke:#181818;stroke-width:0.5;"/><polygon fill="#181818" points="1869,76.2793,1875,71.2793,1873,76.2793,1875,81.2793,1869,76.2793" style="stroke:#181818;stroke-width:1.0;"/><text fill="#000000" font-family="monospace" font-size="14" lengthAdjust="spacing" textLength="24" x="1858" y="2956.4707">App</text><ellipse cx="1873" cy="2976.6748" fill="#E2E2F0" rx="12" ry="12" style="stroke:#181818;stroke-width:0.5;"/><polygon fill="#181818" points="1869,2964.6748,1875,2959.6748,1873,2964.6748,1875,2969.6748,1869,2964.6748" style="stroke:#181818;stroke-width:1.0;"/><polygon fill="#181818" points="359,301.5322,369,305.5322,359,309.5322,363,305.5322" style="stroke:#181818;stroke-width:1.0;"/><line style="stroke:#181818;stroke-width:1.0;" x1="111" x2="365" y1="305.5322" y2="305.5322"/><text fill="#000000" font-family="monospace" font-size="13" lengthAdjust="spacing" textLength="200" x="118" y="299.6284">handleColumnInput(column)</text><path d="M10,345.5322 L79,345.5322 L79,354.5059 L69,364.5059 L10,364.5059 L10,345.5322 " fill="#EEEEEE" style="stroke:#000000;stroke-width:1.5;"/><rect fill="none" height="2530.8633" style="stroke:#000000;stroke-width:1.5;" width="1974" x="10" y="345.5322"/><text fill="#000000" font-family="monospace" font-size="13" font-weight="bold" lengthAdjust="spacing" textLength="24" x="25" y="359.6021">alt</text><text fill="#000000" font-family="monospace" font-size="11" font-weight="bold" lengthAdjust="spacing" textLength="273" x="94" y="358.5913">[game.getStatus()&#160;!=&#160;GameState.Running]</text><polygon fill="#181818" points="122,383.4795,112,387.4795,122,391.4795,118,387.4795" style="stroke:#181818;stroke-width:1.0;"/><line style="stroke:#181818;stroke-width:1.0;stroke-dasharray:2.0,2.0;" x1="116" x2="370" y1="387.4795" y2="387.4795"/><text fill="#000000" font-family="monospace" font-size="13" lengthAdjust="spacing" textLength="48" x="128" y="381.5757">return</text><line style="stroke:#000000;stroke-width:1.0;stroke-dasharray:2.0,2.0;" x1="10" x2="1984" y1="421.4795" y2="421.4795"/><text fill="#000000" font-family="monospace" font-size="11" font-weight="bold" lengthAdjust="spacing" textLength="91" x="15" y="432.5386">[Spalte&#160;voll]</text><polygon fill="#181818" points="837,455.8154,847,459.8154,837,463.8154,841,459.8154" style="stroke:#181818;stroke-width:1.0;"/><line style="stroke:#181818;stroke-width:1.0;" x1="371" x2="843" y1="459.8154" y2="459.8154"/><text fill="#000000" font-family="monospace" font-size="13" lengthAdjust="spacing" textLength="80" x="378" y="453.9116">getBoard()</text><polygon fill="#181818" points="382,486.7891,372,490.7891,382,494.7891,378,490.7891" style="stroke:#181818;stroke-width:1.0;"/><line style="stroke:#181818;stroke-width:1.0;stroke-dasharray:2.0,2.0;" x1="376" x2="848" y1="490.7891" y2="490.7891"/><text fill="#000000" font-family="monospace" font-size="13" lengthAdjust="spacing" textLength="160" x="388" y="484.8853">FourConnectGameBoard</text><line style="stroke:#181818;stroke-width:1.0;" x1="371" x2="413" y1="521.7627" y2="521.7627"/><line style="stroke:#181818;stroke-width:1.0;" x1="413" x2="413" y1="521.7627" y2="534.7627"/><line style="stroke:#181818;stroke-width:1.0;" x1="372" x2="413" y1="534.7627" y2="534.7627"/><polygon fill="#181818" points="382,530.7627,372,534.7627,382,538.7627,378,534.7627" style="stroke:#181818;stroke-width:1.0;"/><text fill="#000000" font-family="monospace" font-size="13" lengthAdjust="spacing" textLength="312" x="378" y="515.8589">statusLabel.setText("Spalte&#160;ist&#160;voll!")</text><polygon fill="#181818" points="122,561.7363,112,565.7363,122,569.7363,118,565.7363" style="stroke:#181818;stroke-width:1.0;"/><line style="stroke:#181818;stroke-width:1.0;stroke-dasharray:2.0,2.0;" x1="116" x2="370" y1="565.7363" y2="565.7363"/><text fill="#000000" font-family="monospace" font-size="13" lengthAdjust="spacing" textLength="48" x="128" y="559.8325">return</text><line style="stroke:#000000;stroke-width:1.0;stroke-dasharray:2.0,2.0;" x1="10" x2="1984" y1="599.7363" y2="599.7363"/><text fill="#000000" font-family="monospace" font-size="11" font-weight="bold" lengthAdjust="spacing" textLength="91" x="15" y="610.7954">[Zug&#160;m&#246;glich]</text><polygon fill="#181818" points="837,634.0723,847,638.0723,837,642.0723,841,638.0723" style="stroke:#181818;stroke-width:1.0;"/><line style="stroke:#181818;stroke-width:1.0;" x1="371" x2="843" y1="638.0723" y2="638.0723"/><text fill="#000000" font-family="monospace" font-size="13" lengthAdjust="spacing" textLength="128" x="378" y="632.1685">dropDisc(column)</text><polygon fill="#181818" points="1353,665.0459,1363,669.0459,1353,673.0459,1357,669.0459" style="stroke:#181818;stroke-width:1.0;"/><line style="stroke:#181818;stroke-width:1.0;" x1="849" x2="1359" y1="669.0459" y2="669.0459"/><text fill="#000000" font-family="monospace" font-size="13" lengthAdjust="spacing" textLength="152" x="856" y="663.1421">checkTie(gameBoard)</text><polygon fill="#181818" points="860,696.0195,850,700.0195,860,704.0195,856,700.0195" style="stroke:#181818;stroke-width:1.0;"/><line style="stroke:#181818;stroke-width:1.0;stroke-dasharray:2.0,2.0;" x1="854" x2="1364" y1="700.0195" y2="700.0195"/><text fill="#000000" font-family="monospace" font-size="13" lengthAdjust="spacing" textLength="56" x="866" y="694.1157">boolean</text><polygon fill="#181818" points="1353,726.9932,1363,730.9932,1353,734.9932,1357,730.9932" style="stroke:#181818;stroke-width:1.0;"/><line style="stroke:#181818;stroke-width:1.0;" x1="849" x2="1359" y1="730.9932" y2="730.9932"/><text fill="#000000" font-family="monospace" font-size="13" lengthAdjust="spacing" textLength="272" x="856" y="725.0894">checkWin(gameBoard,&#160;currentPlayer)</text><path d="M720,745.9932 L789,745.9932 L789,754.9668 L779,764.9668 L720,764.9668 L720,745.9932 " fill="#EEEEEE" style="stroke:#000000;stroke-width:1.5;"/><rect fill="none" height="253.2041" style="stroke:#000000;stroke-width:1.5;" width="904" x="720" y="745.9932"/><text fill="#000000" font-family="monospace" font-size="13" font-weight="bold" lengthAdjust="spacing" textLength="24" x="735" y="760.063">alt</text><text fill="#000000" font-family="monospace" font-size="11" font-weight="bold" lengthAdjust="spacing" textLength="126" x="804" y="759.0522">[checkWin&#160;==&#160;true]</text><line style="stroke:#181818;stroke-width:1.0;" x1="1365" x2="1407" y1="787.9404" y2="787.9404"/><line style="stroke:#181818;stroke-width:1.0;" x1="1407" x2="1407" y1="787.9404" y2="800.9404"/><line style="stroke:#181818;stroke-width:1.0;" x1="1366" x2="1407" y1="800.9404" y2="800.9404"/><polygon fill="#181818" points="1376,796.9404,1366,800.9404,1376,804.9404,1372,800.9404" style="stroke:#181818;stroke-width:1.0;"/><text fill="#000000" font-family="monospace" font-size="13" lengthAdjust="spacing" textLength="240" x="1372" y="782.0366">determineWinningPositions(...)</text><polygon fill="#181818" points="860,827.9141,850,831.9141,860,835.9141,856,831.9141" style="stroke:#181818;stroke-width:1.0;"/><line style="stroke:#181818;stroke-width:1.0;stroke-dasharray:2.0,2.0;" x1="854" x2="1364" y1="831.9141" y2="831.9141"/><text fill="#000000" font-family="monospace" font-size="13" lengthAdjust="spacing" textLength="32" x="866" y="826.0103">true</text><polygon fill="#181818" points="1353,858.8877,1363,862.8877,1353,866.8877,1357,862.8877" style="stroke:#181818;stroke-width:1.0;"/><line style="stroke:#181818;stroke-width:1.0;" x1="849" x2="1359" y1="862.8877" y2="862.8877"/><text fill="#000000" font-family="monospace" font-size="13" lengthAdjust="spacing" textLength="200" x="856" y="856.9839">getLastWinningPositions()</text><polygon fill="#181818" points="860,889.8613,850,893.8613,860,897.8613,856,893.8613" style="stroke:#181818;stroke-width:1.0;"/><line style="stroke:#181818;stroke-width:1.0;stroke-dasharray:2.0,2.0;" x1="854" x2="1364" y1="893.8613" y2="893.8613"/><text fill="#000000" font-family="monospace" font-size="13" lengthAdjust="spacing" textLength="112" x="866" y="887.9575">List&lt;Position&gt;</text><line style="stroke:#000000;stroke-width:1.0;stroke-dasharray:2.0,2.0;" x1="720" x2="1624" y1="927.8613" y2="927.8613"/><text fill="#000000" font-family="monospace" font-size="11" font-weight="bold" lengthAdjust="spacing" textLength="133" x="725" y="938.9204">[checkWin&#160;==&#160;false]</text><polygon fill="#181818" points="860,962.1973,850,966.1973,860,970.1973,856,966.1973" style="stroke:#181818;stroke-width:1.0;"/><line style="stroke:#181818;stroke-width:1.0;stroke-dasharray:2.0,2.0;" x1="854" x2="1364" y1="966.1973" y2="966.1973"/><text fill="#000000" font-family="monospace" font-size="13" lengthAdjust="spacing" textLength="40" x="866" y="960.2935">false</text><polygon fill="#181818" points="382,1050.1709,372,1054.1709,382,1058.1709,378,1054.1709" style="stroke:#181818;stroke-width:1.0;"/><line style="stroke:#181818;stroke-width:1.0;stroke-dasharray:2.0,2.0;" x1="376" x2="848" y1="1054.1709" y2="1054.1709"/><text fill="#000000" font-family="monospace" font-size="13" lengthAdjust="spacing" textLength="72" x="388" y="1048.2671">GameState</text><line style="stroke:#181818;stroke-width:1.0;" x1="371" x2="413" y1="1085.1445" y2="1085.1445"/><line style="stroke:#181818;stroke-width:1.0;" x1="413" x2="413" y1="1085.1445" y2="1098.1445"/><line style="stroke:#181818;stroke-width:1.0;" x1="372" x2="413" y1="1098.1445" y2="1098.1445"/><polygon fill="#181818" points="382,1094.1445,372,1098.1445,382,1102.1445,378,1098.1445" style="stroke:#181818;stroke-width:1.0;"/><text fill="#000000" font-family="monospace" font-size="13" lengthAdjust="spacing" textLength="104" x="378" y="1079.2407">updateBoard()</text><path d="M182,1138.1445 L251,1138.1445 L251,1147.1182 L241,1157.1182 L182,1157.1182 L182,1138.1445 " fill="#EEEEEE" style="stroke:#000000;stroke-width:1.5;"/><rect fill="none" height="1706.251" style="stroke:#000000;stroke-width:1.5;" width="1792" x="182" y="1138.1445"/><text fill="#000000" font-family="monospace" font-size="13" font-weight="bold" lengthAdjust="spacing" textLength="24" x="197" y="1152.2144">alt</text><text fill="#000000" font-family="monospace" font-size="11" font-weight="bold" lengthAdjust="spacing" textLength="126" x="266" y="1151.2036">[GameState&#160;==&#160;Won]</text><polygon fill="#181818" points="1861,1201.0918,1871,1205.0918,1861,1209.0918,1865,1205.0918" style="stroke:#181818;stroke-width:1.0;"/><line style="stroke:#181818;stroke-width:1.0;" x1="371" x2="1867" y1="1205.0918" y2="1205.0918"/><text fill="#000000" font-family="monospace" font-size="13" lengthAdjust="spacing" textLength="160" x="378" y="1199.188">setRoot("EndScreen")</text><line style="stroke:#000000;stroke-width:1.0;stroke-dasharray:2.0,2.0;" x1="182" x2="1974" y1="1239.0918" y2="1239.0918"/><text fill="#000000" font-family="monospace" font-size="11" font-weight="bold" lengthAdjust="spacing" textLength="133" x="187" y="1250.1509">[GameState&#160;==&#160;Tied]</text><polygon fill="#181818" points="1861,1273.4277,1871,1277.4277,1861,1281.4277,1865,1277.4277" style="stroke:#181818;stroke-width:1.0;"/><line style="stroke:#181818;stroke-width:1.0;" x1="371" x2="1867" y1="1277.4277" y2="1277.4277"/><text fill="#000000" font-family="monospace" font-size="13" lengthAdjust="spacing" textLength="160" x="378" y="1271.5239">setRoot("EndScreen")</text><line style="stroke:#000000;stroke-width:1.0;stroke-dasharray:2.0,2.0;" x1="182" x2="1974" y1="1311.4277" y2="1311.4277"/><text fill="#000000" font-family="monospace" font-size="11" font-weight="bold" lengthAdjust="spacing" textLength="154" x="187" y="1322.4868">[GameState&#160;==&#160;Running]</text><polygon fill="#181818" points="837,1345.7637,847,1349.7637,837,1353.7637,841,1349.7637" style="stroke:#181818;stroke-width:1.0;"/><line style="stroke:#181818;stroke-width:1.0;" x1="371" x2="843" y1="1349.7637" y2="1349.7637"/><text fill="#000000" font-family="monospace" font-size="13" lengthAdjust="spacing" textLength="96" x="378" y="1343.8599">playerTurn()</text><line style="stroke:#181818;stroke-width:1.0;" x1="371" x2="413" y1="1380.7373" y2="1380.7373"/><line style="stroke:#181818;stroke-width:1.0;" x1="413" x2="413" y1="1380.7373" y2="1393.7373"/><line style="stroke:#181818;stroke-width:1.0;" x1="372" x2="413" y1="1393.7373" y2="1393.7373"/><polygon fill="#181818" points="382,1389.7373,372,1393.7373,382,1397.7373,378,1393.7373" style="stroke:#181818;stroke-width:1.0;"/><text fill="#000000" font-family="monospace" font-size="13" lengthAdjust="spacing" textLength="112" x="378" y="1374.8335">updateStatus()</text><path d="M192,1433.7373 L261,1433.7373 L261,1442.7109 L251,1452.7109 L192,1452.7109 L192,1433.7373 " fill="#EEEEEE" style="stroke:#000000;stroke-width:1.5;"/><rect fill="none" height="1378.6582" style="stroke:#000000;stroke-width:1.5;" width="1772" x="192" y="1433.7373"/><text fill="#000000" font-family="monospace" font-size="13" font-weight="bold" lengthAdjust="spacing" textLength="24" x="207" y="1447.8071">alt</text><text fill="#000000" font-family="monospace" font-size="11" font-weight="bold" lengthAdjust="spacing" textLength="154" x="276" y="1446.7964">[oneBotPlayer&#160;==&#160;true]</text><line style="stroke:#181818;stroke-width:1.0;" x1="371" x2="413" y1="1500.6846" y2="1500.6846"/><line style="stroke:#181818;stroke-width:1.0;" x1="413" x2="413" y1="1500.6846" y2="1513.6846"/><line style="stroke:#181818;stroke-width:1.0;" x1="372" x2="413" y1="1513.6846" y2="1513.6846"/><polygon fill="#181818" points="382,1509.6846,372,1513.6846,382,1517.6846,378,1513.6846" style="stroke:#181818;stroke-width:1.0;"/><text fill="#000000" font-family="monospace" font-size="13" lengthAdjust="spacing" textLength="200" x="378" y="1494.7808">gridPane.setDisable(true)</text><line style="stroke:#181818;stroke-width:1.0;" x1="371" x2="413" y1="1544.6582" y2="1544.6582"/><line style="stroke:#181818;stroke-width:1.0;" x1="413" x2="413" y1="1544.6582" y2="1557.6582"/><line style="stroke:#181818;stroke-width:1.0;" x1="372" x2="413" y1="1557.6582" y2="1557.6582"/><polygon fill="#181818" points="382,1553.6582,372,1557.6582,382,1561.6582,378,1557.6582" style="stroke:#181818;stroke-width:1.0;"/><text fill="#000000" font-family="monospace" font-size="13" lengthAdjust="spacing" textLength="464" x="378" y="1538.7544">botDelayTimer&#160;=&#160;new&#160;PauseTransition(Duration.seconds(1.0))</text><line style="stroke:#181818;stroke-width:1.0;" x1="371" x2="413" y1="1588.6318" y2="1588.6318"/><line style="stroke:#181818;stroke-width:1.0;" x1="413" x2="413" y1="1588.6318" y2="1601.6318"/><line style="stroke:#181818;stroke-width:1.0;" x1="372" x2="413" y1="1601.6318" y2="1601.6318"/><polygon fill="#181818" points="382,1597.6318,372,1601.6318,382,1605.6318,378,1601.6318" style="stroke:#181818;stroke-width:1.0;"/><text fill="#000000" font-family="monospace" font-size="13" lengthAdjust="spacing" textLength="272" x="378" y="1582.728">botDelayTimer.setOnFinished(event)</text><line style="stroke:#181818;stroke-width:1.0;" x1="371" x2="413" y1="1632.6055" y2="1632.6055"/><line style="stroke:#181818;stroke-width:1.0;" x1="413" x2="413" y1="1632.6055" y2="1645.6055"/><line style="stroke:#181818;stroke-width:1.0;" x1="372" x2="413" y1="1645.6055" y2="1645.6055"/><polygon fill="#181818" points="382,1641.6055,372,1645.6055,382,1649.6055,378,1645.6055" style="stroke:#181818;stroke-width:1.0;"/><text fill="#000000" font-family="monospace" font-size="13" lengthAdjust="spacing" textLength="160" x="378" y="1626.7017">botDelayTimer.play()</text><polygon fill="#181818" points="837,1672.5791,847,1676.5791,837,1680.5791,841,1676.5791" style="stroke:#181818;stroke-width:1.0;"/><line style="stroke:#181818;stroke-width:1.0;" x1="371" x2="843" y1="1676.5791" y2="1676.5791"/><text fill="#000000" font-family="monospace" font-size="13" lengthAdjust="spacing" textLength="104" x="378" y="1670.6753">playBotTurn()</text><polygon fill="#181818" points="1093,1703.5527,1103,1707.5527,1093,1711.5527,1097,1707.5527" style="stroke:#181818;stroke-width:1.0;"/><line style="stroke:#181818;stroke-width:1.0;" x1="849" x2="1099" y1="1707.5527" y2="1707.5527"/><text fill="#000000" font-family="monospace" font-size="13" lengthAdjust="spacing" textLength="104" x="856" y="1701.6489">getStrategy()</text><polygon fill="#181818" points="860,1734.5264,850,1738.5264,860,1742.5264,856,1738.5264" style="stroke:#181818;stroke-width:1.0;"/><line style="stroke:#181818;stroke-width:1.0;stroke-dasharray:2.0,2.0;" x1="854" x2="1104" y1="1738.5264" y2="1738.5264"/><text fill="#000000" font-family="monospace" font-size="13" lengthAdjust="spacing" textLength="96" x="866" y="1732.6226">MoveStrategy</text><polygon fill="#181818" points="1633,1765.5,1643,1769.5,1633,1773.5,1637,1769.5" style="stroke:#181818;stroke-width:1.0;"/><line style="stroke:#181818;stroke-width:1.0;" x1="849" x2="1639" y1="1769.5" y2="1769.5"/><text fill="#000000" font-family="monospace" font-size="13" lengthAdjust="spacing" textLength="168" x="856" y="1763.5962">chooseMove(gameBoard)</text><polygon fill="#181818" points="860,1796.4736,850,1800.4736,860,1804.4736,856,1800.4736" style="stroke:#181818;stroke-width:1.0;"/><line style="stroke:#181818;stroke-width:1.0;" x1="854" x2="1644" y1="1800.4736" y2="1800.4736"/><text fill="#000000" font-family="monospace" font-size="13" lengthAdjust="spacing" textLength="152" x="866" y="1794.5698">dropDisc(botColumn)</text><polygon fill="#181818" points="1353,1827.4473,1363,1831.4473,1353,1835.4473,1357,1831.4473" style="stroke:#181818;stroke-width:1.0;"/><line style="stroke:#181818;stroke-width:1.0;" x1="849" x2="1359" y1="1831.4473" y2="1831.4473"/><text fill="#000000" font-family="monospace" font-size="13" lengthAdjust="spacing" textLength="152" x="856" y="1825.5435">checkTie(gameBoard)</text><polygon fill="#181818" points="860,1858.4209,850,1862.4209,860,1866.4209,856,1862.4209" style="stroke:#181818;stroke-width:1.0;"/><line style="stroke:#181818;stroke-width:1.0;stroke-dasharray:2.0,2.0;" x1="854" x2="1364" y1="1862.4209" y2="1862.4209"/><text fill="#000000" font-family="monospace" font-size="13" lengthAdjust="spacing" textLength="56" x="866" y="1856.5171">boolean</text><polygon fill="#181818" points="1353,1889.3945,1363,1893.3945,1353,1897.3945,1357,1893.3945" style="stroke:#181818;stroke-width:1.0;"/><line style="stroke:#181818;stroke-width:1.0;" x1="849" x2="1359" y1="1893.3945" y2="1893.3945"/><text fill="#000000" font-family="monospace" font-size="13" lengthAdjust="spacing" textLength="272" x="856" y="1887.4907">checkWin(gameBoard,&#160;currentPlayer)</text><path d="M720,1933.3945 L789,1933.3945 L789,1942.3682 L779,1952.3682 L720,1952.3682 L720,1933.3945 " fill="#EEEEEE" style="stroke:#000000;stroke-width:1.5;"/><rect fill="none" height="253.2041" style="stroke:#000000;stroke-width:1.5;" width="904" x="720" y="1933.3945"/><text fill="#000000" font-family="monospace" font-size="13" font-weight="bold" lengthAdjust="spacing" textLength="24" x="735" y="1947.4644">alt</text><text fill="#000000" font-family="monospace" font-size="11" font-weight="bold" lengthAdjust="spacing" textLength="126" x="804" y="1946.4536">[checkWin&#160;==&#160;true]</text><line style="stroke:#181818;stroke-width:1.0;" x1="1365" x2="1407" y1="1975.3418" y2="1975.3418"/><line style="stroke:#181818;stroke-width:1.0;" x1="1407" x2="1407" y1="1975.3418" y2="1988.3418"/><line style="stroke:#181818;stroke-width:1.0;" x1="1366" x2="1407" y1="1988.3418" y2="1988.3418"/><polygon fill="#181818" points="1376,1984.3418,1366,1988.3418,1376,1992.3418,1372,1988.3418" style="stroke:#181818;stroke-width:1.0;"/><text fill="#000000" font-family="monospace" font-size="13" lengthAdjust="spacing" textLength="240" x="1372" y="1969.438">determineWinningPositions(...)</text><polygon fill="#181818" points="860,2015.3154,850,2019.3154,860,2023.3154,856,2019.3154" style="stroke:#181818;stroke-width:1.0;"/><line style="stroke:#181818;stroke-width:1.0;stroke-dasharray:2.0,2.0;" x1="854" x2="1364" y1="2019.3154" y2="2019.3154"/><text fill="#000000" font-family="monospace" font-size="13" lengthAdjust="spacing" textLength="32" x="866" y="2013.4116">true</text><polygon fill="#181818" points="1353,2046.2891,1363,2050.2891,1353,2054.2891,1357,2050.2891" style="stroke:#181818;stroke-width:1.0;"/><line style="stroke:#181818;stroke-width:1.0;" x1="849" x2="1359" y1="2050.2891" y2="2050.2891"/><text fill="#000000" font-family="monospace" font-size="13" lengthAdjust="spacing" textLength="200" x="856" y="2044.3853">getLastWinningPositions()</text><polygon fill="#181818" points="860,2077.2627,850,2081.2627,860,2085.2627,856,2081.2627" style="stroke:#181818;stroke-width:1.0;"/><line style="stroke:#181818;stroke-width:1.0;stroke-dasharray:2.0,2.0;" x1="854" x2="1364" y1="2081.2627" y2="2081.2627"/><text fill="#000000" font-family="monospace" font-size="13" lengthAdjust="spacing" textLength="112" x="866" y="2075.3589">List&lt;Position&gt;</text><line style="stroke:#000000;stroke-width:1.0;stroke-dasharray:2.0,2.0;" x1="720" x2="1624" y1="2115.2627" y2="2115.2627"/><text fill="#000000" font-family="monospace" font-size="11" font-weight="bold" lengthAdjust="spacing" textLength="133" x="725" y="2126.3218">[checkWin&#160;==&#160;false]</text><polygon fill="#181818" points="860,2149.5986,850,2153.5986,860,2157.5986,856,2153.5986" style="stroke:#181818;stroke-width:1.0;"/><line style="stroke:#181818;stroke-width:1.0;stroke-dasharray:2.0,2.0;" x1="854" x2="1364" y1="2153.5986" y2="2153.5986"/><text fill="#000000" font-family="monospace" font-size="13" lengthAdjust="spacing" textLength="40" x="866" y="2147.6948">false</text><polygon fill="#181818" points="1633,2237.5723,1643,2241.5723,1633,2245.5723,1637,2241.5723" style="stroke:#181818;stroke-width:1.0;"/><line style="stroke:#181818;stroke-width:1.0;stroke-dasharray:2.0,2.0;" x1="849" x2="1639" y1="2241.5723" y2="2241.5723"/><text fill="#000000" font-family="monospace" font-size="13" lengthAdjust="spacing" textLength="72" x="856" y="2235.6685">GameState</text><polygon fill="#181818" points="860,2268.5459,850,2272.5459,860,2276.5459,856,2272.5459" style="stroke:#181818;stroke-width:1.0;"/><line style="stroke:#181818;stroke-width:1.0;stroke-dasharray:2.0,2.0;" x1="854" x2="1644" y1="2272.5459" y2="2272.5459"/><text fill="#000000" font-family="monospace" font-size="13" lengthAdjust="spacing" textLength="72" x="866" y="2266.6421">GameState</text><polygon fill="#181818" points="382,2299.5195,372,2303.5195,382,2307.5195,378,2303.5195" style="stroke:#181818;stroke-width:1.0;"/><line style="stroke:#181818;stroke-width:1.0;stroke-dasharray:2.0,2.0;" x1="376" x2="848" y1="2303.5195" y2="2303.5195"/><text fill="#000000" font-family="monospace" font-size="13" lengthAdjust="spacing" textLength="72" x="388" y="2297.6157">GameState</text><line style="stroke:#181818;stroke-width:1.0;" x1="371" x2="413" y1="2334.4932" y2="2334.4932"/><line style="stroke:#181818;stroke-width:1.0;" x1="413" x2="413" y1="2334.4932" y2="2347.4932"/><line style="stroke:#181818;stroke-width:1.0;" x1="372" x2="413" y1="2347.4932" y2="2347.4932"/><polygon fill="#181818" points="382,2343.4932,372,2347.4932,382,2351.4932,378,2347.4932" style="stroke:#181818;stroke-width:1.0;"/><text fill="#000000" font-family="monospace" font-size="13" lengthAdjust="spacing" textLength="104" x="378" y="2328.5894">updateBoard()</text><line style="stroke:#181818;stroke-width:1.0;" x1="371" x2="413" y1="2378.4668" y2="2378.4668"/><line style="stroke:#181818;stroke-width:1.0;" x1="413" x2="413" y1="2378.4668" y2="2391.4668"/><line style="stroke:#181818;stroke-width:1.0;" x1="372" x2="413" y1="2391.4668" y2="2391.4668"/><polygon fill="#181818" points="382,2387.4668,372,2391.4668,382,2395.4668,378,2391.4668" style="stroke:#181818;stroke-width:1.0;"/><text fill="#000000" font-family="monospace" font-size="13" lengthAdjust="spacing" textLength="208" x="378" y="2372.563">gridPane.setDisable(false)</text><path d="M202,2431.4668 L271,2431.4668 L271,2440.4404 L261,2450.4404 L202,2450.4404 L202,2431.4668 " fill="#EEEEEE" style="stroke:#000000;stroke-width:1.5;"/><rect fill="none" height="307.5664" style="stroke:#000000;stroke-width:1.5;" width="1752" x="202" y="2431.4668"/><text fill="#000000" font-family="monospace" font-size="13" font-weight="bold" lengthAdjust="spacing" textLength="24" x="217" y="2445.5366">alt</text><text fill="#000000" font-family="monospace" font-size="11" font-weight="bold" lengthAdjust="spacing" textLength="126" x="286" y="2444.5259">[GameState&#160;==&#160;Won]</text><polygon fill="#181818" points="1861,2469.4141,1871,2473.4141,1861,2477.4141,1865,2473.4141" style="stroke:#181818;stroke-width:1.0;"/><line style="stroke:#181818;stroke-width:1.0;" x1="371" x2="1867" y1="2473.4141" y2="2473.4141"/><text fill="#000000" font-family="monospace" font-size="13" lengthAdjust="spacing" textLength="160" x="378" y="2467.5103">setRoot("EndScreen")</text><line style="stroke:#000000;stroke-width:1.0;stroke-dasharray:2.0,2.0;" x1="202" x2="1954" y1="2507.4141" y2="2507.4141"/><text fill="#000000" font-family="monospace" font-size="11" font-weight="bold" lengthAdjust="spacing" textLength="133" x="207" y="2518.4731">[GameState&#160;==&#160;Tied]</text><line style="stroke:#181818;stroke-width:1.0;" x1="371" x2="413" y1="2545.75" y2="2545.75"/><line style="stroke:#181818;stroke-width:1.0;" x1="413" x2="413" y1="2545.75" y2="2558.75"/><line style="stroke:#181818;stroke-width:1.0;" x1="372" x2="413" y1="2558.75" y2="2558.75"/><polygon fill="#181818" points="382,2554.75,372,2558.75,382,2562.75,378,2558.75" style="stroke:#181818;stroke-width:1.0;"/><text fill="#000000" font-family="monospace" font-size="13" lengthAdjust="spacing" textLength="296" x="378" y="2539.8462">statusLabel.setText("Unentschieden!")</text><polygon fill="#181818" points="1861,2585.7236,1871,2589.7236,1861,2593.7236,1865,2589.7236" style="stroke:#181818;stroke-width:1.0;"/><line style="stroke:#181818;stroke-width:1.0;" x1="371" x2="1867" y1="2589.7236" y2="2589.7236"/><text fill="#000000" font-family="monospace" font-size="13" lengthAdjust="spacing" textLength="160" x="378" y="2583.8198">setRoot("EndScreen")</text><line style="stroke:#000000;stroke-width:1.0;stroke-dasharray:2.0,2.0;" x1="202" x2="1954" y1="2623.7236" y2="2623.7236"/><text fill="#000000" font-family="monospace" font-size="11" font-weight="bold" lengthAdjust="spacing" textLength="154" x="207" y="2634.7827">[GameState&#160;==&#160;Running]</text><polygon fill="#181818" points="837,2658.0596,847,2662.0596,837,2666.0596,841,2662.0596" style="stroke:#181818;stroke-width:1.0;"/><line style="stroke:#181818;stroke-width:1.0;" x1="371" x2="843" y1="2662.0596" y2="2662.0596"/><text fill="#000000" font-family="monospace" font-size="13" lengthAdjust="spacing" textLength="96" x="378" y="2656.1558">playerTurn()</text><line style="stroke:#181818;stroke-width:1.0;" x1="371" x2="413" y1="2693.0332" y2="2693.0332"/><line style="stroke:#181818;stroke-width:1.0;" x1="413" x2="413" y1="2693.0332" y2="2706.0332"/><line style="stroke:#181818;stroke-width:1.0;" x1="372" x2="413" y1="2706.0332" y2="2706.0332"/><polygon fill="#181818" points="382,2702.0332,372,2706.0332,382,2710.0332,378,2706.0332" style="stroke:#181818;stroke-width:1.0;"/><text fill="#000000" font-family="monospace" font-size="13" lengthAdjust="spacing" textLength="112" x="378" y="2687.1294">updateStatus()</text><line style="stroke:#000000;stroke-width:1.0;stroke-dasharray:2.0,2.0;" x1="192" x2="1964" y1="2772.0332" y2="2772.0332"/><text fill="#000000" font-family="monospace" font-size="11" font-weight="bold" lengthAdjust="spacing" textLength="161" x="197" y="2783.0923">[oneBotPlayer&#160;==&#160;false]</text><!--SRC=[jLRRRkCs47tNLp3kYmJKHXPeYsBH15WdJL4WQOt4nG9zeyM9J8GcLLwIpIBVrQU-xOzrIDqeHPRZHMl0i4JEdBcViULM0FbkVg6aXDoIERc3lnp8pupJGjFTZjoL7CHdLn3gpFsNVxOQP9AO1ovBYlU4mJrrmbufQN-ZEo0tIYfJqXnO9BIYslASbrJQ5MMCouByU1hTBzMdvlpxqnYzSYQ7QtwFNmbBfHde2oMK9j_y43vJqZH_ABHoabKQLbE9lc44TaJhWzRgQRtb-OC4OyYxs8zRCAMI1cxmXXQm1A6UWZnYEaWIcbl4dv7gSoLSKL1ZwzSPeQOzIrvUNfADzudgvqv3ELsNu1VC8ZvQhOG07KDqfm4ahrxtOSIQ_ZteOEJSZffT2VhSDrUT739rwmIOM2qS7D9QAdk7rR1GFCUwpTce-eUoZ6NnDKdQJC_Fe_IGzsHB9HEOH-5sybTPEflcuJaBq5HOKc1E5WMW7zGwasRav2paoR_3ujP9YUsOa1XsZbPQY- -91kkqhF8g3E2a82wGHnGUw9q7P5H1Uqj5DKipb0Xdyw7dWp86yLTmFGqJ8hYc6n0B0tODdsmwgvtXwAbtw6IM7HNBdpZmkoz_5uBdstt1CAtAIsxoDhLjJETL5w1CleNyOSqXBPfOl1_LxRo3sYWbWCgz21-vx12-9RdJVeYh3lM0lg2D83axgwRIjqfjgODZO47la1nGqbTufGot76SxNImMMQpJULVDkByQEeVrlCO4liBQ0tIDvVYfaJf76PzlGaB6O_VlAPwCGpHNjQPazVFUVcfxEfdk8bSo5EgwipBW4ziYUDS-AjbU3l7yX68xWhrL2blmPydkSWqWPra_r1uWDWVxhx2wgTtJicNec3MsUbsYWmbfw258Ds7xh2Y_ZHhQZ5kk4Pe4BpHdAoh13opE4Dq8I3r2TbXre-mbeDarttdBHC8JBbXdOEtNMsYjzD8XaU83mYEDCfE-Mvncns9xttwNLrnoimMMmYEEtD4OFkEOlMHKBweAvZ8gIpTfTOB3g3NheHMgBwFnk56Fq6wHFbAxS3odA8NB76NxlEG_hTW8qM5e5pNNzR6dwMvqa1lAcm0wn7hzRjlBWL_BWmUuy7W-V1idzgEQuCP9VXoWIFRghANBg34wiXmsGsTXAFC6sdqJqtJK-nNS4S8UxuaH-XupCKcu8pKP9_43he_-LVb3ObURV8iO84zcsV_XOBmPthuTZjyGqqqN_1ekZgvZMx5sgrVFrJ_twXU__m80]--></g></svg>