<?xml version="1.0" encoding="us-ascii" standalone="no"?><svg xmlns="http://www.w3.org/2000/svg" xmlns:xlink="http://www.w3.org/1999/xlink" contentStyleType="text/css" height="728px" preserveAspectRatio="none" style="width:1126px;height:728px;background:#FFFFFF;" version="1.1" viewBox="0 0 1126 728" width="1126px" zoomAndPan="magnify"><defs/><g><text fill="#000000" font-family="monospace" font-size="14" font-weight="bold" lengthAdjust="spacing" textLength="272" x="420" y="24.0752">4-Connect&#160;-&#160;Anwendungsfalldiagramm</text><!--cluster 4-Connect--><g id="cluster_4-Connect"><rect fill="none" height="575" rx="2.5" ry="2.5" style="stroke:#181818;stroke-width:1.0;" width="916" x="204" y="46.2793"/><text fill="#000000" font-family="monospace" font-size="14" font-weight="bold" lengthAdjust="spacing" textLength="72" x="626" y="62.3545">4-Connect</text></g><g id="elem_UC1"><ellipse cx="314.5059" cy="101.4805" fill="#F1F1F1" rx="79.0059" ry="18.2012" style="stroke:#181818;stroke-width:0.5;"/><text fill="#000000" font-family="monospace" font-size="14" lengthAdjust="spacing" textLength="104" x="259.5059" y="105.7681">Spiel&#160;starten</text></g><g id="elem_UC2"><ellipse cx="314.2774" cy="260.4348" fill="#F1F1F1" rx="91.2774" ry="20.6555" style="stroke:#181818;stroke-width:0.5;"/><text fill="#000000" font-family="monospace" font-size="14" lengthAdjust="spacing" textLength="136" x="243.2774" y="264.7224">Spielmodus&#160;w&#228;hlen</text></g><g id="elem_UC3"><ellipse cx="638.0059" cy="422.4805" fill="#F1F1F1" rx="79.0059" ry="18.2012" style="stroke:#181818;stroke-width:0.5;"/><text fill="#000000" font-family="monospace" font-size="14" lengthAdjust="spacing" textLength="104" x="583.0059" y="426.7681">Spiel&#160;spielen</text></g><g id="elem_UC4"><ellipse cx="314.5254" cy="422.0844" fill="#F1F1F1" rx="94.5254" ry="21.3051" style="stroke:#181818;stroke-width:0.5;"/><text fill="#000000" font-family="monospace" font-size="14" lengthAdjust="spacing" textLength="144" x="239.5254" y="426.372">Neue&#160;Runde&#160;starten</text></g><g id="elem_UC5"><ellipse cx="985.3309" cy="245.2455" fill="#F1F1F1" rx="97.8309" ry="21.9662" style="stroke:#181818;stroke-width:0.5;"/><text fill="#000000" font-family="monospace" font-size="14" lengthAdjust="spacing" textLength="152" x="906.3309" y="249.5331">Spielhilfe&#160;anzeigen</text></g><g id="elem_UC6"><ellipse cx="985.6881" cy="410.4169" fill="#F1F1F1" rx="101.1881" ry="22.6376" style="stroke:#181818;stroke-width:0.5;"/><text fill="#000000" font-family="monospace" font-size="14" lengthAdjust="spacing" textLength="160" x="902.6881" y="414.7045">Einstellungen&#160;&#246;ffnen</text></g><g id="elem_UC7"><ellipse cx="314.2774" cy="584.4348" fill="#F1F1F1" rx="91.2774" ry="20.6555" style="stroke:#181818;stroke-width:0.5;"/><text fill="#000000" font-family="monospace" font-size="14" lengthAdjust="spacing" textLength="136" x="243.2774" y="588.7224">Sprache&#160;ausw&#228;hlen</text></g><g id="elem_UC8"><ellipse cx="985.5959" cy="579.3985" fill="#F1F1F1" rx="118.5959" ry="26.1192" style="stroke:#181818;stroke-width:0.5;"/><text fill="#000000" font-family="monospace" font-size="14" lengthAdjust="spacing" textLength="200" x="883.1531" y="583.4672">Zur&#252;ck&#160;zur&#160;Spielesammlung</text></g><!--entity Fluggast--><g id="elem_Fluggast"><ellipse cx="38" cy="654.7793" fill="#F1F1F1" rx="8" ry="8" style="stroke:#181818;stroke-width:0.5;"/><path d="M38,662.7793 L38,689.7793 M25,670.7793 L51,670.7793 M38,689.7793 L25,704.7793 M38,689.7793 L51,704.7793 " fill="none" style="stroke:#181818;stroke-width:0.5;"/><text fill="#000000" font-family="monospace" font-size="14" lengthAdjust="spacing" textLength="64" x="6" y="720.3545">Fluggast</text></g><!--link Fluggast to UC1--><g id="link_Fluggast_UC1"><path d="M14,646.0593 C14,515.1193 14,101.2793 14,101.2793 C14,101.2793 140.12,101.2793 229.15,101.2793 " fill="none" id="Fluggast-to-UC1" style="stroke:#444444;stroke-width:1.0;"/><polygon fill="#444444" points="235.15,101.2793,226.15,97.2793,230.15,101.2793,226.15,105.2793,235.15,101.2793" style="stroke:#444444;stroke-width:1.0;"/></g><!--link Fluggast to UC2--><g id="link_Fluggast_UC2"><path d="M30,646.0593 C30,540.8493 30,260.2793 30,260.2793 C30,260.2793 133.75,260.2793 216.92,260.2793 " fill="none" id="Fluggast-to-UC2" style="stroke:#444444;stroke-width:1.0;"/><polygon fill="#444444" points="222.92,260.2793,213.92,256.2793,217.92,260.2793,213.92,264.2793,222.92,260.2793" style="stroke:#444444;stroke-width:1.0;"/></g><!--link Fluggast to UC3--><g id="link_Fluggast_UC3"><path d="M70.26,685.2793 C194.88,685.2793 638,685.2793 638,685.2793 C638,685.2793 638,505.7793 638,446.3593 " fill="none" id="Fluggast-to-UC3" style="stroke:#444444;stroke-width:1.0;"/><polygon fill="#444444" points="638,440.3593,634,449.3593,638,445.3593,642,449.3593,638,440.3593" style="stroke:#444444;stroke-width:1.0;"/></g><!--link Fluggast to UC4--><g id="link_Fluggast_UC4"><path d="M46,646.1893 C46,572.9293 46,422.2793 46,422.2793 C46,422.2793 136.53,422.2793 213.84,422.2793 " fill="none" id="Fluggast-to-UC4" style="stroke:#444444;stroke-width:1.0;"/><polygon fill="#444444" points="219.84,422.2793,210.84,418.2793,214.84,422.2793,210.84,426.2793,219.84,422.2793" style="stroke:#444444;stroke-width:1.0;"/></g><!--link Fluggast to UC5--><g id="link_Fluggast_UC5"><path d="M22,646.1993 C22,536.1393 22,231.5293 22,231.5293 C22,231.5293 674.42,231.5293 902.69,231.5293 " fill="none" id="Fluggast-to-UC5" style="stroke:#444444;stroke-width:1.0;"/><polygon fill="#444444" points="908.69,231.5293,899.69,227.5293,903.69,231.5293,899.69,235.5293,908.69,231.5293" style="stroke:#444444;stroke-width:1.0;"/></g><!--link Fluggast to UC6--><g id="link_Fluggast_UC6"><path d="M38,646.0293 C38,566.5993 38,394.2793 38,394.2793 C38,394.2793 687.93,394.2793 908.28,394.2793 " fill="none" id="Fluggast-to-UC6" style="stroke:#444444;stroke-width:1.0;"/><polygon fill="#444444" points="914.28,394.2793,905.28,390.2793,909.28,394.2793,905.28,398.2793,914.28,394.2793" style="stroke:#444444;stroke-width:1.0;"/></g><!--link Fluggast to UC7--><g id="link_Fluggast_UC7"><path d="M62,646.2293 C62,617.8093 62,584.2793 62,584.2793 C62,584.2793 144.72,584.2793 216.98,584.2793 " fill="none" id="Fluggast-to-UC7" style="stroke:#444444;stroke-width:1.0;"/><polygon fill="#444444" points="222.98,584.2793,213.98,580.2793,217.98,584.2793,213.98,588.2793,222.98,584.2793" style="stroke:#444444;stroke-width:1.0;"/></g><!--link Fluggast to UC8--><g id="link_Fluggast_UC8"><path d="M54,646.2193 C54,608.9693 54,558.5293 54,558.5293 C54,558.5293 689.83,558.5293 907.95,558.5293 " fill="none" id="Fluggast-to-UC8" style="stroke:#444444;stroke-width:1.0;"/><polygon fill="#444444" points="913.95,558.5293,904.95,554.5293,908.95,558.5293,904.95,562.5293,913.95,558.5293" style="stroke:#444444;stroke-width:1.0;"/></g><!--link UC3 to UC5--><g id="link_UC3_UC5"><path d="M638,404.2193 C638,360.6893 638,253.5293 638,253.5293 C638,253.5293 785.24,253.5293 888.2,253.5293 " fill="none" id="UC3-to-UC5" style="stroke:#444444;stroke-width:1.0;stroke-dasharray:7.0,7.0;"/><polygon fill="#444444" points="894.2,253.5293,885.2,249.5293,889.2,253.5293,885.2,257.5293,894.2,253.5293" style="stroke:#444444;stroke-width:1.0;"/><text fill="#000000" font-family="monospace" font-size="13" lengthAdjust="spacing" textLength="64" x="625.75" y="267.5991">&#171;extend&#187;</text></g><!--link UC3 to UC6--><g id="link_UC3_UC6"><path d="M715.55,418.5293 C767.56,418.5293 830.36,418.5293 885.49,418.5293 " fill="none" id="UC3-to-UC6" style="stroke:#444444;stroke-width:1.0;stroke-dasharray:7.0,7.0;"/><polygon fill="#444444" points="891.49,418.5293,882.49,414.5293,886.49,418.5293,882.49,422.5293,891.49,418.5293" style="stroke:#444444;stroke-width:1.0;"/><text fill="#000000" font-family="monospace" font-size="13" lengthAdjust="spacing" textLength="64" x="738.52" y="432.5991">&#171;extend&#187;</text></g><!--link UC3 to UC8--><g id="link_UC3_UC8"><path d="M686.45,436.5293 C756.04,436.5293 876,436.5293 876,436.5293 C876,436.5293 876,530.2793 876,563.0093 " fill="none" id="UC3-to-UC8" style="stroke:#444444;stroke-width:1.0;stroke-dasharray:7.0,7.0;"/><polygon fill="#444444" points="876,569.0093,880,560.0093,876,564.0093,872,560.0093,876,569.0093" style="stroke:#444444;stroke-width:1.0;"/><text fill="#000000" font-family="monospace" font-size="13" lengthAdjust="spacing" textLength="64" x="782.47" y="450.5991">&#171;extend&#187;</text></g><!--link UC4 to UC3--><g id="link_UC4_UC3"><path d="M409.37,422.2793 C456.92,422.2793 507.81,422.2793 552.95,422.2793 " fill="none" id="UC4-to-UC3" style="stroke:#444444;stroke-width:1.0;stroke-dasharray:7.0,7.0;"/><polygon fill="#444444" points="558.95,422.2793,549.95,418.2793,553.95,422.2793,549.95,426.2793,558.95,422.2793" style="stroke:#444444;stroke-width:1.0;"/><text fill="#000000" font-family="monospace" font-size="13" lengthAdjust="spacing" textLength="64" x="419.16" y="436.3491">&#171;extend&#187;</text></g><!--SRC=[TPBBJiCm44Nt_efHMHVHDYqLGfLG1IjWmMF3RXHF4glkEF93vI7-XczWnQu_XXkLo3NWXQNSU-PwF8vNNXCKmwLXfjB342vuGom3rwv2hQN2sk9wBOIcoeCtO5NTU93AHbmP5iAj5BSO8P1KOT3-oh2_nJN1ZM7ZMYn99f1MJFwb9J3MDoOnBgmrcuT6bIicvs2KMqkZZOMZeblfgUWQajSnTa_CkfKGR2GvQc4qFabKYxpgrEc945ZwM3guqg6kqVa1e8EV3o5sTqMkuwG6_QW6y2O4G71Keel6VQj8W_DeFN5N_xWS_GBMHWO7c-r7etjg_4VCRk-1IGhSKY2u2omfEwputKwZT4M0_4ggxhbfYbqgTfwqZkzD3DlFgk8Ud1tcMIoR61RSOVUdAVKKxFQhNC5hiD1rG2x-FBlqFJqNxqBy31Q6mqKtfKmOvy8a5ufScER2B1TESs4kH4o6u-Ek7ixW_9oUupZbOf4Oi_-C-Q4HdMBlJ0wTRm00]--></g></svg>