<?xml version="1.0" encoding="us-ascii" standalone="no"?><svg xmlns="http://www.w3.org/2000/svg" xmlns:xlink="http://www.w3.org/1999/xlink" contentStyleType="text/css" height="914px" preserveAspectRatio="none" style="width:792px;height:914px;background:#FFFFFF;" version="1.1" viewBox="0 0 792 914" width="792px" zoomAndPan="magnify"><defs/><g><text fill="#000000" font-family="monospace" font-size="14" font-weight="bold" lengthAdjust="spacing" textLength="328" x="230.625" y="39.0752">4-Connect&#160;-&#160;Aktivit&#228;tsdiagramm&#160;Spielrunde</text><ellipse cx="448.75" cy="69.2793" fill="#222222" rx="10" ry="10" style="stroke:#222222;stroke-width:1.0;"/><rect fill="#F1F1F1" height="45.668" rx="12.5" ry="12.5" style="stroke:#181818;stroke-width:0.5;" width="219" x="339.25" y="99.2793"/><text fill="#000000" font-family="monospace" font-size="12" lengthAdjust="spacing" textLength="189" x="354.25" y="126.3438">Spielzustand&#160;initialisieren</text><rect fill="#F1F1F1" height="45.668" rx="12.5" ry="12.5" style="stroke:#181818;stroke-width:0.5;" width="163" x="367.25" y="164.9473"/><text fill="#000000" font-family="monospace" font-size="12" lengthAdjust="spacing" textLength="133" x="382.25" y="192.0117">Spielbrett&#160;anzeigen</text><rect fill="#F1F1F1" height="45.668" rx="12.5" ry="12.5" style="stroke:#181818;stroke-width:0.5;" width="212" x="342.75" y="274.6152"/><text fill="#000000" font-family="monospace" font-size="12" lengthAdjust="spacing" textLength="182" x="357.75" y="301.6797">Aktuellen&#160;Spieler&#160;anzeigen</text><rect fill="#F1F1F1" height="45.668" rx="12.5" ry="12.5" style="stroke:#181818;stroke-width:0.5;" width="149" x="374.25" y="340.2832"/><text fill="#000000" font-family="monospace" font-size="12" lengthAdjust="spacing" textLength="119" x="389.25" y="367.3477">Spielzug&#160;eingeben</text><rect fill="#F1F1F1" height="45.668" rx="12.5" ry="12.5" style="stroke:#181818;stroke-width:0.5;" width="163" x="367.25" y="405.9512"/><text fill="#000000" font-family="monospace" font-size="12" lengthAdjust="spacing" textLength="133" x="382.25" y="433.0156">Spielzug&#160;validieren</text><polygon fill="#F1F1F1" points="405.25,471.6191,492.25,471.6191,504.25,483.8003,492.25,495.9814,405.25,495.9814,393.25,483.8003,405.25,471.6191" style="stroke:#181818;stroke-width:0.5;"/><text fill="#000000" font-family="monospace" font-size="11" lengthAdjust="spacing" textLength="77" x="410.25" y="487.6782">Zug&#160;g&#252;ltig?</text><text fill="#000000" font-family="monospace" font-size="11" lengthAdjust="spacing" textLength="14" x="374.25" y="475.4971">ja</text><text fill="#000000" font-family="monospace" font-size="11" lengthAdjust="spacing" textLength="28" x="509.25" y="475.4971">nein</text><rect fill="#F1F1F1" height="45.668" rx="12.5" ry="12.5" style="stroke:#181818;stroke-width:0.5;" width="177" x="141" y="505.9814"/><text fill="#000000" font-family="monospace" font-size="12" lengthAdjust="spacing" textLength="147" x="156" y="533.0459">Spielstein&#160;platzieren</text><rect fill="#F1F1F1" height="45.668" rx="12.5" ry="12.5" style="stroke:#181818;stroke-width:0.5;" width="198" x="130.5" y="586.6494"/><text fill="#000000" font-family="monospace" font-size="12" lengthAdjust="spacing" textLength="168" x="145.5" y="613.7139">Spielbrett&#160;aktualisieren</text><polygon fill="#F1F1F1" points="140.5,652.3174,318.5,652.3174,330.5,664.4985,318.5,676.6797,140.5,676.6797,128.5,664.4985,140.5,652.3174" style="stroke:#181818;stroke-width:0.5;"/><text fill="#000000" font-family="monospace" font-size="11" lengthAdjust="spacing" textLength="168" x="145.5" y="668.3765">Gewinnbedingung&#160;erf&#252;llt?</text><text fill="#000000" font-family="monospace" font-size="11" lengthAdjust="spacing" textLength="14" x="109.5" y="656.1953">ja</text><text fill="#000000" font-family="monospace" font-size="11" lengthAdjust="spacing" textLength="28" x="335.5" y="656.1953">nein</text><rect fill="#F1F1F1" height="45.668" rx="12.5" ry="12.5" style="stroke:#181818;stroke-width:0.5;" width="149" x="11" y="686.6797"/><text fill="#000000" font-family="monospace" font-size="12" lengthAdjust="spacing" textLength="119" x="26" y="713.7441">Gewinner&#160;anzeigen</text><ellipse cx="85.5" cy="778.3477" fill="none" rx="11" ry="11" style="stroke:#222222;stroke-width:1.0;"/><ellipse cx="85.5" cy="778.3477" fill="#222222" rx="6" ry="6" style="stroke:#222222;stroke-width:1.0;"/><polygon fill="#F1F1F1" points="316,686.6797,431,686.6797,443,698.8608,431,711.042,316,711.042,304,698.8608,316,686.6797" style="stroke:#181818;stroke-width:0.5;"/><text fill="#000000" font-family="monospace" font-size="11" lengthAdjust="spacing" textLength="105" x="321" y="702.7388">Spielfeld&#160;voll?</text><text fill="#000000" font-family="monospace" font-size="11" lengthAdjust="spacing" textLength="14" x="285" y="690.5576">ja</text><text fill="#000000" font-family="monospace" font-size="11" lengthAdjust="spacing" textLength="28" x="448" y="690.5576">nein</text><rect fill="#F1F1F1" height="45.668" rx="12.5" ry="12.5" style="stroke:#181818;stroke-width:0.5;" width="184" x="190" y="721.042"/><text fill="#000000" font-family="monospace" font-size="12" lengthAdjust="spacing" textLength="154" x="205" y="748.1064">Unentschieden&#160;anzeigen</text><ellipse cx="282" cy="812.71" fill="none" rx="11" ry="11" style="stroke:#222222;stroke-width:1.0;"/><ellipse cx="282" cy="812.71" fill="#222222" rx="6" ry="6" style="stroke:#222222;stroke-width:1.0;"/><rect fill="#F1F1F1" height="45.668" rx="12.5" ry="12.5" style="stroke:#181818;stroke-width:0.5;" width="142" x="394" y="721.042"/><text fill="#000000" font-family="monospace" font-size="12" lengthAdjust="spacing" textLength="112" x="409" y="748.1064">Spieler&#160;wechseln</text><rect fill="#F1F1F1" height="45.668" rx="12.5" ry="12.5" style="stroke:#181818;stroke-width:0.5;" width="184" x="568.25" y="505.9814"/><text fill="#000000" font-family="monospace" font-size="12" lengthAdjust="spacing" textLength="154" x="583.25" y="533.0459">Fehlermeldung&#160;anzeigen</text><polygon fill="#F1F1F1" points="448.75,833.71,460.75,845.71,448.75,857.71,436.75,845.71,448.75,833.71" style="stroke:#181818;stroke-width:0.5;"/><polygon fill="#F1F1F1" points="448.75,230.6152,460.75,242.6152,448.75,254.6152,436.75,242.6152,448.75,230.6152" style="stroke:#181818;stroke-width:0.5;"/><polygon fill="#F1F1F1" points="373.75,877.71,523.75,877.71,535.75,889.8911,523.75,902.0723,373.75,902.0723,361.75,889.8911,373.75,877.71" style="stroke:#181818;stroke-width:0.5;"/><text fill="#000000" font-family="monospace" font-size="11" lengthAdjust="spacing" textLength="140" x="378.75" y="893.769">Spiel&#160;nicht&#160;beendet?</text><text fill="#000000" font-family="monospace" font-size="11" lengthAdjust="spacing" textLength="14" x="540.75" y="881.5879">ja</text><line style="stroke:#181818;stroke-width:1.0;" x1="448.75" x2="448.75" y1="79.2793" y2="99.2793"/><polygon fill="#181818" points="444.75,89.2793,448.75,99.2793,452.75,89.2793,448.75,93.2793" style="stroke:#181818;stroke-width:1.0;"/><line style="stroke:#181818;stroke-width:1.0;" x1="448.75" x2="448.75" y1="144.9473" y2="164.9473"/><polygon fill="#181818" points="444.75,154.9473,448.75,164.9473,452.75,154.9473,448.75,158.9473" style="stroke:#181818;stroke-width:1.0;"/><line style="stroke:#181818;stroke-width:1.0;" x1="448.75" x2="448.75" y1="320.2832" y2="340.2832"/><polygon fill="#181818" points="444.75,330.2832,448.75,340.2832,452.75,330.2832,448.75,334.2832" style="stroke:#181818;stroke-width:1.0;"/><line style="stroke:#181818;stroke-width:1.0;" x1="448.75" x2="448.75" y1="385.9512" y2="405.9512"/><polygon fill="#181818" points="444.75,395.9512,448.75,405.9512,452.75,395.9512,448.75,399.9512" style="stroke:#181818;stroke-width:1.0;"/><line style="stroke:#181818;stroke-width:1.0;" x1="229.5" x2="229.5" y1="551.6494" y2="586.6494"/><polygon fill="#181818" points="225.5,576.6494,229.5,586.6494,233.5,576.6494,229.5,580.6494" style="stroke:#181818;stroke-width:1.0;"/><line style="stroke:#181818;stroke-width:1.0;" x1="85.5" x2="85.5" y1="732.3477" y2="767.3477"/><polygon fill="#181818" points="81.5,757.3477,85.5,767.3477,89.5,757.3477,85.5,761.3477" style="stroke:#181818;stroke-width:1.0;"/><line style="stroke:#181818;stroke-width:1.0;" x1="282" x2="282" y1="766.71" y2="801.71"/><polygon fill="#181818" points="278,791.71,282,801.71,286,791.71,282,795.71" style="stroke:#181818;stroke-width:1.0;"/><line style="stroke:#181818;stroke-width:1.0;" x1="304" x2="282" y1="698.8608" y2="698.8608"/><line style="stroke:#181818;stroke-width:1.0;" x1="282" x2="282" y1="698.8608" y2="721.042"/><polygon fill="#181818" points="278,711.042,282,721.042,286,711.042,282,715.042" style="stroke:#181818;stroke-width:1.0;"/><line style="stroke:#181818;stroke-width:1.0;" x1="443" x2="465" y1="698.8608" y2="698.8608"/><line style="stroke:#181818;stroke-width:1.0;" x1="465" x2="465" y1="698.8608" y2="721.042"/><polygon fill="#181818" points="461,711.042,465,721.042,469,711.042,465,715.042" style="stroke:#181818;stroke-width:1.0;"/><line style="stroke:#181818;stroke-width:1.0;" x1="465" x2="465" y1="766.71" y2="828.71"/><line style="stroke:#181818;stroke-width:1.0;" x1="465" x2="229.5" y1="828.71" y2="828.71"/><line style="stroke:#181818;stroke-width:1.0;" x1="229.5" x2="229.5" y1="828.71" y2="845.71"/><line style="stroke:#181818;stroke-width:1.0;" x1="229.5" x2="436.75" y1="845.71" y2="845.71"/><polygon fill="#181818" points="426.75,841.71,436.75,845.71,426.75,849.71,430.75,845.71" style="stroke:#181818;stroke-width:1.0;"/><line style="stroke:#181818;stroke-width:1.0;" x1="128.5" x2="85.5" y1="664.4985" y2="664.4985"/><line style="stroke:#181818;stroke-width:1.0;" x1="85.5" x2="85.5" y1="664.4985" y2="686.6797"/><polygon fill="#181818" points="81.5,676.6797,85.5,686.6797,89.5,676.6797,85.5,680.6797" style="stroke:#181818;stroke-width:1.0;"/><line style="stroke:#181818;stroke-width:1.0;" x1="330.5" x2="373.5" y1="664.4985" y2="664.4985"/><line style="stroke:#181818;stroke-width:1.0;" x1="373.5" x2="373.5" y1="664.4985" y2="686.6797"/><polygon fill="#181818" points="369.5,676.6797,373.5,686.6797,377.5,676.6797,373.5,680.6797" style="stroke:#181818;stroke-width:1.0;"/><line style="stroke:#181818;stroke-width:1.0;" x1="229.5" x2="229.5" y1="632.3174" y2="652.3174"/><polygon fill="#181818" points="225.5,642.3174,229.5,652.3174,233.5,642.3174,229.5,646.3174" style="stroke:#181818;stroke-width:1.0;"/><line style="stroke:#181818;stroke-width:1.0;" x1="393.25" x2="229.5" y1="483.8003" y2="483.8003"/><line style="stroke:#181818;stroke-width:1.0;" x1="229.5" x2="229.5" y1="483.8003" y2="505.9814"/><polygon fill="#181818" points="225.5,495.9814,229.5,505.9814,233.5,495.9814,229.5,499.9814" style="stroke:#181818;stroke-width:1.0;"/><line style="stroke:#181818;stroke-width:1.0;" x1="504.25" x2="660.25" y1="483.8003" y2="483.8003"/><line style="stroke:#181818;stroke-width:1.0;" x1="660.25" x2="660.25" y1="483.8003" y2="505.9814"/><polygon fill="#181818" points="656.25,495.9814,660.25,505.9814,664.25,495.9814,660.25,499.9814" style="stroke:#181818;stroke-width:1.0;"/><line style="stroke:#181818;stroke-width:1.0;" x1="660.25" x2="660.25" y1="551.6494" y2="845.71"/><line style="stroke:#181818;stroke-width:1.0;" x1="660.25" x2="460.75" y1="845.71" y2="845.71"/><polygon fill="#181818" points="470.75,841.71,460.75,845.71,470.75,849.71,466.75,845.71" style="stroke:#181818;stroke-width:1.0;"/><line style="stroke:#181818;stroke-width:1.0;" x1="448.75" x2="448.75" y1="451.6191" y2="471.6191"/><polygon fill="#181818" points="444.75,461.6191,448.75,471.6191,452.75,461.6191,448.75,465.6191" style="stroke:#181818;stroke-width:1.0;"/><line style="stroke:#181818;stroke-width:1.0;" x1="448.75" x2="448.75" y1="254.6152" y2="274.6152"/><polygon fill="#181818" points="444.75,264.6152,448.75,274.6152,452.75,264.6152,448.75,268.6152" style="stroke:#181818;stroke-width:1.0;"/><line style="stroke:#181818;stroke-width:1.0;" x1="535.75" x2="766.25" y1="889.8911" y2="889.8911"/><polygon fill="#181818" points="762.25,570.2532,766.25,560.2532,770.25,570.2532,766.25,566.2532" style="stroke:#181818;stroke-width:1.0;"/><line style="stroke:#181818;stroke-width:1.0;" x1="766.25" x2="766.25" y1="242.6152" y2="889.8911"/><line style="stroke:#181818;stroke-width:1.0;" x1="766.25" x2="460.75" y1="242.6152" y2="242.6152"/><polygon fill="#181818" points="470.75,238.6152,460.75,242.6152,470.75,246.6152,466.75,242.6152" style="stroke:#181818;stroke-width:1.0;"/><line style="stroke:#181818;stroke-width:1.0;" x1="448.75" x2="448.75" y1="857.71" y2="877.71"/><polygon fill="#181818" points="444.75,867.71,448.75,877.71,452.75,867.71,448.75,871.71" style="stroke:#181818;stroke-width:1.0;"/><line style="stroke:#181818;stroke-width:1.0;" x1="448.75" x2="448.75" y1="210.6152" y2="230.6152"/><polygon fill="#181818" points="444.75,220.6152,448.75,230.6152,452.75,220.6152,448.75,224.6152" style="stroke:#181818;stroke-width:1.0;"/><!--SRC=[RLAxJiD04Epz5Lk68b8Gq8G28IIee44qT1VVs5voMLjtwqJAz_0PTFanrh53J19NvvdTUPojh05qEtsgHP0hJUbngRnctNrhykpAw5OhUcyO8RRYaMLfoT8uWycZS6tGvrhqpQr0hxNKgN4v_6X8Qe-4Xcvcin4QdImxzFeVsZZlMKgwCnTrKRDildVUjlOgdbXOsGLEZ0Yv7zX5X2evsOBB3iqY6ZZDYERMfKK8aBu1ucZCw46y99Wh5gVesgpyO6K45pJvDBZS_GJbyk6Aj3BboPUxClQmcDJ4g0bEjyFgaHkIMgXHYJtVQRzWmo8BT5VGsYqW5kOKzCp8vFhPapxTaxHkzaTB0fg8XJaiTHxx60M2ftKTmWLbq_uGYAQyOdZZJWr65fTC3bKjsWPvbH3-DY6UY-nuoixtvy-eR7Lb0RiR67iFE_stfKt5zjlsTKWuhvGMi15qjyMfR_GB]--></g></svg>