<?xml version="1.0" encoding="us-ascii" standalone="no"?><svg xmlns="http://www.w3.org/2000/svg" xmlns:xlink="http://www.w3.org/1999/xlink" contentStyleType="text/css" height="868px" preserveAspectRatio="none" style="width:1016px;height:868px;background:#FFFFFF;" version="1.1" viewBox="0 0 1016 868" width="1016px" zoomAndPan="magnify"><defs/><g><text fill="#000000" font-family="monospace" font-size="14" font-weight="bold" lengthAdjust="spacing" textLength="368" x="325" y="29.0752">4-Connect&#160;-&#160;Sequenzdiagramm&#160;Spielzug&#160;ausf&#252;hren</text><rect fill="none" height="536.665" style="stroke:#000000;stroke-width:1.5;" width="898" x="111" y="232.4795"/><rect fill="none" height="332.4609" style="stroke:#000000;stroke-width:1.5;" width="878" x="121" y="351.374"/><rect fill="none" height="190.2041" style="stroke:#000000;stroke-width:1.5;" width="858" x="131" y="486.6309"/><line style="stroke:#181818;stroke-width:0.5;stroke-dasharray:5.0,5.0;" x1="40" x2="40" y1="122.5586" y2="786.1445"/><line style="stroke:#181818;stroke-width:0.5;stroke-dasharray:5.0,5.0;" x1="192" x2="192" y1="122.5586" y2="786.1445"/><line style="stroke:#181818;stroke-width:0.5;stroke-dasharray:5.0,5.0;" x1="464" x2="464" y1="122.5586" y2="786.1445"/><line style="stroke:#181818;stroke-width:0.5;stroke-dasharray:5.0,5.0;" x1="824" x2="824" y1="122.5586" y2="786.1445"/><line style="stroke:#181818;stroke-width:0.5;stroke-dasharray:5.0,5.0;" x1="928" x2="928" y1="122.5586" y2="786.1445"/><text fill="#000000" font-family="monospace" font-size="14" lengthAdjust="spacing" textLength="64" x="5" y="118.3545">Fluggast</text><ellipse cx="40" cy="52.7793" fill="#E2E2F0" rx="8" ry="8" style="stroke:#181818;stroke-width:0.5;"/><path d="M40,60.7793 L40,87.7793 M27,68.7793 L53,68.7793 M40,87.7793 L27,102.7793 M40,87.7793 L53,102.7793 " fill="none" style="stroke:#181818;stroke-width:0.5;"/><text fill="#000000" font-family="monospace" font-size="14" lengthAdjust="spacing" textLength="64" x="5" y="799.2197">Fluggast</text><ellipse cx="40" cy="811.9238" fill="#E2E2F0" rx="8" ry="8" style="stroke:#181818;stroke-width:0.5;"/><path d="M40,819.9238 L40,846.9238 M27,827.9238 L53,827.9238 M40,846.9238 L27,861.9238 M40,846.9238 L53,861.9238 " fill="none" style="stroke:#181818;stroke-width:0.5;"/><text fill="#000000" font-family="monospace" font-size="14" lengthAdjust="spacing" textLength="96" x="141" y="118.3545">Spielansicht</text><path d="M171.5,76.2793 L171.5,100.2793 M171.5,88.2793 L188.5,88.2793 " fill="none" style="stroke:#181818;stroke-width:0.5;"/><ellipse cx="200.5" cy="88.2793" fill="#E2E2F0" rx="12" ry="12" style="stroke:#181818;stroke-width:0.5;"/><text fill="#000000" font-family="monospace" font-size="14" lengthAdjust="spacing" textLength="96" x="141" y="799.2197">Spielansicht</text><path d="M171.5,807.4238 L171.5,831.4238 M171.5,819.4238 L188.5,819.4238 " fill="none" style="stroke:#181818;stroke-width:0.5;"/><ellipse cx="200.5" cy="819.4238" fill="#E2E2F0" rx="12" ry="12" style="stroke:#181818;stroke-width:0.5;"/><text fill="#000000" font-family="monospace" font-size="14" lengthAdjust="spacing" textLength="120" x="401" y="118.3545">SpielController</text><ellipse cx="464" cy="88.2793" fill="#E2E2F0" rx="12" ry="12" style="stroke:#181818;stroke-width:0.5;"/><polygon fill="#181818" points="460,76.2793,466,71.2793,464,76.2793,466,81.2793,460,76.2793" style="stroke:#181818;stroke-width:1.0;"/><text fill="#000000" font-family="monospace" font-size="14" lengthAdjust="spacing" textLength="120" x="401" y="799.2197">SpielController</text><ellipse cx="464" cy="819.4238" fill="#E2E2F0" rx="12" ry="12" style="stroke:#181818;stroke-width:0.5;"/><polygon fill="#181818" points="460,807.4238,466,802.4238,464,807.4238,466,812.4238,460,807.4238" style="stroke:#181818;stroke-width:1.0;"/><text fill="#000000" font-family="monospace" font-size="14" lengthAdjust="spacing" textLength="80" x="781" y="118.3545">Spielbrett</text><ellipse cx="824" cy="88.2793" fill="#E2E2F0" rx="12" ry="12" style="stroke:#181818;stroke-width:0.5;"/><line style="stroke:#181818;stroke-width:0.5;" x1="812" x2="836" y1="102.2793" y2="102.2793"/><text fill="#000000" font-family="monospace" font-size="14" lengthAdjust="spacing" textLength="80" x="781" y="799.2197">Spielbrett</text><ellipse cx="824" cy="819.4238" fill="#E2E2F0" rx="12" ry="12" style="stroke:#181818;stroke-width:0.5;"/><line style="stroke:#181818;stroke-width:0.5;" x1="812" x2="836" y1="833.4238" y2="833.4238"/><text fill="#000000" font-family="monospace" font-size="14" lengthAdjust="spacing" textLength="96" x="877" y="118.3545">Spielzustand</text><ellipse cx="928" cy="88.2793" fill="#E2E2F0" rx="12" ry="12" style="stroke:#181818;stroke-width:0.5;"/><line style="stroke:#181818;stroke-width:0.5;" x1="916" x2="940" y1="102.2793" y2="102.2793"/><text fill="#000000" font-family="monospace" font-size="14" lengthAdjust="spacing" textLength="96" x="877" y="799.2197">Spielzustand</text><ellipse cx="928" cy="819.4238" fill="#E2E2F0" rx="12" ry="12" style="stroke:#181818;stroke-width:0.5;"/><line style="stroke:#181818;stroke-width:0.5;" x1="916" x2="940" y1="833.4238" y2="833.4238"/><polygon fill="#181818" points="180,151.5322,190,155.5322,180,159.5322,184,155.5322" style="stroke:#181818;stroke-width:1.0;"/><line style="stroke:#181818;stroke-width:1.0;" x1="40" x2="186" y1="155.5322" y2="155.5322"/><text fill="#000000" font-family="monospace" font-size="13" lengthAdjust="spacing" textLength="128" x="47" y="149.6284">Spalte&#160;ausw&#228;hlen</text><polygon fill="#181818" points="452,182.5059,462,186.5059,452,190.5059,456,186.5059" style="stroke:#181818;stroke-width:1.0;"/><line style="stroke:#181818;stroke-width:1.0;" x1="192" x2="458" y1="186.5059" y2="186.5059"/><text fill="#000000" font-family="monospace" font-size="13" lengthAdjust="spacing" textLength="232" x="199" y="180.6021">handleColumnSelection(spalte)</text><polygon fill="#181818" points="812,213.4795,822,217.4795,812,221.4795,816,217.4795" style="stroke:#181818;stroke-width:1.0;"/><line style="stroke:#181818;stroke-width:1.0;" x1="464" x2="818" y1="217.4795" y2="217.4795"/><text fill="#000000" font-family="monospace" font-size="13" lengthAdjust="spacing" textLength="168" x="471" y="211.5757">istZugGueltig(spalte)</text><path d="M111,232.4795 L180,232.4795 L180,241.4531 L170,251.4531 L111,251.4531 L111,232.4795 " fill="#EEEEEE" style="stroke:#000000;stroke-width:1.5;"/><rect fill="none" height="536.665" style="stroke:#000000;stroke-width:1.5;" width="898" x="111" y="232.4795"/><text fill="#000000" font-family="monospace" font-size="13" font-weight="bold" lengthAdjust="spacing" textLength="24" x="126" y="246.5493">alt</text><text fill="#000000" font-family="monospace" font-size="11" font-weight="bold" lengthAdjust="spacing" textLength="84" x="195" y="245.5386">[Zug&#160;g&#252;ltig]</text><polygon fill="#181818" points="475,270.4268,465,274.4268,475,278.4268,471,274.4268" style="stroke:#181818;stroke-width:1.0;"/><line style="stroke:#181818;stroke-width:1.0;stroke-dasharray:2.0,2.0;" x1="469" x2="823" y1="274.4268" y2="274.4268"/><text fill="#000000" font-family="monospace" font-size="13" lengthAdjust="spacing" textLength="32" x="481" y="268.5229">true</text><polygon fill="#181818" points="812,301.4004,822,305.4004,812,309.4004,816,305.4004" style="stroke:#181818;stroke-width:1.0;"/><line style="stroke:#181818;stroke-width:1.0;" x1="464" x2="818" y1="305.4004" y2="305.4004"/><text fill="#000000" font-family="monospace" font-size="13" lengthAdjust="spacing" textLength="336" x="471" y="299.4966">spielsteinSetzen(spalte,&#160;aktuellerSpieler)</text><polygon fill="#181818" points="916,332.374,926,336.374,916,340.374,920,336.374" style="stroke:#181818;stroke-width:1.0;"/><line style="stroke:#181818;stroke-width:1.0;" x1="464" x2="922" y1="336.374" y2="336.374"/><text fill="#000000" font-family="monospace" font-size="13" lengthAdjust="spacing" textLength="152" x="471" y="330.4702">pruefeGewinn(Board)</text><path d="M121,351.374 L190,351.374 L190,360.3477 L180,370.3477 L121,370.3477 L121,351.374 " fill="#EEEEEE" style="stroke:#000000;stroke-width:1.5;"/><rect fill="none" height="332.4609" style="stroke:#000000;stroke-width:1.5;" width="878" x="121" y="351.374"/><text fill="#000000" font-family="monospace" font-size="13" font-weight="bold" lengthAdjust="spacing" textLength="24" x="136" y="365.4438">alt</text><text fill="#000000" font-family="monospace" font-size="11" font-weight="bold" lengthAdjust="spacing" textLength="56" x="205" y="364.4331">[Gewinn]</text><polygon fill="#181818" points="475,389.3213,465,393.3213,475,397.3213,471,393.3213" style="stroke:#181818;stroke-width:1.0;"/><line style="stroke:#181818;stroke-width:1.0;stroke-dasharray:2.0,2.0;" x1="469" x2="927" y1="393.3213" y2="393.3213"/><text fill="#000000" font-family="monospace" font-size="13" lengthAdjust="spacing" textLength="128" x="481" y="387.4175">Gewinner&#160;erkannt</text><polygon fill="#181818" points="203,420.2949,193,424.2949,203,428.2949,199,424.2949" style="stroke:#181818;stroke-width:1.0;"/><line style="stroke:#181818;stroke-width:1.0;" x1="197" x2="463" y1="424.2949" y2="424.2949"/><text fill="#000000" font-family="monospace" font-size="13" lengthAdjust="spacing" textLength="248" x="209" y="418.3911">zeigeGewinner(aktuellerSpieler)</text><line style="stroke:#000000;stroke-width:1.0;stroke-dasharray:2.0,2.0;" x1="121" x2="999" y1="433.2949" y2="433.2949"/><text fill="#000000" font-family="monospace" font-size="11" font-weight="bold" lengthAdjust="spacing" textLength="91" x="126" y="444.354">[Kein&#160;Gewinn]</text><polygon fill="#181818" points="916,467.6309,926,471.6309,916,475.6309,920,471.6309" style="stroke:#181818;stroke-width:1.0;"/><line style="stroke:#181818;stroke-width:1.0;" x1="464" x2="922" y1="471.6309" y2="471.6309"/><text fill="#000000" font-family="monospace" font-size="13" lengthAdjust="spacing" textLength="208" x="471" y="465.7271">pruefeUnentschieden(Board)</text><path d="M131,486.6309 L200,486.6309 L200,495.6045 L190,505.6045 L131,505.6045 L131,486.6309 " fill="#EEEEEE" style="stroke:#000000;stroke-width:1.5;"/><rect fill="none" height="190.2041" style="stroke:#000000;stroke-width:1.5;" width="858" x="131" y="486.6309"/><text fill="#000000" font-family="monospace" font-size="13" font-weight="bold" lengthAdjust="spacing" textLength="24" x="146" y="500.7007">alt</text><text fill="#000000" font-family="monospace" font-size="11" font-weight="bold" lengthAdjust="spacing" textLength="105" x="215" y="499.6899">[Unentschieden]</text><polygon fill="#181818" points="475,524.5781,465,528.5781,475,532.5781,471,528.5781" style="stroke:#181818;stroke-width:1.0;"/><line style="stroke:#181818;stroke-width:1.0;stroke-dasharray:2.0,2.0;" x1="469" x2="927" y1="528.5781" y2="528.5781"/><text fill="#000000" font-family="monospace" font-size="13" lengthAdjust="spacing" textLength="112" x="481" y="522.6743">Spielfeld&#160;voll</text><polygon fill="#181818" points="203,555.5518,193,559.5518,203,563.5518,199,559.5518" style="stroke:#181818;stroke-width:1.0;"/><line style="stroke:#181818;stroke-width:1.0;" x1="197" x2="463" y1="559.5518" y2="559.5518"/><text fill="#000000" font-family="monospace" font-size="13" lengthAdjust="spacing" textLength="160" x="209" y="553.6479">zeigeUnentschieden()</text><line style="stroke:#000000;stroke-width:1.0;stroke-dasharray:2.0,2.0;" x1="131" x2="989" y1="568.5518" y2="568.5518"/><text fill="#000000" font-family="monospace" font-size="11" font-weight="bold" lengthAdjust="spacing" textLength="140" x="136" y="579.6108">[Spiel&#160;l&#228;uft&#160;weiter]</text><polygon fill="#181818" points="916,602.8877,926,606.8877,916,610.8877,920,606.8877" style="stroke:#181818;stroke-width:1.0;"/><line style="stroke:#181818;stroke-width:1.0;" x1="464" x2="922" y1="606.8877" y2="606.8877"/><text fill="#000000" font-family="monospace" font-size="13" lengthAdjust="spacing" textLength="136" x="471" y="600.9839">spielerWechseln()</text><polygon fill="#181818" points="203,633.8613,193,637.8613,203,641.8613,199,637.8613" style="stroke:#181818;stroke-width:1.0;"/><line style="stroke:#181818;stroke-width:1.0;" x1="197" x2="463" y1="637.8613" y2="637.8613"/><text fill="#000000" font-family="monospace" font-size="13" lengthAdjust="spacing" textLength="192" x="209" y="631.9575">aktualisiereSpielbrett()</text><polygon fill="#181818" points="203,664.835,193,668.835,203,672.835,199,668.835" style="stroke:#181818;stroke-width:1.0;"/><line style="stroke:#181818;stroke-width:1.0;" x1="197" x2="463" y1="668.835" y2="668.835"/><text fill="#000000" font-family="monospace" font-size="13" lengthAdjust="spacing" textLength="184" x="209" y="662.9312">zeigeAktuellenSpieler()</text><line style="stroke:#000000;stroke-width:1.0;stroke-dasharray:2.0,2.0;" x1="111" x2="1009" y1="691.835" y2="691.835"/><text fill="#000000" font-family="monospace" font-size="11" font-weight="bold" lengthAdjust="spacing" textLength="98" x="116" y="702.894">[Zug&#160;ung&#252;ltig]</text><polygon fill="#181818" points="475,726.1709,465,730.1709,475,734.1709,471,730.1709" style="stroke:#181818;stroke-width:1.0;"/><line style="stroke:#181818;stroke-width:1.0;stroke-dasharray:2.0,2.0;" x1="469" x2="823" y1="730.1709" y2="730.1709"/><text fill="#000000" font-family="monospace" font-size="13" lengthAdjust="spacing" textLength="40" x="481" y="724.2671">false</text><polygon fill="#181818" points="203,757.1445,193,761.1445,203,765.1445,199,761.1445" style="stroke:#181818;stroke-width:1.0;"/><line style="stroke:#181818;stroke-width:1.0;" x1="197" x2="463" y1="761.1445" y2="761.1445"/><text fill="#000000" font-family="monospace" font-size="13" lengthAdjust="spacing" textLength="160" x="209" y="755.2407">zeigeFehlermeldung()</text><!--SRC=[XLF1Yjim4BthAuQS4cXW3osK7WhTGFPGMXP2M-XjrXxR8l8ebKPDc-_PpzXRVgnZsTuakqaAmObcthptvbaHAuxWxNpXcQaGcCEAVYNYNMcn3jYsiDfOShjK0wPOxP-QG6nCN5lUeFQXf0gJawLd-OejmHVFFcwmeF88T8z1R64to7AFPMcvXlStH_rR_sUilxin1Wln0IPBb-eQeqm08um7y-0JbnZ-mYGxGuwsQ7hCTqjRKwYJuDtGNlGdHo4Z3aT3B5P6beT0qdFSUWpbQNENeY2NkRqI539cT0FpZraLFcXEw8IwbBRxnyPfIhcXW8EemXfbShJmBhMy8gUPMy_Jc8TdvWYgWzcBpjWeFrDzbyY9hP-nHhz0wr3ldxg6WM5W_b9JGYBjdYUFtOfHoAeTsT7evGtWMbHHqJa42hDN53aCfTWeVqLtjBNCqypROVNJEUpBUe01_yfUZz2V5DR8B1bxgZHal2DRqmYVdZEegn1yrcMETQ-v_iRwhcFHM2hfsNoUwioVT7FruXRPH4MkXDzQ6h2NjpZLdMLyDfzvmEqVKoMm9IjwLy-HZMl4VlaVL3IHt4XrGRgB39sDbW8TBlxrcMptqv0r3rcFZhaq_TDayzrrJFpV2rcXWiqrlINfNoYq6gVIgLWdyGy0]--></g></svg>