<?xml version="1.0" encoding="us-ascii" standalone="no"?><svg xmlns="http://www.w3.org/2000/svg" xmlns:xlink="http://www.w3.org/1999/xlink" contentStyleType="text/css" height="1517px" preserveAspectRatio="none" style="width:1520px;height:1517px;background:#FFFFFF;" version="1.1" viewBox="0 0 1520 1517" width="1520px" zoomAndPan="magnify"><defs/><g><text fill="#000000" font-family="monospace" font-size="14" font-weight="bold" lengthAdjust="spacing" textLength="368" x="577" y="29.0752">4-Connect&#160;-&#160;Sequenzdiagramm&#160;Spielzug&#160;ausf&#252;hren</text><rect fill="none" height="940.9219" style="stroke:#000000;stroke-width:1.5;" width="1346" x="167" y="426.4531"/><rect fill="none" height="638.3291" style="stroke:#000000;stroke-width:1.5;" width="1326" x="177" y="697.0459"/><rect fill="none" height="263.5928" style="stroke:#000000;stroke-width:1.5;" width="1306" x="187" y="1039.7822"/><line style="stroke:#666666;stroke-width:0.5;stroke-dasharray:5.0,5.0;" x1="96" x2="96" y1="122.5586" y2="1434.375"/><line style="stroke:#666666;stroke-width:0.5;stroke-dasharray:5.0,5.0;" x1="356" x2="356" y1="122.5586" y2="1434.375"/><line style="stroke:#666666;stroke-width:0.5;stroke-dasharray:5.0,5.0;" x1="644" x2="644" y1="122.5586" y2="1434.375"/><line style="stroke:#666666;stroke-width:0.5;stroke-dasharray:5.0,5.0;" x1="900" x2="900" y1="122.5586" y2="1434.375"/><line style="stroke:#666666;stroke-width:0.5;stroke-dasharray:5.0,5.0;" x1="1184" x2="1184" y1="122.5586" y2="1434.375"/><line style="stroke:#666666;stroke-width:0.5;stroke-dasharray:5.0,5.0;" x1="1412" x2="1412" y1="122.5586" y2="1434.375"/><text fill="#000000" font-family="monospace" font-size="14" lengthAdjust="spacing" textLength="64" x="61" y="118.3545">Fluggast</text><ellipse cx="96" cy="52.7793" fill="#E2E2F0" rx="8" ry="8" style="stroke:#181818;stroke-width:0.5;"/><path d="M96,60.7793 L96,87.7793 M83,68.7793 L109,68.7793 M96,87.7793 L83,102.7793 M96,87.7793 L109,102.7793 " fill="none" style="stroke:#181818;stroke-width:0.5;"/><text fill="#000000" font-family="monospace" font-size="14" lengthAdjust="spacing" textLength="64" x="61" y="1447.4502">Fluggast</text><ellipse cx="96" cy="1460.1543" fill="#E2E2F0" rx="8" ry="8" style="stroke:#181818;stroke-width:0.5;"/><path d="M96,1468.1543 L96,1495.1543 M83,1476.1543 L109,1476.1543 M96,1495.1543 L83,1510.1543 M96,1495.1543 L109,1510.1543 " fill="none" style="stroke:#181818;stroke-width:0.5;"/><text fill="#000000" font-family="monospace" font-size="14" lengthAdjust="spacing" textLength="200" x="253" y="118.3545">FourConnectGameController</text><path d="M335.5,76.2793 L335.5,100.2793 M335.5,88.2793 L352.5,88.2793 " fill="none" style="stroke:#181818;stroke-width:0.5;"/><ellipse cx="364.5" cy="88.2793" fill="#E2E2F0" rx="12" ry="12" style="stroke:#181818;stroke-width:0.5;"/><text fill="#000000" font-family="monospace" font-size="14" lengthAdjust="spacing" textLength="200" x="253" y="1447.4502">FourConnectGameController</text><path d="M335.5,1455.6543 L335.5,1479.6543 M335.5,1467.6543 L352.5,1467.6543 " fill="none" style="stroke:#181818;stroke-width:0.5;"/><ellipse cx="364.5" cy="1467.6543" fill="#E2E2F0" rx="12" ry="12" style="stroke:#181818;stroke-width:0.5;"/><text fill="#000000" font-family="monospace" font-size="14" lengthAdjust="spacing" textLength="120" x="581" y="118.3545">FourConnectGame</text><ellipse cx="644" cy="88.2793" fill="#E2E2F0" rx="12" ry="12" style="stroke:#181818;stroke-width:0.5;"/><polygon fill="#181818" points="640,76.2793,646,71.2793,644,76.2793,646,81.2793,640,76.2793" style="stroke:#181818;stroke-width:1.0;"/><text fill="#000000" font-family="monospace" font-size="14" lengthAdjust="spacing" textLength="120" x="581" y="1447.4502">FourConnectGame</text><ellipse cx="644" cy="1467.6543" fill="#E2E2F0" rx="12" ry="12" style="stroke:#181818;stroke-width:0.5;"/><polygon fill="#181818" points="640,1455.6543,646,1450.6543,644,1455.6543,646,1460.6543,640,1455.6543" style="stroke:#181818;stroke-width:1.0;"/><text fill="#000000" font-family="monospace" font-size="14" lengthAdjust="spacing" textLength="136" x="829" y="118.3545">FourConnectPlayer</text><ellipse cx="900" cy="88.2793" fill="#E2E2F0" rx="12" ry="12" style="stroke:#181818;stroke-width:0.5;"/><line style="stroke:#181818;stroke-width:0.5;" x1="888" x2="912" y1="102.2793" y2="102.2793"/><text fill="#000000" font-family="monospace" font-size="14" lengthAdjust="spacing" textLength="136" x="829" y="1447.4502">FourConnectPlayer</text><ellipse cx="900" cy="1467.6543" fill="#E2E2F0" rx="12" ry="12" style="stroke:#181818;stroke-width:0.5;"/><line style="stroke:#181818;stroke-width:0.5;" x1="888" x2="912" y1="1481.6543" y2="1481.6543"/><text fill="#000000" font-family="monospace" font-size="14" lengthAdjust="spacing" textLength="176" x="1093" y="118.3545">FourConnectBotStrategy</text><ellipse cx="1184" cy="88.2793" fill="#E2E2F0" rx="12" ry="12" style="stroke:#181818;stroke-width:0.5;"/><polygon fill="#181818" points="1180,76.2793,1186,71.2793,1184,76.2793,1186,81.2793,1180,76.2793" style="stroke:#181818;stroke-width:1.0;"/><text fill="#000000" font-family="monospace" font-size="14" lengthAdjust="spacing" textLength="176" x="1093" y="1447.4502">FourConnectBotStrategy</text><ellipse cx="1184" cy="1467.6543" fill="#E2E2F0" rx="12" ry="12" style="stroke:#181818;stroke-width:0.5;"/><polygon fill="#181818" points="1180,1455.6543,1186,1450.6543,1184,1455.6543,1186,1460.6543,1180,1455.6543" style="stroke:#181818;stroke-width:1.0;"/><text fill="#000000" font-family="monospace" font-size="14" lengthAdjust="spacing" textLength="24" x="1397" y="118.3545">App</text><ellipse cx="1412" cy="88.2793" fill="#E2E2F0" rx="12" ry="12" style="stroke:#181818;stroke-width:0.5;"/><polygon fill="#181818" points="1408,76.2793,1414,71.2793,1412,76.2793,1414,81.2793,1408,76.2793" style="stroke:#181818;stroke-width:1.0;"/><text fill="#000000" font-family="monospace" font-size="14" lengthAdjust="spacing" textLength="24" x="1397" y="1447.4502">App</text><ellipse cx="1412" cy="1467.6543" fill="#E2E2F0" rx="12" ry="12" style="stroke:#181818;stroke-width:0.5;"/><polygon fill="#181818" points="1408,1455.6543,1414,1450.6543,1412,1455.6543,1414,1460.6543,1408,1455.6543" style="stroke:#181818;stroke-width:1.0;"/><polygon fill="#181818" points="344,276.5322,354,280.5322,344,284.5322,348,280.5322" style="stroke:#181818;stroke-width:1.0;"/><line style="stroke:#181818;stroke-width:1.0;" x1="96" x2="350" y1="280.5322" y2="280.5322"/><text fill="#000000" font-family="monospace" font-size="13" lengthAdjust="spacing" textLength="200" x="103" y="274.6284">handleColumnInput(column)</text><polygon fill="#181818" points="632,307.5059,642,311.5059,632,315.5059,636,311.5059" style="stroke:#181818;stroke-width:1.0;"/><line style="stroke:#181818;stroke-width:1.0;" x1="356" x2="638" y1="311.5059" y2="311.5059"/><text fill="#000000" font-family="monospace" font-size="13" lengthAdjust="spacing" textLength="128" x="363" y="305.6021">dropDisc(column)</text><polygon fill="#181818" points="367,338.4795,357,342.4795,367,346.4795,363,342.4795" style="stroke:#181818;stroke-width:1.0;"/><line style="stroke:#181818;stroke-width:1.0;stroke-dasharray:2.0,2.0;" x1="361" x2="643" y1="342.4795" y2="342.4795"/><text fill="#000000" font-family="monospace" font-size="13" lengthAdjust="spacing" textLength="72" x="373" y="336.5757">GameState</text><line style="stroke:#181818;stroke-width:1.0;" x1="356" x2="398" y1="373.4531" y2="373.4531"/><line style="stroke:#181818;stroke-width:1.0;" x1="398" x2="398" y1="373.4531" y2="386.4531"/><line style="stroke:#181818;stroke-width:1.0;" x1="357" x2="398" y1="386.4531" y2="386.4531"/><polygon fill="#181818" points="367,382.4531,357,386.4531,367,390.4531,363,386.4531" style="stroke:#181818;stroke-width:1.0;"/><text fill="#000000" font-family="monospace" font-size="13" lengthAdjust="spacing" textLength="104" x="363" y="367.5493">updateBoard()</text><path d="M167,426.4531 L236,426.4531 L236,435.4268 L226,445.4268 L167,445.4268 L167,426.4531 " fill="#EEEEEE" style="stroke:#000000;stroke-width:1.5;"/><rect fill="none" height="940.9219" style="stroke:#000000;stroke-width:1.5;" width="1346" x="167" y="426.4531"/><text fill="#000000" font-family="monospace" font-size="13" font-weight="bold" lengthAdjust="spacing" textLength="24" x="182" y="440.5229">alt</text><text fill="#000000" font-family="monospace" font-size="11" font-weight="bold" lengthAdjust="spacing" textLength="126" x="251" y="439.5122">[GameState&#160;==&#160;Won]</text><polygon fill="#181818" points="1400,464.4004,1410,468.4004,1400,472.4004,1404,468.4004" style="stroke:#181818;stroke-width:1.0;"/><line style="stroke:#181818;stroke-width:1.0;" x1="356" x2="1406" y1="468.4004" y2="468.4004"/><text fill="#000000" font-family="monospace" font-size="13" lengthAdjust="spacing" textLength="160" x="363" y="462.4966">setRoot("EndScreen")</text><line style="stroke:#000000;stroke-width:1.0;stroke-dasharray:2.0,2.0;" x1="167" x2="1513" y1="502.4004" y2="502.4004"/><text fill="#000000" font-family="monospace" font-size="11" font-weight="bold" lengthAdjust="spacing" textLength="133" x="172" y="513.4595">[GameState&#160;==&#160;Tied]</text><polygon fill="#181818" points="1400,536.7363,1410,540.7363,1400,544.7363,1404,540.7363" style="stroke:#181818;stroke-width:1.0;"/><line style="stroke:#181818;stroke-width:1.0;" x1="356" x2="1406" y1="540.7363" y2="540.7363"/><text fill="#000000" font-family="monospace" font-size="13" lengthAdjust="spacing" textLength="160" x="363" y="534.8325">setRoot("EndScreen")</text><line style="stroke:#000000;stroke-width:1.0;stroke-dasharray:2.0,2.0;" x1="167" x2="1513" y1="574.7363" y2="574.7363"/><text fill="#000000" font-family="monospace" font-size="11" font-weight="bold" lengthAdjust="spacing" textLength="154" x="172" y="585.7954">[GameState&#160;==&#160;Running]</text><polygon fill="#181818" points="632,609.0723,642,613.0723,632,617.0723,636,613.0723" style="stroke:#181818;stroke-width:1.0;"/><line style="stroke:#181818;stroke-width:1.0;" x1="356" x2="638" y1="613.0723" y2="613.0723"/><text fill="#000000" font-family="monospace" font-size="13" lengthAdjust="spacing" textLength="96" x="363" y="607.1685">playerTurn()</text><line style="stroke:#181818;stroke-width:1.0;" x1="356" x2="398" y1="644.0459" y2="644.0459"/><line style="stroke:#181818;stroke-width:1.0;" x1="398" x2="398" y1="644.0459" y2="657.0459"/><line style="stroke:#181818;stroke-width:1.0;" x1="357" x2="398" y1="657.0459" y2="657.0459"/><polygon fill="#181818" points="367,653.0459,357,657.0459,367,661.0459,363,657.0459" style="stroke:#181818;stroke-width:1.0;"/><text fill="#000000" font-family="monospace" font-size="13" lengthAdjust="spacing" textLength="112" x="363" y="638.1421">updateStatus()</text><path d="M177,697.0459 L246,697.0459 L246,706.0195 L236,716.0195 L177,716.0195 L177,697.0459 " fill="#EEEEEE" style="stroke:#000000;stroke-width:1.5;"/><rect fill="none" height="638.3291" style="stroke:#000000;stroke-width:1.5;" width="1326" x="177" y="697.0459"/><text fill="#000000" font-family="monospace" font-size="13" font-weight="bold" lengthAdjust="spacing" textLength="24" x="192" y="711.1157">alt</text><text fill="#000000" font-family="monospace" font-size="11" font-weight="bold" lengthAdjust="spacing" textLength="133" x="261" y="710.105">[Bot-Spieler&#160;aktiv]</text><polygon fill="#181818" points="632,734.9932,642,738.9932,632,742.9932,636,738.9932" style="stroke:#181818;stroke-width:1.0;"/><line style="stroke:#181818;stroke-width:1.0;" x1="356" x2="638" y1="738.9932" y2="738.9932"/><text fill="#000000" font-family="monospace" font-size="13" lengthAdjust="spacing" textLength="96" x="363" y="733.0894">getPlayers()</text><polygon fill="#181818" points="367,765.9668,357,769.9668,367,773.9668,363,769.9668" style="stroke:#181818;stroke-width:1.0;"/><line style="stroke:#181818;stroke-width:1.0;stroke-dasharray:2.0,2.0;" x1="361" x2="643" y1="769.9668" y2="769.9668"/><text fill="#000000" font-family="monospace" font-size="13" lengthAdjust="spacing" textLength="152" x="373" y="764.063">FourConnectPlayer[]</text><polygon fill="#181818" points="888,796.9404,898,800.9404,888,804.9404,892,800.9404" style="stroke:#181818;stroke-width:1.0;"/><line style="stroke:#181818;stroke-width:1.0;" x1="356" x2="894" y1="800.9404" y2="800.9404"/><text fill="#000000" font-family="monospace" font-size="13" lengthAdjust="spacing" textLength="104" x="363" y="795.0366">getStrategy()</text><polygon fill="#181818" points="367,827.9141,357,831.9141,367,835.9141,363,831.9141" style="stroke:#181818;stroke-width:1.0;"/><line style="stroke:#181818;stroke-width:1.0;stroke-dasharray:2.0,2.0;" x1="361" x2="899" y1="831.9141" y2="831.9141"/><text fill="#000000" font-family="monospace" font-size="13" lengthAdjust="spacing" textLength="64" x="373" y="826.0103">strategy</text><polygon fill="#181818" points="1172,858.8877,1182,862.8877,1172,866.8877,1176,862.8877" style="stroke:#181818;stroke-width:1.0;"/><line style="stroke:#181818;stroke-width:1.0;" x1="356" x2="1178" y1="862.8877" y2="862.8877"/><text fill="#000000" font-family="monospace" font-size="13" lengthAdjust="spacing" textLength="136" x="363" y="856.9839">chooseMove(board)</text><polygon fill="#181818" points="655,889.8613,645,893.8613,655,897.8613,651,893.8613" style="stroke:#181818;stroke-width:1.0;"/><line style="stroke:#181818;stroke-width:1.0;" x1="649" x2="1183" y1="893.8613" y2="893.8613"/><text fill="#000000" font-family="monospace" font-size="13" lengthAdjust="spacing" textLength="152" x="661" y="887.9575">dropDisc(botColumn)</text><polygon fill="#181818" points="1172,920.835,1182,924.835,1172,928.835,1176,924.835" style="stroke:#181818;stroke-width:1.0;"/><line style="stroke:#181818;stroke-width:1.0;stroke-dasharray:2.0,2.0;" x1="644" x2="1178" y1="924.835" y2="924.835"/><text fill="#000000" font-family="monospace" font-size="13" lengthAdjust="spacing" textLength="72" x="651" y="918.9312">GameState</text><polygon fill="#181818" points="367,951.8086,357,955.8086,367,959.8086,363,955.8086" style="stroke:#181818;stroke-width:1.0;"/><line style="stroke:#181818;stroke-width:1.0;stroke-dasharray:2.0,2.0;" x1="361" x2="1183" y1="955.8086" y2="955.8086"/><text fill="#000000" font-family="monospace" font-size="13" lengthAdjust="spacing" textLength="72" x="373" y="949.9048">GameState</text><line style="stroke:#181818;stroke-width:1.0;" x1="356" x2="398" y1="986.7822" y2="986.7822"/><line style="stroke:#181818;stroke-width:1.0;" x1="398" x2="398" y1="986.7822" y2="999.7822"/><line style="stroke:#181818;stroke-width:1.0;" x1="357" x2="398" y1="999.7822" y2="999.7822"/><polygon fill="#181818" points="367,995.7822,357,999.7822,367,1003.7822,363,999.7822" style="stroke:#181818;stroke-width:1.0;"/><text fill="#000000" font-family="monospace" font-size="13" lengthAdjust="spacing" textLength="104" x="363" y="980.8784">updateBoard()</text><path d="M187,1039.7822 L256,1039.7822 L256,1048.7559 L246,1058.7559 L187,1058.7559 L187,1039.7822 " fill="#EEEEEE" style="stroke:#000000;stroke-width:1.5;"/><rect fill="none" height="263.5928" style="stroke:#000000;stroke-width:1.5;" width="1306" x="187" y="1039.7822"/><text fill="#000000" font-family="monospace" font-size="13" font-weight="bold" lengthAdjust="spacing" textLength="24" x="202" y="1053.8521">alt</text><text fill="#000000" font-family="monospace" font-size="11" font-weight="bold" lengthAdjust="spacing" textLength="126" x="271" y="1052.8413">[GameState&#160;==&#160;Won]</text><polygon fill="#181818" points="1400,1077.7295,1410,1081.7295,1400,1085.7295,1404,1081.7295" style="stroke:#181818;stroke-width:1.0;"/><line style="stroke:#181818;stroke-width:1.0;" x1="356" x2="1406" y1="1081.7295" y2="1081.7295"/><text fill="#000000" font-family="monospace" font-size="13" lengthAdjust="spacing" textLength="160" x="363" y="1075.8257">setRoot("EndScreen")</text><line style="stroke:#000000;stroke-width:1.0;stroke-dasharray:2.0,2.0;" x1="187" x2="1493" y1="1115.7295" y2="1115.7295"/><text fill="#000000" font-family="monospace" font-size="11" font-weight="bold" lengthAdjust="spacing" textLength="133" x="192" y="1126.7886">[GameState&#160;==&#160;Tied]</text><polygon fill="#181818" points="1400,1150.0654,1410,1154.0654,1400,1158.0654,1404,1154.0654" style="stroke:#181818;stroke-width:1.0;"/><line style="stroke:#181818;stroke-width:1.0;" x1="356" x2="1406" y1="1154.0654" y2="1154.0654"/><text fill="#000000" font-family="monospace" font-size="13" lengthAdjust="spacing" textLength="160" x="363" y="1148.1616">setRoot("EndScreen")</text><line style="stroke:#000000;stroke-width:1.0;stroke-dasharray:2.0,2.0;" x1="187" x2="1493" y1="1188.0654" y2="1188.0654"/><text fill="#000000" font-family="monospace" font-size="11" font-weight="bold" lengthAdjust="spacing" textLength="154" x="192" y="1199.1245">[GameState&#160;==&#160;Running]</text><polygon fill="#181818" points="632,1222.4014,642,1226.4014,632,1230.4014,636,1226.4014" style="stroke:#181818;stroke-width:1.0;"/><line style="stroke:#181818;stroke-width:1.0;" x1="356" x2="638" y1="1226.4014" y2="1226.4014"/><text fill="#000000" font-family="monospace" font-size="13" lengthAdjust="spacing" textLength="96" x="363" y="1220.4976">playerTurn()</text><line style="stroke:#181818;stroke-width:1.0;" x1="356" x2="398" y1="1257.375" y2="1257.375"/><line style="stroke:#181818;stroke-width:1.0;" x1="398" x2="398" y1="1257.375" y2="1270.375"/><line style="stroke:#181818;stroke-width:1.0;" x1="357" x2="398" y1="1270.375" y2="1270.375"/><polygon fill="#181818" points="367,1266.375,357,1270.375,367,1274.375,363,1270.375" style="stroke:#181818;stroke-width:1.0;"/><text fill="#000000" font-family="monospace" font-size="13" lengthAdjust="spacing" textLength="112" x="363" y="1251.4712">updateStatus()</text><!--SRC=[hPJFYjim4CRlUeeXlMGFWIsqfGIsi4cxfT0j8LdeeVIWI1D7H1cv-hFRB7cqtlfYbMN7KH9dkz0QZAtHDp_DI9_jbTS8hmPZGuJ2mm1c-2CWFKh52ylNQvYL2lLZA807j_ZzQscH67ChHIMFyo1nmOFsDuRy5xv6k3LaNCa5oamquTOheKfEViAbL5J0syjiVcH-xkAlBtDwNOp0pseHRyAHiHBjs6XZuSMRT3sbvc9LM1D8rXdUSegrnGvyHzQrjURXRgd4Yj0vU9dNCKLN6d9u6sTuWIFKvY7f8pCWOrpuoEz1VTteK1JS-MRO0-xQ6DjkjsnUrSJjPfzXWcsEu6FSnVZghT4QROxOHnD4rCDpZ3op6gUSsBdodSjEDDySBbT7_hRKoFXPt5UFnIPFtiKwqw_BCjV68MFjdWtUPOt249QSf8uxeiEQFb4PV5-azml6CbtCIaqFGLfJlbTEjB8K7nnZg-ZCnngFCGUgKCee6HbkPVyYzSAuzljakBg2huOOm26awd083ltK6D_lVI0v4nQHUZK4jSD3o9sA7ym_KwQ1A7v49w1cQyfqedV1KcpcMDFHTyKDRjSuGDLwFEz1-YL47LzvTLzDd5clmCPMBgq7q7qK9oxyzhqBsZWqONVsQhZDr0dPxLpOWMjTEmInD2P-s-OU-_Fgg6jeA-ZmrjpuSMElWxuoQ6Qmd7POuudisLwinDMnLCypbZpbFM6ed7VMdl-HkBVgMViSsVLPszDQjjQtwvFCwgb7zVzG9dDNzny0]--></g></svg>